<?xml version="1.0" encoding="UTF-8"?>
<svg xmlns="http://www.w3.org/2000/svg" width="581" height="653">
   <defs>
      <style type="text/css">
    @namespace "http://www.w3.org/2000/svg";
    .line                 {fill: none; stroke: #332900; stroke-width: 1;}
    .bold-line            {stroke: #141000; shape-rendering: crispEdges; stroke-width: 2;}
    .thin-line            {stroke: #1F1800; shape-rendering: crispEdges}
    .filled               {fill: #332900; stroke: none;}
    text.terminal         {font-family: Verdana, Sans-serif;
                            font-size: 12px;
                            fill: #141000;
                            font-weight: bold;
                          }
    text.nonterminal      {font-family: Verdana, Sans-serif;
                            font-size: 12px;
                            fill: #1A1400;
                            font-weight: normal;
                          }
    text.regexp           {font-family: Verdana, Sans-serif;
                            font-size: 12px;
                            fill: #1F1800;
                            font-weight: normal;
                          }
    rect, circle, polygon {fill: #332900; stroke: #332900;}
    rect.terminal         {fill: #FFDB4D; stroke: #332900; stroke-width: 1;}
    rect.nonterminal      {fill: #FFEC9E; stroke: #332900; stroke-width: 1;}
    rect.text             {fill: none; stroke: none;}
    polygon.regexp        {fill: #FFF4C7; stroke: #332900; stroke-width: 1;}
  </style>
   </defs>
   <polygon points="9 17 1 13 1 21"/>
   <polygon points="17 17 9 13 9 21"/>
   <rect x="71" y="3" width="58" height="32" rx="10"/>
   <rect x="69"
         y="1"
         width="58"
         height="32"
         class="terminal"
         rx="10"/>
   <text class="terminal" x="79" y="21">count</text>
   <rect x="71" y="47" width="88" height="32" rx="10"/>
   <rect x="69"
         y="45"
         width="88"
         height="32"
         class="terminal"
         rx="10"/>
   <text class="terminal" x="79" y="65">count_big</text>
   <rect x="199" y="3" width="26" height="32" rx="10"/>
   <rect x="197"
         y="1"
         width="26"
         height="32"
         class="terminal"
         rx="10"/>
   <text class="terminal" x="207" y="21">(</text>
   <rect x="245" y="3" width="28" height="32" rx="10"/>
   <rect x="243"
         y="1"
         width="28"
         height="32"
         class="terminal"
         rx="10"/>
   <text class="terminal" x="253" y="21">*</text>
   <rect x="71" y="91" width="58" height="32" rx="10"/>
   <rect x="69"
         y="89"
         width="58"
         height="32"
         class="terminal"
         rx="10"/>
   <text class="terminal" x="79" y="109">count</text>
   <rect x="71" y="135" width="88" height="32" rx="10"/>
   <rect x="69"
         y="133"
         width="88"
         height="32"
         class="terminal"
         rx="10"/>
   <text class="terminal" x="79" y="153">count_big</text>
   <rect x="71" y="179" width="48" height="32" rx="10"/>
   <rect x="69"
         y="177"
         width="48"
         height="32"
         class="terminal"
         rx="10"/>
   <text class="terminal" x="79" y="197">sum</text>
   <rect x="71" y="223" width="44" height="32" rx="10"/>
   <rect x="69"
         y="221"
         width="44"
         height="32"
         class="terminal"
         rx="10"/>
   <text class="terminal" x="79" y="241">avg</text>
   <rect x="71" y="267" width="44" height="32" rx="10"/>
   <rect x="69"
         y="265"
         width="44"
         height="32"
         class="terminal"
         rx="10"/>
   <text class="terminal" x="79" y="285">min</text>
   <rect x="71" y="311" width="48" height="32" rx="10"/>
   <rect x="69"
         y="309"
         width="48"
         height="32"
         class="terminal"
         rx="10"/>
   <text class="terminal" x="79" y="329">max</text>
   <rect x="71" y="355" width="58" height="32" rx="10"/>
   <rect x="69"
         y="353"
         width="58"
         height="32"
         class="terminal"
         rx="10"/>
   <text class="terminal" x="79" y="373">every</text>
   <rect x="71" y="399" width="98" height="32" rx="10"/>
   <rect x="69"
         y="397"
         width="98"
         height="32"
         class="terminal"
         rx="10"/>
   <text class="terminal" x="79" y="417">stddev_pop</text>
   <rect x="71" y="443" width="110" height="32" rx="10"/>
   <rect x="69"
         y="441"
         width="110"
         height="32"
         class="terminal"
         rx="10"/>
   <text class="terminal" x="79" y="461">stddev_samp</text>
   <rect x="71" y="487" width="86" height="32" rx="10"/>
   <rect x="69"
         y="485"
         width="86"
         height="32"
         class="terminal"
         rx="10"/>
   <text class="terminal" x="79" y="505">var_samp</text>
   <rect x="71" y="531" width="76" height="32" rx="10"/>
   <rect x="69"
         y="529"
         width="76"
         height="32"
         class="terminal"
         rx="10"/>
   <text class="terminal" x="79" y="549">var_pop</text>
   <rect x="71" y="575" width="56" height="32" rx="10"/>
   <rect x="69"
         y="573"
         width="56"
         height="32"
         class="terminal"
         rx="10"/>
   <text class="terminal" x="79" y="593">some</text>
   <rect x="71" y="619" width="44" height="32" rx="10"/>
   <rect x="69"
         y="617"
         width="44"
         height="32"
         class="terminal"
         rx="10"/>
   <text class="terminal" x="79" y="637">any</text>
   <rect x="221" y="91" width="26" height="32" rx="10"/>
   <rect x="219"
         y="89"
         width="26"
         height="32"
         class="terminal"
         rx="10"/>
   <text class="terminal" x="229" y="109">(</text>
   <rect x="287" y="123" width="70" height="32" rx="10"/>
   <rect x="285"
         y="121"
         width="70"
         height="32"
         class="terminal"
         rx="10"/>
   <text class="terminal" x="295" y="141">distinct</text>
   <rect x="287" y="167" width="36" height="32" rx="10"/>
   <rect x="285"
         y="165"
         width="36"
         height="32"
         class="terminal"
         rx="10"/>
   <text class="terminal" x="295" y="185">all</text>
   <a xmlns:xlink="http://www.w3.org/1999/xlink"
      xlink:href="#expression"
      xlink:title="expression">
      <rect x="397" y="91" width="90" height="32"/>
      <rect x="395" y="89" width="90" height="32" class="nonterminal"/>
      <text class="nonterminal" x="405" y="109">expression</text>
   </a>
   <rect x="527" y="3" width="26" height="32" rx="10"/>
   <rect x="525"
         y="1"
         width="26"
         height="32"
         class="terminal"
         rx="10"/>
   <text class="terminal" x="535" y="21">)</text>
   <path class="line"
         d="m17 17 h2 m40 0 h10 m58 0 h10 m0 0 h30 m-128 0 h20 m108 0 h20 m-148 0 q10 0 10 10 m128 0 q0 -10 10 -10 m-138 10 v24 m128 0 v-24 m-128 24 q0 10 10 10 m108 0 q10 0 10 -10 m-118 10 h10 m88 0 h10 m20 -44 h10 m26 0 h10 m0 0 h10 m28 0 h10 m0 0 h214 m-476 0 h20 m456 0 h20 m-496 0 q10 0 10 10 m476 0 q0 -10 10 -10 m-486 10 v68 m476 0 v-68 m-476 68 q0 10 10 10 m456 0 q10 0 10 -10 m-446 10 h10 m58 0 h10 m0 0 h52 m-150 0 h20 m130 0 h20 m-170 0 q10 0 10 10 m150 0 q0 -10 10 -10 m-160 10 v24 m150 0 v-24 m-150 24 q0 10 10 10 m130 0 q10 0 10 -10 m-140 10 h10 m88 0 h10 m0 0 h22 m-140 -10 v20 m150 0 v-20 m-150 20 v24 m150 0 v-24 m-150 24 q0 10 10 10 m130 0 q10 0 10 -10 m-140 10 h10 m48 0 h10 m0 0 h62 m-140 -10 v20 m150 0 v-20 m-150 20 v24 m150 0 v-24 m-150 24 q0 10 10 10 m130 0 q10 0 10 -10 m-140 10 h10 m44 0 h10 m0 0 h66 m-140 -10 v20 m150 0 v-20 m-150 20 v24 m150 0 v-24 m-150 24 q0 10 10 10 m130 0 q10 0 10 -10 m-140 10 h10 m44 0 h10 m0 0 h66 m-140 -10 v20 m150 0 v-20 m-150 20 v24 m150 0 v-24 m-150 24 q0 10 10 10 m130 0 q10 0 10 -10 m-140 10 h10 m48 0 h10 m0 0 h62 m-140 -10 v20 m150 0 v-20 m-150 20 v24 m150 0 v-24 m-150 24 q0 10 10 10 m130 0 q10 0 10 -10 m-140 10 h10 m58 0 h10 m0 0 h52 m-140 -10 v20 m150 0 v-20 m-150 20 v24 m150 0 v-24 m-150 24 q0 10 10 10 m130 0 q10 0 10 -10 m-140 10 h10 m98 0 h10 m0 0 h12 m-140 -10 v20 m150 0 v-20 m-150 20 v24 m150 0 v-24 m-150 24 q0 10 10 10 m130 0 q10 0 10 -10 m-140 10 h10 m110 0 h10 m-140 -10 v20 m150 0 v-20 m-150 20 v24 m150 0 v-24 m-150 24 q0 10 10 10 m130 0 q10 0 10 -10 m-140 10 h10 m86 0 h10 m0 0 h24 m-140 -10 v20 m150 0 v-20 m-150 20 v24 m150 0 v-24 m-150 24 q0 10 10 10 m130 0 q10 0 10 -10 m-140 10 h10 m76 0 h10 m0 0 h34 m-140 -10 v20 m150 0 v-20 m-150 20 v24 m150 0 v-24 m-150 24 q0 10 10 10 m130 0 q10 0 10 -10 m-140 10 h10 m56 0 h10 m0 0 h54 m-140 -10 v20 m150 0 v-20 m-150 20 v24 m150 0 v-24 m-150 24 q0 10 10 10 m130 0 q10 0 10 -10 m-140 10 h10 m44 0 h10 m0 0 h66 m20 -528 h10 m26 0 h10 m20 0 h10 m0 0 h80 m-110 0 h20 m90 0 h20 m-130 0 q10 0 10 10 m110 0 q0 -10 10 -10 m-120 10 v12 m110 0 v-12 m-110 12 q0 10 10 10 m90 0 q10 0 10 -10 m-100 10 h10 m70 0 h10 m-100 -10 v20 m110 0 v-20 m-110 20 v24 m110 0 v-24 m-110 24 q0 10 10 10 m90 0 q10 0 10 -10 m-100 10 h10 m36 0 h10 m0 0 h34 m20 -76 h10 m90 0 h10 m20 -88 h10 m26 0 h10 m3 0 h-3"/>
   <polygon points="571 17 579 13 579 21"/>
   <polygon points="571 17 563 13 563 21"/>
</svg>
