<?xml version="1.0" encoding="UTF-8"?>
<svg xmlns="http://www.w3.org/2000/svg" width="789" height="125">
   <defs>
      <style type="text/css">
    @namespace "http://www.w3.org/2000/svg";
    .line                 {fill: none; stroke: #332900; stroke-width: 1;}
    .bold-line            {stroke: #141000; shape-rendering: crispEdges; stroke-width: 2;}
    .thin-line            {stroke: #1F1800; shape-rendering: crispEdges}
    .filled               {fill: #332900; stroke: none;}
    text.terminal         {font-family: Verdana, Sans-serif;
                            font-size: 12px;
                            fill: #141000;
                            font-weight: bold;
                          }
    text.nonterminal      {font-family: Verdana, Sans-serif;
                            font-size: 12px;
                            fill: #1A1400;
                            font-weight: normal;
                          }
    text.regexp           {font-family: Verdana, Sans-serif;
                            font-size: 12px;
                            fill: #1F1800;
                            font-weight: normal;
                          }
    rect, circle, polygon {fill: #332900; stroke: #332900;}
    rect.terminal         {fill: #FFDB4D; stroke: #332900; stroke-width: 1;}
    rect.nonterminal      {fill: #FFEC9E; stroke: #332900; stroke-width: 1;}
    rect.text             {fill: none; stroke: none;}
    polygon.regexp        {fill: #FFF4C7; stroke: #332900; stroke-width: 1;}
  </style>
   </defs>
   <polygon points="9 17 1 13 1 21"/>
   <polygon points="17 17 9 13 9 21"/>
   <rect x="31" y="3" width="66" height="32" rx="10"/>
   <rect x="29"
         y="1"
         width="66"
         height="32"
         class="terminal"
         rx="10"/>
   <text class="terminal" x="39" y="21">trigger</text>
   <rect x="117" y="3" width="36" height="32" rx="10"/>
   <rect x="115"
         y="1"
         width="36"
         height="32"
         class="terminal"
         rx="10"/>
   <text class="terminal" x="125" y="21">on</text>
   <a xmlns:xlink="http://www.w3.org/1999/xlink"
      xlink:href="#id"
      xlink:title="id">
      <rect x="173" y="3" width="30" height="32"/>
      <rect x="171" y="1" width="30" height="32" class="nonterminal"/>
      <text class="nonterminal" x="181" y="21">id</text>
   </a>
   <rect x="223" y="3" width="70" height="32" rx="10"/>
   <rect x="221"
         y="1"
         width="70"
         height="32"
         class="terminal"
         rx="10"/>
   <text class="terminal" x="231" y="21">instead</text>
   <rect x="313" y="3" width="32" height="32" rx="10"/>
   <rect x="311"
         y="1"
         width="32"
         height="32"
         class="terminal"
         rx="10"/>
   <text class="terminal" x="321" y="21">of</text>
   <rect x="385" y="3" width="58" height="32" rx="10"/>
   <rect x="383"
         y="1"
         width="58"
         height="32"
         class="terminal"
         rx="10"/>
   <text class="terminal" x="393" y="21">insert</text>
   <rect x="385" y="47" width="66" height="32" rx="10"/>
   <rect x="383"
         y="45"
         width="66"
         height="32"
         class="terminal"
         rx="10"/>
   <text class="terminal" x="393" y="65">update</text>
   <rect x="385" y="91" width="62" height="32" rx="10"/>
   <rect x="383"
         y="89"
         width="62"
         height="32"
         class="terminal"
         rx="10"/>
   <text class="terminal" x="393" y="109">delete</text>
   <rect x="511" y="3" width="34" height="32" rx="10"/>
   <rect x="509"
         y="1"
         width="34"
         height="32"
         class="terminal"
         rx="10"/>
   <text class="terminal" x="519" y="21">as</text>
   <a xmlns:xlink="http://www.w3.org/1999/xlink"
      xlink:href="#forEachRowTriggerAction"
      xlink:title="forEachRowTriggerAction">
      <rect x="565" y="3" width="176" height="32"/>
      <rect x="563" y="1" width="176" height="32" class="nonterminal"/>
      <text class="nonterminal" x="573" y="21">forEachRowTriggerAction</text>
   </a>
   <rect x="511" y="47" width="72" height="32" rx="10"/>
   <rect x="509"
         y="45"
         width="72"
         height="32"
         class="terminal"
         rx="10"/>
   <text class="terminal" x="519" y="65">enabled</text>
   <rect x="511" y="91" width="76" height="32" rx="10"/>
   <rect x="509"
         y="89"
         width="76"
         height="32"
         class="terminal"
         rx="10"/>
   <text class="terminal" x="519" y="109">disabled</text>
   <path class="line"
         d="m17 17 h2 m0 0 h10 m66 0 h10 m0 0 h10 m36 0 h10 m0 0 h10 m30 0 h10 m0 0 h10 m70 0 h10 m0 0 h10 m32 0 h10 m20 0 h10 m58 0 h10 m0 0 h8 m-106 0 h20 m86 0 h20 m-126 0 q10 0 10 10 m106 0 q0 -10 10 -10 m-116 10 v24 m106 0 v-24 m-106 24 q0 10 10 10 m86 0 q10 0 10 -10 m-96 10 h10 m66 0 h10 m-96 -10 v20 m106 0 v-20 m-106 20 v24 m106 0 v-24 m-106 24 q0 10 10 10 m86 0 q10 0 10 -10 m-96 10 h10 m62 0 h10 m0 0 h4 m40 -88 h10 m34 0 h10 m0 0 h10 m176 0 h10 m-270 0 h20 m250 0 h20 m-290 0 q10 0 10 10 m270 0 q0 -10 10 -10 m-280 10 v24 m270 0 v-24 m-270 24 q0 10 10 10 m250 0 q10 0 10 -10 m-260 10 h10 m72 0 h10 m0 0 h158 m-260 -10 v20 m270 0 v-20 m-270 20 v24 m270 0 v-24 m-270 24 q0 10 10 10 m250 0 q10 0 10 -10 m-260 10 h10 m76 0 h10 m0 0 h154 m23 -88 h-3"/>
   <polygon points="779 17 787 13 787 21"/>
   <polygon points="779 17 771 13 771 21"/>
</svg>
