<?xml version="1.0" encoding="UTF-8"?>
<svg xmlns="http://www.w3.org/2000/svg" width="727" height="157">
   <defs>
      <style type="text/css">
    @namespace "http://www.w3.org/2000/svg";
    .line                 {fill: none; stroke: #332900; stroke-width: 1;}
    .bold-line            {stroke: #141000; shape-rendering: crispEdges; stroke-width: 2;}
    .thin-line            {stroke: #1F1800; shape-rendering: crispEdges}
    .filled               {fill: #332900; stroke: none;}
    text.terminal         {font-family: Verdana, Sans-serif;
                            font-size: 12px;
                            fill: #141000;
                            font-weight: bold;
                          }
    text.nonterminal      {font-family: Verdana, Sans-serif;
                            font-size: 12px;
                            fill: #1A1400;
                            font-weight: normal;
                          }
    text.regexp           {font-family: Verdana, Sans-serif;
                            font-size: 12px;
                            fill: #1F1800;
                            font-weight: normal;
                          }
    rect, circle, polygon {fill: #332900; stroke: #332900;}
    rect.terminal         {fill: #FFDB4D; stroke: #332900; stroke-width: 1;}
    rect.nonterminal      {fill: #FFEC9E; stroke: #332900; stroke-width: 1;}
    rect.text             {fill: none; stroke: none;}
    polygon.regexp        {fill: #FFF4C7; stroke: #332900; stroke-width: 1;}
  </style>
   </defs>
   <polygon points="9 17 1 13 1 21"/>
   <polygon points="17 17 9 13 9 21"/>
   <a xmlns:xlink="http://www.w3.org/1999/xlink"
      xlink:href="#id"
      xlink:title="id">
      <rect x="31" y="3" width="30" height="32"/>
      <rect x="29" y="1" width="30" height="32" class="nonterminal"/>
      <text class="nonterminal" x="39" y="21">id</text>
   </a>
   <rect x="101" y="3" width="50" height="32" rx="10"/>
   <rect x="99"
         y="1"
         width="50"
         height="32"
         class="terminal"
         rx="10"/>
   <text class="terminal" x="109" y="21">type</text>
   <rect x="191" y="3" width="56" height="32" rx="10"/>
   <rect x="189"
         y="1"
         width="56"
         height="32"
         class="terminal"
         rx="10"/>
   <text class="terminal" x="199" y="21">serial</text>
   <a xmlns:xlink="http://www.w3.org/1999/xlink"
      xlink:href="#parseDataType"
      xlink:title="parseDataType">
      <rect x="191" y="47" width="116" height="32"/>
      <rect x="189" y="45" width="116" height="32" class="nonterminal"/>
      <text class="nonterminal" x="199" y="65">parseDataType</text>
   </a>
   <rect x="347" y="79" width="42" height="32" rx="10"/>
   <rect x="345"
         y="77"
         width="42"
         height="32"
         class="terminal"
         rx="10"/>
   <text class="terminal" x="355" y="97">not</text>
   <rect x="409" y="79" width="44" height="32" rx="10"/>
   <rect x="407"
         y="77"
         width="44"
         height="32"
         class="terminal"
         rx="10"/>
   <text class="terminal" x="417" y="97">null</text>
   <rect x="513" y="79" width="126" height="32" rx="10"/>
   <rect x="511"
         y="77"
         width="126"
         height="32"
         class="terminal"
         rx="10"/>
   <text class="terminal" x="521" y="97">auto_increment</text>
   <a xmlns:xlink="http://www.w3.org/1999/xlink"
      xlink:href="#alterChildOptionsList"
      xlink:title="alterChildOptionsList">
      <rect x="101" y="123" width="152" height="32"/>
      <rect x="99" y="121" width="152" height="32" class="nonterminal"/>
      <text class="nonterminal" x="109" y="141">alterChildOptionsList</text>
   </a>
   <path class="line"
         d="m17 17 h2 m0 0 h10 m30 0 h10 m20 0 h10 m50 0 h10 m20 0 h10 m56 0 h10 m0 0 h412 m-508 0 h20 m488 0 h20 m-528 0 q10 0 10 10 m508 0 q0 -10 10 -10 m-518 10 v24 m508 0 v-24 m-508 24 q0 10 10 10 m488 0 q10 0 10 -10 m-498 10 h10 m116 0 h10 m20 0 h10 m0 0 h116 m-146 0 h20 m126 0 h20 m-166 0 q10 0 10 10 m146 0 q0 -10 10 -10 m-156 10 v12 m146 0 v-12 m-146 12 q0 10 10 10 m126 0 q10 0 10 -10 m-136 10 h10 m42 0 h10 m0 0 h10 m44 0 h10 m40 -32 h10 m0 0 h136 m-166 0 h20 m146 0 h20 m-186 0 q10 0 10 10 m166 0 q0 -10 10 -10 m-176 10 v12 m166 0 v-12 m-166 12 q0 10 10 10 m146 0 q10 0 10 -10 m-156 10 h10 m126 0 h10 m-578 -76 h20 m598 0 h20 m-638 0 q10 0 10 10 m618 0 q0 -10 10 -10 m-628 10 v100 m618 0 v-100 m-618 100 q0 10 10 10 m598 0 q10 0 10 -10 m-608 10 h10 m152 0 h10 m0 0 h426 m23 -120 h-3"/>
   <polygon points="717 17 725 13 725 21"/>
   <polygon points="717 17 709 13 709 21"/>
</svg>
