<?xml version="1.0" encoding="UTF-8"?>
<svg xmlns="http://www.w3.org/2000/svg" width="459" height="113">
   <defs>
      <style type="text/css">
    @namespace "http://www.w3.org/2000/svg";
    .line                 {fill: none; stroke: #332900; stroke-width: 1;}
    .bold-line            {stroke: #141000; shape-rendering: crispEdges; stroke-width: 2;}
    .thin-line            {stroke: #1F1800; shape-rendering: crispEdges}
    .filled               {fill: #332900; stroke: none;}
    text.terminal         {font-family: Verdana, Sans-serif;
                            font-size: 12px;
                            fill: #141000;
                            font-weight: bold;
                          }
    text.nonterminal      {font-family: Verdana, Sans-serif;
                            font-size: 12px;
                            fill: #1A1400;
                            font-weight: normal;
                          }
    text.regexp           {font-family: Verdana, Sans-serif;
                            font-size: 12px;
                            fill: #1F1800;
                            font-weight: normal;
                          }
    rect, circle, polygon {fill: #332900; stroke: #332900;}
    rect.terminal         {fill: #FFDB4D; stroke: #332900; stroke-width: 1;}
    rect.nonterminal      {fill: #FFEC9E; stroke: #332900; stroke-width: 1;}
    rect.text             {fill: none; stroke: none;}
    polygon.regexp        {fill: #FFF4C7; stroke: #332900; stroke-width: 1;}
  </style>
   </defs>
   <polygon points="9 17 1 13 1 21"/>
   <polygon points="17 17 9 13 9 21"/>
   <a xmlns:xlink="http://www.w3.org/1999/xlink"
      xlink:href="#id"
      xlink:title="id">
      <rect x="31" y="3" width="30" height="32"/>
      <rect x="29" y="1" width="30" height="32" class="nonterminal"/>
      <text class="nonterminal" x="39" y="21">id</text>
   </a>
   <a xmlns:xlink="http://www.w3.org/1999/xlink"
      xlink:href="#nonNumericLiteral"
      xlink:title="nonNumericLiteral">
      <rect x="101" y="3" width="134" height="32"/>
      <rect x="99" y="1" width="134" height="32" class="nonterminal"/>
      <text class="nonterminal" x="109" y="21">nonNumericLiteral</text>
   </a>
   <a xmlns:xlink="http://www.w3.org/1999/xlink"
      xlink:href="#plusMinus"
      xlink:title="plusMinus">
      <rect x="121" y="79" width="82" height="32"/>
      <rect x="119" y="77" width="82" height="32" class="nonterminal"/>
      <text class="nonterminal" x="129" y="97">plusMinus</text>
   </a>
   <a xmlns:xlink="http://www.w3.org/1999/xlink"
      xlink:href="#unsignedNumericLiteral"
      xlink:title="unsignedNumericLiteral">
      <rect x="243" y="47" width="168" height="32"/>
      <rect x="241" y="45" width="168" height="32" class="nonterminal"/>
      <text class="nonterminal" x="251" y="65">unsignedNumericLiteral</text>
   </a>
   <path class="line"
         d="m17 17 h2 m0 0 h10 m30 0 h10 m20 0 h10 m134 0 h10 m0 0 h176 m-350 0 h20 m330 0 h20 m-370 0 q10 0 10 10 m350 0 q0 -10 10 -10 m-360 10 v24 m350 0 v-24 m-350 24 q0 10 10 10 m330 0 q10 0 10 -10 m-320 10 h10 m0 0 h92 m-122 0 h20 m102 0 h20 m-142 0 q10 0 10 10 m122 0 q0 -10 10 -10 m-132 10 v12 m122 0 v-12 m-122 12 q0 10 10 10 m102 0 q10 0 10 -10 m-112 10 h10 m82 0 h10 m20 -32 h10 m168 0 h10 m23 -44 h-3"/>
   <polygon points="449 17 457 13 457 21"/>
   <polygon points="449 17 441 13 441 21"/>
</svg>
