<?xml version="1.0" encoding="UTF-8"?>
<svg xmlns="http://www.w3.org/2000/svg" width="757" height="345">
   <defs>
      <style type="text/css">
    @namespace "http://www.w3.org/2000/svg";
    .line                 {fill: none; stroke: #332900; stroke-width: 1;}
    .bold-line            {stroke: #141000; shape-rendering: crispEdges; stroke-width: 2;}
    .thin-line            {stroke: #1F1800; shape-rendering: crispEdges}
    .filled               {fill: #332900; stroke: none;}
    text.terminal         {font-family: Verdana, Sans-serif;
                            font-size: 12px;
                            fill: #141000;
                            font-weight: bold;
                          }
    text.nonterminal      {font-family: Verdana, Sans-serif;
                            font-size: 12px;
                            fill: #1A1400;
                            font-weight: normal;
                          }
    text.regexp           {font-family: Verdana, Sans-serif;
                            font-size: 12px;
                            fill: #1F1800;
                            font-weight: normal;
                          }
    rect, circle, polygon {fill: #332900; stroke: #332900;}
    rect.terminal         {fill: #FFDB4D; stroke: #332900; stroke-width: 1;}
    rect.nonterminal      {fill: #FFEC9E; stroke: #332900; stroke-width: 1;}
    rect.text             {fill: none; stroke: none;}
    polygon.regexp        {fill: #FFF4C7; stroke: #332900; stroke-width: 1;}
  </style>
   </defs>
   <polygon points="9 17 1 13 1 21"/>
   <polygon points="17 17 9 13 9 21"/>
   <rect x="71" y="35" width="64" height="32" rx="10"/>
   <rect x="69"
         y="33"
         width="64"
         height="32"
         class="terminal"
         rx="10"/>
   <text class="terminal" x="79" y="53">virtual</text>
   <rect x="175" y="3" width="52" height="32" rx="10"/>
   <rect x="173"
         y="1"
         width="52"
         height="32"
         class="terminal"
         rx="10"/>
   <text class="terminal" x="183" y="21">view</text>
   <rect x="71" y="111" width="68" height="32" rx="10"/>
   <rect x="69"
         y="109"
         width="68"
         height="32"
         class="terminal"
         rx="10"/>
   <text class="terminal" x="79" y="129">foreign</text>
   <rect x="179" y="79" width="54" height="32" rx="10"/>
   <rect x="177"
         y="77"
         width="54"
         height="32"
         class="terminal"
         rx="10"/>
   <text class="terminal" x="187" y="97">table</text>
   <a xmlns:xlink="http://www.w3.org/1999/xlink"
      xlink:href="#id"
      xlink:title="id">
      <rect x="273" y="3" width="30" height="32"/>
      <rect x="271" y="1" width="30" height="32" class="nonterminal"/>
      <text class="nonterminal" x="281" y="21">id</text>
   </a>
   <rect x="343" y="3" width="34" height="32" rx="10"/>
   <rect x="341"
         y="1"
         width="34"
         height="32"
         class="terminal"
         rx="10"/>
   <text class="terminal" x="351" y="21">as</text>
   <a xmlns:xlink="http://www.w3.org/1999/xlink"
      xlink:href="#queryExpression"
      xlink:title="queryExpression">
      <rect x="397" y="3" width="126" height="32"/>
      <rect x="395" y="1" width="126" height="32" class="nonterminal"/>
      <text class="nonterminal" x="405" y="21">queryExpression</text>
   </a>
   <a xmlns:xlink="http://www.w3.org/1999/xlink"
      xlink:href="#alterAddColumn"
      xlink:title="alterAddColumn">
      <rect x="343" y="47" width="122" height="32"/>
      <rect x="341" y="45" width="122" height="32" class="nonterminal"/>
      <text class="nonterminal" x="351" y="65">alterAddColumn</text>
   </a>
   <a xmlns:xlink="http://www.w3.org/1999/xlink"
      xlink:href="#alterAddConstraint"
      xlink:title="alterAddConstraint">
      <rect x="343" y="91" width="140" height="32"/>
      <rect x="341" y="89" width="140" height="32" class="nonterminal"/>
      <text class="nonterminal" x="351" y="109">alterAddConstraint</text>
   </a>
   <a xmlns:xlink="http://www.w3.org/1999/xlink"
      xlink:href="#alterOptionsList"
      xlink:title="alterOptionsList">
      <rect x="343" y="135" width="120" height="32"/>
      <rect x="341" y="133" width="120" height="32" class="nonterminal"/>
      <text class="nonterminal" x="351" y="153">alterOptionsList</text>
   </a>
   <a xmlns:xlink="http://www.w3.org/1999/xlink"
      xlink:href="#alterDropColumn"
      xlink:title="alterDropColumn">
      <rect x="343" y="179" width="128" height="32"/>
      <rect x="341" y="177" width="128" height="32" class="nonterminal"/>
      <text class="nonterminal" x="351" y="197">alterDropColumn</text>
   </a>
   <rect x="343" y="223" width="52" height="32" rx="10"/>
   <rect x="341"
         y="221"
         width="52"
         height="32"
         class="terminal"
         rx="10"/>
   <text class="terminal" x="351" y="241">alter</text>
   <rect x="415" y="223" width="68" height="32" rx="10"/>
   <rect x="413"
         y="221"
         width="68"
         height="32"
         class="terminal"
         rx="10"/>
   <text class="terminal" x="423" y="241">column</text>
   <a xmlns:xlink="http://www.w3.org/1999/xlink"
      xlink:href="#alterColumn"
      xlink:title="alterColumn">
      <rect x="503" y="223" width="96" height="32"/>
      <rect x="501" y="221" width="96" height="32" class="nonterminal"/>
      <text class="nonterminal" x="511" y="241">alterColumn</text>
   </a>
   <rect x="343" y="267" width="70" height="32" rx="10"/>
   <rect x="341"
         y="265"
         width="70"
         height="32"
         class="terminal"
         rx="10"/>
   <text class="terminal" x="351" y="285">rename</text>
   <a xmlns:xlink="http://www.w3.org/1999/xlink"
      xlink:href="#alterRenameTable"
      xlink:title="alterRenameTable">
      <rect x="453" y="267" width="136" height="32"/>
      <rect x="451" y="265" width="136" height="32" class="nonterminal"/>
      <text class="nonterminal" x="461" y="285">alterRenameTable</text>
   </a>
   <rect x="453" y="311" width="68" height="32" rx="10"/>
   <rect x="451"
         y="309"
         width="68"
         height="32"
         class="terminal"
         rx="10"/>
   <text class="terminal" x="461" y="329">column</text>
   <a xmlns:xlink="http://www.w3.org/1999/xlink"
      xlink:href="#alterRenameColumn"
      xlink:title="alterRenameColumn">
      <rect x="541" y="311" width="148" height="32"/>
      <rect x="539" y="309" width="148" height="32" class="nonterminal"/>
      <text class="nonterminal" x="549" y="329">alterRenameColumn</text>
   </a>
   <path class="line"
         d="m17 17 h2 m40 0 h10 m0 0 h74 m-104 0 h20 m84 0 h20 m-124 0 q10 0 10 10 m104 0 q0 -10 10 -10 m-114 10 v12 m104 0 v-12 m-104 12 q0 10 10 10 m84 0 q10 0 10 -10 m-94 10 h10 m64 0 h10 m20 -32 h10 m52 0 h10 m0 0 h6 m-222 0 h20 m202 0 h20 m-242 0 q10 0 10 10 m222 0 q0 -10 10 -10 m-232 10 v56 m222 0 v-56 m-222 56 q0 10 10 10 m202 0 q10 0 10 -10 m-192 10 h10 m0 0 h78 m-108 0 h20 m88 0 h20 m-128 0 q10 0 10 10 m108 0 q0 -10 10 -10 m-118 10 v12 m108 0 v-12 m-108 12 q0 10 10 10 m88 0 q10 0 10 -10 m-98 10 h10 m68 0 h10 m20 -32 h10 m54 0 h10 m20 -76 h10 m30 0 h10 m20 0 h10 m34 0 h10 m0 0 h10 m126 0 h10 m0 0 h186 m-406 0 h20 m386 0 h20 m-426 0 q10 0 10 10 m406 0 q0 -10 10 -10 m-416 10 v24 m406 0 v-24 m-406 24 q0 10 10 10 m386 0 q10 0 10 -10 m-396 10 h10 m122 0 h10 m0 0 h244 m-396 -10 v20 m406 0 v-20 m-406 20 v24 m406 0 v-24 m-406 24 q0 10 10 10 m386 0 q10 0 10 -10 m-396 10 h10 m140 0 h10 m0 0 h226 m-396 -10 v20 m406 0 v-20 m-406 20 v24 m406 0 v-24 m-406 24 q0 10 10 10 m386 0 q10 0 10 -10 m-396 10 h10 m120 0 h10 m0 0 h246 m-396 -10 v20 m406 0 v-20 m-406 20 v24 m406 0 v-24 m-406 24 q0 10 10 10 m386 0 q10 0 10 -10 m-396 10 h10 m128 0 h10 m0 0 h238 m-396 -10 v20 m406 0 v-20 m-406 20 v24 m406 0 v-24 m-406 24 q0 10 10 10 m386 0 q10 0 10 -10 m-396 10 h10 m52 0 h10 m0 0 h10 m68 0 h10 m0 0 h10 m96 0 h10 m0 0 h110 m-396 -10 v20 m406 0 v-20 m-406 20 v24 m406 0 v-24 m-406 24 q0 10 10 10 m386 0 q10 0 10 -10 m-396 10 h10 m70 0 h10 m20 0 h10 m136 0 h10 m0 0 h100 m-276 0 h20 m256 0 h20 m-296 0 q10 0 10 10 m276 0 q0 -10 10 -10 m-286 10 v24 m276 0 v-24 m-276 24 q0 10 10 10 m256 0 q10 0 10 -10 m-266 10 h10 m68 0 h10 m0 0 h10 m148 0 h10 m43 -308 h-3"/>
   <polygon points="747 17 755 13 755 21"/>
   <polygon points="747 17 739 13 739 21"/>
</svg>
