<?xml version="1.0" encoding="UTF-8"?>
<svg xmlns="http://www.w3.org/2000/svg" width="285" height="257">
   <defs>
      <style type="text/css">
    @namespace "http://www.w3.org/2000/svg";
    .line                 {fill: none; stroke: #332900; stroke-width: 1;}
    .bold-line            {stroke: #141000; shape-rendering: crispEdges; stroke-width: 2;}
    .thin-line            {stroke: #1F1800; shape-rendering: crispEdges}
    .filled               {fill: #332900; stroke: none;}
    text.terminal         {font-family: Verdana, Sans-serif;
                            font-size: 12px;
                            fill: #141000;
                            font-weight: bold;
                          }
    text.nonterminal      {font-family: Verdana, Sans-serif;
                            font-size: 12px;
                            fill: #1A1400;
                            font-weight: normal;
                          }
    text.regexp           {font-family: Verdana, Sans-serif;
                            font-size: 12px;
                            fill: #1F1800;
                            font-weight: normal;
                          }
    rect, circle, polygon {fill: #332900; stroke: #332900;}
    rect.terminal         {fill: #FFDB4D; stroke: #332900; stroke-width: 1;}
    rect.nonterminal      {fill: #FFEC9E; stroke: #332900; stroke-width: 1;}
    rect.text             {fill: none; stroke: none;}
    polygon.regexp        {fill: #FFF4C7; stroke: #332900; stroke-width: 1;}
  </style>
   </defs>
   <polygon points="9 17 1 13 1 21"/>
   <polygon points="17 17 9 13 9 21"/>
   <rect x="31" y="3" width="52" height="32" rx="10"/>
   <rect x="29"
         y="1"
         width="52"
         height="32"
         class="terminal"
         rx="10"/>
   <text class="terminal" x="39" y="21">alter</text>
   <a xmlns:xlink="http://www.w3.org/1999/xlink"
      xlink:href="#alterTable"
      xlink:title="alterTable">
      <rect x="123" y="3" width="84" height="32"/>
      <rect x="121" y="1" width="84" height="32" class="nonterminal"/>
      <text class="nonterminal" x="131" y="21">alterTable</text>
   </a>
   <a xmlns:xlink="http://www.w3.org/1999/xlink"
      xlink:href="#alterProcedure"
      xlink:title="alterProcedure">
      <rect x="123" y="47" width="114" height="32"/>
      <rect x="121" y="45" width="114" height="32" class="nonterminal"/>
      <text class="nonterminal" x="131" y="65">alterProcedure</text>
   </a>
   <a xmlns:xlink="http://www.w3.org/1999/xlink"
      xlink:href="#alterTrigger"
      xlink:title="alterTrigger">
      <rect x="123" y="91" width="94" height="32"/>
      <rect x="121" y="89" width="94" height="32" class="nonterminal"/>
      <text class="nonterminal" x="131" y="109">alterTrigger</text>
   </a>
   <a xmlns:xlink="http://www.w3.org/1999/xlink"
      xlink:href="#alterServer"
      xlink:title="alterServer">
      <rect x="123" y="135" width="90" height="32"/>
      <rect x="121" y="133" width="90" height="32" class="nonterminal"/>
      <text class="nonterminal" x="131" y="153">alterServer</text>
   </a>
   <a xmlns:xlink="http://www.w3.org/1999/xlink"
      xlink:href="#alterTranslator"
      xlink:title="alterTranslator">
      <rect x="123" y="179" width="114" height="32"/>
      <rect x="121" y="177" width="114" height="32" class="nonterminal"/>
      <text class="nonterminal" x="131" y="197">alterTranslator</text>
   </a>
   <a xmlns:xlink="http://www.w3.org/1999/xlink"
      xlink:href="#alterDatabase"
      xlink:title="alterDatabase">
      <rect x="123" y="223" width="110" height="32"/>
      <rect x="121" y="221" width="110" height="32" class="nonterminal"/>
      <text class="nonterminal" x="131" y="241">alterDatabase</text>
   </a>
   <path class="line"
         d="m17 17 h2 m0 0 h10 m52 0 h10 m20 0 h10 m84 0 h10 m0 0 h30 m-154 0 h20 m134 0 h20 m-174 0 q10 0 10 10 m154 0 q0 -10 10 -10 m-164 10 v24 m154 0 v-24 m-154 24 q0 10 10 10 m134 0 q10 0 10 -10 m-144 10 h10 m114 0 h10 m-144 -10 v20 m154 0 v-20 m-154 20 v24 m154 0 v-24 m-154 24 q0 10 10 10 m134 0 q10 0 10 -10 m-144 10 h10 m94 0 h10 m0 0 h20 m-144 -10 v20 m154 0 v-20 m-154 20 v24 m154 0 v-24 m-154 24 q0 10 10 10 m134 0 q10 0 10 -10 m-144 10 h10 m90 0 h10 m0 0 h24 m-144 -10 v20 m154 0 v-20 m-154 20 v24 m154 0 v-24 m-154 24 q0 10 10 10 m134 0 q10 0 10 -10 m-144 10 h10 m114 0 h10 m-144 -10 v20 m154 0 v-20 m-154 20 v24 m154 0 v-24 m-154 24 q0 10 10 10 m134 0 q10 0 10 -10 m-144 10 h10 m110 0 h10 m0 0 h4 m23 -220 h-3"/>
   <polygon points="275 17 283 13 283 21"/>
   <polygon points="275 17 267 13 267 21"/>
</svg>
