<?xml version="1.0" encoding="UTF-8"?>
<svg xmlns="http://www.w3.org/2000/svg" width="733" height="169">
   <defs>
      <style type="text/css">
    @namespace "http://www.w3.org/2000/svg";
    .line                 {fill: none; stroke: #332900; stroke-width: 1;}
    .bold-line            {stroke: #141000; shape-rendering: crispEdges; stroke-width: 2;}
    .thin-line            {stroke: #1F1800; shape-rendering: crispEdges}
    .filled               {fill: #332900; stroke: none;}
    text.terminal         {font-family: Verdana, Sans-serif;
                            font-size: 12px;
                            fill: #141000;
                            font-weight: bold;
                          }
    text.nonterminal      {font-family: Verdana, Sans-serif;
                            font-size: 12px;
                            fill: #1A1400;
                            font-weight: normal;
                          }
    text.regexp           {font-family: Verdana, Sans-serif;
                            font-size: 12px;
                            fill: #1F1800;
                            font-weight: normal;
                          }
    rect, circle, polygon {fill: #332900; stroke: #332900;}
    rect.terminal         {fill: #FFDB4D; stroke: #332900; stroke-width: 1;}
    rect.nonterminal      {fill: #FFEC9E; stroke: #332900; stroke-width: 1;}
    rect.text             {fill: none; stroke: none;}
    polygon.regexp        {fill: #FFF4C7; stroke: #332900; stroke-width: 1;}
  </style>
   </defs>
   <polygon points="9 17 1 13 1 21"/>
   <polygon points="17 17 9 13 9 21"/>
   <rect x="51" y="35" width="64" height="32" rx="10"/>
   <rect x="49"
         y="33"
         width="64"
         height="32"
         class="terminal"
         rx="10"/>
   <text class="terminal" x="59" y="53">virtual</text>
   <rect x="51" y="79" width="68" height="32" rx="10"/>
   <rect x="49"
         y="77"
         width="68"
         height="32"
         class="terminal"
         rx="10"/>
   <text class="terminal" x="59" y="97">foreign</text>
   <rect x="159" y="3" width="88" height="32" rx="10"/>
   <rect x="157"
         y="1"
         width="88"
         height="32"
         class="terminal"
         rx="10"/>
   <text class="terminal" x="167" y="21">procedure</text>
   <a xmlns:xlink="http://www.w3.org/1999/xlink"
      xlink:href="#id"
      xlink:title="id">
      <rect x="267" y="3" width="30" height="32"/>
      <rect x="265" y="1" width="30" height="32" class="nonterminal"/>
      <text class="nonterminal" x="275" y="21">id</text>
   </a>
   <rect x="337" y="3" width="34" height="32" rx="10"/>
   <rect x="335"
         y="1"
         width="34"
         height="32"
         class="terminal"
         rx="10"/>
   <text class="terminal" x="345" y="21">as</text>
   <a xmlns:xlink="http://www.w3.org/1999/xlink"
      xlink:href="#statement"
      xlink:title="statement">
      <rect x="391" y="3" width="86" height="32"/>
      <rect x="389" y="1" width="86" height="32" class="nonterminal"/>
      <text class="nonterminal" x="399" y="21">statement</text>
   </a>
   <a xmlns:xlink="http://www.w3.org/1999/xlink"
      xlink:href="#alterOptionsList"
      xlink:title="alterOptionsList">
      <rect x="337" y="47" width="120" height="32"/>
      <rect x="335" y="45" width="120" height="32" class="nonterminal"/>
      <text class="nonterminal" x="345" y="65">alterOptionsList</text>
   </a>
   <rect x="337" y="91" width="52" height="32" rx="10"/>
   <rect x="335"
         y="89"
         width="52"
         height="32"
         class="terminal"
         rx="10"/>
   <text class="terminal" x="345" y="109">alter</text>
   <rect x="409" y="91" width="90" height="32" rx="10"/>
   <rect x="407"
         y="89"
         width="90"
         height="32"
         class="terminal"
         rx="10"/>
   <text class="terminal" x="417" y="109">parameter</text>
   <a xmlns:xlink="http://www.w3.org/1999/xlink"
      xlink:href="#alterColumn"
      xlink:title="alterColumn">
      <rect x="519" y="91" width="96" height="32"/>
      <rect x="517" y="89" width="96" height="32" class="nonterminal"/>
      <text class="nonterminal" x="527" y="109">alterColumn</text>
   </a>
   <rect x="337" y="135" width="70" height="32" rx="10"/>
   <rect x="335"
         y="133"
         width="70"
         height="32"
         class="terminal"
         rx="10"/>
   <text class="terminal" x="345" y="153">rename</text>
   <rect x="427" y="135" width="90" height="32" rx="10"/>
   <rect x="425"
         y="133"
         width="90"
         height="32"
         class="terminal"
         rx="10"/>
   <text class="terminal" x="435" y="153">parameter</text>
   <a xmlns:xlink="http://www.w3.org/1999/xlink"
      xlink:href="#alterRenameColumn"
      xlink:title="alterRenameColumn">
      <rect x="537" y="135" width="148" height="32"/>
      <rect x="535" y="133" width="148" height="32" class="nonterminal"/>
      <text class="nonterminal" x="545" y="153">alterRenameColumn</text>
   </a>
   <path class="line"
         d="m17 17 h2 m20 0 h10 m0 0 h78 m-108 0 h20 m88 0 h20 m-128 0 q10 0 10 10 m108 0 q0 -10 10 -10 m-118 10 v12 m108 0 v-12 m-108 12 q0 10 10 10 m88 0 q10 0 10 -10 m-98 10 h10 m64 0 h10 m0 0 h4 m-98 -10 v20 m108 0 v-20 m-108 20 v24 m108 0 v-24 m-108 24 q0 10 10 10 m88 0 q10 0 10 -10 m-98 10 h10 m68 0 h10 m20 -76 h10 m88 0 h10 m0 0 h10 m30 0 h10 m20 0 h10 m34 0 h10 m0 0 h10 m86 0 h10 m0 0 h208 m-388 0 h20 m368 0 h20 m-408 0 q10 0 10 10 m388 0 q0 -10 10 -10 m-398 10 v24 m388 0 v-24 m-388 24 q0 10 10 10 m368 0 q10 0 10 -10 m-378 10 h10 m120 0 h10 m0 0 h228 m-378 -10 v20 m388 0 v-20 m-388 20 v24 m388 0 v-24 m-388 24 q0 10 10 10 m368 0 q10 0 10 -10 m-378 10 h10 m52 0 h10 m0 0 h10 m90 0 h10 m0 0 h10 m96 0 h10 m0 0 h70 m-378 -10 v20 m388 0 v-20 m-388 20 v24 m388 0 v-24 m-388 24 q0 10 10 10 m368 0 q10 0 10 -10 m-378 10 h10 m70 0 h10 m0 0 h10 m90 0 h10 m0 0 h10 m148 0 h10 m23 -132 h-3"/>
   <polygon points="723 17 731 13 731 21"/>
   <polygon points="723 17 715 13 715 21"/>
</svg>
