<?xml version="1.0" encoding="UTF-8"?>
<svg xmlns="http://www.w3.org/2000/svg" width="459" height="125">
   <defs>
      <style type="text/css">
    @namespace "http://www.w3.org/2000/svg";
    .line                 {fill: none; stroke: #332900; stroke-width: 1;}
    .bold-line            {stroke: #141000; shape-rendering: crispEdges; stroke-width: 2;}
    .thin-line            {stroke: #1F1800; shape-rendering: crispEdges}
    .filled               {fill: #332900; stroke: none;}
    text.terminal         {font-family: Verdana, Sans-serif;
                            font-size: 12px;
                            fill: #141000;
                            font-weight: bold;
                          }
    text.nonterminal      {font-family: Verdana, Sans-serif;
                            font-size: 12px;
                            fill: #1A1400;
                            font-weight: normal;
                          }
    text.regexp           {font-family: Verdana, Sans-serif;
                            font-size: 12px;
                            fill: #1F1800;
                            font-weight: normal;
                          }
    rect, circle, polygon {fill: #332900; stroke: #332900;}
    rect.terminal         {fill: #FFDB4D; stroke: #332900; stroke-width: 1;}
    rect.nonterminal      {fill: #FFEC9E; stroke: #332900; stroke-width: 1;}
    rect.text             {fill: none; stroke: none;}
    polygon.regexp        {fill: #FFF4C7; stroke: #332900; stroke-width: 1;}
  </style>
   </defs>
   <polygon points="9 61 1 57 1 65"/>
   <polygon points="17 61 9 57 9 65"/>
   <rect x="31" y="47" width="70" height="32" rx="10"/>
   <rect x="29"
         y="45"
         width="70"
         height="32"
         class="terminal"
         rx="10"/>
   <text class="terminal" x="39" y="65">options</text>
   <rect x="121" y="47" width="26" height="32" rx="10"/>
   <rect x="119"
         y="45"
         width="26"
         height="32"
         class="terminal"
         rx="10"/>
   <text class="terminal" x="129" y="65">(</text>
   <a xmlns:xlink="http://www.w3.org/1999/xlink"
      xlink:href="#addSetChildOption"
      xlink:title="addSetChildOption">
      <rect x="207" y="47" width="138" height="32"/>
      <rect x="205" y="45" width="138" height="32" class="nonterminal"/>
      <text class="nonterminal" x="215" y="65">addSetChildOption</text>
   </a>
   <a xmlns:xlink="http://www.w3.org/1999/xlink"
      xlink:href="#dropChildOption"
      xlink:title="dropChildOption">
      <rect x="207" y="91" width="122" height="32"/>
      <rect x="205" y="89" width="122" height="32" class="nonterminal"/>
      <text class="nonterminal" x="215" y="109">dropChildOption</text>
   </a>
   <rect x="187" y="3" width="24" height="32" rx="10"/>
   <rect x="185"
         y="1"
         width="24"
         height="32"
         class="terminal"
         rx="10"/>
   <text class="terminal" x="195" y="21">,</text>
   <rect x="405" y="47" width="26" height="32" rx="10"/>
   <rect x="403"
         y="45"
         width="26"
         height="32"
         class="terminal"
         rx="10"/>
   <text class="terminal" x="413" y="65">)</text>
   <path class="line"
         d="m17 61 h2 m0 0 h10 m70 0 h10 m0 0 h10 m26 0 h10 m40 0 h10 m138 0 h10 m-178 0 h20 m158 0 h20 m-198 0 q10 0 10 10 m178 0 q0 -10 10 -10 m-188 10 v24 m178 0 v-24 m-178 24 q0 10 10 10 m158 0 q10 0 10 -10 m-168 10 h10 m122 0 h10 m0 0 h16 m-198 -44 l20 0 m-1 0 q-9 0 -9 -10 l0 -24 q0 -10 10 -10 m198 44 l20 0 m-20 0 q10 0 10 -10 l0 -24 q0 -10 -10 -10 m-198 0 h10 m24 0 h10 m0 0 h154 m20 44 h10 m26 0 h10 m3 0 h-3"/>
   <polygon points="449 61 457 57 457 65"/>
   <polygon points="449 61 441 57 441 65"/>
</svg>
