<?xml version="1.0" encoding="UTF-8"?>
<svg xmlns="http://www.w3.org/2000/svg" width="301" height="213">
   <defs>
      <style type="text/css">
    @namespace "http://www.w3.org/2000/svg";
    .line                 {fill: none; stroke: #332900; stroke-width: 1;}
    .bold-line            {stroke: #141000; shape-rendering: crispEdges; stroke-width: 2;}
    .thin-line            {stroke: #1F1800; shape-rendering: crispEdges}
    .filled               {fill: #332900; stroke: none;}
    text.terminal         {font-family: Verdana, Sans-serif;
                            font-size: 12px;
                            fill: #141000;
                            font-weight: bold;
                          }
    text.nonterminal      {font-family: Verdana, Sans-serif;
                            font-size: 12px;
                            fill: #1A1400;
                            font-weight: normal;
                          }
    text.regexp           {font-family: Verdana, Sans-serif;
                            font-size: 12px;
                            fill: #1F1800;
                            font-weight: normal;
                          }
    rect, circle, polygon {fill: #332900; stroke: #332900;}
    rect.terminal         {fill: #FFDB4D; stroke: #332900; stroke-width: 1;}
    rect.nonterminal      {fill: #FFEC9E; stroke: #332900; stroke-width: 1;}
    rect.text             {fill: none; stroke: none;}
    polygon.regexp        {fill: #FFF4C7; stroke: #332900; stroke-width: 1;}
  </style>
   </defs>
   <polygon points="9 17 1 13 1 21"/>
   <polygon points="17 17 9 13 9 21"/>
   <rect x="51" y="3" width="106" height="32" rx="10"/>
   <rect x="49"
         y="1"
         width="106"
         height="32"
         class="terminal"
         rx="10"/>
   <text class="terminal" x="59" y="21">row_number</text>
   <rect x="51" y="47" width="50" height="32" rx="10"/>
   <rect x="49"
         y="45"
         width="50"
         height="32"
         class="terminal"
         rx="10"/>
   <text class="terminal" x="59" y="65">rank</text>
   <rect x="51" y="91" width="100" height="32" rx="10"/>
   <rect x="49"
         y="89"
         width="100"
         height="32"
         class="terminal"
         rx="10"/>
   <text class="terminal" x="59" y="109">dense_rank</text>
   <rect x="51" y="135" width="110" height="32" rx="10"/>
   <rect x="49"
         y="133"
         width="110"
         height="32"
         class="terminal"
         rx="10"/>
   <text class="terminal" x="59" y="153">percent_rank</text>
   <rect x="51" y="179" width="90" height="32" rx="10"/>
   <rect x="49"
         y="177"
         width="90"
         height="32"
         class="terminal"
         rx="10"/>
   <text class="terminal" x="59" y="197">cume_dist</text>
   <rect x="201" y="3" width="26" height="32" rx="10"/>
   <rect x="199"
         y="1"
         width="26"
         height="32"
         class="terminal"
         rx="10"/>
   <text class="terminal" x="209" y="21">(</text>
   <rect x="247" y="3" width="26" height="32" rx="10"/>
   <rect x="245"
         y="1"
         width="26"
         height="32"
         class="terminal"
         rx="10"/>
   <text class="terminal" x="255" y="21">)</text>
   <path class="line"
         d="m17 17 h2 m20 0 h10 m106 0 h10 m0 0 h4 m-150 0 h20 m130 0 h20 m-170 0 q10 0 10 10 m150 0 q0 -10 10 -10 m-160 10 v24 m150 0 v-24 m-150 24 q0 10 10 10 m130 0 q10 0 10 -10 m-140 10 h10 m50 0 h10 m0 0 h60 m-140 -10 v20 m150 0 v-20 m-150 20 v24 m150 0 v-24 m-150 24 q0 10 10 10 m130 0 q10 0 10 -10 m-140 10 h10 m100 0 h10 m0 0 h10 m-140 -10 v20 m150 0 v-20 m-150 20 v24 m150 0 v-24 m-150 24 q0 10 10 10 m130 0 q10 0 10 -10 m-140 10 h10 m110 0 h10 m-140 -10 v20 m150 0 v-20 m-150 20 v24 m150 0 v-24 m-150 24 q0 10 10 10 m130 0 q10 0 10 -10 m-140 10 h10 m90 0 h10 m0 0 h20 m20 -176 h10 m26 0 h10 m0 0 h10 m26 0 h10 m3 0 h-3"/>
   <polygon points="291 17 299 13 299 21"/>
   <polygon points="291 17 283 13 283 21"/>
</svg>
