<?xml version="1.0" encoding="UTF-8"?>
<svg xmlns="http://www.w3.org/2000/svg" width="935" height="179">
   <defs>
      <style type="text/css">
    @namespace "http://www.w3.org/2000/svg";
    .line                 {fill: none; stroke: #332900; stroke-width: 1;}
    .bold-line            {stroke: #141000; shape-rendering: crispEdges; stroke-width: 2;}
    .thin-line            {stroke: #1F1800; shape-rendering: crispEdges}
    .filled               {fill: #332900; stroke: none;}
    text.terminal         {font-family: Verdana, Sans-serif;
                            font-size: 12px;
                            fill: #141000;
                            font-weight: bold;
                          }
    text.nonterminal      {font-family: Verdana, Sans-serif;
                            font-size: 12px;
                            fill: #1A1400;
                            font-weight: normal;
                          }
    text.regexp           {font-family: Verdana, Sans-serif;
                            font-size: 12px;
                            fill: #1F1800;
                            font-weight: normal;
                          }
    rect, circle, polygon {fill: #332900; stroke: #332900;}
    rect.terminal         {fill: #FFDB4D; stroke: #332900; stroke-width: 1;}
    rect.nonterminal      {fill: #FFEC9E; stroke: #332900; stroke-width: 1;}
    rect.text             {fill: none; stroke: none;}
    polygon.regexp        {fill: #FFF4C7; stroke: #332900; stroke-width: 1;}
  </style>
   </defs>
   <polygon points="9 17 1 13 1 21"/>
   <polygon points="17 17 9 13 9 21"/>
   <rect x="31" y="3" width="90" height="32" rx="10"/>
   <rect x="29"
         y="1"
         width="90"
         height="32"
         class="terminal"
         rx="10"/>
   <text class="terminal" x="39" y="21">arraytable</text>
   <rect x="141" y="3" width="26" height="32" rx="10"/>
   <rect x="139"
         y="1"
         width="26"
         height="32"
         class="terminal"
         rx="10"/>
   <text class="terminal" x="149" y="21">(</text>
   <rect x="207" y="35" width="46" height="32" rx="10"/>
   <rect x="205"
         y="33"
         width="46"
         height="32"
         class="terminal"
         rx="10"/>
   <text class="terminal" x="215" y="53">row</text>
   <rect x="207" y="79" width="52" height="32" rx="10"/>
   <rect x="205"
         y="77"
         width="52"
         height="32"
         class="terminal"
         rx="10"/>
   <text class="terminal" x="215" y="97">rows</text>
   <a xmlns:xlink="http://www.w3.org/1999/xlink"
      xlink:href="#valueExpressionPrimary"
      xlink:title="valueExpressionPrimary">
      <rect x="299" y="3" width="172" height="32"/>
      <rect x="297" y="1" width="172" height="32" class="nonterminal"/>
      <text class="nonterminal" x="307" y="21">valueExpressionPrimary</text>
   </a>
   <rect x="491" y="3" width="76" height="32" rx="10"/>
   <rect x="489"
         y="1"
         width="76"
         height="32"
         class="terminal"
         rx="10"/>
   <text class="terminal" x="499" y="21">columns</text>
   <a xmlns:xlink="http://www.w3.org/1999/xlink"
      xlink:href="#createElementsWithTypes"
      xlink:title="createElementsWithTypes">
      <rect x="587" y="3" width="186" height="32"/>
      <rect x="585" y="1" width="186" height="32" class="nonterminal"/>
      <text class="nonterminal" x="595" y="21">createElementsWithTypes</text>
   </a>
   <rect x="793" y="3" width="26" height="32" rx="10"/>
   <rect x="791"
         y="1"
         width="26"
         height="32"
         class="terminal"
         rx="10"/>
   <text class="terminal" x="801" y="21">)</text>
   <rect x="859" y="35" width="34" height="32" rx="10"/>
   <rect x="857"
         y="33"
         width="34"
         height="32"
         class="terminal"
         rx="10"/>
   <text class="terminal" x="867" y="53">as</text>
   <a xmlns:xlink="http://www.w3.org/1999/xlink"
      xlink:href="#id"
      xlink:title="id">
      <rect x="877" y="145" width="30" height="32"/>
      <rect x="875" y="143" width="30" height="32" class="nonterminal"/>
      <text class="nonterminal" x="885" y="163">id</text>
   </a>
   <path class="line"
         d="m17 17 h2 m0 0 h10 m90 0 h10 m0 0 h10 m26 0 h10 m20 0 h10 m0 0 h62 m-92 0 h20 m72 0 h20 m-112 0 q10 0 10 10 m92 0 q0 -10 10 -10 m-102 10 v12 m92 0 v-12 m-92 12 q0 10 10 10 m72 0 q10 0 10 -10 m-82 10 h10 m46 0 h10 m0 0 h6 m-82 -10 v20 m92 0 v-20 m-92 20 v24 m92 0 v-24 m-92 24 q0 10 10 10 m72 0 q10 0 10 -10 m-82 10 h10 m52 0 h10 m20 -76 h10 m172 0 h10 m0 0 h10 m76 0 h10 m0 0 h10 m186 0 h10 m0 0 h10 m26 0 h10 m20 0 h10 m0 0 h44 m-74 0 h20 m54 0 h20 m-94 0 q10 0 10 10 m74 0 q0 -10 10 -10 m-84 10 v12 m74 0 v-12 m-74 12 q0 10 10 10 m54 0 q10 0 10 -10 m-64 10 h10 m34 0 h10 m22 -32 l2 0 m2 0 l2 0 m2 0 l2 0 m-80 142 l2 0 m2 0 l2 0 m2 0 l2 0 m2 0 h10 m30 0 h10 m3 0 h-3"/>
   <polygon points="925 159 933 155 933 163"/>
   <polygon points="925 159 917 155 917 163"/>
</svg>
