<?xml version="1.0" encoding="UTF-8"?>
<svg xmlns="http://www.w3.org/2000/svg" width="437" height="147">
   <defs>
      <style type="text/css">
    @namespace "http://www.w3.org/2000/svg";
    .line                 {fill: none; stroke: #332900; stroke-width: 1;}
    .bold-line            {stroke: #141000; shape-rendering: crispEdges; stroke-width: 2;}
    .thin-line            {stroke: #1F1800; shape-rendering: crispEdges}
    .filled               {fill: #332900; stroke: none;}
    text.terminal         {font-family: Verdana, Sans-serif;
                            font-size: 12px;
                            fill: #141000;
                            font-weight: bold;
                          }
    text.nonterminal      {font-family: Verdana, Sans-serif;
                            font-size: 12px;
                            fill: #1A1400;
                            font-weight: normal;
                          }
    text.regexp           {font-family: Verdana, Sans-serif;
                            font-size: 12px;
                            fill: #1F1800;
                            font-weight: normal;
                          }
    rect, circle, polygon {fill: #332900; stroke: #332900;}
    rect.terminal         {fill: #FFDB4D; stroke: #332900; stroke-width: 1;}
    rect.nonterminal      {fill: #FFEC9E; stroke: #332900; stroke-width: 1;}
    rect.text             {fill: none; stroke: none;}
    polygon.regexp        {fill: #FFF4C7; stroke: #332900; stroke-width: 1;}
  </style>
   </defs>
   <polygon points="9 61 1 57 1 65"/>
   <polygon points="17 61 9 57 9 65"/>
   <rect x="31" y="47" width="56" height="32" rx="10"/>
   <rect x="29"
         y="45"
         width="56"
         height="32"
         class="terminal"
         rx="10"/>
   <text class="terminal" x="39" y="65">array</text>
   <rect x="127" y="47" width="26" height="32" rx="10"/>
   <rect x="125"
         y="45"
         width="26"
         height="32"
         class="terminal"
         rx="10"/>
   <text class="terminal" x="135" y="65">[</text>
   <a xmlns:xlink="http://www.w3.org/1999/xlink"
      xlink:href="#expression"
      xlink:title="expression">
      <rect x="213" y="47" width="90" height="32"/>
      <rect x="211" y="45" width="90" height="32" class="nonterminal"/>
      <text class="nonterminal" x="221" y="65">expression</text>
   </a>
   <rect x="213" y="3" width="24" height="32" rx="10"/>
   <rect x="211"
         y="1"
         width="24"
         height="32"
         class="terminal"
         rx="10"/>
   <text class="terminal" x="221" y="21">,</text>
   <rect x="363" y="47" width="26" height="32" rx="10"/>
   <rect x="361"
         y="45"
         width="26"
         height="32"
         class="terminal"
         rx="10"/>
   <text class="terminal" x="371" y="65">]</text>
   <rect x="127" y="113" width="26" height="32" rx="10"/>
   <rect x="125"
         y="111"
         width="26"
         height="32"
         class="terminal"
         rx="10"/>
   <text class="terminal" x="135" y="131">(</text>
   <a xmlns:xlink="http://www.w3.org/1999/xlink"
      xlink:href="#queryExpression"
      xlink:title="queryExpression">
      <rect x="173" y="113" width="126" height="32"/>
      <rect x="171" y="111" width="126" height="32" class="nonterminal"/>
      <text class="nonterminal" x="181" y="131">queryExpression</text>
   </a>
   <rect x="319" y="113" width="26" height="32" rx="10"/>
   <rect x="317"
         y="111"
         width="26"
         height="32"
         class="terminal"
         rx="10"/>
   <text class="terminal" x="327" y="131">)</text>
   <path class="line"
         d="m17 61 h2 m0 0 h10 m56 0 h10 m20 0 h10 m26 0 h10 m40 0 h10 m90 0 h10 m-130 0 l20 0 m-1 0 q-9 0 -9 -10 l0 -24 q0 -10 10 -10 m110 44 l20 0 m-20 0 q10 0 10 -10 l0 -24 q0 -10 -10 -10 m-110 0 h10 m24 0 h10 m0 0 h66 m-150 44 h20 m150 0 h20 m-190 0 q10 0 10 10 m170 0 q0 -10 10 -10 m-180 10 v14 m170 0 v-14 m-170 14 q0 10 10 10 m150 0 q10 0 10 -10 m-160 10 h10 m0 0 h140 m20 -34 h10 m26 0 h10 m-302 0 h20 m282 0 h20 m-322 0 q10 0 10 10 m302 0 q0 -10 10 -10 m-312 10 v46 m302 0 v-46 m-302 46 q0 10 10 10 m282 0 q10 0 10 -10 m-292 10 h10 m26 0 h10 m0 0 h10 m126 0 h10 m0 0 h10 m26 0 h10 m0 0 h44 m23 -66 h-3"/>
   <polygon points="427 61 435 57 435 65"/>
   <polygon points="427 61 419 57 419 65"/>
</svg>
