<?xml version="1.0" encoding="UTF-8"?>
<svg xmlns="http://www.w3.org/2000/svg" width="579" height="157">
   <defs>
      <style type="text/css">
    @namespace "http://www.w3.org/2000/svg";
    .line                 {fill: none; stroke: #332900; stroke-width: 1;}
    .bold-line            {stroke: #141000; shape-rendering: crispEdges; stroke-width: 2;}
    .thin-line            {stroke: #1F1800; shape-rendering: crispEdges}
    .filled               {fill: #332900; stroke: none;}
    text.terminal         {font-family: Verdana, Sans-serif;
                            font-size: 12px;
                            fill: #141000;
                            font-weight: bold;
                          }
    text.nonterminal      {font-family: Verdana, Sans-serif;
                            font-size: 12px;
                            fill: #1A1400;
                            font-weight: normal;
                          }
    text.regexp           {font-family: Verdana, Sans-serif;
                            font-size: 12px;
                            fill: #1F1800;
                            font-weight: normal;
                          }
    rect, circle, polygon {fill: #332900; stroke: #332900;}
    rect.terminal         {fill: #FFDB4D; stroke: #332900; stroke-width: 1;}
    rect.nonterminal      {fill: #FFEC9E; stroke: #332900; stroke-width: 1;}
    rect.text             {fill: none; stroke: none;}
    polygon.regexp        {fill: #FFF4C7; stroke: #332900; stroke-width: 1;}
  </style>
   </defs>
   <polygon points="9 17 1 13 1 21"/>
   <polygon points="17 17 9 13 9 21"/>
   <a xmlns:xlink="http://www.w3.org/1999/xlink"
      xlink:href="#id"
      xlink:title="id">
      <rect x="31" y="3" width="30" height="32"/>
      <rect x="29" y="1" width="30" height="32" class="nonterminal"/>
      <text class="nonterminal" x="39" y="21">id</text>
   </a>
   <rect x="81" y="3" width="30" height="32" rx="10"/>
   <rect x="79"
         y="1"
         width="30"
         height="32"
         class="terminal"
         rx="10"/>
   <text class="terminal" x="89" y="21">=</text>
   <a xmlns:xlink="http://www.w3.org/1999/xlink"
      xlink:href="#assignStatementOperand"
      xlink:title="assignStatementOperand">
      <rect x="151" y="3" width="182" height="32"/>
      <rect x="149" y="1" width="182" height="32" class="nonterminal"/>
      <text class="nonterminal" x="159" y="21">assignStatementOperand</text>
   </a>
   <a xmlns:xlink="http://www.w3.org/1999/xlink"
      xlink:href="#storedProcedure"
      xlink:title="storedProcedure">
      <rect x="151" y="47" width="126" height="32"/>
      <rect x="149" y="45" width="126" height="32" class="nonterminal"/>
      <text class="nonterminal" x="159" y="65">storedProcedure</text>
   </a>
   <rect x="337" y="79" width="50" height="32" rx="10"/>
   <rect x="335"
         y="77"
         width="50"
         height="32"
         class="terminal"
         rx="10"/>
   <text class="terminal" x="345" y="97">with</text>
   <rect x="337" y="123" width="72" height="32" rx="10"/>
   <rect x="335"
         y="121"
         width="72"
         height="32"
         class="terminal"
         rx="10"/>
   <text class="terminal" x="345" y="141">without</text>
   <rect x="449" y="79" width="62" height="32" rx="10"/>
   <rect x="447"
         y="77"
         width="62"
         height="32"
         class="terminal"
         rx="10"/>
   <text class="terminal" x="457" y="97">return</text>
   <path class="line"
         d="m17 17 h2 m0 0 h10 m30 0 h10 m0 0 h10 m30 0 h10 m20 0 h10 m182 0 h10 m0 0 h198 m-420 0 h20 m400 0 h20 m-440 0 q10 0 10 10 m420 0 q0 -10 10 -10 m-430 10 v24 m420 0 v-24 m-420 24 q0 10 10 10 m400 0 q10 0 10 -10 m-410 10 h10 m126 0 h10 m20 0 h10 m0 0 h204 m-234 0 h20 m214 0 h20 m-254 0 q10 0 10 10 m234 0 q0 -10 10 -10 m-244 10 v12 m234 0 v-12 m-234 12 q0 10 10 10 m214 0 q10 0 10 -10 m-204 10 h10 m50 0 h10 m0 0 h22 m-112 0 h20 m92 0 h20 m-132 0 q10 0 10 10 m112 0 q0 -10 10 -10 m-122 10 v24 m112 0 v-24 m-112 24 q0 10 10 10 m92 0 q10 0 10 -10 m-102 10 h10 m72 0 h10 m20 -44 h10 m62 0 h10 m43 -76 h-3"/>
   <polygon points="569 17 577 13 577 21"/>
   <polygon points="569 17 561 13 561 21"/>
</svg>
