<?xml version="1.0" encoding="UTF-8"?>
<svg xmlns="http://www.w3.org/2000/svg" width="255" height="4789">
   <defs>
      <style type="text/css">
    @namespace "http://www.w3.org/2000/svg";
    .line                 {fill: none; stroke: #332900; stroke-width: 1;}
    .bold-line            {stroke: #141000; shape-rendering: crispEdges; stroke-width: 2;}
    .thin-line            {stroke: #1F1800; shape-rendering: crispEdges}
    .filled               {fill: #332900; stroke: none;}
    text.terminal         {font-family: Verdana, Sans-serif;
                            font-size: 12px;
                            fill: #141000;
                            font-weight: bold;
                          }
    text.nonterminal      {font-family: Verdana, Sans-serif;
                            font-size: 12px;
                            fill: #1A1400;
                            font-weight: normal;
                          }
    text.regexp           {font-family: Verdana, Sans-serif;
                            font-size: 12px;
                            fill: #1F1800;
                            font-weight: normal;
                          }
    rect, circle, polygon {fill: #332900; stroke: #332900;}
    rect.terminal         {fill: #FFDB4D; stroke: #332900; stroke-width: 1;}
    rect.nonterminal      {fill: #FFEC9E; stroke: #332900; stroke-width: 1;}
    rect.text             {fill: none; stroke: none;}
    polygon.regexp        {fill: #FFF4C7; stroke: #332900; stroke-width: 1;}
  </style>
   </defs>
   <polygon points="9 17 1 13 1 21"/>
   <polygon points="17 17 9 13 9 21"/>
   <rect x="51" y="3" width="70" height="32" rx="10"/>
   <rect x="49"
         y="1"
         width="70"
         height="32"
         class="terminal"
         rx="10"/>
   <text class="terminal" x="59" y="21">instead</text>
   <rect x="51" y="47" width="52" height="32" rx="10"/>
   <rect x="49"
         y="45"
         width="52"
         height="32"
         class="terminal"
         rx="10"/>
   <text class="terminal" x="59" y="65">view</text>
   <rect x="51" y="91" width="72" height="32" rx="10"/>
   <rect x="49"
         y="89"
         width="72"
         height="32"
         class="terminal"
         rx="10"/>
   <text class="terminal" x="59" y="109">enabled</text>
   <rect x="51" y="135" width="76" height="32" rx="10"/>
   <rect x="49"
         y="133"
         width="76"
         height="32"
         class="terminal"
         rx="10"/>
   <text class="terminal" x="59" y="153">disabled</text>
   <rect x="51" y="179" width="44" height="32" rx="10"/>
   <rect x="49"
         y="177"
         width="44"
         height="32"
         class="terminal"
         rx="10"/>
   <text class="terminal" x="59" y="197">key</text>
   <rect x="51" y="223" width="72" height="32" rx="10"/>
   <rect x="49"
         y="221"
         width="72"
         height="32"
         class="terminal"
         rx="10"/>
   <text class="terminal" x="59" y="241">textagg</text>
   <rect x="51" y="267" width="58" height="32" rx="10"/>
   <rect x="49"
         y="265"
         width="58"
         height="32"
         class="terminal"
         rx="10"/>
   <text class="terminal" x="59" y="285">count</text>
   <rect x="51" y="311" width="88" height="32" rx="10"/>
   <rect x="49"
         y="309"
         width="88"
         height="32"
         class="terminal"
         rx="10"/>
   <text class="terminal" x="59" y="329">count_big</text>
   <rect x="51" y="355" width="106" height="32" rx="10"/>
   <rect x="49"
         y="353"
         width="106"
         height="32"
         class="terminal"
         rx="10"/>
   <text class="terminal" x="59" y="373">row_number</text>
   <rect x="51" y="399" width="50" height="32" rx="10"/>
   <rect x="49"
         y="397"
         width="50"
         height="32"
         class="terminal"
         rx="10"/>
   <text class="terminal" x="59" y="417">rank</text>
   <rect x="51" y="443" width="100" height="32" rx="10"/>
   <rect x="49"
         y="441"
         width="100"
         height="32"
         class="terminal"
         rx="10"/>
   <text class="terminal" x="59" y="461">dense_rank</text>
   <rect x="51" y="487" width="48" height="32" rx="10"/>
   <rect x="49"
         y="485"
         width="48"
         height="32"
         class="terminal"
         rx="10"/>
   <text class="terminal" x="59" y="505">sum</text>
   <rect x="51" y="531" width="44" height="32" rx="10"/>
   <rect x="49"
         y="529"
         width="44"
         height="32"
         class="terminal"
         rx="10"/>
   <text class="terminal" x="59" y="549">avg</text>
   <rect x="51" y="575" width="44" height="32" rx="10"/>
   <rect x="49"
         y="573"
         width="44"
         height="32"
         class="terminal"
         rx="10"/>
   <text class="terminal" x="59" y="593">min</text>
   <rect x="51" y="619" width="48" height="32" rx="10"/>
   <rect x="49"
         y="617"
         width="48"
         height="32"
         class="terminal"
         rx="10"/>
   <text class="terminal" x="59" y="637">max</text>
   <rect x="51" y="663" width="58" height="32" rx="10"/>
   <rect x="49"
         y="661"
         width="58"
         height="32"
         class="terminal"
         rx="10"/>
   <text class="terminal" x="59" y="681">every</text>
   <rect x="51" y="707" width="98" height="32" rx="10"/>
   <rect x="49"
         y="705"
         width="98"
         height="32"
         class="terminal"
         rx="10"/>
   <text class="terminal" x="59" y="725">stddev_pop</text>
   <rect x="51" y="751" width="110" height="32" rx="10"/>
   <rect x="49"
         y="749"
         width="110"
         height="32"
         class="terminal"
         rx="10"/>
   <text class="terminal" x="59" y="769">stddev_samp</text>
   <rect x="51" y="795" width="86" height="32" rx="10"/>
   <rect x="49"
         y="793"
         width="86"
         height="32"
         class="terminal"
         rx="10"/>
   <text class="terminal" x="59" y="813">var_samp</text>
   <rect x="51" y="839" width="76" height="32" rx="10"/>
   <rect x="49"
         y="837"
         width="76"
         height="32"
         class="terminal"
         rx="10"/>
   <text class="terminal" x="59" y="857">var_pop</text>
   <rect x="51" y="883" width="86" height="32" rx="10"/>
   <rect x="49"
         y="881"
         width="86"
         height="32"
         class="terminal"
         rx="10"/>
   <text class="terminal" x="59" y="901">document</text>
   <rect x="51" y="927" width="70" height="32" rx="10"/>
   <rect x="49"
         y="925"
         width="70"
         height="32"
         class="terminal"
         rx="10"/>
   <text class="terminal" x="59" y="945">content</text>
   <rect x="51" y="971" width="48" height="32" rx="10"/>
   <rect x="49"
         y="969"
         width="48"
         height="32"
         class="terminal"
         rx="10"/>
   <text class="terminal" x="59" y="989">trim</text>
   <rect x="51" y="1015" width="62" height="32" rx="10"/>
   <rect x="49"
         y="1013"
         width="62"
         height="32"
         class="terminal"
         rx="10"/>
   <text class="terminal" x="59" y="1033">empty</text>
   <rect x="51" y="1059" width="84" height="32" rx="10"/>
   <rect x="49"
         y="1057"
         width="84"
         height="32"
         class="terminal"
         rx="10"/>
   <text class="terminal" x="59" y="1077">ordinality</text>
   <rect x="51" y="1103" width="50" height="32" rx="10"/>
   <rect x="49"
         y="1101"
         width="50"
         height="32"
         class="terminal"
         rx="10"/>
   <text class="terminal" x="59" y="1121">path</text>
   <rect x="51" y="1147" width="48" height="32" rx="10"/>
   <rect x="49"
         y="1145"
         width="48"
         height="32"
         class="terminal"
         rx="10"/>
   <text class="terminal" x="59" y="1165">first</text>
   <rect x="51" y="1191" width="44" height="32" rx="10"/>
   <rect x="49"
         y="1189"
         width="44"
         height="32"
         class="terminal"
         rx="10"/>
   <text class="terminal" x="59" y="1209">last</text>
   <rect x="51" y="1235" width="50" height="32" rx="10"/>
   <rect x="49"
         y="1233"
         width="50"
         height="32"
         class="terminal"
         rx="10"/>
   <text class="terminal" x="59" y="1253">next</text>
   <rect x="51" y="1279" width="84" height="32" rx="10"/>
   <rect x="49"
         y="1277"
         width="84"
         height="32"
         class="terminal"
         rx="10"/>
   <text class="terminal" x="59" y="1297">substring</text>
   <rect x="51" y="1323" width="68" height="32" rx="10"/>
   <rect x="49"
         y="1321"
         width="68"
         height="32"
         class="terminal"
         rx="10"/>
   <text class="terminal" x="59" y="1341">extract</text>
   <rect x="51" y="1367" width="78" height="32" rx="10"/>
   <rect x="49"
         y="1365"
         width="78"
         height="32"
         class="terminal"
         rx="10"/>
   <text class="terminal" x="59" y="1385">to_chars</text>
   <rect x="51" y="1411" width="80" height="32" rx="10"/>
   <rect x="49"
         y="1409"
         width="80"
         height="32"
         class="terminal"
         rx="10"/>
   <text class="terminal" x="59" y="1429">to_bytes</text>
   <rect x="51" y="1455" width="116" height="32" rx="10"/>
   <rect x="49"
         y="1453"
         width="116"
         height="32"
         class="terminal"
         rx="10"/>
   <text class="terminal" x="59" y="1473">timestampadd</text>
   <rect x="51" y="1499" width="114" height="32" rx="10"/>
   <rect x="49"
         y="1497"
         width="114"
         height="32"
         class="terminal"
         rx="10"/>
   <text class="terminal" x="59" y="1517">timestampdiff</text>
   <rect x="51" y="1543" width="98" height="32" rx="10"/>
   <rect x="49"
         y="1541"
         width="98"
         height="32"
         class="terminal"
         rx="10"/>
   <text class="terminal" x="59" y="1561">querystring</text>
   <rect x="51" y="1587" width="96" height="32" rx="10"/>
   <rect x="49"
         y="1585"
         width="96"
         height="32"
         class="terminal"
         rx="10"/>
   <text class="terminal" x="59" y="1605">namespace</text>
   <rect x="51" y="1631" width="58" height="32" rx="10"/>
   <rect x="49"
         y="1629"
         width="58"
         height="32"
         class="terminal"
         rx="10"/>
   <text class="terminal" x="59" y="1649">result</text>
   <rect x="51" y="1675" width="114" height="32" rx="10"/>
   <rect x="49"
         y="1673"
         width="114"
         height="32"
         class="terminal"
         rx="10"/>
   <text class="terminal" x="59" y="1693">accesspattern</text>
   <rect x="51" y="1719" width="126" height="32" rx="10"/>
   <rect x="49"
         y="1717"
         width="126"
         height="32"
         class="terminal"
         rx="10"/>
   <text class="terminal" x="59" y="1737">auto_increment</text>
   <rect x="51" y="1763" width="96" height="32" rx="10"/>
   <rect x="49"
         y="1761"
         width="96"
         height="32"
         class="terminal"
         rx="10"/>
   <text class="terminal" x="59" y="1781">wellformed</text>
   <rect x="51" y="1807" width="156" height="32" rx="10"/>
   <rect x="49"
         y="1805"
         width="156"
         height="32"
         class="terminal"
         rx="10"/>
   <text class="terminal" x="59" y="1825">sql_tsi_frac_second</text>
   <rect x="51" y="1851" width="120" height="32" rx="10"/>
   <rect x="49"
         y="1849"
         width="120"
         height="32"
         class="terminal"
         rx="10"/>
   <text class="terminal" x="59" y="1869">sql_tsi_second</text>
   <rect x="51" y="1895" width="120" height="32" rx="10"/>
   <rect x="49"
         y="1893"
         width="120"
         height="32"
         class="terminal"
         rx="10"/>
   <text class="terminal" x="59" y="1913">sql_tsi_minute</text>
   <rect x="51" y="1939" width="104" height="32" rx="10"/>
   <rect x="49"
         y="1937"
         width="104"
         height="32"
         class="terminal"
         rx="10"/>
   <text class="terminal" x="59" y="1957">sql_tsi_hour</text>
   <rect x="51" y="1983" width="98" height="32" rx="10"/>
   <rect x="49"
         y="1981"
         width="98"
         height="32"
         class="terminal"
         rx="10"/>
   <text class="terminal" x="59" y="2001">sql_tsi_day</text>
   <rect x="51" y="2027" width="110" height="32" rx="10"/>
   <rect x="49"
         y="2025"
         width="110"
         height="32"
         class="terminal"
         rx="10"/>
   <text class="terminal" x="59" y="2045">sql_tsi_week</text>
   <rect x="51" y="2071" width="118" height="32" rx="10"/>
   <rect x="49"
         y="2069"
         width="118"
         height="32"
         class="terminal"
         rx="10"/>
   <text class="terminal" x="59" y="2089">sql_tsi_month</text>
   <rect x="51" y="2115" width="124" height="32" rx="10"/>
   <rect x="49"
         y="2113"
         width="124"
         height="32"
         class="terminal"
         rx="10"/>
   <text class="terminal" x="59" y="2133">sql_tsi_quarter</text>
   <rect x="51" y="2159" width="104" height="32" rx="10"/>
   <rect x="49"
         y="2157"
         width="104"
         height="32"
         class="terminal"
         rx="10"/>
   <text class="terminal" x="59" y="2177">sql_tsi_year</text>
   <rect x="51" y="2203" width="80" height="32" rx="10"/>
   <rect x="49"
         y="2201"
         width="80"
         height="32"
         class="terminal"
         rx="10"/>
   <text class="terminal" x="59" y="2221">texttable</text>
   <rect x="51" y="2247" width="90" height="32" rx="10"/>
   <rect x="49"
         y="2245"
         width="90"
         height="32"
         class="terminal"
         rx="10"/>
   <text class="terminal" x="59" y="2265">arraytable</text>
   <rect x="51" y="2291" width="82" height="32" rx="10"/>
   <rect x="49"
         y="2289"
         width="82"
         height="32"
         class="terminal"
         rx="10"/>
   <text class="terminal" x="59" y="2309">jsontable</text>
   <rect x="51" y="2335" width="74" height="32" rx="10"/>
   <rect x="49"
         y="2333"
         width="74"
         height="32"
         class="terminal"
         rx="10"/>
   <text class="terminal" x="59" y="2353">selector</text>
   <rect x="51" y="2379" width="48" height="32" rx="10"/>
   <rect x="49"
         y="2377"
         width="48"
         height="32"
         class="terminal"
         rx="10"/>
   <text class="terminal" x="59" y="2397">skip</text>
   <rect x="51" y="2423" width="58" height="32" rx="10"/>
   <rect x="49"
         y="2421"
         width="58"
         height="32"
         class="terminal"
         rx="10"/>
   <text class="terminal" x="59" y="2441">width</text>
   <rect x="51" y="2467" width="72" height="32" rx="10"/>
   <rect x="49"
         y="2465"
         width="72"
         height="32"
         class="terminal"
         rx="10"/>
   <text class="terminal" x="59" y="2485">passing</text>
   <rect x="51" y="2511" width="56" height="32" rx="10"/>
   <rect x="49"
         y="2509"
         width="56"
         height="32"
         class="terminal"
         rx="10"/>
   <text class="terminal" x="59" y="2529">name</text>
   <rect x="51" y="2555" width="80" height="32" rx="10"/>
   <rect x="49"
         y="2553"
         width="80"
         height="32"
         class="terminal"
         rx="10"/>
   <text class="terminal" x="59" y="2573">encoding</text>
   <rect x="51" y="2599" width="76" height="32" rx="10"/>
   <rect x="49"
         y="2597"
         width="76"
         height="32"
         class="terminal"
         rx="10"/>
   <text class="terminal" x="59" y="2617">columns</text>
   <rect x="51" y="2643" width="80" height="32" rx="10"/>
   <rect x="49"
         y="2641"
         width="80"
         height="32"
         class="terminal"
         rx="10"/>
   <text class="terminal" x="59" y="2661">delimiter</text>
   <rect x="51" y="2687" width="58" height="32" rx="10"/>
   <rect x="49"
         y="2685"
         width="58"
         height="32"
         class="terminal"
         rx="10"/>
   <text class="terminal" x="59" y="2705">quote</text>
   <rect x="51" y="2731" width="66" height="32" rx="10"/>
   <rect x="49"
         y="2729"
         width="66"
         height="32"
         class="terminal"
         rx="10"/>
   <text class="terminal" x="59" y="2749">header</text>
   <rect x="51" y="2775" width="52" height="32" rx="10"/>
   <rect x="49"
         y="2773"
         width="52"
         height="32"
         class="terminal"
         rx="10"/>
   <text class="terminal" x="59" y="2793">nulls</text>
   <rect x="51" y="2819" width="96" height="32" rx="10"/>
   <rect x="49"
         y="2817"
         width="96"
         height="32"
         class="terminal"
         rx="10"/>
   <text class="terminal" x="59" y="2837">objecttable</text>
   <rect x="51" y="2863" width="70" height="32" rx="10"/>
   <rect x="49"
         y="2861"
         width="70"
         height="32"
         class="terminal"
         rx="10"/>
   <text class="terminal" x="59" y="2881">version</text>
   <rect x="51" y="2907" width="82" height="32" rx="10"/>
   <rect x="49"
         y="2905"
         width="82"
         height="32"
         class="terminal"
         rx="10"/>
   <text class="terminal" x="59" y="2925">including</text>
   <rect x="51" y="2951" width="84" height="32" rx="10"/>
   <rect x="49"
         y="2949"
         width="84"
         height="32"
         class="terminal"
         rx="10"/>
   <text class="terminal" x="59" y="2969">excluding</text>
   <rect x="51" y="2995" width="120" height="32" rx="10"/>
   <rect x="49"
         y="2993"
         width="120"
         height="32"
         class="terminal"
         rx="10"/>
   <text class="terminal" x="59" y="3013">xmldeclaration</text>
   <rect x="51" y="3039" width="74" height="32" rx="10"/>
   <rect x="49"
         y="3037"
         width="74"
         height="32"
         class="terminal"
         rx="10"/>
   <text class="terminal" x="59" y="3057">variadic</text>
   <rect x="51" y="3083" width="52" height="32" rx="10"/>
   <rect x="49"
         y="3081"
         width="52"
         height="32"
         class="terminal"
         rx="10"/>
   <text class="terminal" x="59" y="3101">raise</text>
   <rect x="51" y="3127" width="56" height="32" rx="10"/>
   <rect x="49"
         y="3125"
         width="56"
         height="32"
         class="terminal"
         rx="10"/>
   <text class="terminal" x="59" y="3145">chain</text>
   <rect x="51" y="3171" width="118" height="32" rx="10"/>
   <rect x="49"
         y="3169"
         width="118"
         height="32"
         class="terminal"
         rx="10"/>
   <text class="terminal" x="59" y="3189">jsonarray_agg</text>
   <rect x="51" y="3215" width="90" height="32" rx="10"/>
   <rect x="49"
         y="3213"
         width="90"
         height="32"
         class="terminal"
         rx="10"/>
   <text class="terminal" x="59" y="3233">jsonobject</text>
   <rect x="51" y="3259" width="80" height="32" rx="10"/>
   <rect x="49"
         y="3257"
         width="80"
         height="32"
         class="terminal"
         rx="10"/>
   <text class="terminal" x="59" y="3277">preserve</text>
   <rect x="51" y="3303" width="62" height="32" rx="10"/>
   <rect x="49"
         y="3301"
         width="62"
         height="32"
         class="terminal"
         rx="10"/>
   <text class="terminal" x="59" y="3321">upsert</text>
   <rect x="51" y="3347" width="52" height="32" rx="10"/>
   <rect x="49"
         y="3345"
         width="52"
         height="32"
         class="terminal"
         rx="10"/>
   <text class="terminal" x="59" y="3365">after</text>
   <rect x="51" y="3391" width="50" height="32" rx="10"/>
   <rect x="49"
         y="3389"
         width="50"
         height="32"
         class="terminal"
         rx="10"/>
   <text class="terminal" x="59" y="3409">type</text>
   <rect x="51" y="3435" width="86" height="32" rx="10"/>
   <rect x="49"
         y="3433"
         width="86"
         height="32"
         class="terminal"
         rx="10"/>
   <text class="terminal" x="59" y="3453">translator</text>
   <rect x="51" y="3479" width="48" height="32" rx="10"/>
   <rect x="49"
         y="3477"
         width="48"
         height="32"
         class="terminal"
         rx="10"/>
   <text class="terminal" x="59" y="3497">jaas</text>
   <rect x="51" y="3523" width="82" height="32" rx="10"/>
   <rect x="49"
         y="3521"
         width="82"
         height="32"
         class="terminal"
         rx="10"/>
   <text class="terminal" x="59" y="3541">condition</text>
   <rect x="51" y="3567" width="56" height="32" rx="10"/>
   <rect x="49"
         y="3565"
         width="56"
         height="32"
         class="terminal"
         rx="10"/>
   <text class="terminal" x="59" y="3585">mask</text>
   <rect x="51" y="3611" width="64" height="32" rx="10"/>
   <rect x="49"
         y="3609"
         width="64"
         height="32"
         class="terminal"
         rx="10"/>
   <text class="terminal" x="59" y="3629">access</text>
   <rect x="51" y="3655" width="66" height="32" rx="10"/>
   <rect x="49"
         y="3653"
         width="66"
         height="32"
         class="terminal"
         rx="10"/>
   <text class="terminal" x="59" y="3673">control</text>
   <rect x="51" y="3699" width="52" height="32" rx="10"/>
   <rect x="49"
         y="3697"
         width="52"
         height="32"
         class="terminal"
         rx="10"/>
   <text class="terminal" x="59" y="3717">none</text>
   <rect x="51" y="3743" width="50" height="32" rx="10"/>
   <rect x="49"
         y="3741"
         width="50"
         height="32"
         class="terminal"
         rx="10"/>
   <text class="terminal" x="59" y="3761">data</text>
   <rect x="51" y="3787" width="80" height="32" rx="10"/>
   <rect x="49"
         y="3785"
         width="80"
         height="32"
         class="terminal"
         rx="10"/>
   <text class="terminal" x="59" y="3805">database</text>
   <rect x="51" y="3831" width="86" height="32" rx="10"/>
   <rect x="49"
         y="3829"
         width="86"
         height="32"
         class="terminal"
         rx="10"/>
   <text class="terminal" x="59" y="3849">privileges</text>
   <rect x="51" y="3875" width="46" height="32" rx="10"/>
   <rect x="49"
         y="3873"
         width="46"
         height="32"
         class="terminal"
         rx="10"/>
   <text class="terminal" x="59" y="3893">role</text>
   <rect x="51" y="3919" width="70" height="32" rx="10"/>
   <rect x="49"
         y="3917"
         width="70"
         height="32"
         class="terminal"
         rx="10"/>
   <text class="terminal" x="59" y="3937">schema</text>
   <rect x="51" y="3963" width="44" height="32" rx="10"/>
   <rect x="49"
         y="3961"
         width="44"
         height="32"
         class="terminal"
         rx="10"/>
   <text class="terminal" x="59" y="3981">use</text>
   <rect x="51" y="4007" width="88" height="32" rx="10"/>
   <rect x="49"
         y="4005"
         width="88"
         height="32"
         class="terminal"
         rx="10"/>
   <text class="terminal" x="59" y="4025">repository</text>
   <rect x="51" y="4051" width="70" height="32" rx="10"/>
   <rect x="49"
         y="4049"
         width="70"
         height="32"
         class="terminal"
         rx="10"/>
   <text class="terminal" x="59" y="4069">rename</text>
   <rect x="51" y="4095" width="70" height="32" rx="10"/>
   <rect x="49"
         y="4093"
         width="70"
         height="32"
         class="terminal"
         rx="10"/>
   <text class="terminal" x="59" y="4113">domain</text>
   <rect x="51" y="4139" width="60" height="32" rx="10"/>
   <rect x="49"
         y="4137"
         width="60"
         height="32"
         class="terminal"
         rx="10"/>
   <text class="terminal" x="59" y="4157">usage</text>
   <rect x="51" y="4183" width="74" height="32" rx="10"/>
   <rect x="49"
         y="4181"
         width="74"
         height="32"
         class="terminal"
         rx="10"/>
   <text class="terminal" x="59" y="4201">position</text>
   <rect x="51" y="4227" width="68" height="32" rx="10"/>
   <rect x="49"
         y="4225"
         width="68"
         height="32"
         class="terminal"
         rx="10"/>
   <text class="terminal" x="59" y="4245">current</text>
   <rect x="51" y="4271" width="94" height="32" rx="10"/>
   <rect x="49"
         y="4269"
         width="94"
         height="32"
         class="terminal"
         rx="10"/>
   <text class="terminal" x="59" y="4289">unbounded</text>
   <rect x="51" y="4315" width="86" height="32" rx="10"/>
   <rect x="49"
         y="4313"
         width="86"
         height="32"
         class="terminal"
         rx="10"/>
   <text class="terminal" x="59" y="4333">preceding</text>
   <rect x="51" y="4359" width="82" height="32" rx="10"/>
   <rect x="49"
         y="4357"
         width="82"
         height="32"
         class="terminal"
         rx="10"/>
   <text class="terminal" x="59" y="4377">following</text>
   <rect x="51" y="4403" width="66" height="32" rx="10"/>
   <rect x="49"
         y="4401"
         width="66"
         height="32"
         class="terminal"
         rx="10"/>
   <text class="terminal" x="59" y="4421">listagg</text>
   <rect x="51" y="4447" width="68" height="32" rx="10"/>
   <rect x="49"
         y="4445"
         width="68"
         height="32"
         class="terminal"
         rx="10"/>
   <text class="terminal" x="59" y="4465">explain</text>
   <rect x="51" y="4491" width="72" height="32" rx="10"/>
   <rect x="49"
         y="4489"
         width="72"
         height="32"
         class="terminal"
         rx="10"/>
   <text class="terminal" x="59" y="4509">analyze</text>
   <rect x="51" y="4535" width="46" height="32" rx="10"/>
   <rect x="49"
         y="4533"
         width="46"
         height="32"
         class="terminal"
         rx="10"/>
   <text class="terminal" x="59" y="4553">text</text>
   <rect x="51" y="4579" width="64" height="32" rx="10"/>
   <rect x="49"
         y="4577"
         width="64"
         height="32"
         class="terminal"
         rx="10"/>
   <text class="terminal" x="59" y="4597">format</text>
   <rect x="51" y="4623" width="52" height="32" rx="10"/>
   <rect x="49"
         y="4621"
         width="52"
         height="32"
         class="terminal"
         rx="10"/>
   <text class="terminal" x="59" y="4641">yaml</text>
   <rect x="51" y="4667" width="60" height="32" rx="10"/>
   <rect x="49"
         y="4665"
         width="60"
         height="32"
         class="terminal"
         rx="10"/>
   <text class="terminal" x="59" y="4685">epoch</text>
   <rect x="51" y="4711" width="70" height="32" rx="10"/>
   <rect x="49"
         y="4709"
         width="70"
         height="32"
         class="terminal"
         rx="10"/>
   <text class="terminal" x="59" y="4729">quarter</text>
   <rect x="51" y="4755" width="60" height="32" rx="10"/>
   <rect x="49"
         y="4753"
         width="60"
         height="32"
         class="terminal"
         rx="10"/>
   <text class="terminal" x="59" y="4773">policy</text>
   <path class="line"
         d="m17 17 h2 m20 0 h10 m70 0 h10 m0 0 h86 m-196 0 h20 m176 0 h20 m-216 0 q10 0 10 10 m196 0 q0 -10 10 -10 m-206 10 v24 m196 0 v-24 m-196 24 q0 10 10 10 m176 0 q10 0 10 -10 m-186 10 h10 m52 0 h10 m0 0 h104 m-186 -10 v20 m196 0 v-20 m-196 20 v24 m196 0 v-24 m-196 24 q0 10 10 10 m176 0 q10 0 10 -10 m-186 10 h10 m72 0 h10 m0 0 h84 m-186 -10 v20 m196 0 v-20 m-196 20 v24 m196 0 v-24 m-196 24 q0 10 10 10 m176 0 q10 0 10 -10 m-186 10 h10 m76 0 h10 m0 0 h80 m-186 -10 v20 m196 0 v-20 m-196 20 v24 m196 0 v-24 m-196 24 q0 10 10 10 m176 0 q10 0 10 -10 m-186 10 h10 m44 0 h10 m0 0 h112 m-186 -10 v20 m196 0 v-20 m-196 20 v24 m196 0 v-24 m-196 24 q0 10 10 10 m176 0 q10 0 10 -10 m-186 10 h10 m72 0 h10 m0 0 h84 m-186 -10 v20 m196 0 v-20 m-196 20 v24 m196 0 v-24 m-196 24 q0 10 10 10 m176 0 q10 0 10 -10 m-186 10 h10 m58 0 h10 m0 0 h98 m-186 -10 v20 m196 0 v-20 m-196 20 v24 m196 0 v-24 m-196 24 q0 10 10 10 m176 0 q10 0 10 -10 m-186 10 h10 m88 0 h10 m0 0 h68 m-186 -10 v20 m196 0 v-20 m-196 20 v24 m196 0 v-24 m-196 24 q0 10 10 10 m176 0 q10 0 10 -10 m-186 10 h10 m106 0 h10 m0 0 h50 m-186 -10 v20 m196 0 v-20 m-196 20 v24 m196 0 v-24 m-196 24 q0 10 10 10 m176 0 q10 0 10 -10 m-186 10 h10 m50 0 h10 m0 0 h106 m-186 -10 v20 m196 0 v-20 m-196 20 v24 m196 0 v-24 m-196 24 q0 10 10 10 m176 0 q10 0 10 -10 m-186 10 h10 m100 0 h10 m0 0 h56 m-186 -10 v20 m196 0 v-20 m-196 20 v24 m196 0 v-24 m-196 24 q0 10 10 10 m176 0 q10 0 10 -10 m-186 10 h10 m48 0 h10 m0 0 h108 m-186 -10 v20 m196 0 v-20 m-196 20 v24 m196 0 v-24 m-196 24 q0 10 10 10 m176 0 q10 0 10 -10 m-186 10 h10 m44 0 h10 m0 0 h112 m-186 -10 v20 m196 0 v-20 m-196 20 v24 m196 0 v-24 m-196 24 q0 10 10 10 m176 0 q10 0 10 -10 m-186 10 h10 m44 0 h10 m0 0 h112 m-186 -10 v20 m196 0 v-20 m-196 20 v24 m196 0 v-24 m-196 24 q0 10 10 10 m176 0 q10 0 10 -10 m-186 10 h10 m48 0 h10 m0 0 h108 m-186 -10 v20 m196 0 v-20 m-196 20 v24 m196 0 v-24 m-196 24 q0 10 10 10 m176 0 q10 0 10 -10 m-186 10 h10 m58 0 h10 m0 0 h98 m-186 -10 v20 m196 0 v-20 m-196 20 v24 m196 0 v-24 m-196 24 q0 10 10 10 m176 0 q10 0 10 -10 m-186 10 h10 m98 0 h10 m0 0 h58 m-186 -10 v20 m196 0 v-20 m-196 20 v24 m196 0 v-24 m-196 24 q0 10 10 10 m176 0 q10 0 10 -10 m-186 10 h10 m110 0 h10 m0 0 h46 m-186 -10 v20 m196 0 v-20 m-196 20 v24 m196 0 v-24 m-196 24 q0 10 10 10 m176 0 q10 0 10 -10 m-186 10 h10 m86 0 h10 m0 0 h70 m-186 -10 v20 m196 0 v-20 m-196 20 v24 m196 0 v-24 m-196 24 q0 10 10 10 m176 0 q10 0 10 -10 m-186 10 h10 m76 0 h10 m0 0 h80 m-186 -10 v20 m196 0 v-20 m-196 20 v24 m196 0 v-24 m-196 24 q0 10 10 10 m176 0 q10 0 10 -10 m-186 10 h10 m86 0 h10 m0 0 h70 m-186 -10 v20 m196 0 v-20 m-196 20 v24 m196 0 v-24 m-196 24 q0 10 10 10 m176 0 q10 0 10 -10 m-186 10 h10 m70 0 h10 m0 0 h86 m-186 -10 v20 m196 0 v-20 m-196 20 v24 m196 0 v-24 m-196 24 q0 10 10 10 m176 0 q10 0 10 -10 m-186 10 h10 m48 0 h10 m0 0 h108 m-186 -10 v20 m196 0 v-20 m-196 20 v24 m196 0 v-24 m-196 24 q0 10 10 10 m176 0 q10 0 10 -10 m-186 10 h10 m62 0 h10 m0 0 h94 m-186 -10 v20 m196 0 v-20 m-196 20 v24 m196 0 v-24 m-196 24 q0 10 10 10 m176 0 q10 0 10 -10 m-186 10 h10 m84 0 h10 m0 0 h72 m-186 -10 v20 m196 0 v-20 m-196 20 v24 m196 0 v-24 m-196 24 q0 10 10 10 m176 0 q10 0 10 -10 m-186 10 h10 m50 0 h10 m0 0 h106 m-186 -10 v20 m196 0 v-20 m-196 20 v24 m196 0 v-24 m-196 24 q0 10 10 10 m176 0 q10 0 10 -10 m-186 10 h10 m48 0 h10 m0 0 h108 m-186 -10 v20 m196 0 v-20 m-196 20 v24 m196 0 v-24 m-196 24 q0 10 10 10 m176 0 q10 0 10 -10 m-186 10 h10 m44 0 h10 m0 0 h112 m-186 -10 v20 m196 0 v-20 m-196 20 v24 m196 0 v-24 m-196 24 q0 10 10 10 m176 0 q10 0 10 -10 m-186 10 h10 m50 0 h10 m0 0 h106 m-186 -10 v20 m196 0 v-20 m-196 20 v24 m196 0 v-24 m-196 24 q0 10 10 10 m176 0 q10 0 10 -10 m-186 10 h10 m84 0 h10 m0 0 h72 m-186 -10 v20 m196 0 v-20 m-196 20 v24 m196 0 v-24 m-196 24 q0 10 10 10 m176 0 q10 0 10 -10 m-186 10 h10 m68 0 h10 m0 0 h88 m-186 -10 v20 m196 0 v-20 m-196 20 v24 m196 0 v-24 m-196 24 q0 10 10 10 m176 0 q10 0 10 -10 m-186 10 h10 m78 0 h10 m0 0 h78 m-186 -10 v20 m196 0 v-20 m-196 20 v24 m196 0 v-24 m-196 24 q0 10 10 10 m176 0 q10 0 10 -10 m-186 10 h10 m80 0 h10 m0 0 h76 m-186 -10 v20 m196 0 v-20 m-196 20 v24 m196 0 v-24 m-196 24 q0 10 10 10 m176 0 q10 0 10 -10 m-186 10 h10 m116 0 h10 m0 0 h40 m-186 -10 v20 m196 0 v-20 m-196 20 v24 m196 0 v-24 m-196 24 q0 10 10 10 m176 0 q10 0 10 -10 m-186 10 h10 m114 0 h10 m0 0 h42 m-186 -10 v20 m196 0 v-20 m-196 20 v24 m196 0 v-24 m-196 24 q0 10 10 10 m176 0 q10 0 10 -10 m-186 10 h10 m98 0 h10 m0 0 h58 m-186 -10 v20 m196 0 v-20 m-196 20 v24 m196 0 v-24 m-196 24 q0 10 10 10 m176 0 q10 0 10 -10 m-186 10 h10 m96 0 h10 m0 0 h60 m-186 -10 v20 m196 0 v-20 m-196 20 v24 m196 0 v-24 m-196 24 q0 10 10 10 m176 0 q10 0 10 -10 m-186 10 h10 m58 0 h10 m0 0 h98 m-186 -10 v20 m196 0 v-20 m-196 20 v24 m196 0 v-24 m-196 24 q0 10 10 10 m176 0 q10 0 10 -10 m-186 10 h10 m114 0 h10 m0 0 h42 m-186 -10 v20 m196 0 v-20 m-196 20 v24 m196 0 v-24 m-196 24 q0 10 10 10 m176 0 q10 0 10 -10 m-186 10 h10 m126 0 h10 m0 0 h30 m-186 -10 v20 m196 0 v-20 m-196 20 v24 m196 0 v-24 m-196 24 q0 10 10 10 m176 0 q10 0 10 -10 m-186 10 h10 m96 0 h10 m0 0 h60 m-186 -10 v20 m196 0 v-20 m-196 20 v24 m196 0 v-24 m-196 24 q0 10 10 10 m176 0 q10 0 10 -10 m-186 10 h10 m156 0 h10 m-186 -10 v20 m196 0 v-20 m-196 20 v24 m196 0 v-24 m-196 24 q0 10 10 10 m176 0 q10 0 10 -10 m-186 10 h10 m120 0 h10 m0 0 h36 m-186 -10 v20 m196 0 v-20 m-196 20 v24 m196 0 v-24 m-196 24 q0 10 10 10 m176 0 q10 0 10 -10 m-186 10 h10 m120 0 h10 m0 0 h36 m-186 -10 v20 m196 0 v-20 m-196 20 v24 m196 0 v-24 m-196 24 q0 10 10 10 m176 0 q10 0 10 -10 m-186 10 h10 m104 0 h10 m0 0 h52 m-186 -10 v20 m196 0 v-20 m-196 20 v24 m196 0 v-24 m-196 24 q0 10 10 10 m176 0 q10 0 10 -10 m-186 10 h10 m98 0 h10 m0 0 h58 m-186 -10 v20 m196 0 v-20 m-196 20 v24 m196 0 v-24 m-196 24 q0 10 10 10 m176 0 q10 0 10 -10 m-186 10 h10 m110 0 h10 m0 0 h46 m-186 -10 v20 m196 0 v-20 m-196 20 v24 m196 0 v-24 m-196 24 q0 10 10 10 m176 0 q10 0 10 -10 m-186 10 h10 m118 0 h10 m0 0 h38 m-186 -10 v20 m196 0 v-20 m-196 20 v24 m196 0 v-24 m-196 24 q0 10 10 10 m176 0 q10 0 10 -10 m-186 10 h10 m124 0 h10 m0 0 h32 m-186 -10 v20 m196 0 v-20 m-196 20 v24 m196 0 v-24 m-196 24 q0 10 10 10 m176 0 q10 0 10 -10 m-186 10 h10 m104 0 h10 m0 0 h52 m-186 -10 v20 m196 0 v-20 m-196 20 v24 m196 0 v-24 m-196 24 q0 10 10 10 m176 0 q10 0 10 -10 m-186 10 h10 m80 0 h10 m0 0 h76 m-186 -10 v20 m196 0 v-20 m-196 20 v24 m196 0 v-24 m-196 24 q0 10 10 10 m176 0 q10 0 10 -10 m-186 10 h10 m90 0 h10 m0 0 h66 m-186 -10 v20 m196 0 v-20 m-196 20 v24 m196 0 v-24 m-196 24 q0 10 10 10 m176 0 q10 0 10 -10 m-186 10 h10 m82 0 h10 m0 0 h74 m-186 -10 v20 m196 0 v-20 m-196 20 v24 m196 0 v-24 m-196 24 q0 10 10 10 m176 0 q10 0 10 -10 m-186 10 h10 m74 0 h10 m0 0 h82 m-186 -10 v20 m196 0 v-20 m-196 20 v24 m196 0 v-24 m-196 24 q0 10 10 10 m176 0 q10 0 10 -10 m-186 10 h10 m48 0 h10 m0 0 h108 m-186 -10 v20 m196 0 v-20 m-196 20 v24 m196 0 v-24 m-196 24 q0 10 10 10 m176 0 q10 0 10 -10 m-186 10 h10 m58 0 h10 m0 0 h98 m-186 -10 v20 m196 0 v-20 m-196 20 v24 m196 0 v-24 m-196 24 q0 10 10 10 m176 0 q10 0 10 -10 m-186 10 h10 m72 0 h10 m0 0 h84 m-186 -10 v20 m196 0 v-20 m-196 20 v24 m196 0 v-24 m-196 24 q0 10 10 10 m176 0 q10 0 10 -10 m-186 10 h10 m56 0 h10 m0 0 h100 m-186 -10 v20 m196 0 v-20 m-196 20 v24 m196 0 v-24 m-196 24 q0 10 10 10 m176 0 q10 0 10 -10 m-186 10 h10 m80 0 h10 m0 0 h76 m-186 -10 v20 m196 0 v-20 m-196 20 v24 m196 0 v-24 m-196 24 q0 10 10 10 m176 0 q10 0 10 -10 m-186 10 h10 m76 0 h10 m0 0 h80 m-186 -10 v20 m196 0 v-20 m-196 20 v24 m196 0 v-24 m-196 24 q0 10 10 10 m176 0 q10 0 10 -10 m-186 10 h10 m80 0 h10 m0 0 h76 m-186 -10 v20 m196 0 v-20 m-196 20 v24 m196 0 v-24 m-196 24 q0 10 10 10 m176 0 q10 0 10 -10 m-186 10 h10 m58 0 h10 m0 0 h98 m-186 -10 v20 m196 0 v-20 m-196 20 v24 m196 0 v-24 m-196 24 q0 10 10 10 m176 0 q10 0 10 -10 m-186 10 h10 m66 0 h10 m0 0 h90 m-186 -10 v20 m196 0 v-20 m-196 20 v24 m196 0 v-24 m-196 24 q0 10 10 10 m176 0 q10 0 10 -10 m-186 10 h10 m52 0 h10 m0 0 h104 m-186 -10 v20 m196 0 v-20 m-196 20 v24 m196 0 v-24 m-196 24 q0 10 10 10 m176 0 q10 0 10 -10 m-186 10 h10 m96 0 h10 m0 0 h60 m-186 -10 v20 m196 0 v-20 m-196 20 v24 m196 0 v-24 m-196 24 q0 10 10 10 m176 0 q10 0 10 -10 m-186 10 h10 m70 0 h10 m0 0 h86 m-186 -10 v20 m196 0 v-20 m-196 20 v24 m196 0 v-24 m-196 24 q0 10 10 10 m176 0 q10 0 10 -10 m-186 10 h10 m82 0 h10 m0 0 h74 m-186 -10 v20 m196 0 v-20 m-196 20 v24 m196 0 v-24 m-196 24 q0 10 10 10 m176 0 q10 0 10 -10 m-186 10 h10 m84 0 h10 m0 0 h72 m-186 -10 v20 m196 0 v-20 m-196 20 v24 m196 0 v-24 m-196 24 q0 10 10 10 m176 0 q10 0 10 -10 m-186 10 h10 m120 0 h10 m0 0 h36 m-186 -10 v20 m196 0 v-20 m-196 20 v24 m196 0 v-24 m-196 24 q0 10 10 10 m176 0 q10 0 10 -10 m-186 10 h10 m74 0 h10 m0 0 h82 m-186 -10 v20 m196 0 v-20 m-196 20 v24 m196 0 v-24 m-196 24 q0 10 10 10 m176 0 q10 0 10 -10 m-186 10 h10 m52 0 h10 m0 0 h104 m-186 -10 v20 m196 0 v-20 m-196 20 v24 m196 0 v-24 m-196 24 q0 10 10 10 m176 0 q10 0 10 -10 m-186 10 h10 m56 0 h10 m0 0 h100 m-186 -10 v20 m196 0 v-20 m-196 20 v24 m196 0 v-24 m-196 24 q0 10 10 10 m176 0 q10 0 10 -10 m-186 10 h10 m118 0 h10 m0 0 h38 m-186 -10 v20 m196 0 v-20 m-196 20 v24 m196 0 v-24 m-196 24 q0 10 10 10 m176 0 q10 0 10 -10 m-186 10 h10 m90 0 h10 m0 0 h66 m-186 -10 v20 m196 0 v-20 m-196 20 v24 m196 0 v-24 m-196 24 q0 10 10 10 m176 0 q10 0 10 -10 m-186 10 h10 m80 0 h10 m0 0 h76 m-186 -10 v20 m196 0 v-20 m-196 20 v24 m196 0 v-24 m-196 24 q0 10 10 10 m176 0 q10 0 10 -10 m-186 10 h10 m62 0 h10 m0 0 h94 m-186 -10 v20 m196 0 v-20 m-196 20 v24 m196 0 v-24 m-196 24 q0 10 10 10 m176 0 q10 0 10 -10 m-186 10 h10 m52 0 h10 m0 0 h104 m-186 -10 v20 m196 0 v-20 m-196 20 v24 m196 0 v-24 m-196 24 q0 10 10 10 m176 0 q10 0 10 -10 m-186 10 h10 m50 0 h10 m0 0 h106 m-186 -10 v20 m196 0 v-20 m-196 20 v24 m196 0 v-24 m-196 24 q0 10 10 10 m176 0 q10 0 10 -10 m-186 10 h10 m86 0 h10 m0 0 h70 m-186 -10 v20 m196 0 v-20 m-196 20 v24 m196 0 v-24 m-196 24 q0 10 10 10 m176 0 q10 0 10 -10 m-186 10 h10 m48 0 h10 m0 0 h108 m-186 -10 v20 m196 0 v-20 m-196 20 v24 m196 0 v-24 m-196 24 q0 10 10 10 m176 0 q10 0 10 -10 m-186 10 h10 m82 0 h10 m0 0 h74 m-186 -10 v20 m196 0 v-20 m-196 20 v24 m196 0 v-24 m-196 24 q0 10 10 10 m176 0 q10 0 10 -10 m-186 10 h10 m56 0 h10 m0 0 h100 m-186 -10 v20 m196 0 v-20 m-196 20 v24 m196 0 v-24 m-196 24 q0 10 10 10 m176 0 q10 0 10 -10 m-186 10 h10 m64 0 h10 m0 0 h92 m-186 -10 v20 m196 0 v-20 m-196 20 v24 m196 0 v-24 m-196 24 q0 10 10 10 m176 0 q10 0 10 -10 m-186 10 h10 m66 0 h10 m0 0 h90 m-186 -10 v20 m196 0 v-20 m-196 20 v24 m196 0 v-24 m-196 24 q0 10 10 10 m176 0 q10 0 10 -10 m-186 10 h10 m52 0 h10 m0 0 h104 m-186 -10 v20 m196 0 v-20 m-196 20 v24 m196 0 v-24 m-196 24 q0 10 10 10 m176 0 q10 0 10 -10 m-186 10 h10 m50 0 h10 m0 0 h106 m-186 -10 v20 m196 0 v-20 m-196 20 v24 m196 0 v-24 m-196 24 q0 10 10 10 m176 0 q10 0 10 -10 m-186 10 h10 m80 0 h10 m0 0 h76 m-186 -10 v20 m196 0 v-20 m-196 20 v24 m196 0 v-24 m-196 24 q0 10 10 10 m176 0 q10 0 10 -10 m-186 10 h10 m86 0 h10 m0 0 h70 m-186 -10 v20 m196 0 v-20 m-196 20 v24 m196 0 v-24 m-196 24 q0 10 10 10 m176 0 q10 0 10 -10 m-186 10 h10 m46 0 h10 m0 0 h110 m-186 -10 v20 m196 0 v-20 m-196 20 v24 m196 0 v-24 m-196 24 q0 10 10 10 m176 0 q10 0 10 -10 m-186 10 h10 m70 0 h10 m0 0 h86 m-186 -10 v20 m196 0 v-20 m-196 20 v24 m196 0 v-24 m-196 24 q0 10 10 10 m176 0 q10 0 10 -10 m-186 10 h10 m44 0 h10 m0 0 h112 m-186 -10 v20 m196 0 v-20 m-196 20 v24 m196 0 v-24 m-196 24 q0 10 10 10 m176 0 q10 0 10 -10 m-186 10 h10 m88 0 h10 m0 0 h68 m-186 -10 v20 m196 0 v-20 m-196 20 v24 m196 0 v-24 m-196 24 q0 10 10 10 m176 0 q10 0 10 -10 m-186 10 h10 m70 0 h10 m0 0 h86 m-186 -10 v20 m196 0 v-20 m-196 20 v24 m196 0 v-24 m-196 24 q0 10 10 10 m176 0 q10 0 10 -10 m-186 10 h10 m70 0 h10 m0 0 h86 m-186 -10 v20 m196 0 v-20 m-196 20 v24 m196 0 v-24 m-196 24 q0 10 10 10 m176 0 q10 0 10 -10 m-186 10 h10 m60 0 h10 m0 0 h96 m-186 -10 v20 m196 0 v-20 m-196 20 v24 m196 0 v-24 m-196 24 q0 10 10 10 m176 0 q10 0 10 -10 m-186 10 h10 m74 0 h10 m0 0 h82 m-186 -10 v20 m196 0 v-20 m-196 20 v24 m196 0 v-24 m-196 24 q0 10 10 10 m176 0 q10 0 10 -10 m-186 10 h10 m68 0 h10 m0 0 h88 m-186 -10 v20 m196 0 v-20 m-196 20 v24 m196 0 v-24 m-196 24 q0 10 10 10 m176 0 q10 0 10 -10 m-186 10 h10 m94 0 h10 m0 0 h62 m-186 -10 v20 m196 0 v-20 m-196 20 v24 m196 0 v-24 m-196 24 q0 10 10 10 m176 0 q10 0 10 -10 m-186 10 h10 m86 0 h10 m0 0 h70 m-186 -10 v20 m196 0 v-20 m-196 20 v24 m196 0 v-24 m-196 24 q0 10 10 10 m176 0 q10 0 10 -10 m-186 10 h10 m82 0 h10 m0 0 h74 m-186 -10 v20 m196 0 v-20 m-196 20 v24 m196 0 v-24 m-196 24 q0 10 10 10 m176 0 q10 0 10 -10 m-186 10 h10 m66 0 h10 m0 0 h90 m-186 -10 v20 m196 0 v-20 m-196 20 v24 m196 0 v-24 m-196 24 q0 10 10 10 m176 0 q10 0 10 -10 m-186 10 h10 m68 0 h10 m0 0 h88 m-186 -10 v20 m196 0 v-20 m-196 20 v24 m196 0 v-24 m-196 24 q0 10 10 10 m176 0 q10 0 10 -10 m-186 10 h10 m72 0 h10 m0 0 h84 m-186 -10 v20 m196 0 v-20 m-196 20 v24 m196 0 v-24 m-196 24 q0 10 10 10 m176 0 q10 0 10 -10 m-186 10 h10 m46 0 h10 m0 0 h110 m-186 -10 v20 m196 0 v-20 m-196 20 v24 m196 0 v-24 m-196 24 q0 10 10 10 m176 0 q10 0 10 -10 m-186 10 h10 m64 0 h10 m0 0 h92 m-186 -10 v20 m196 0 v-20 m-196 20 v24 m196 0 v-24 m-196 24 q0 10 10 10 m176 0 q10 0 10 -10 m-186 10 h10 m52 0 h10 m0 0 h104 m-186 -10 v20 m196 0 v-20 m-196 20 v24 m196 0 v-24 m-196 24 q0 10 10 10 m176 0 q10 0 10 -10 m-186 10 h10 m60 0 h10 m0 0 h96 m-186 -10 v20 m196 0 v-20 m-196 20 v24 m196 0 v-24 m-196 24 q0 10 10 10 m176 0 q10 0 10 -10 m-186 10 h10 m70 0 h10 m0 0 h86 m-186 -10 v20 m196 0 v-20 m-196 20 v24 m196 0 v-24 m-196 24 q0 10 10 10 m176 0 q10 0 10 -10 m-186 10 h10 m60 0 h10 m0 0 h96 m23 -4752 h-3"/>
   <polygon points="245 17 253 13 253 21"/>
   <polygon points="245 17 237 13 237 21"/>
</svg>
