<?xml version="1.0" encoding="UTF-8"?>
<svg xmlns="http://www.w3.org/2000/svg" width="521" height="465">
   <defs>
      <style type="text/css">
    @namespace "http://www.w3.org/2000/svg";
    .line                 {fill: none; stroke: #332900; stroke-width: 1;}
    .bold-line            {stroke: #141000; shape-rendering: crispEdges; stroke-width: 2;}
    .thin-line            {stroke: #1F1800; shape-rendering: crispEdges}
    .filled               {fill: #332900; stroke: none;}
    text.terminal         {font-family: Verdana, Sans-serif;
                            font-size: 12px;
                            fill: #141000;
                            font-weight: bold;
                          }
    text.nonterminal      {font-family: Verdana, Sans-serif;
                            font-size: 12px;
                            fill: #1A1400;
                            font-weight: normal;
                          }
    text.regexp           {font-family: Verdana, Sans-serif;
                            font-size: 12px;
                            fill: #1F1800;
                            font-weight: normal;
                          }
    rect, circle, polygon {fill: #332900; stroke: #332900;}
    rect.terminal         {fill: #FFDB4D; stroke: #332900; stroke-width: 1;}
    rect.nonterminal      {fill: #FFEC9E; stroke: #332900; stroke-width: 1;}
    rect.text             {fill: none; stroke: none;}
    polygon.regexp        {fill: #FFF4C7; stroke: #332900; stroke-width: 1;}
  </style>
   </defs>
   <polygon points="9 17 1 13 1 21"/>
   <polygon points="17 17 9 13 9 21"/>
   <a xmlns:xlink="http://www.w3.org/1999/xlink"
      xlink:href="#commonValueExpression"
      xlink:title="commonValueExpression">
      <rect x="51" y="3" width="178" height="32"/>
      <rect x="49" y="1" width="178" height="32" class="nonterminal"/>
      <text class="nonterminal" x="59" y="21">commonValueExpression</text>
   </a>
   <a xmlns:xlink="http://www.w3.org/1999/xlink"
      xlink:href="#betweenCrit"
      xlink:title="betweenCrit">
      <rect x="269" y="35" width="96" height="32"/>
      <rect x="267" y="33" width="96" height="32" class="nonterminal"/>
      <text class="nonterminal" x="277" y="53">betweenCrit</text>
   </a>
   <a xmlns:xlink="http://www.w3.org/1999/xlink"
      xlink:href="#matchCrit"
      xlink:title="matchCrit">
      <rect x="269" y="79" width="80" height="32"/>
      <rect x="267" y="77" width="80" height="32" class="nonterminal"/>
      <text class="nonterminal" x="277" y="97">matchCrit</text>
   </a>
   <a xmlns:xlink="http://www.w3.org/1999/xlink"
      xlink:href="#regexMatchCrit"
      xlink:title="regexMatchCrit">
      <rect x="269" y="123" width="116" height="32"/>
      <rect x="267" y="121" width="116" height="32" class="nonterminal"/>
      <text class="nonterminal" x="277" y="141">regexMatchCrit</text>
   </a>
   <a xmlns:xlink="http://www.w3.org/1999/xlink"
      xlink:href="#setCrit"
      xlink:title="setCrit">
      <rect x="269" y="167" width="62" height="32"/>
      <rect x="267" y="165" width="62" height="32" class="nonterminal"/>
      <text class="nonterminal" x="277" y="185">setCrit</text>
   </a>
   <a xmlns:xlink="http://www.w3.org/1999/xlink"
      xlink:href="#isNullCrit"
      xlink:title="isNullCrit">
      <rect x="269" y="211" width="76" height="32"/>
      <rect x="267" y="209" width="76" height="32" class="nonterminal"/>
      <text class="nonterminal" x="277" y="229">isNullCrit</text>
   </a>
   <a xmlns:xlink="http://www.w3.org/1999/xlink"
      xlink:href="#subqueryCompareCriteria"
      xlink:title="subqueryCompareCriteria">
      <rect x="269" y="255" width="184" height="32"/>
      <rect x="267" y="253" width="184" height="32" class="nonterminal"/>
      <text class="nonterminal" x="277" y="273">subqueryCompareCriteria</text>
   </a>
   <a xmlns:xlink="http://www.w3.org/1999/xlink"
      xlink:href="#compareCrit"
      xlink:title="compareCrit">
      <rect x="269" y="299" width="96" height="32"/>
      <rect x="267" y="297" width="96" height="32" class="nonterminal"/>
      <text class="nonterminal" x="277" y="317">compareCrit</text>
   </a>
   <a xmlns:xlink="http://www.w3.org/1999/xlink"
      xlink:href="#isDistinct"
      xlink:title="isDistinct">
      <rect x="269" y="343" width="76" height="32"/>
      <rect x="267" y="341" width="76" height="32" class="nonterminal"/>
      <text class="nonterminal" x="277" y="361">isDistinct</text>
   </a>
   <a xmlns:xlink="http://www.w3.org/1999/xlink"
      xlink:href="#existsCriteria"
      xlink:title="existsCriteria">
      <rect x="51" y="387" width="104" height="32"/>
      <rect x="49" y="385" width="104" height="32" class="nonterminal"/>
      <text class="nonterminal" x="59" y="405">existsCriteria</text>
   </a>
   <a xmlns:xlink="http://www.w3.org/1999/xlink"
      xlink:href="#xmlExists"
      xlink:title="xmlExists">
      <rect x="51" y="431" width="78" height="32"/>
      <rect x="49" y="429" width="78" height="32" class="nonterminal"/>
      <text class="nonterminal" x="59" y="449">xmlExists</text>
   </a>
   <path class="line"
         d="m17 17 h2 m20 0 h10 m178 0 h10 m20 0 h10 m0 0 h194 m-224 0 h20 m204 0 h20 m-244 0 q10 0 10 10 m224 0 q0 -10 10 -10 m-234 10 v12 m224 0 v-12 m-224 12 q0 10 10 10 m204 0 q10 0 10 -10 m-214 10 h10 m96 0 h10 m0 0 h88 m-214 -10 v20 m224 0 v-20 m-224 20 v24 m224 0 v-24 m-224 24 q0 10 10 10 m204 0 q10 0 10 -10 m-214 10 h10 m80 0 h10 m0 0 h104 m-214 -10 v20 m224 0 v-20 m-224 20 v24 m224 0 v-24 m-224 24 q0 10 10 10 m204 0 q10 0 10 -10 m-214 10 h10 m116 0 h10 m0 0 h68 m-214 -10 v20 m224 0 v-20 m-224 20 v24 m224 0 v-24 m-224 24 q0 10 10 10 m204 0 q10 0 10 -10 m-214 10 h10 m62 0 h10 m0 0 h122 m-214 -10 v20 m224 0 v-20 m-224 20 v24 m224 0 v-24 m-224 24 q0 10 10 10 m204 0 q10 0 10 -10 m-214 10 h10 m76 0 h10 m0 0 h108 m-214 -10 v20 m224 0 v-20 m-224 20 v24 m224 0 v-24 m-224 24 q0 10 10 10 m204 0 q10 0 10 -10 m-214 10 h10 m184 0 h10 m-214 -10 v20 m224 0 v-20 m-224 20 v24 m224 0 v-24 m-224 24 q0 10 10 10 m204 0 q10 0 10 -10 m-214 10 h10 m96 0 h10 m0 0 h88 m-214 -10 v20 m224 0 v-20 m-224 20 v24 m224 0 v-24 m-224 24 q0 10 10 10 m204 0 q10 0 10 -10 m-214 10 h10 m76 0 h10 m0 0 h108 m-442 -340 h20 m442 0 h20 m-482 0 q10 0 10 10 m462 0 q0 -10 10 -10 m-472 10 v364 m462 0 v-364 m-462 364 q0 10 10 10 m442 0 q10 0 10 -10 m-452 10 h10 m104 0 h10 m0 0 h318 m-452 -10 v20 m462 0 v-20 m-462 20 v24 m462 0 v-24 m-462 24 q0 10 10 10 m442 0 q10 0 10 -10 m-452 10 h10 m78 0 h10 m0 0 h344 m23 -428 h-3"/>
   <polygon points="511 17 519 13 519 21"/>
   <polygon points="511 17 503 13 503 21"/>
</svg>
