<?xml version="1.0" encoding="UTF-8"?>
<svg xmlns="http://www.w3.org/2000/svg" width="857" height="145">
   <defs>
      <style type="text/css">
    @namespace "http://www.w3.org/2000/svg";
    .line                 {fill: none; stroke: #332900; stroke-width: 1;}
    .bold-line            {stroke: #141000; shape-rendering: crispEdges; stroke-width: 2;}
    .thin-line            {stroke: #1F1800; shape-rendering: crispEdges}
    .filled               {fill: #332900; stroke: none;}
    text.terminal         {font-family: Verdana, Sans-serif;
                            font-size: 12px;
                            fill: #141000;
                            font-weight: bold;
                          }
    text.nonterminal      {font-family: Verdana, Sans-serif;
                            font-size: 12px;
                            fill: #1A1400;
                            font-weight: normal;
                          }
    text.regexp           {font-family: Verdana, Sans-serif;
                            font-size: 12px;
                            fill: #1F1800;
                            font-weight: normal;
                          }
    rect, circle, polygon {fill: #332900; stroke: #332900;}
    rect.terminal         {fill: #FFDB4D; stroke: #332900; stroke-width: 1;}
    rect.nonterminal      {fill: #FFEC9E; stroke: #332900; stroke-width: 1;}
    rect.text             {fill: none; stroke: none;}
    polygon.regexp        {fill: #FFF4C7; stroke: #332900; stroke-width: 1;}
  </style>
   </defs>
   <polygon points="9 17 1 13 1 21"/>
   <polygon points="17 17 9 13 9 21"/>
   <rect x="31" y="3" width="28" height="32" rx="10"/>
   <rect x="29"
         y="1"
         width="28"
         height="32"
         class="terminal"
         rx="10"/>
   <text class="terminal" x="39" y="21">{</text>
   <rect x="99" y="35" width="26" height="32" rx="10"/>
   <rect x="97"
         y="33"
         width="26"
         height="32"
         class="terminal"
         rx="10"/>
   <text class="terminal" x="107" y="53">?</text>
   <rect x="145" y="35" width="30" height="32" rx="10"/>
   <rect x="143"
         y="33"
         width="30"
         height="32"
         class="terminal"
         rx="10"/>
   <text class="terminal" x="153" y="53">=</text>
   <rect x="215" y="3" width="42" height="32" rx="10"/>
   <rect x="213"
         y="1"
         width="42"
         height="32"
         class="terminal"
         rx="10"/>
   <text class="terminal" x="223" y="21">call</text>
   <a xmlns:xlink="http://www.w3.org/1999/xlink"
      xlink:href="#id"
      xlink:title="id">
      <rect x="277" y="3" width="30" height="32"/>
      <rect x="275" y="1" width="30" height="32" class="nonterminal"/>
      <text class="nonterminal" x="285" y="21">id</text>
   </a>
   <rect x="347" y="35" width="26" height="32" rx="10"/>
   <rect x="345"
         y="33"
         width="26"
         height="32"
         class="terminal"
         rx="10"/>
   <text class="terminal" x="355" y="53">(</text>
   <a xmlns:xlink="http://www.w3.org/1999/xlink"
      xlink:href="#executeNamedParams"
      xlink:title="executeNamedParams">
      <rect x="413" y="67" width="162" height="32"/>
      <rect x="411" y="65" width="162" height="32" class="nonterminal"/>
      <text class="nonterminal" x="421" y="85">executeNamedParams</text>
   </a>
   <a xmlns:xlink="http://www.w3.org/1999/xlink"
      xlink:href="#expressionList"
      xlink:title="expressionList">
      <rect x="413" y="111" width="112" height="32"/>
      <rect x="411" y="109" width="112" height="32" class="nonterminal"/>
      <text class="nonterminal" x="421" y="129">expressionList</text>
   </a>
   <rect x="615" y="35" width="26" height="32" rx="10"/>
   <rect x="613"
         y="33"
         width="26"
         height="32"
         class="terminal"
         rx="10"/>
   <text class="terminal" x="623" y="53">)</text>
   <rect x="681" y="3" width="28" height="32" rx="10"/>
   <rect x="679"
         y="1"
         width="28"
         height="32"
         class="terminal"
         rx="10"/>
   <text class="terminal" x="689" y="21">}</text>
   <a xmlns:xlink="http://www.w3.org/1999/xlink"
      xlink:href="#option"
      xlink:title="option">
      <rect x="749" y="35" width="60" height="32"/>
      <rect x="747" y="33" width="60" height="32" class="nonterminal"/>
      <text class="nonterminal" x="757" y="53">option</text>
   </a>
   <path class="line"
         d="m17 17 h2 m0 0 h10 m28 0 h10 m20 0 h10 m0 0 h86 m-116 0 h20 m96 0 h20 m-136 0 q10 0 10 10 m116 0 q0 -10 10 -10 m-126 10 v12 m116 0 v-12 m-116 12 q0 10 10 10 m96 0 q10 0 10 -10 m-106 10 h10 m26 0 h10 m0 0 h10 m30 0 h10 m20 -32 h10 m42 0 h10 m0 0 h10 m30 0 h10 m20 0 h10 m0 0 h304 m-334 0 h20 m314 0 h20 m-354 0 q10 0 10 10 m334 0 q0 -10 10 -10 m-344 10 v12 m334 0 v-12 m-334 12 q0 10 10 10 m314 0 q10 0 10 -10 m-324 10 h10 m26 0 h10 m20 0 h10 m0 0 h172 m-202 0 h20 m182 0 h20 m-222 0 q10 0 10 10 m202 0 q0 -10 10 -10 m-212 10 v12 m202 0 v-12 m-202 12 q0 10 10 10 m182 0 q10 0 10 -10 m-192 10 h10 m162 0 h10 m-192 -10 v20 m202 0 v-20 m-202 20 v24 m202 0 v-24 m-202 24 q0 10 10 10 m182 0 q10 0 10 -10 m-192 10 h10 m112 0 h10 m0 0 h50 m20 -76 h10 m26 0 h10 m20 -32 h10 m28 0 h10 m20 0 h10 m0 0 h70 m-100 0 h20 m80 0 h20 m-120 0 q10 0 10 10 m100 0 q0 -10 10 -10 m-110 10 v12 m100 0 v-12 m-100 12 q0 10 10 10 m80 0 q10 0 10 -10 m-90 10 h10 m60 0 h10 m23 -32 h-3"/>
   <polygon points="847 17 855 13 855 21"/>
   <polygon points="847 17 839 13 839 21"/>
</svg>
