<?xml version="1.0" encoding="UTF-8"?>
<svg xmlns="http://www.w3.org/2000/svg" width="905" height="85">
   <defs>
      <style type="text/css">
    @namespace "http://www.w3.org/2000/svg";
    .line                 {fill: none; stroke: #332900; stroke-width: 1;}
    .bold-line            {stroke: #141000; shape-rendering: crispEdges; stroke-width: 2;}
    .thin-line            {stroke: #1F1800; shape-rendering: crispEdges}
    .filled               {fill: #332900; stroke: none;}
    text.terminal         {font-family: Verdana, Sans-serif;
                            font-size: 12px;
                            fill: #141000;
                            font-weight: bold;
                          }
    text.nonterminal      {font-family: Verdana, Sans-serif;
                            font-size: 12px;
                            fill: #1A1400;
                            font-weight: normal;
                          }
    text.regexp           {font-family: Verdana, Sans-serif;
                            font-size: 12px;
                            fill: #1F1800;
                            font-weight: normal;
                          }
    rect, circle, polygon {fill: #332900; stroke: #332900;}
    rect.terminal         {fill: #FFDB4D; stroke: #332900; stroke-width: 1;}
    rect.nonterminal      {fill: #FFEC9E; stroke: #332900; stroke-width: 1;}
    rect.text             {fill: none; stroke: none;}
    polygon.regexp        {fill: #FFF4C7; stroke: #332900; stroke-width: 1;}
  </style>
   </defs>
   <polygon points="9 33 1 29 1 37"/>
   <polygon points="17 33 9 29 9 37"/>
   <rect x="31" y="19" width="50" height="32" rx="10"/>
   <rect x="29"
         y="17"
         width="50"
         height="32"
         class="terminal"
         rx="10"/>
   <text class="terminal" x="39" y="37">case</text>
   <a xmlns:xlink="http://www.w3.org/1999/xlink"
      xlink:href="#expression"
      xlink:title="expression">
      <rect x="101" y="19" width="90" height="32"/>
      <rect x="99" y="17" width="90" height="32" class="nonterminal"/>
      <text class="nonterminal" x="109" y="37">expression</text>
   </a>
   <rect x="231" y="19" width="56" height="32" rx="10"/>
   <rect x="229"
         y="17"
         width="56"
         height="32"
         class="terminal"
         rx="10"/>
   <text class="terminal" x="239" y="37">when</text>
   <a xmlns:xlink="http://www.w3.org/1999/xlink"
      xlink:href="#expression"
      xlink:title="expression">
      <rect x="307" y="19" width="90" height="32"/>
      <rect x="305" y="17" width="90" height="32" class="nonterminal"/>
      <text class="nonterminal" x="315" y="37">expression</text>
   </a>
   <rect x="417" y="19" width="50" height="32" rx="10"/>
   <rect x="415"
         y="17"
         width="50"
         height="32"
         class="terminal"
         rx="10"/>
   <text class="terminal" x="425" y="37">then</text>
   <a xmlns:xlink="http://www.w3.org/1999/xlink"
      xlink:href="#expression"
      xlink:title="expression">
      <rect x="487" y="19" width="90" height="32"/>
      <rect x="485" y="17" width="90" height="32" class="nonterminal"/>
      <text class="nonterminal" x="495" y="37">expression</text>
   </a>
   <rect x="637" y="51" width="46" height="32" rx="10"/>
   <rect x="635"
         y="49"
         width="46"
         height="32"
         class="terminal"
         rx="10"/>
   <text class="terminal" x="645" y="69">else</text>
   <a xmlns:xlink="http://www.w3.org/1999/xlink"
      xlink:href="#expression"
      xlink:title="expression">
      <rect x="703" y="51" width="90" height="32"/>
      <rect x="701" y="49" width="90" height="32" class="nonterminal"/>
      <text class="nonterminal" x="711" y="69">expression</text>
   </a>
   <rect x="833" y="19" width="44" height="32" rx="10"/>
   <rect x="831"
         y="17"
         width="44"
         height="32"
         class="terminal"
         rx="10"/>
   <text class="terminal" x="841" y="37">end</text>
   <path class="line"
         d="m17 33 h2 m0 0 h10 m50 0 h10 m0 0 h10 m90 0 h10 m20 0 h10 m56 0 h10 m0 0 h10 m90 0 h10 m0 0 h10 m50 0 h10 m0 0 h10 m90 0 h10 m-386 0 l20 0 m-1 0 q-9 0 -9 -10 l0 -12 q0 -10 10 -10 m366 32 l20 0 m-20 0 q10 0 10 -10 l0 -12 q0 -10 -10 -10 m-366 0 h10 m0 0 h356 m40 32 h10 m0 0 h166 m-196 0 h20 m176 0 h20 m-216 0 q10 0 10 10 m196 0 q0 -10 10 -10 m-206 10 v12 m196 0 v-12 m-196 12 q0 10 10 10 m176 0 q10 0 10 -10 m-186 10 h10 m46 0 h10 m0 0 h10 m90 0 h10 m20 -32 h10 m44 0 h10 m3 0 h-3"/>
   <polygon points="895 33 903 29 903 37"/>
   <polygon points="895 33 887 29 887 37"/>
</svg>
