<?xml version="1.0" encoding="UTF-8"?>
<svg xmlns="http://www.w3.org/2000/svg" width="381" height="169">
   <defs>
      <style type="text/css">
    @namespace "http://www.w3.org/2000/svg";
    .line                 {fill: none; stroke: #332900; stroke-width: 1;}
    .bold-line            {stroke: #141000; shape-rendering: crispEdges; stroke-width: 2;}
    .thin-line            {stroke: #1F1800; shape-rendering: crispEdges}
    .filled               {fill: #332900; stroke: none;}
    text.terminal         {font-family: Verdana, Sans-serif;
                            font-size: 12px;
                            fill: #141000;
                            font-weight: bold;
                          }
    text.nonterminal      {font-family: Verdana, Sans-serif;
                            font-size: 12px;
                            fill: #1A1400;
                            font-weight: normal;
                          }
    text.regexp           {font-family: Verdana, Sans-serif;
                            font-size: 12px;
                            fill: #1F1800;
                            font-weight: normal;
                          }
    rect, circle, polygon {fill: #332900; stroke: #332900;}
    rect.terminal         {fill: #FFDB4D; stroke: #332900; stroke-width: 1;}
    rect.nonterminal      {fill: #FFEC9E; stroke: #332900; stroke-width: 1;}
    rect.text             {fill: none; stroke: none;}
    polygon.regexp        {fill: #FFF4C7; stroke: #332900; stroke-width: 1;}
  </style>
   </defs>
   <polygon points="9 17 1 13 1 21"/>
   <polygon points="17 17 9 13 9 21"/>
   <a xmlns:xlink="http://www.w3.org/1999/xlink"
      xlink:href="#createProcedure"
      xlink:title="createProcedure">
      <rect x="51" y="3" width="124" height="32"/>
      <rect x="49" y="1" width="124" height="32" class="nonterminal"/>
      <text class="nonterminal" x="59" y="21">createProcedure</text>
   </a>
   <a xmlns:xlink="http://www.w3.org/1999/xlink"
      xlink:href="#userCommand"
      xlink:title="userCommand">
      <rect x="51" y="47" width="112" height="32"/>
      <rect x="49" y="45" width="112" height="32" class="nonterminal"/>
      <text class="nonterminal" x="59" y="65">userCommand</text>
   </a>
   <a xmlns:xlink="http://www.w3.org/1999/xlink"
      xlink:href="#callableStatement"
      xlink:title="callableStatement">
      <rect x="51" y="91" width="134" height="32"/>
      <rect x="49" y="89" width="134" height="32" class="nonterminal"/>
      <text class="nonterminal" x="59" y="109">callableStatement</text>
   </a>
   <a xmlns:xlink="http://www.w3.org/1999/xlink"
      xlink:href="#explainCommand"
      xlink:title="explainCommand">
      <rect x="51" y="135" width="130" height="32"/>
      <rect x="49" y="133" width="130" height="32" class="nonterminal"/>
      <text class="nonterminal" x="59" y="153">explainCommand</text>
   </a>
   <rect x="245" y="35" width="24" height="32" rx="10"/>
   <rect x="243"
         y="33"
         width="24"
         height="32"
         class="terminal"
         rx="10"/>
   <text class="terminal" x="253" y="53">;</text>
   <a xmlns:xlink="http://www.w3.org/1999/xlink"
      xlink:href="#EOF"
      xlink:title="EOF">
      <rect x="309" y="3" width="44" height="32"/>
      <rect x="307" y="1" width="44" height="32" class="nonterminal"/>
      <text class="nonterminal" x="317" y="21">EOF</text>
   </a>
   <path class="line"
         d="m17 17 h2 m20 0 h10 m124 0 h10 m0 0 h10 m-174 0 h20 m154 0 h20 m-194 0 q10 0 10 10 m174 0 q0 -10 10 -10 m-184 10 v24 m174 0 v-24 m-174 24 q0 10 10 10 m154 0 q10 0 10 -10 m-164 10 h10 m112 0 h10 m0 0 h22 m-164 -10 v20 m174 0 v-20 m-174 20 v24 m174 0 v-24 m-174 24 q0 10 10 10 m154 0 q10 0 10 -10 m-164 10 h10 m134 0 h10 m-164 -10 v20 m174 0 v-20 m-174 20 v24 m174 0 v-24 m-174 24 q0 10 10 10 m154 0 q10 0 10 -10 m-164 10 h10 m130 0 h10 m0 0 h4 m40 -132 h10 m0 0 h34 m-64 0 h20 m44 0 h20 m-84 0 q10 0 10 10 m64 0 q0 -10 10 -10 m-74 10 v12 m64 0 v-12 m-64 12 q0 10 10 10 m44 0 q10 0 10 -10 m-54 10 h10 m24 0 h10 m20 -32 h10 m44 0 h10 m3 0 h-3"/>
   <polygon points="371 17 379 13 379 21"/>
   <polygon points="371 17 363 13 363 21"/>
</svg>
