<?xml version="1.0" encoding="UTF-8"?>
<svg xmlns="http://www.w3.org/2000/svg" width="893" height="135">
   <defs>
      <style type="text/css">
    @namespace "http://www.w3.org/2000/svg";
    .line                 {fill: none; stroke: #332900; stroke-width: 1;}
    .bold-line            {stroke: #141000; shape-rendering: crispEdges; stroke-width: 2;}
    .thin-line            {stroke: #1F1800; shape-rendering: crispEdges}
    .filled               {fill: #332900; stroke: none;}
    text.terminal         {font-family: Verdana, Sans-serif;
                            font-size: 12px;
                            fill: #141000;
                            font-weight: bold;
                          }
    text.nonterminal      {font-family: Verdana, Sans-serif;
                            font-size: 12px;
                            fill: #1A1400;
                            font-weight: normal;
                          }
    text.regexp           {font-family: Verdana, Sans-serif;
                            font-size: 12px;
                            fill: #1F1800;
                            font-weight: normal;
                          }
    rect, circle, polygon {fill: #332900; stroke: #332900;}
    rect.terminal         {fill: #FFDB4D; stroke: #332900; stroke-width: 1;}
    rect.nonterminal      {fill: #FFEC9E; stroke: #332900; stroke-width: 1;}
    rect.text             {fill: none; stroke: none;}
    polygon.regexp        {fill: #FFF4C7; stroke: #332900; stroke-width: 1;}
  </style>
   </defs>
   <polygon points="9 51 1 47 1 55"/>
   <polygon points="17 51 9 47 9 55"/>
   <rect x="31" y="37" width="56" height="32" rx="10"/>
   <rect x="29"
         y="35"
         width="56"
         height="32"
         class="terminal"
         rx="10"/>
   <text class="terminal" x="39" y="55">begin</text>
   <rect x="147" y="101" width="42" height="32" rx="10"/>
   <rect x="145"
         y="99"
         width="42"
         height="32"
         class="terminal"
         rx="10"/>
   <text class="terminal" x="155" y="119">not</text>
   <rect x="229" y="69" width="64" height="32" rx="10"/>
   <rect x="227"
         y="67"
         width="64"
         height="32"
         class="terminal"
         rx="10"/>
   <text class="terminal" x="237" y="87">atomic</text>
   <a xmlns:xlink="http://www.w3.org/1999/xlink"
      xlink:href="#statement"
      xlink:title="statement">
      <rect x="353" y="3" width="86" height="32"/>
      <rect x="351" y="1" width="86" height="32" class="nonterminal"/>
      <text class="nonterminal" x="361" y="21">statement</text>
   </a>
   <rect x="499" y="37" width="86" height="32" rx="10"/>
   <rect x="497"
         y="35"
         width="86"
         height="32"
         class="terminal"
         rx="10"/>
   <text class="terminal" x="507" y="55">exception</text>
   <a xmlns:xlink="http://www.w3.org/1999/xlink"
      xlink:href="#id"
      xlink:title="id">
      <rect x="605" y="37" width="30" height="32"/>
      <rect x="603" y="35" width="30" height="32" class="nonterminal"/>
      <text class="nonterminal" x="613" y="55">id</text>
   </a>
   <a xmlns:xlink="http://www.w3.org/1999/xlink"
      xlink:href="#statement"
      xlink:title="statement">
      <rect x="675" y="3" width="86" height="32"/>
      <rect x="673" y="1" width="86" height="32" class="nonterminal"/>
      <text class="nonterminal" x="683" y="21">statement</text>
   </a>
   <rect x="821" y="37" width="44" height="32" rx="10"/>
   <rect x="819"
         y="35"
         width="44"
         height="32"
         class="terminal"
         rx="10"/>
   <text class="terminal" x="829" y="55">end</text>
   <path class="line"
         d="m17 51 h2 m0 0 h10 m56 0 h10 m20 0 h10 m0 0 h176 m-206 0 h20 m186 0 h20 m-226 0 q10 0 10 10 m206 0 q0 -10 10 -10 m-216 10 v12 m206 0 v-12 m-206 12 q0 10 10 10 m186 0 q10 0 10 -10 m-176 10 h10 m0 0 h52 m-82 0 h20 m62 0 h20 m-102 0 q10 0 10 10 m82 0 q0 -10 10 -10 m-92 10 v12 m82 0 v-12 m-82 12 q0 10 10 10 m62 0 q10 0 10 -10 m-72 10 h10 m42 0 h10 m20 -32 h10 m64 0 h10 m40 -32 h10 m0 0 h96 m-126 0 l20 0 m-1 0 q-9 0 -9 -10 l0 -14 q0 -10 10 -10 m106 34 l20 0 m-20 0 q10 0 10 -10 l0 -14 q0 -10 -10 -10 m-106 0 h10 m86 0 h10 m40 34 h10 m86 0 h10 m0 0 h10 m30 0 h10 m20 0 h10 m0 0 h96 m-126 0 l20 0 m-1 0 q-9 0 -9 -10 l0 -14 q0 -10 10 -10 m106 34 l20 0 m-20 0 q10 0 10 -10 l0 -14 q0 -10 -10 -10 m-106 0 h10 m86 0 h10 m-302 34 h20 m302 0 h20 m-342 0 q10 0 10 10 m322 0 q0 -10 10 -10 m-332 10 v14 m322 0 v-14 m-322 14 q0 10 10 10 m302 0 q10 0 10 -10 m-312 10 h10 m0 0 h292 m20 -34 h10 m44 0 h10 m3 0 h-3"/>
   <polygon points="883 51 891 47 891 55"/>
   <polygon points="883 51 875 47 875 55"/>
</svg>
