<?xml version="1.0" encoding="UTF-8"?>
<svg xmlns="http://www.w3.org/2000/svg" width="379" height="125">
   <defs>
      <style type="text/css">
    @namespace "http://www.w3.org/2000/svg";
    .line                 {fill: none; stroke: #332900; stroke-width: 1;}
    .bold-line            {stroke: #141000; shape-rendering: crispEdges; stroke-width: 2;}
    .thin-line            {stroke: #1F1800; shape-rendering: crispEdges}
    .filled               {fill: #332900; stroke: none;}
    text.terminal         {font-family: Verdana, Sans-serif;
                            font-size: 12px;
                            fill: #141000;
                            font-weight: bold;
                          }
    text.nonterminal      {font-family: Verdana, Sans-serif;
                            font-size: 12px;
                            fill: #1A1400;
                            font-weight: normal;
                          }
    text.regexp           {font-family: Verdana, Sans-serif;
                            font-size: 12px;
                            fill: #1F1800;
                            font-weight: normal;
                          }
    rect, circle, polygon {fill: #332900; stroke: #332900;}
    rect.terminal         {fill: #FFDB4D; stroke: #332900; stroke-width: 1;}
    rect.nonterminal      {fill: #FFEC9E; stroke: #332900; stroke-width: 1;}
    rect.text             {fill: none; stroke: none;}
    polygon.regexp        {fill: #FFF4C7; stroke: #332900; stroke-width: 1;}
  </style>
   </defs>
   <polygon points="9 17 1 13 1 21"/>
   <polygon points="17 17 9 13 9 21"/>
   <rect x="71" y="3" width="66" height="32" rx="10"/>
   <rect x="69"
         y="1"
         width="66"
         height="32"
         class="terminal"
         rx="10"/>
   <text class="terminal" x="79" y="21">unique</text>
   <rect x="71" y="47" width="114" height="32" rx="10"/>
   <rect x="69"
         y="45"
         width="114"
         height="32"
         class="terminal"
         rx="10"/>
   <text class="terminal" x="79" y="65">accesspattern</text>
   <a xmlns:xlink="http://www.w3.org/1999/xlink"
      xlink:href="#columnList"
      xlink:title="columnList">
      <rect x="225" y="3" width="86" height="32"/>
      <rect x="223" y="1" width="86" height="32" class="nonterminal"/>
      <text class="nonterminal" x="233" y="21">columnList</text>
   </a>
   <rect x="51" y="91" width="56" height="32" rx="10"/>
   <rect x="49"
         y="89"
         width="56"
         height="32"
         class="terminal"
         rx="10"/>
   <text class="terminal" x="59" y="109">index</text>
   <rect x="127" y="91" width="26" height="32" rx="10"/>
   <rect x="125"
         y="89"
         width="26"
         height="32"
         class="terminal"
         rx="10"/>
   <text class="terminal" x="135" y="109">(</text>
   <a xmlns:xlink="http://www.w3.org/1999/xlink"
      xlink:href="#expressionList"
      xlink:title="expressionList">
      <rect x="173" y="91" width="112" height="32"/>
      <rect x="171" y="89" width="112" height="32" class="nonterminal"/>
      <text class="nonterminal" x="181" y="109">expressionList</text>
   </a>
   <rect x="305" y="91" width="26" height="32" rx="10"/>
   <rect x="303"
         y="89"
         width="26"
         height="32"
         class="terminal"
         rx="10"/>
   <text class="terminal" x="313" y="109">)</text>
   <path class="line"
         d="m17 17 h2 m40 0 h10 m66 0 h10 m0 0 h48 m-154 0 h20 m134 0 h20 m-174 0 q10 0 10 10 m154 0 q0 -10 10 -10 m-164 10 v24 m154 0 v-24 m-154 24 q0 10 10 10 m134 0 q10 0 10 -10 m-144 10 h10 m114 0 h10 m20 -44 h10 m86 0 h10 m0 0 h20 m-320 0 h20 m300 0 h20 m-340 0 q10 0 10 10 m320 0 q0 -10 10 -10 m-330 10 v68 m320 0 v-68 m-320 68 q0 10 10 10 m300 0 q10 0 10 -10 m-310 10 h10 m56 0 h10 m0 0 h10 m26 0 h10 m0 0 h10 m112 0 h10 m0 0 h10 m26 0 h10 m23 -88 h-3"/>
   <polygon points="369 17 377 13 377 21"/>
   <polygon points="369 17 361 13 361 21"/>
</svg>
