<?xml version="1.0" encoding="UTF-8"?>
<svg xmlns="http://www.w3.org/2000/svg" width="951" height="445">
   <defs>
      <style type="text/css">
    @namespace "http://www.w3.org/2000/svg";
    .line                 {fill: none; stroke: #332900; stroke-width: 1;}
    .bold-line            {stroke: #141000; shape-rendering: crispEdges; stroke-width: 2;}
    .thin-line            {stroke: #1F1800; shape-rendering: crispEdges}
    .filled               {fill: #332900; stroke: none;}
    text.terminal         {font-family: Verdana, Sans-serif;
                            font-size: 12px;
                            fill: #141000;
                            font-weight: bold;
                          }
    text.nonterminal      {font-family: Verdana, Sans-serif;
                            font-size: 12px;
                            fill: #1A1400;
                            font-weight: normal;
                          }
    text.regexp           {font-family: Verdana, Sans-serif;
                            font-size: 12px;
                            fill: #1F1800;
                            font-weight: normal;
                          }
    rect, circle, polygon {fill: #332900; stroke: #332900;}
    rect.terminal         {fill: #FFDB4D; stroke: #332900; stroke-width: 1;}
    rect.nonterminal      {fill: #FFEC9E; stroke: #332900; stroke-width: 1;}
    rect.text             {fill: none; stroke: none;}
    polygon.regexp        {fill: #FFF4C7; stroke: #332900; stroke-width: 1;}
  </style>
   </defs>
   <polygon points="9 61 1 57 1 65"/>
   <polygon points="17 61 9 57 9 65"/>
   <rect x="31" y="47" width="62" height="32" rx="10"/>
   <rect x="29"
         y="45"
         width="62"
         height="32"
         class="terminal"
         rx="10"/>
   <text class="terminal" x="39" y="65">create</text>
   <rect x="133" y="79" width="64" height="32" rx="10"/>
   <rect x="131"
         y="77"
         width="64"
         height="32"
         class="terminal"
         rx="10"/>
   <text class="terminal" x="141" y="97">virtual</text>
   <rect x="133" y="123" width="68" height="32" rx="10"/>
   <rect x="131"
         y="121"
         width="68"
         height="32"
         class="terminal"
         rx="10"/>
   <text class="terminal" x="141" y="141">foreign</text>
   <rect x="261" y="47" width="88" height="32" rx="10"/>
   <rect x="259"
         y="45"
         width="88"
         height="32"
         class="terminal"
         rx="10"/>
   <text class="terminal" x="269" y="65">procedure</text>
   <rect x="261" y="91" width="74" height="32" rx="10"/>
   <rect x="259"
         y="89"
         width="74"
         height="32"
         class="terminal"
         rx="10"/>
   <text class="terminal" x="269" y="109">function</text>
   <a xmlns:xlink="http://www.w3.org/1999/xlink"
      xlink:href="#unqualifiedId"
      xlink:title="unqualifiedId">
      <rect x="389" y="47" width="102" height="32"/>
      <rect x="387" y="45" width="102" height="32" class="nonterminal"/>
      <text class="nonterminal" x="397" y="65">unqualifiedId</text>
   </a>
   <rect x="511" y="47" width="26" height="32" rx="10"/>
   <rect x="509"
         y="45"
         width="26"
         height="32"
         class="terminal"
         rx="10"/>
   <text class="terminal" x="519" y="65">(</text>
   <a xmlns:xlink="http://www.w3.org/1999/xlink"
      xlink:href="#procedureParameter"
      xlink:title="procedureParameter">
      <rect x="597" y="47" width="150" height="32"/>
      <rect x="595" y="45" width="150" height="32" class="nonterminal"/>
      <text class="nonterminal" x="605" y="65">procedureParameter</text>
   </a>
   <rect x="597" y="3" width="24" height="32" rx="10"/>
   <rect x="595"
         y="1"
         width="24"
         height="32"
         class="terminal"
         rx="10"/>
   <text class="terminal" x="605" y="21">,</text>
   <rect x="807" y="47" width="26" height="32" rx="10"/>
   <rect x="805"
         y="45"
         width="26"
         height="32"
         class="terminal"
         rx="10"/>
   <text class="terminal" x="815" y="65">)</text>
   <rect x="45" y="233" width="70" height="32" rx="10"/>
   <rect x="43"
         y="231"
         width="70"
         height="32"
         class="terminal"
         rx="10"/>
   <text class="terminal" x="53" y="251">returns</text>
   <a xmlns:xlink="http://www.w3.org/1999/xlink"
      xlink:href="#optionsClause"
      xlink:title="optionsClause">
      <rect x="155" y="265" width="110" height="32"/>
      <rect x="153" y="263" width="110" height="32" class="nonterminal"/>
      <text class="nonterminal" x="163" y="283">optionsClause</text>
   </a>
   <rect x="345" y="265" width="54" height="32" rx="10"/>
   <rect x="343"
         y="263"
         width="54"
         height="32"
         class="terminal"
         rx="10"/>
   <text class="terminal" x="353" y="283">table</text>
   <rect x="439" y="233" width="26" height="32" rx="10"/>
   <rect x="437"
         y="231"
         width="26"
         height="32"
         class="terminal"
         rx="10"/>
   <text class="terminal" x="447" y="251">(</text>
   <a xmlns:xlink="http://www.w3.org/1999/xlink"
      xlink:href="#procedureRsColumn"
      xlink:title="procedureRsColumn">
      <rect x="505" y="233" width="148" height="32"/>
      <rect x="503" y="231" width="148" height="32" class="nonterminal"/>
      <text class="nonterminal" x="513" y="251">procedureRsColumn</text>
   </a>
   <rect x="505" y="189" width="24" height="32" rx="10"/>
   <rect x="503"
         y="187"
         width="24"
         height="32"
         class="terminal"
         rx="10"/>
   <text class="terminal" x="513" y="207">,</text>
   <rect x="693" y="233" width="26" height="32" rx="10"/>
   <rect x="691"
         y="231"
         width="26"
         height="32"
         class="terminal"
         rx="10"/>
   <text class="terminal" x="701" y="251">)</text>
   <a xmlns:xlink="http://www.w3.org/1999/xlink"
      xlink:href="#parseDataType"
      xlink:title="parseDataType">
      <rect x="325" y="309" width="116" height="32"/>
      <rect x="323" y="307" width="116" height="32" class="nonterminal"/>
      <text class="nonterminal" x="333" y="327">parseDataType</text>
   </a>
   <a xmlns:xlink="http://www.w3.org/1999/xlink"
      xlink:href="#optionsClause"
      xlink:title="optionsClause">
      <rect x="799" y="265" width="110" height="32"/>
      <rect x="797" y="263" width="110" height="32" class="nonterminal"/>
      <text class="nonterminal" x="807" y="283">optionsClause</text>
   </a>
   <rect x="763" y="411" width="34" height="32" rx="10"/>
   <rect x="761"
         y="409"
         width="34"
         height="32"
         class="terminal"
         rx="10"/>
   <text class="terminal" x="771" y="429">as</text>
   <a xmlns:xlink="http://www.w3.org/1999/xlink"
      xlink:href="#statement"
      xlink:title="statement">
      <rect x="817" y="411" width="86" height="32"/>
      <rect x="815" y="409" width="86" height="32" class="nonterminal"/>
      <text class="nonterminal" x="825" y="429">statement</text>
   </a>
   <path class="line"
         d="m17 61 h2 m0 0 h10 m62 0 h10 m20 0 h10 m0 0 h78 m-108 0 h20 m88 0 h20 m-128 0 q10 0 10 10 m108 0 q0 -10 10 -10 m-118 10 v12 m108 0 v-12 m-108 12 q0 10 10 10 m88 0 q10 0 10 -10 m-98 10 h10 m64 0 h10 m0 0 h4 m-98 -10 v20 m108 0 v-20 m-108 20 v24 m108 0 v-24 m-108 24 q0 10 10 10 m88 0 q10 0 10 -10 m-98 10 h10 m68 0 h10 m40 -76 h10 m88 0 h10 m-128 0 h20 m108 0 h20 m-148 0 q10 0 10 10 m128 0 q0 -10 10 -10 m-138 10 v24 m128 0 v-24 m-128 24 q0 10 10 10 m108 0 q10 0 10 -10 m-118 10 h10 m74 0 h10 m0 0 h14 m20 -44 h10 m102 0 h10 m0 0 h10 m26 0 h10 m40 0 h10 m150 0 h10 m-190 0 l20 0 m-1 0 q-9 0 -9 -10 l0 -24 q0 -10 10 -10 m170 44 l20 0 m-20 0 q10 0 10 -10 l0 -24 q0 -10 -10 -10 m-170 0 h10 m24 0 h10 m0 0 h126 m-210 44 h20 m210 0 h20 m-250 0 q10 0 10 10 m230 0 q0 -10 10 -10 m-240 10 v14 m230 0 v-14 m-230 14 q0 10 10 10 m210 0 q10 0 10 -10 m-220 10 h10 m0 0 h200 m20 -34 h10 m26 0 h10 m2 0 l2 0 m2 0 l2 0 m2 0 l2 0 m-852 186 l2 0 m2 0 l2 0 m2 0 l2 0 m22 0 h10 m70 0 h10 m20 0 h10 m0 0 h120 m-150 0 h20 m130 0 h20 m-170 0 q10 0 10 10 m150 0 q0 -10 10 -10 m-160 10 v12 m150 0 v-12 m-150 12 q0 10 10 10 m130 0 q10 0 10 -10 m-140 10 h10 m110 0 h10 m60 -32 h10 m0 0 h64 m-94 0 h20 m74 0 h20 m-114 0 q10 0 10 10 m94 0 q0 -10 10 -10 m-104 10 v12 m94 0 v-12 m-94 12 q0 10 10 10 m74 0 q10 0 10 -10 m-84 10 h10 m54 0 h10 m20 -32 h10 m26 0 h10 m20 0 h10 m148 0 h10 m-188 0 l20 0 m-1 0 q-9 0 -9 -10 l0 -24 q0 -10 10 -10 m168 44 l20 0 m-20 0 q10 0 10 -10 l0 -24 q0 -10 -10 -10 m-168 0 h10 m24 0 h10 m0 0 h124 m20 44 h10 m26 0 h10 m-434 0 h20 m414 0 h20 m-454 0 q10 0 10 10 m434 0 q0 -10 10 -10 m-444 10 v56 m434 0 v-56 m-434 56 q0 10 10 10 m414 0 q10 0 10 -10 m-424 10 h10 m116 0 h10 m0 0 h278 m-714 -76 h20 m714 0 h20 m-754 0 q10 0 10 10 m734 0 q0 -10 10 -10 m-744 10 v90 m734 0 v-90 m-734 90 q0 10 10 10 m714 0 q10 0 10 -10 m-724 10 h10 m0 0 h704 m40 -110 h10 m0 0 h120 m-150 0 h20 m130 0 h20 m-170 0 q10 0 10 10 m150 0 q0 -10 10 -10 m-160 10 v12 m150 0 v-12 m-150 12 q0 10 10 10 m130 0 q10 0 10 -10 m-140 10 h10 m110 0 h10 m22 -32 l2 0 m2 0 l2 0 m2 0 l2 0 m-230 146 l2 0 m2 0 l2 0 m2 0 l2 0 m22 0 h10 m0 0 h150 m-180 0 h20 m160 0 h20 m-200 0 q10 0 10 10 m180 0 q0 -10 10 -10 m-190 10 v12 m180 0 v-12 m-180 12 q0 10 10 10 m160 0 q10 0 10 -10 m-170 10 h10 m34 0 h10 m0 0 h10 m86 0 h10 m23 -32 h-3"/>
   <polygon points="941 393 949 389 949 397"/>
   <polygon points="941 393 933 389 933 397"/>
</svg>
