<?xml version="1.0" encoding="UTF-8"?>
<svg xmlns="http://www.w3.org/2000/svg" width="877" height="69">
   <defs>
      <style type="text/css">
    @namespace "http://www.w3.org/2000/svg";
    .line                 {fill: none; stroke: #332900; stroke-width: 1;}
    .bold-line            {stroke: #141000; shape-rendering: crispEdges; stroke-width: 2;}
    .thin-line            {stroke: #1F1800; shape-rendering: crispEdges}
    .filled               {fill: #332900; stroke: none;}
    text.terminal         {font-family: Verdana, Sans-serif;
                            font-size: 12px;
                            fill: #141000;
                            font-weight: bold;
                          }
    text.nonterminal      {font-family: Verdana, Sans-serif;
                            font-size: 12px;
                            fill: #1A1400;
                            font-weight: normal;
                          }
    text.regexp           {font-family: Verdana, Sans-serif;
                            font-size: 12px;
                            fill: #1F1800;
                            font-weight: normal;
                          }
    rect, circle, polygon {fill: #332900; stroke: #332900;}
    rect.terminal         {fill: #FFDB4D; stroke: #332900; stroke-width: 1;}
    rect.nonterminal      {fill: #FFEC9E; stroke: #332900; stroke-width: 1;}
    rect.text             {fill: none; stroke: none;}
    polygon.regexp        {fill: #FFF4C7; stroke: #332900; stroke-width: 1;}
  </style>
   </defs>
   <polygon points="9 17 1 13 1 21"/>
   <polygon points="17 17 9 13 9 21"/>
   <rect x="31" y="3" width="62" height="32" rx="10"/>
   <rect x="29"
         y="1"
         width="62"
         height="32"
         class="terminal"
         rx="10"/>
   <text class="terminal" x="39" y="21">create</text>
   <rect x="133" y="35" width="50" height="32" rx="10"/>
   <rect x="131"
         y="33"
         width="50"
         height="32"
         class="terminal"
         rx="10"/>
   <text class="terminal" x="141" y="53">local</text>
   <rect x="223" y="3" width="68" height="32" rx="10"/>
   <rect x="221"
         y="1"
         width="68"
         height="32"
         class="terminal"
         rx="10"/>
   <text class="terminal" x="231" y="21">foreign</text>
   <rect x="311" y="3" width="90" height="32" rx="10"/>
   <rect x="309"
         y="1"
         width="90"
         height="32"
         class="terminal"
         rx="10"/>
   <text class="terminal" x="319" y="21">temporary</text>
   <rect x="421" y="3" width="54" height="32" rx="10"/>
   <rect x="419"
         y="1"
         width="54"
         height="32"
         class="terminal"
         rx="10"/>
   <text class="terminal" x="429" y="21">table</text>
   <a xmlns:xlink="http://www.w3.org/1999/xlink"
      xlink:href="#unqualifiedId"
      xlink:title="unqualifiedId">
      <rect x="495" y="3" width="102" height="32"/>
      <rect x="493" y="1" width="102" height="32" class="nonterminal"/>
      <text class="nonterminal" x="503" y="21">unqualifiedId</text>
   </a>
   <a xmlns:xlink="http://www.w3.org/1999/xlink"
      xlink:href="#createTableBody"
      xlink:title="createTableBody">
      <rect x="617" y="3" width="126" height="32"/>
      <rect x="615" y="1" width="126" height="32" class="nonterminal"/>
      <text class="nonterminal" x="625" y="21">createTableBody</text>
   </a>
   <rect x="763" y="3" width="36" height="32" rx="10"/>
   <rect x="761"
         y="1"
         width="36"
         height="32"
         class="terminal"
         rx="10"/>
   <text class="terminal" x="771" y="21">on</text>
   <a xmlns:xlink="http://www.w3.org/1999/xlink"
      xlink:href="#id"
      xlink:title="id">
      <rect x="819" y="3" width="30" height="32"/>
      <rect x="817" y="1" width="30" height="32" class="nonterminal"/>
      <text class="nonterminal" x="827" y="21">id</text>
   </a>
   <path class="line"
         d="m17 17 h2 m0 0 h10 m62 0 h10 m20 0 h10 m0 0 h60 m-90 0 h20 m70 0 h20 m-110 0 q10 0 10 10 m90 0 q0 -10 10 -10 m-100 10 v12 m90 0 v-12 m-90 12 q0 10 10 10 m70 0 q10 0 10 -10 m-80 10 h10 m50 0 h10 m20 -32 h10 m68 0 h10 m0 0 h10 m90 0 h10 m0 0 h10 m54 0 h10 m0 0 h10 m102 0 h10 m0 0 h10 m126 0 h10 m0 0 h10 m36 0 h10 m0 0 h10 m30 0 h10 m3 0 h-3"/>
   <polygon points="867 17 875 13 875 21"/>
   <polygon points="867 17 859 13 859 21"/>
</svg>
