<?xml version="1.0" encoding="UTF-8"?>
<svg xmlns="http://www.w3.org/2000/svg" width="781" height="113">
   <defs>
      <style type="text/css">
    @namespace "http://www.w3.org/2000/svg";
    .line                 {fill: none; stroke: #332900; stroke-width: 1;}
    .bold-line            {stroke: #141000; shape-rendering: crispEdges; stroke-width: 2;}
    .thin-line            {stroke: #1F1800; shape-rendering: crispEdges}
    .filled               {fill: #332900; stroke: none;}
    text.terminal         {font-family: Verdana, Sans-serif;
                            font-size: 12px;
                            fill: #141000;
                            font-weight: bold;
                          }
    text.nonterminal      {font-family: Verdana, Sans-serif;
                            font-size: 12px;
                            fill: #1A1400;
                            font-weight: normal;
                          }
    text.regexp           {font-family: Verdana, Sans-serif;
                            font-size: 12px;
                            fill: #1F1800;
                            font-weight: normal;
                          }
    rect, circle, polygon {fill: #332900; stroke: #332900;}
    rect.terminal         {fill: #FFDB4D; stroke: #332900; stroke-width: 1;}
    rect.nonterminal      {fill: #FFEC9E; stroke: #332900; stroke-width: 1;}
    rect.text             {fill: none; stroke: none;}
    polygon.regexp        {fill: #FFF4C7; stroke: #332900; stroke-width: 1;}
  </style>
   </defs>
   <polygon points="9 33 1 29 1 37"/>
   <polygon points="17 33 9 29 9 37"/>
   <rect x="31" y="19" width="26" height="32" rx="10"/>
   <rect x="29"
         y="17"
         width="26"
         height="32"
         class="terminal"
         rx="10"/>
   <text class="terminal" x="39" y="37">(</text>
   <a xmlns:xlink="http://www.w3.org/1999/xlink"
      xlink:href="#createViewColumn"
      xlink:title="createViewColumn">
      <rect x="77" y="19" width="138" height="32"/>
      <rect x="75" y="17" width="138" height="32" class="nonterminal"/>
      <text class="nonterminal" x="85" y="37">createViewColumn</text>
   </a>
   <rect x="275" y="19" width="24" height="32" rx="10"/>
   <rect x="273"
         y="17"
         width="24"
         height="32"
         class="terminal"
         rx="10"/>
   <text class="terminal" x="283" y="37">,</text>
   <a xmlns:xlink="http://www.w3.org/1999/xlink"
      xlink:href="#tableConstraint"
      xlink:title="tableConstraint">
      <rect x="339" y="19" width="118" height="32"/>
      <rect x="337" y="17" width="118" height="32" class="nonterminal"/>
      <text class="nonterminal" x="347" y="37">tableConstraint</text>
   </a>
   <a xmlns:xlink="http://www.w3.org/1999/xlink"
      xlink:href="#createViewColumn"
      xlink:title="createViewColumn">
      <rect x="339" y="63" width="138" height="32"/>
      <rect x="337" y="61" width="138" height="32" class="nonterminal"/>
      <text class="nonterminal" x="347" y="81">createViewColumn</text>
   </a>
   <rect x="557" y="19" width="26" height="32" rx="10"/>
   <rect x="555"
         y="17"
         width="26"
         height="32"
         class="terminal"
         rx="10"/>
   <text class="terminal" x="565" y="37">)</text>
   <a xmlns:xlink="http://www.w3.org/1999/xlink"
      xlink:href="#optionsClause"
      xlink:title="optionsClause">
      <rect x="623" y="51" width="110" height="32"/>
      <rect x="621" y="49" width="110" height="32" class="nonterminal"/>
      <text class="nonterminal" x="631" y="69">optionsClause</text>
   </a>
   <path class="line"
         d="m17 33 h2 m0 0 h10 m26 0 h10 m0 0 h10 m138 0 h10 m40 0 h10 m24 0 h10 m20 0 h10 m118 0 h10 m0 0 h20 m-178 0 h20 m158 0 h20 m-198 0 q10 0 10 10 m178 0 q0 -10 10 -10 m-188 10 v24 m178 0 v-24 m-178 24 q0 10 10 10 m158 0 q10 0 10 -10 m-168 10 h10 m138 0 h10 m-242 -44 l20 0 m-1 0 q-9 0 -9 -10 l0 -12 q0 -10 10 -10 m242 32 l20 0 m-20 0 q10 0 10 -10 l0 -12 q0 -10 -10 -10 m-242 0 h10 m0 0 h232 m-282 32 h20 m282 0 h20 m-322 0 q10 0 10 10 m302 0 q0 -10 10 -10 m-312 10 v58 m302 0 v-58 m-302 58 q0 10 10 10 m282 0 q10 0 10 -10 m-292 10 h10 m0 0 h272 m20 -78 h10 m26 0 h10 m20 0 h10 m0 0 h120 m-150 0 h20 m130 0 h20 m-170 0 q10 0 10 10 m150 0 q0 -10 10 -10 m-160 10 v12 m150 0 v-12 m-150 12 q0 10 10 10 m130 0 q10 0 10 -10 m-140 10 h10 m110 0 h10 m23 -32 h-3"/>
   <polygon points="771 33 779 29 779 37"/>
   <polygon points="771 33 763 29 763 37"/>
</svg>
