<?xml version="1.0" encoding="UTF-8"?>
<svg xmlns="http://www.w3.org/2000/svg" width="731" height="113">
   <defs>
      <style type="text/css">
    @namespace "http://www.w3.org/2000/svg";
    .line                 {fill: none; stroke: #332900; stroke-width: 1;}
    .bold-line            {stroke: #141000; shape-rendering: crispEdges; stroke-width: 2;}
    .thin-line            {stroke: #1F1800; shape-rendering: crispEdges}
    .filled               {fill: #332900; stroke: none;}
    text.terminal         {font-family: Verdana, Sans-serif;
                            font-size: 12px;
                            fill: #141000;
                            font-weight: bold;
                          }
    text.nonterminal      {font-family: Verdana, Sans-serif;
                            font-size: 12px;
                            fill: #1A1400;
                            font-weight: normal;
                          }
    text.regexp           {font-family: Verdana, Sans-serif;
                            font-size: 12px;
                            fill: #1F1800;
                            font-weight: normal;
                          }
    rect, circle, polygon {fill: #332900; stroke: #332900;}
    rect.terminal         {fill: #FFDB4D; stroke: #332900; stroke-width: 1;}
    rect.nonterminal      {fill: #FFEC9E; stroke: #332900; stroke-width: 1;}
    rect.text             {fill: none; stroke: none;}
    polygon.regexp        {fill: #FFF4C7; stroke: #332900; stroke-width: 1;}
  </style>
   </defs>
   <polygon points="9 33 1 29 1 37"/>
   <polygon points="17 33 9 29 9 37"/>
   <rect x="31" y="19" width="26" height="32" rx="10"/>
   <rect x="29"
         y="17"
         width="26"
         height="32"
         class="terminal"
         rx="10"/>
   <text class="terminal" x="39" y="37">(</text>
   <a xmlns:xlink="http://www.w3.org/1999/xlink"
      xlink:href="#createColumn"
      xlink:title="createColumn">
      <rect x="77" y="19" width="108" height="32"/>
      <rect x="75" y="17" width="108" height="32" class="nonterminal"/>
      <text class="nonterminal" x="85" y="37">createColumn</text>
   </a>
   <rect x="245" y="19" width="24" height="32" rx="10"/>
   <rect x="243"
         y="17"
         width="24"
         height="32"
         class="terminal"
         rx="10"/>
   <text class="terminal" x="253" y="37">,</text>
   <a xmlns:xlink="http://www.w3.org/1999/xlink"
      xlink:href="#tableConstraint"
      xlink:title="tableConstraint">
      <rect x="309" y="19" width="118" height="32"/>
      <rect x="307" y="17" width="118" height="32" class="nonterminal"/>
      <text class="nonterminal" x="317" y="37">tableConstraint</text>
   </a>
   <a xmlns:xlink="http://www.w3.org/1999/xlink"
      xlink:href="#createColumn"
      xlink:title="createColumn">
      <rect x="309" y="63" width="108" height="32"/>
      <rect x="307" y="61" width="108" height="32" class="nonterminal"/>
      <text class="nonterminal" x="317" y="81">createColumn</text>
   </a>
   <rect x="507" y="19" width="26" height="32" rx="10"/>
   <rect x="505"
         y="17"
         width="26"
         height="32"
         class="terminal"
         rx="10"/>
   <text class="terminal" x="515" y="37">)</text>
   <a xmlns:xlink="http://www.w3.org/1999/xlink"
      xlink:href="#optionsClause"
      xlink:title="optionsClause">
      <rect x="573" y="51" width="110" height="32"/>
      <rect x="571" y="49" width="110" height="32" class="nonterminal"/>
      <text class="nonterminal" x="581" y="69">optionsClause</text>
   </a>
   <path class="line"
         d="m17 33 h2 m0 0 h10 m26 0 h10 m0 0 h10 m108 0 h10 m40 0 h10 m24 0 h10 m20 0 h10 m118 0 h10 m-158 0 h20 m138 0 h20 m-178 0 q10 0 10 10 m158 0 q0 -10 10 -10 m-168 10 v24 m158 0 v-24 m-158 24 q0 10 10 10 m138 0 q10 0 10 -10 m-148 10 h10 m108 0 h10 m0 0 h10 m-222 -44 l20 0 m-1 0 q-9 0 -9 -10 l0 -12 q0 -10 10 -10 m222 32 l20 0 m-20 0 q10 0 10 -10 l0 -12 q0 -10 -10 -10 m-222 0 h10 m0 0 h212 m-262 32 h20 m262 0 h20 m-302 0 q10 0 10 10 m282 0 q0 -10 10 -10 m-292 10 v58 m282 0 v-58 m-282 58 q0 10 10 10 m262 0 q10 0 10 -10 m-272 10 h10 m0 0 h252 m20 -78 h10 m26 0 h10 m20 0 h10 m0 0 h120 m-150 0 h20 m130 0 h20 m-170 0 q10 0 10 10 m150 0 q0 -10 10 -10 m-160 10 v12 m150 0 v-12 m-150 12 q0 10 10 10 m130 0 q10 0 10 -10 m-140 10 h10 m110 0 h10 m23 -32 h-3"/>
   <polygon points="721 33 729 29 729 37"/>
   <polygon points="721 33 713 29 713 37"/>
</svg>
