<?xml version="1.0" encoding="UTF-8"?>
<svg xmlns="http://www.w3.org/2000/svg" width="961" height="125">
   <defs>
      <style type="text/css">
    @namespace "http://www.w3.org/2000/svg";
    .line                 {fill: none; stroke: #332900; stroke-width: 1;}
    .bold-line            {stroke: #141000; shape-rendering: crispEdges; stroke-width: 2;}
    .thin-line            {stroke: #1F1800; shape-rendering: crispEdges}
    .filled               {fill: #332900; stroke: none;}
    text.terminal         {font-family: Verdana, Sans-serif;
                            font-size: 12px;
                            fill: #141000;
                            font-weight: bold;
                          }
    text.nonterminal      {font-family: Verdana, Sans-serif;
                            font-size: 12px;
                            fill: #1A1400;
                            font-weight: normal;
                          }
    text.regexp           {font-family: Verdana, Sans-serif;
                            font-size: 12px;
                            fill: #1F1800;
                            font-weight: normal;
                          }
    rect, circle, polygon {fill: #332900; stroke: #332900;}
    rect.terminal         {fill: #FFDB4D; stroke: #332900; stroke-width: 1;}
    rect.nonterminal      {fill: #FFEC9E; stroke: #332900; stroke-width: 1;}
    rect.text             {fill: none; stroke: none;}
    polygon.regexp        {fill: #FFF4C7; stroke: #332900; stroke-width: 1;}
  </style>
   </defs>
   <polygon points="9 17 1 13 1 21"/>
   <polygon points="17 17 9 13 9 21"/>
   <rect x="31" y="3" width="62" height="32" rx="10"/>
   <rect x="29"
         y="1"
         width="62"
         height="32"
         class="terminal"
         rx="10"/>
   <text class="terminal" x="39" y="21">create</text>
   <rect x="113" y="3" width="66" height="32" rx="10"/>
   <rect x="111"
         y="1"
         width="66"
         height="32"
         class="terminal"
         rx="10"/>
   <text class="terminal" x="121" y="21">trigger</text>
   <a xmlns:xlink="http://www.w3.org/1999/xlink"
      xlink:href="#id"
      xlink:title="id">
      <rect x="219" y="35" width="30" height="32"/>
      <rect x="217" y="33" width="30" height="32" class="nonterminal"/>
      <text class="nonterminal" x="227" y="53">id</text>
   </a>
   <rect x="289" y="3" width="36" height="32" rx="10"/>
   <rect x="287"
         y="1"
         width="36"
         height="32"
         class="terminal"
         rx="10"/>
   <text class="terminal" x="297" y="21">on</text>
   <a xmlns:xlink="http://www.w3.org/1999/xlink"
      xlink:href="#id"
      xlink:title="id">
      <rect x="345" y="3" width="30" height="32"/>
      <rect x="343" y="1" width="30" height="32" class="nonterminal"/>
      <text class="nonterminal" x="353" y="21">id</text>
   </a>
   <rect x="415" y="3" width="70" height="32" rx="10"/>
   <rect x="413"
         y="1"
         width="70"
         height="32"
         class="terminal"
         rx="10"/>
   <text class="terminal" x="423" y="21">instead</text>
   <rect x="505" y="3" width="32" height="32" rx="10"/>
   <rect x="503"
         y="1"
         width="32"
         height="32"
         class="terminal"
         rx="10"/>
   <text class="terminal" x="513" y="21">of</text>
   <rect x="415" y="47" width="52" height="32" rx="10"/>
   <rect x="413"
         y="45"
         width="52"
         height="32"
         class="terminal"
         rx="10"/>
   <text class="terminal" x="423" y="65">after</text>
   <rect x="597" y="3" width="58" height="32" rx="10"/>
   <rect x="595"
         y="1"
         width="58"
         height="32"
         class="terminal"
         rx="10"/>
   <text class="terminal" x="605" y="21">insert</text>
   <rect x="597" y="47" width="66" height="32" rx="10"/>
   <rect x="595"
         y="45"
         width="66"
         height="32"
         class="terminal"
         rx="10"/>
   <text class="terminal" x="605" y="65">update</text>
   <rect x="597" y="91" width="62" height="32" rx="10"/>
   <rect x="595"
         y="89"
         width="62"
         height="32"
         class="terminal"
         rx="10"/>
   <text class="terminal" x="605" y="109">delete</text>
   <rect x="703" y="3" width="34" height="32" rx="10"/>
   <rect x="701"
         y="1"
         width="34"
         height="32"
         class="terminal"
         rx="10"/>
   <text class="terminal" x="711" y="21">as</text>
   <a xmlns:xlink="http://www.w3.org/1999/xlink"
      xlink:href="#forEachRowTriggerAction"
      xlink:title="forEachRowTriggerAction">
      <rect x="757" y="3" width="176" height="32"/>
      <rect x="755" y="1" width="176" height="32" class="nonterminal"/>
      <text class="nonterminal" x="765" y="21">forEachRowTriggerAction</text>
   </a>
   <path class="line"
         d="m17 17 h2 m0 0 h10 m62 0 h10 m0 0 h10 m66 0 h10 m20 0 h10 m0 0 h40 m-70 0 h20 m50 0 h20 m-90 0 q10 0 10 10 m70 0 q0 -10 10 -10 m-80 10 v12 m70 0 v-12 m-70 12 q0 10 10 10 m50 0 q10 0 10 -10 m-60 10 h10 m30 0 h10 m20 -32 h10 m36 0 h10 m0 0 h10 m30 0 h10 m20 0 h10 m70 0 h10 m0 0 h10 m32 0 h10 m-162 0 h20 m142 0 h20 m-182 0 q10 0 10 10 m162 0 q0 -10 10 -10 m-172 10 v24 m162 0 v-24 m-162 24 q0 10 10 10 m142 0 q10 0 10 -10 m-152 10 h10 m52 0 h10 m0 0 h70 m40 -44 h10 m58 0 h10 m0 0 h8 m-106 0 h20 m86 0 h20 m-126 0 q10 0 10 10 m106 0 q0 -10 10 -10 m-116 10 v24 m106 0 v-24 m-106 24 q0 10 10 10 m86 0 q10 0 10 -10 m-96 10 h10 m66 0 h10 m-96 -10 v20 m106 0 v-20 m-106 20 v24 m106 0 v-24 m-106 24 q0 10 10 10 m86 0 q10 0 10 -10 m-96 10 h10 m62 0 h10 m0 0 h4 m20 -88 h10 m34 0 h10 m0 0 h10 m176 0 h10 m3 0 h-3"/>
   <polygon points="951 17 959 13 959 21"/>
   <polygon points="951 17 943 13 943 21"/>
</svg>
