<?xml version="1.0" encoding="UTF-8"?>
<svg xmlns="http://www.w3.org/2000/svg" width="867" height="101">
   <defs>
      <style type="text/css">
    @namespace "http://www.w3.org/2000/svg";
    .line                 {fill: none; stroke: #332900; stroke-width: 1;}
    .bold-line            {stroke: #141000; shape-rendering: crispEdges; stroke-width: 2;}
    .thin-line            {stroke: #1F1800; shape-rendering: crispEdges}
    .filled               {fill: #332900; stroke: none;}
    text.terminal         {font-family: Verdana, Sans-serif;
                            font-size: 12px;
                            fill: #141000;
                            font-weight: bold;
                          }
    text.nonterminal      {font-family: Verdana, Sans-serif;
                            font-size: 12px;
                            fill: #1A1400;
                            font-weight: normal;
                          }
    text.regexp           {font-family: Verdana, Sans-serif;
                            font-size: 12px;
                            fill: #1F1800;
                            font-weight: normal;
                          }
    rect, circle, polygon {fill: #332900; stroke: #332900;}
    rect.terminal         {fill: #FFDB4D; stroke: #332900; stroke-width: 1;}
    rect.nonterminal      {fill: #FFEC9E; stroke: #332900; stroke-width: 1;}
    rect.text             {fill: none; stroke: none;}
    polygon.regexp        {fill: #FFF4C7; stroke: #332900; stroke-width: 1;}
  </style>
   </defs>
   <polygon points="9 17 1 13 1 21"/>
   <polygon points="17 17 9 13 9 21"/>
   <rect x="31" y="3" width="62" height="32" rx="10"/>
   <rect x="29"
         y="1"
         width="62"
         height="32"
         class="terminal"
         rx="10"/>
   <text class="terminal" x="39" y="21">create</text>
   <rect x="113" y="3" width="68" height="32" rx="10"/>
   <rect x="111"
         y="1"
         width="68"
         height="32"
         class="terminal"
         rx="10"/>
   <text class="terminal" x="121" y="21">foreign</text>
   <rect x="221" y="3" width="50" height="32" rx="10"/>
   <rect x="219"
         y="1"
         width="50"
         height="32"
         class="terminal"
         rx="10"/>
   <text class="terminal" x="229" y="21">data</text>
   <rect x="291" y="3" width="76" height="32" rx="10"/>
   <rect x="289"
         y="1"
         width="76"
         height="32"
         class="terminal"
         rx="10"/>
   <text class="terminal" x="299" y="21">wrapper</text>
   <rect x="221" y="47" width="86" height="32" rx="10"/>
   <rect x="219"
         y="45"
         width="86"
         height="32"
         class="terminal"
         rx="10"/>
   <text class="terminal" x="229" y="65">translator</text>
   <a xmlns:xlink="http://www.w3.org/1999/xlink"
      xlink:href="#unqualifiedId"
      xlink:title="unqualifiedId">
      <rect x="407" y="3" width="102" height="32"/>
      <rect x="405" y="1" width="102" height="32" class="nonterminal"/>
      <text class="nonterminal" x="415" y="21">unqualifiedId</text>
   </a>
   <rect x="549" y="35" width="50" height="32" rx="10"/>
   <rect x="547"
         y="33"
         width="50"
         height="32"
         class="terminal"
         rx="10"/>
   <text class="terminal" x="557" y="53">type</text>
   <a xmlns:xlink="http://www.w3.org/1999/xlink"
      xlink:href="#id"
      xlink:title="id">
      <rect x="619" y="35" width="30" height="32"/>
      <rect x="617" y="33" width="30" height="32" class="nonterminal"/>
      <text class="nonterminal" x="627" y="53">id</text>
   </a>
   <a xmlns:xlink="http://www.w3.org/1999/xlink"
      xlink:href="#optionsClause"
      xlink:title="optionsClause">
      <rect x="689" y="67" width="110" height="32"/>
      <rect x="687" y="65" width="110" height="32" class="nonterminal"/>
      <text class="nonterminal" x="697" y="85">optionsClause</text>
   </a>
   <path class="line"
         d="m17 17 h2 m0 0 h10 m62 0 h10 m0 0 h10 m68 0 h10 m20 0 h10 m50 0 h10 m0 0 h10 m76 0 h10 m-186 0 h20 m166 0 h20 m-206 0 q10 0 10 10 m186 0 q0 -10 10 -10 m-196 10 v24 m186 0 v-24 m-186 24 q0 10 10 10 m166 0 q10 0 10 -10 m-176 10 h10 m86 0 h10 m0 0 h60 m20 -44 h10 m102 0 h10 m20 0 h10 m0 0 h280 m-310 0 h20 m290 0 h20 m-330 0 q10 0 10 10 m310 0 q0 -10 10 -10 m-320 10 v12 m310 0 v-12 m-310 12 q0 10 10 10 m290 0 q10 0 10 -10 m-300 10 h10 m50 0 h10 m0 0 h10 m30 0 h10 m20 0 h10 m0 0 h120 m-150 0 h20 m130 0 h20 m-170 0 q10 0 10 10 m150 0 q0 -10 10 -10 m-160 10 v12 m150 0 v-12 m-150 12 q0 10 10 10 m130 0 q10 0 10 -10 m-140 10 h10 m110 0 h10 m43 -64 h-3"/>
   <polygon points="857 17 865 13 865 21"/>
   <polygon points="857 17 849 13 849 21"/>
</svg>
