<?xml version="1.0" encoding="UTF-8"?>
<svg xmlns="http://www.w3.org/2000/svg" width="775" height="113">
   <defs>
      <style type="text/css">
    @namespace "http://www.w3.org/2000/svg";
    .line                 {fill: none; stroke: #332900; stroke-width: 1;}
    .bold-line            {stroke: #141000; shape-rendering: crispEdges; stroke-width: 2;}
    .thin-line            {stroke: #1F1800; shape-rendering: crispEdges}
    .filled               {fill: #332900; stroke: none;}
    text.terminal         {font-family: Verdana, Sans-serif;
                            font-size: 12px;
                            fill: #141000;
                            font-weight: bold;
                          }
    text.nonterminal      {font-family: Verdana, Sans-serif;
                            font-size: 12px;
                            fill: #1A1400;
                            font-weight: normal;
                          }
    text.regexp           {font-family: Verdana, Sans-serif;
                            font-size: 12px;
                            fill: #1F1800;
                            font-weight: normal;
                          }
    rect, circle, polygon {fill: #332900; stroke: #332900;}
    rect.terminal         {fill: #FFDB4D; stroke: #332900; stroke-width: 1;}
    rect.nonterminal      {fill: #FFEC9E; stroke: #332900; stroke-width: 1;}
    rect.text             {fill: none; stroke: none;}
    polygon.regexp        {fill: #FFF4C7; stroke: #332900; stroke-width: 1;}
  </style>
   </defs>
   <polygon points="9 17 1 13 1 21"/>
   <polygon points="17 17 9 13 9 21"/>
   <a xmlns:xlink="http://www.w3.org/1999/xlink"
      xlink:href="#id"
      xlink:title="id">
      <rect x="31" y="3" width="30" height="32"/>
      <rect x="29" y="1" width="30" height="32" class="nonterminal"/>
      <text class="nonterminal" x="39" y="21">id</text>
   </a>
   <rect x="101" y="3" width="56" height="32" rx="10"/>
   <rect x="99"
         y="1"
         width="56"
         height="32"
         class="terminal"
         rx="10"/>
   <text class="terminal" x="109" y="21">serial</text>
   <a xmlns:xlink="http://www.w3.org/1999/xlink"
      xlink:href="#parseDataType"
      xlink:title="parseDataType">
      <rect x="101" y="47" width="116" height="32"/>
      <rect x="99" y="45" width="116" height="32" class="nonterminal"/>
      <text class="nonterminal" x="109" y="65">parseDataType</text>
   </a>
   <rect x="257" y="79" width="42" height="32" rx="10"/>
   <rect x="255"
         y="77"
         width="42"
         height="32"
         class="terminal"
         rx="10"/>
   <text class="terminal" x="265" y="97">not</text>
   <rect x="319" y="79" width="44" height="32" rx="10"/>
   <rect x="317"
         y="77"
         width="44"
         height="32"
         class="terminal"
         rx="10"/>
   <text class="terminal" x="327" y="97">null</text>
   <rect x="423" y="79" width="126" height="32" rx="10"/>
   <rect x="421"
         y="77"
         width="126"
         height="32"
         class="terminal"
         rx="10"/>
   <text class="terminal" x="431" y="97">auto_increment</text>
   <a xmlns:xlink="http://www.w3.org/1999/xlink"
      xlink:href="#postCreateColumn"
      xlink:title="postCreateColumn">
      <rect x="609" y="3" width="138" height="32"/>
      <rect x="607" y="1" width="138" height="32" class="nonterminal"/>
      <text class="nonterminal" x="617" y="21">postCreateColumn</text>
   </a>
   <path class="line"
         d="m17 17 h2 m0 0 h10 m30 0 h10 m20 0 h10 m56 0 h10 m0 0 h412 m-508 0 h20 m488 0 h20 m-528 0 q10 0 10 10 m508 0 q0 -10 10 -10 m-518 10 v24 m508 0 v-24 m-508 24 q0 10 10 10 m488 0 q10 0 10 -10 m-498 10 h10 m116 0 h10 m20 0 h10 m0 0 h116 m-146 0 h20 m126 0 h20 m-166 0 q10 0 10 10 m146 0 q0 -10 10 -10 m-156 10 v12 m146 0 v-12 m-146 12 q0 10 10 10 m126 0 q10 0 10 -10 m-136 10 h10 m42 0 h10 m0 0 h10 m44 0 h10 m40 -32 h10 m0 0 h136 m-166 0 h20 m146 0 h20 m-186 0 q10 0 10 10 m166 0 q0 -10 10 -10 m-176 10 v12 m166 0 v-12 m-166 12 q0 10 10 10 m146 0 q10 0 10 -10 m-156 10 h10 m126 0 h10 m40 -76 h10 m138 0 h10 m3 0 h-3"/>
   <polygon points="765 17 773 13 773 21"/>
   <polygon points="765 17 757 13 757 21"/>
</svg>
