<?xml version="1.0" encoding="UTF-8"?>
<svg xmlns="http://www.w3.org/2000/svg" width="921" height="421">
   <defs>
      <style type="text/css">
    @namespace "http://www.w3.org/2000/svg";
    .line                 {fill: none; stroke: #332900; stroke-width: 1;}
    .bold-line            {stroke: #141000; shape-rendering: crispEdges; stroke-width: 2;}
    .thin-line            {stroke: #1F1800; shape-rendering: crispEdges}
    .filled               {fill: #332900; stroke: none;}
    text.terminal         {font-family: Verdana, Sans-serif;
                            font-size: 12px;
                            fill: #141000;
                            font-weight: bold;
                          }
    text.nonterminal      {font-family: Verdana, Sans-serif;
                            font-size: 12px;
                            fill: #1A1400;
                            font-weight: normal;
                          }
    text.regexp           {font-family: Verdana, Sans-serif;
                            font-size: 12px;
                            fill: #1F1800;
                            font-weight: normal;
                          }
    rect, circle, polygon {fill: #332900; stroke: #332900;}
    rect.terminal         {fill: #FFDB4D; stroke: #332900; stroke-width: 1;}
    rect.nonterminal      {fill: #FFEC9E; stroke: #332900; stroke-width: 1;}
    rect.text             {fill: none; stroke: none;}
    polygon.regexp        {fill: #FFF4C7; stroke: #332900; stroke-width: 1;}
  </style>
   </defs>
   <polygon points="9 17 1 13 1 21"/>
   <polygon points="17 17 9 13 9 21"/>
   <rect x="31" y="3" width="62" height="32" rx="10"/>
   <rect x="29"
         y="1"
         width="62"
         height="32"
         class="terminal"
         rx="10"/>
   <text class="terminal" x="39" y="21">create</text>
   <rect x="113" y="3" width="60" height="32" rx="10"/>
   <rect x="111"
         y="1"
         width="60"
         height="32"
         class="terminal"
         rx="10"/>
   <text class="terminal" x="121" y="21">policy</text>
   <a xmlns:xlink="http://www.w3.org/1999/xlink"
      xlink:href="#id"
      xlink:title="id">
      <rect x="193" y="3" width="30" height="32"/>
      <rect x="191" y="1" width="30" height="32" class="nonterminal"/>
      <text class="nonterminal" x="201" y="21">id</text>
   </a>
   <rect x="243" y="3" width="36" height="32" rx="10"/>
   <rect x="241"
         y="1"
         width="36"
         height="32"
         class="terminal"
         rx="10"/>
   <text class="terminal" x="251" y="21">on</text>
   <a xmlns:xlink="http://www.w3.org/1999/xlink"
      xlink:href="#id"
      xlink:title="id">
      <rect x="319" y="3" width="30" height="32"/>
      <rect x="317" y="1" width="30" height="32" class="nonterminal"/>
      <text class="nonterminal" x="327" y="21">id</text>
   </a>
   <rect x="389" y="3" width="38" height="32" rx="10"/>
   <rect x="387"
         y="1"
         width="38"
         height="32"
         class="terminal"
         rx="10"/>
   <text class="terminal" x="397" y="21">for</text>
   <rect x="467" y="3" width="36" height="32" rx="10"/>
   <rect x="465"
         y="1"
         width="36"
         height="32"
         class="terminal"
         rx="10"/>
   <text class="terminal" x="475" y="21">all</text>
   <rect x="507" y="91" width="60" height="32" rx="10"/>
   <rect x="505"
         y="89"
         width="60"
         height="32"
         class="terminal"
         rx="10"/>
   <text class="terminal" x="515" y="109">select</text>
   <rect x="507" y="135" width="58" height="32" rx="10"/>
   <rect x="505"
         y="133"
         width="58"
         height="32"
         class="terminal"
         rx="10"/>
   <text class="terminal" x="515" y="153">insert</text>
   <rect x="507" y="179" width="66" height="32" rx="10"/>
   <rect x="505"
         y="177"
         width="66"
         height="32"
         class="terminal"
         rx="10"/>
   <text class="terminal" x="515" y="197">update</text>
   <rect x="507" y="223" width="62" height="32" rx="10"/>
   <rect x="505"
         y="221"
         width="62"
         height="32"
         class="terminal"
         rx="10"/>
   <text class="terminal" x="515" y="241">delete</text>
   <rect x="487" y="47" width="24" height="32" rx="10"/>
   <rect x="485"
         y="45"
         width="24"
         height="32"
         class="terminal"
         rx="10"/>
   <text class="terminal" x="495" y="65">,</text>
   <rect x="319" y="289" width="88" height="32" rx="10"/>
   <rect x="317"
         y="287"
         width="88"
         height="32"
         class="terminal"
         rx="10"/>
   <text class="terminal" x="327" y="307">procedure</text>
   <a xmlns:xlink="http://www.w3.org/1999/xlink"
      xlink:href="#id"
      xlink:title="id">
      <rect x="427" y="289" width="30" height="32"/>
      <rect x="425" y="287" width="30" height="32" class="nonterminal"/>
      <text class="nonterminal" x="435" y="307">id</text>
   </a>
   <rect x="497" y="321" width="38" height="32" rx="10"/>
   <rect x="495"
         y="319"
         width="38"
         height="32"
         class="terminal"
         rx="10"/>
   <text class="terminal" x="505" y="339">for</text>
   <rect x="555" y="321" width="36" height="32" rx="10"/>
   <rect x="553"
         y="319"
         width="36"
         height="32"
         class="terminal"
         rx="10"/>
   <text class="terminal" x="563" y="339">all</text>
   <rect x="693" y="3" width="34" height="32" rx="10"/>
   <rect x="691"
         y="1"
         width="34"
         height="32"
         class="terminal"
         rx="10"/>
   <text class="terminal" x="701" y="21">to</text>
   <a xmlns:xlink="http://www.w3.org/1999/xlink"
      xlink:href="#id"
      xlink:title="id">
      <rect x="747" y="3" width="30" height="32"/>
      <rect x="745" y="1" width="30" height="32" class="nonterminal"/>
      <text class="nonterminal" x="755" y="21">id</text>
   </a>
   <rect x="797" y="3" width="56" height="32" rx="10"/>
   <rect x="795"
         y="1"
         width="56"
         height="32"
         class="terminal"
         rx="10"/>
   <text class="terminal" x="805" y="21">using</text>
   <rect x="873" y="3" width="26" height="32" rx="10"/>
   <rect x="871"
         y="1"
         width="26"
         height="32"
         class="terminal"
         rx="10"/>
   <text class="terminal" x="881" y="21">(</text>
   <a xmlns:xlink="http://www.w3.org/1999/xlink"
      xlink:href="#criteria"
      xlink:title="criteria">
      <rect x="783" y="387" width="64" height="32"/>
      <rect x="781" y="385" width="64" height="32" class="nonterminal"/>
      <text class="nonterminal" x="791" y="405">criteria</text>
   </a>
   <rect x="867" y="387" width="26" height="32" rx="10"/>
   <rect x="865"
         y="385"
         width="26"
         height="32"
         class="terminal"
         rx="10"/>
   <text class="terminal" x="875" y="405">)</text>
   <path class="line"
         d="m17 17 h2 m0 0 h10 m62 0 h10 m0 0 h10 m60 0 h10 m0 0 h10 m30 0 h10 m0 0 h10 m36 0 h10 m20 0 h10 m30 0 h10 m20 0 h10 m38 0 h10 m20 0 h10 m36 0 h10 m0 0 h110 m-186 0 h20 m166 0 h20 m-206 0 q10 0 10 10 m186 0 q0 -10 10 -10 m-196 10 v68 m186 0 v-68 m-186 68 q0 10 10 10 m166 0 q10 0 10 -10 m-136 10 h10 m60 0 h10 m0 0 h6 m-106 0 h20 m86 0 h20 m-126 0 q10 0 10 10 m106 0 q0 -10 10 -10 m-116 10 v24 m106 0 v-24 m-106 24 q0 10 10 10 m86 0 q10 0 10 -10 m-96 10 h10 m58 0 h10 m0 0 h8 m-96 -10 v20 m106 0 v-20 m-106 20 v24 m106 0 v-24 m-106 24 q0 10 10 10 m86 0 q10 0 10 -10 m-96 10 h10 m66 0 h10 m-96 -10 v20 m106 0 v-20 m-106 20 v24 m106 0 v-24 m-106 24 q0 10 10 10 m86 0 q10 0 10 -10 m-96 10 h10 m62 0 h10 m0 0 h4 m-126 -132 l20 0 m-1 0 q-9 0 -9 -10 l0 -24 q0 -10 10 -10 m126 44 l20 0 m-20 0 q10 0 10 -10 l0 -24 q0 -10 -10 -10 m-126 0 h10 m24 0 h10 m0 0 h82 m-244 -44 h20 m264 0 h20 m-304 0 q10 0 10 10 m284 0 q0 -10 10 -10 m-294 10 v234 m284 0 v-234 m-284 234 q0 10 10 10 m264 0 q10 0 10 -10 m-274 10 h10 m0 0 h254 m-354 -254 h20 m354 0 h20 m-394 0 q10 0 10 10 m374 0 q0 -10 10 -10 m-384 10 v266 m374 0 v-266 m-374 266 q0 10 10 10 m354 0 q10 0 10 -10 m-364 10 h10 m88 0 h10 m0 0 h10 m30 0 h10 m20 0 h10 m0 0 h104 m-134 0 h20 m114 0 h20 m-154 0 q10 0 10 10 m134 0 q0 -10 10 -10 m-144 10 v12 m134 0 v-12 m-134 12 q0 10 10 10 m114 0 q10 0 10 -10 m-124 10 h10 m38 0 h10 m0 0 h10 m36 0 h10 m20 -32 h42 m20 -286 h10 m34 0 h10 m0 0 h10 m30 0 h10 m0 0 h10 m56 0 h10 m0 0 h10 m26 0 h10 m2 0 l2 0 m2 0 l2 0 m2 0 l2 0 m-160 384 l2 0 m2 0 l2 0 m2 0 l2 0 m2 0 h10 m64 0 h10 m0 0 h10 m26 0 h10 m3 0 h-3"/>
   <polygon points="911 401 919 397 919 405"/>
   <polygon points="911 401 903 397 903 405"/>
</svg>
