<?xml version="1.0" encoding="UTF-8"?>
<svg xmlns="http://www.w3.org/2000/svg" width="799" height="113">
   <defs>
      <style type="text/css">
    @namespace "http://www.w3.org/2000/svg";
    .line                 {fill: none; stroke: #332900; stroke-width: 1;}
    .bold-line            {stroke: #141000; shape-rendering: crispEdges; stroke-width: 2;}
    .thin-line            {stroke: #1F1800; shape-rendering: crispEdges}
    .filled               {fill: #332900; stroke: none;}
    text.terminal         {font-family: Verdana, Sans-serif;
                            font-size: 12px;
                            fill: #141000;
                            font-weight: bold;
                          }
    text.nonterminal      {font-family: Verdana, Sans-serif;
                            font-size: 12px;
                            fill: #1A1400;
                            font-weight: normal;
                          }
    text.regexp           {font-family: Verdana, Sans-serif;
                            font-size: 12px;
                            fill: #1F1800;
                            font-weight: normal;
                          }
    rect, circle, polygon {fill: #332900; stroke: #332900;}
    rect.terminal         {fill: #FFDB4D; stroke: #332900; stroke-width: 1;}
    rect.nonterminal      {fill: #FFEC9E; stroke: #332900; stroke-width: 1;}
    rect.text             {fill: none; stroke: none;}
    polygon.regexp        {fill: #FFF4C7; stroke: #332900; stroke-width: 1;}
  </style>
   </defs>
   <polygon points="9 17 1 13 1 21"/>
   <polygon points="17 17 9 13 9 21"/>
   <rect x="31" y="3" width="62" height="32" rx="10"/>
   <rect x="29"
         y="1"
         width="62"
         height="32"
         class="terminal"
         rx="10"/>
   <text class="terminal" x="39" y="21">create</text>
   <rect x="133" y="35" width="64" height="32" rx="10"/>
   <rect x="131"
         y="33"
         width="64"
         height="32"
         class="terminal"
         rx="10"/>
   <text class="terminal" x="141" y="53">virtual</text>
   <rect x="133" y="79" width="68" height="32" rx="10"/>
   <rect x="131"
         y="77"
         width="68"
         height="32"
         class="terminal"
         rx="10"/>
   <text class="terminal" x="141" y="97">foreign</text>
   <rect x="241" y="3" width="70" height="32" rx="10"/>
   <rect x="239"
         y="1"
         width="70"
         height="32"
         class="terminal"
         rx="10"/>
   <text class="terminal" x="249" y="21">schema</text>
   <a xmlns:xlink="http://www.w3.org/1999/xlink"
      xlink:href="#id"
      xlink:title="id">
      <rect x="331" y="3" width="30" height="32"/>
      <rect x="329" y="1" width="30" height="32" class="nonterminal"/>
      <text class="nonterminal" x="339" y="21">id</text>
   </a>
   <rect x="401" y="35" width="62" height="32" rx="10"/>
   <rect x="399"
         y="33"
         width="62"
         height="32"
         class="terminal"
         rx="10"/>
   <text class="terminal" x="409" y="53">server</text>
   <a xmlns:xlink="http://www.w3.org/1999/xlink"
      xlink:href="#identifierList"
      xlink:title="identifierList">
      <rect x="483" y="35" width="98" height="32"/>
      <rect x="481" y="33" width="98" height="32" class="nonterminal"/>
      <text class="nonterminal" x="491" y="53">identifierList</text>
   </a>
   <a xmlns:xlink="http://www.w3.org/1999/xlink"
      xlink:href="#optionsClause"
      xlink:title="optionsClause">
      <rect x="641" y="35" width="110" height="32"/>
      <rect x="639" y="33" width="110" height="32" class="nonterminal"/>
      <text class="nonterminal" x="649" y="53">optionsClause</text>
   </a>
   <path class="line"
         d="m17 17 h2 m0 0 h10 m62 0 h10 m20 0 h10 m0 0 h78 m-108 0 h20 m88 0 h20 m-128 0 q10 0 10 10 m108 0 q0 -10 10 -10 m-118 10 v12 m108 0 v-12 m-108 12 q0 10 10 10 m88 0 q10 0 10 -10 m-98 10 h10 m64 0 h10 m0 0 h4 m-98 -10 v20 m108 0 v-20 m-108 20 v24 m108 0 v-24 m-108 24 q0 10 10 10 m88 0 q10 0 10 -10 m-98 10 h10 m68 0 h10 m20 -76 h10 m70 0 h10 m0 0 h10 m30 0 h10 m20 0 h10 m0 0 h190 m-220 0 h20 m200 0 h20 m-240 0 q10 0 10 10 m220 0 q0 -10 10 -10 m-230 10 v12 m220 0 v-12 m-220 12 q0 10 10 10 m200 0 q10 0 10 -10 m-210 10 h10 m62 0 h10 m0 0 h10 m98 0 h10 m40 -32 h10 m0 0 h120 m-150 0 h20 m130 0 h20 m-170 0 q10 0 10 10 m150 0 q0 -10 10 -10 m-160 10 v12 m150 0 v-12 m-150 12 q0 10 10 10 m130 0 q10 0 10 -10 m-140 10 h10 m110 0 h10 m23 -32 h-3"/>
   <polygon points="789 17 797 13 797 21"/>
   <polygon points="789 17 781 13 781 21"/>
</svg>
