<?xml version="1.0" encoding="UTF-8"?>
<svg xmlns="http://www.w3.org/2000/svg" width="783" height="211">
   <defs>
      <style type="text/css">
    @namespace "http://www.w3.org/2000/svg";
    .line                 {fill: none; stroke: #332900; stroke-width: 1;}
    .bold-line            {stroke: #141000; shape-rendering: crispEdges; stroke-width: 2;}
    .thin-line            {stroke: #1F1800; shape-rendering: crispEdges}
    .filled               {fill: #332900; stroke: none;}
    text.terminal         {font-family: Verdana, Sans-serif;
                            font-size: 12px;
                            fill: #141000;
                            font-weight: bold;
                          }
    text.nonterminal      {font-family: Verdana, Sans-serif;
                            font-size: 12px;
                            fill: #1A1400;
                            font-weight: normal;
                          }
    text.regexp           {font-family: Verdana, Sans-serif;
                            font-size: 12px;
                            fill: #1F1800;
                            font-weight: normal;
                          }
    rect, circle, polygon {fill: #332900; stroke: #332900;}
    rect.terminal         {fill: #FFDB4D; stroke: #332900; stroke-width: 1;}
    rect.nonterminal      {fill: #FFEC9E; stroke: #332900; stroke-width: 1;}
    rect.text             {fill: none; stroke: none;}
    polygon.regexp        {fill: #FFF4C7; stroke: #332900; stroke-width: 1;}
  </style>
   </defs>
   <polygon points="11 61 3 57 3 65"/>
   <polygon points="19 61 11 57 11 65"/>
   <rect x="33" y="47" width="62" height="32" rx="10"/>
   <rect x="31"
         y="45"
         width="62"
         height="32"
         class="terminal"
         rx="10"/>
   <text class="terminal" x="41" y="65">create</text>
   <rect x="135" y="79" width="50" height="32" rx="10"/>
   <rect x="133"
         y="77"
         width="50"
         height="32"
         class="terminal"
         rx="10"/>
   <text class="terminal" x="143" y="97">local</text>
   <rect x="225" y="47" width="90" height="32" rx="10"/>
   <rect x="223"
         y="45"
         width="90"
         height="32"
         class="terminal"
         rx="10"/>
   <text class="terminal" x="233" y="65">temporary</text>
   <rect x="335" y="47" width="54" height="32" rx="10"/>
   <rect x="333"
         y="45"
         width="54"
         height="32"
         class="terminal"
         rx="10"/>
   <text class="terminal" x="343" y="65">table</text>
   <a xmlns:xlink="http://www.w3.org/1999/xlink"
      xlink:href="#unqualifiedId"
      xlink:title="unqualifiedId">
      <rect x="409" y="47" width="102" height="32"/>
      <rect x="407" y="45" width="102" height="32" class="nonterminal"/>
      <text class="nonterminal" x="417" y="65">unqualifiedId</text>
   </a>
   <rect x="531" y="47" width="26" height="32" rx="10"/>
   <rect x="529"
         y="45"
         width="26"
         height="32"
         class="terminal"
         rx="10"/>
   <text class="terminal" x="539" y="65">(</text>
   <a xmlns:xlink="http://www.w3.org/1999/xlink"
      xlink:href="#tableElement"
      xlink:title="tableElement">
      <rect x="597" y="47" width="104" height="32"/>
      <rect x="595" y="45" width="104" height="32" class="nonterminal"/>
      <text class="nonterminal" x="605" y="65">tableElement</text>
   </a>
   <rect x="597" y="3" width="24" height="32" rx="10"/>
   <rect x="595"
         y="1"
         width="24"
         height="32"
         class="terminal"
         rx="10"/>
   <text class="terminal" x="605" y="21">,</text>
   <rect x="45" y="177" width="24" height="32" rx="10"/>
   <rect x="43"
         y="175"
         width="24"
         height="32"
         class="terminal"
         rx="10"/>
   <text class="terminal" x="53" y="195">,</text>
   <rect x="89" y="177" width="72" height="32" rx="10"/>
   <rect x="87"
         y="175"
         width="72"
         height="32"
         class="terminal"
         rx="10"/>
   <text class="terminal" x="97" y="195">primary</text>
   <rect x="181" y="177" width="44" height="32" rx="10"/>
   <rect x="179"
         y="175"
         width="44"
         height="32"
         class="terminal"
         rx="10"/>
   <text class="terminal" x="189" y="195">key</text>
   <a xmlns:xlink="http://www.w3.org/1999/xlink"
      xlink:href="#columnList"
      xlink:title="columnList">
      <rect x="245" y="177" width="86" height="32"/>
      <rect x="243" y="175" width="86" height="32" class="nonterminal"/>
      <text class="nonterminal" x="253" y="195">columnList</text>
   </a>
   <rect x="371" y="145" width="26" height="32" rx="10"/>
   <rect x="369"
         y="143"
         width="26"
         height="32"
         class="terminal"
         rx="10"/>
   <text class="terminal" x="379" y="163">)</text>
   <rect x="437" y="177" width="36" height="32" rx="10"/>
   <rect x="435"
         y="175"
         width="36"
         height="32"
         class="terminal"
         rx="10"/>
   <text class="terminal" x="445" y="195">on</text>
   <rect x="493" y="177" width="70" height="32" rx="10"/>
   <rect x="491"
         y="175"
         width="70"
         height="32"
         class="terminal"
         rx="10"/>
   <text class="terminal" x="501" y="195">commit</text>
   <rect x="583" y="177" width="80" height="32" rx="10"/>
   <rect x="581"
         y="175"
         width="80"
         height="32"
         class="terminal"
         rx="10"/>
   <text class="terminal" x="591" y="195">preserve</text>
   <rect x="683" y="177" width="52" height="32" rx="10"/>
   <rect x="681"
         y="175"
         width="52"
         height="32"
         class="terminal"
         rx="10"/>
   <text class="terminal" x="691" y="195">rows</text>
   <path class="line"
         d="m19 61 h2 m0 0 h10 m62 0 h10 m20 0 h10 m0 0 h60 m-90 0 h20 m70 0 h20 m-110 0 q10 0 10 10 m90 0 q0 -10 10 -10 m-100 10 v12 m90 0 v-12 m-90 12 q0 10 10 10 m70 0 q10 0 10 -10 m-80 10 h10 m50 0 h10 m20 -32 h10 m90 0 h10 m0 0 h10 m54 0 h10 m0 0 h10 m102 0 h10 m0 0 h10 m26 0 h10 m20 0 h10 m104 0 h10 m-144 0 l20 0 m-1 0 q-9 0 -9 -10 l0 -24 q0 -10 10 -10 m124 44 l20 0 m-20 0 q10 0 10 -10 l0 -24 q0 -10 -10 -10 m-124 0 h10 m24 0 h10 m0 0 h80 m22 44 l2 0 m2 0 l2 0 m2 0 l2 0 m-740 98 l2 0 m2 0 l2 0 m2 0 l2 0 m22 0 h10 m0 0 h296 m-326 0 h20 m306 0 h20 m-346 0 q10 0 10 10 m326 0 q0 -10 10 -10 m-336 10 v12 m326 0 v-12 m-326 12 q0 10 10 10 m306 0 q10 0 10 -10 m-316 10 h10 m24 0 h10 m0 0 h10 m72 0 h10 m0 0 h10 m44 0 h10 m0 0 h10 m86 0 h10 m20 -32 h10 m26 0 h10 m20 0 h10 m0 0 h308 m-338 0 h20 m318 0 h20 m-358 0 q10 0 10 10 m338 0 q0 -10 10 -10 m-348 10 v12 m338 0 v-12 m-338 12 q0 10 10 10 m318 0 q10 0 10 -10 m-328 10 h10 m36 0 h10 m0 0 h10 m70 0 h10 m0 0 h10 m80 0 h10 m0 0 h10 m52 0 h10 m23 -32 h-3"/>
   <polygon points="773 159 781 155 781 163"/>
   <polygon points="773 159 765 155 765 163"/>
</svg>
