<?xml version="1.0" encoding="UTF-8"?>
<svg xmlns="http://www.w3.org/2000/svg" width="613" height="1203">
   <defs>
      <style type="text/css">
    @namespace "http://www.w3.org/2000/svg";
    .line                 {fill: none; stroke: #332900; stroke-width: 1;}
    .bold-line            {stroke: #141000; shape-rendering: crispEdges; stroke-width: 2;}
    .thin-line            {stroke: #1F1800; shape-rendering: crispEdges}
    .filled               {fill: #332900; stroke: none;}
    text.terminal         {font-family: Verdana, Sans-serif;
                            font-size: 12px;
                            fill: #141000;
                            font-weight: bold;
                          }
    text.nonterminal      {font-family: Verdana, Sans-serif;
                            font-size: 12px;
                            fill: #1A1400;
                            font-weight: normal;
                          }
    text.regexp           {font-family: Verdana, Sans-serif;
                            font-size: 12px;
                            fill: #1F1800;
                            font-weight: normal;
                          }
    rect, circle, polygon {fill: #332900; stroke: #332900;}
    rect.terminal         {fill: #FFDB4D; stroke: #332900; stroke-width: 1;}
    rect.nonterminal      {fill: #FFEC9E; stroke: #332900; stroke-width: 1;}
    rect.text             {fill: none; stroke: none;}
    polygon.regexp        {fill: #FFF4C7; stroke: #332900; stroke-width: 1;}
  </style>
   </defs>
   <polygon points="9 51 1 47 1 55"/>
   <polygon points="17 51 9 47 9 55"/>
   <a xmlns:xlink="http://www.w3.org/1999/xlink"
      xlink:href="#createDDLProcedure"
      xlink:title="createDDLProcedure">
      <rect x="51" y="3" width="150" height="32"/>
      <rect x="49" y="1" width="150" height="32" class="nonterminal"/>
      <text class="nonterminal" x="59" y="21">createDDLProcedure</text>
   </a>
   <a xmlns:xlink="http://www.w3.org/1999/xlink"
      xlink:href="#createTable"
      xlink:title="createTable">
      <rect x="261" y="37" width="94" height="32"/>
      <rect x="259" y="35" width="94" height="32" class="nonterminal"/>
      <text class="nonterminal" x="269" y="55">createTable</text>
   </a>
   <a xmlns:xlink="http://www.w3.org/1999/xlink"
      xlink:href="#createTable"
      xlink:title="createTable">
      <rect x="395" y="69" width="94" height="32"/>
      <rect x="393" y="67" width="94" height="32" class="nonterminal"/>
      <text class="nonterminal" x="403" y="87">createTable</text>
   </a>
   <a xmlns:xlink="http://www.w3.org/1999/xlink"
      xlink:href="#createDDLProcedure"
      xlink:title="createDDLProcedure">
      <rect x="395" y="113" width="150" height="32"/>
      <rect x="393" y="111" width="150" height="32" class="nonterminal"/>
      <text class="nonterminal" x="403" y="131">createDDLProcedure</text>
   </a>
   <a xmlns:xlink="http://www.w3.org/1999/xlink"
      xlink:href="#createNameSpace"
      xlink:title="createNameSpace">
      <rect x="261" y="157" width="134" height="32"/>
      <rect x="259" y="155" width="134" height="32" class="nonterminal"/>
      <text class="nonterminal" x="269" y="175">createNameSpace</text>
   </a>
   <a xmlns:xlink="http://www.w3.org/1999/xlink"
      xlink:href="#alterStatement"
      xlink:title="alterStatement">
      <rect x="261" y="201" width="116" height="32"/>
      <rect x="259" y="199" width="116" height="32" class="nonterminal"/>
      <text class="nonterminal" x="269" y="219">alterStatement</text>
   </a>
   <a xmlns:xlink="http://www.w3.org/1999/xlink"
      xlink:href="#createTrigger"
      xlink:title="createTrigger">
      <rect x="261" y="245" width="104" height="32"/>
      <rect x="259" y="243" width="104" height="32" class="nonterminal"/>
      <text class="nonterminal" x="269" y="263">createTrigger</text>
   </a>
   <a xmlns:xlink="http://www.w3.org/1999/xlink"
      xlink:href="#createDomain"
      xlink:title="createDomain">
      <rect x="261" y="289" width="108" height="32"/>
      <rect x="259" y="287" width="108" height="32" class="nonterminal"/>
      <text class="nonterminal" x="269" y="307">createDomain</text>
   </a>
   <a xmlns:xlink="http://www.w3.org/1999/xlink"
      xlink:href="#createServer"
      xlink:title="createServer">
      <rect x="261" y="333" width="102" height="32"/>
      <rect x="259" y="331" width="102" height="32" class="nonterminal"/>
      <text class="nonterminal" x="269" y="351">createServer</text>
   </a>
   <a xmlns:xlink="http://www.w3.org/1999/xlink"
      xlink:href="#createRole"
      xlink:title="createRole">
      <rect x="261" y="377" width="88" height="32"/>
      <rect x="259" y="375" width="88" height="32" class="nonterminal"/>
      <text class="nonterminal" x="269" y="395">createRole</text>
   </a>
   <a xmlns:xlink="http://www.w3.org/1999/xlink"
      xlink:href="#dropRole"
      xlink:title="dropRole">
      <rect x="261" y="421" width="76" height="32"/>
      <rect x="259" y="419" width="76" height="32" class="nonterminal"/>
      <text class="nonterminal" x="269" y="439">dropRole</text>
   </a>
   <a xmlns:xlink="http://www.w3.org/1999/xlink"
      xlink:href="#grant"
      xlink:title="grant">
      <rect x="261" y="465" width="54" height="32"/>
      <rect x="259" y="463" width="54" height="32" class="nonterminal"/>
      <text class="nonterminal" x="269" y="483">grant</text>
   </a>
   <a xmlns:xlink="http://www.w3.org/1999/xlink"
      xlink:href="#revokeGrant"
      xlink:title="revokeGrant">
      <rect x="261" y="509" width="98" height="32"/>
      <rect x="259" y="507" width="98" height="32" class="nonterminal"/>
      <text class="nonterminal" x="269" y="527">revokeGrant</text>
   </a>
   <a xmlns:xlink="http://www.w3.org/1999/xlink"
      xlink:href="#createPolicy"
      xlink:title="createPolicy">
      <rect x="261" y="553" width="96" height="32"/>
      <rect x="259" y="551" width="96" height="32" class="nonterminal"/>
      <text class="nonterminal" x="269" y="571">createPolicy</text>
   </a>
   <a xmlns:xlink="http://www.w3.org/1999/xlink"
      xlink:href="#dropPolicy"
      xlink:title="dropPolicy">
      <rect x="261" y="597" width="84" height="32"/>
      <rect x="259" y="595" width="84" height="32" class="nonterminal"/>
      <text class="nonterminal" x="269" y="615">dropPolicy</text>
   </a>
   <a xmlns:xlink="http://www.w3.org/1999/xlink"
      xlink:href="#dropServer"
      xlink:title="dropServer">
      <rect x="261" y="641" width="90" height="32"/>
      <rect x="259" y="639" width="90" height="32" class="nonterminal"/>
      <text class="nonterminal" x="269" y="659">dropServer</text>
   </a>
   <a xmlns:xlink="http://www.w3.org/1999/xlink"
      xlink:href="#dropTableView"
      xlink:title="dropTableView">
      <rect x="261" y="685" width="112" height="32"/>
      <rect x="259" y="683" width="112" height="32" class="nonterminal"/>
      <text class="nonterminal" x="269" y="703">dropTableView</text>
   </a>
   <a xmlns:xlink="http://www.w3.org/1999/xlink"
      xlink:href="#importSchema"
      xlink:title="importSchema">
      <rect x="261" y="729" width="110" height="32"/>
      <rect x="259" y="727" width="110" height="32" class="nonterminal"/>
      <text class="nonterminal" x="269" y="747">importSchema</text>
   </a>
   <a xmlns:xlink="http://www.w3.org/1999/xlink"
      xlink:href="#importDatabase"
      xlink:title="importDatabase">
      <rect x="261" y="773" width="122" height="32"/>
      <rect x="259" y="771" width="122" height="32" class="nonterminal"/>
      <text class="nonterminal" x="269" y="791">importDatabase</text>
   </a>
   <a xmlns:xlink="http://www.w3.org/1999/xlink"
      xlink:href="#createDatabase"
      xlink:title="createDatabase">
      <rect x="261" y="817" width="122" height="32"/>
      <rect x="259" y="815" width="122" height="32" class="nonterminal"/>
      <text class="nonterminal" x="269" y="835">createDatabase</text>
   </a>
   <a xmlns:xlink="http://www.w3.org/1999/xlink"
      xlink:href="#useDatabase"
      xlink:title="useDatabase">
      <rect x="261" y="861" width="104" height="32"/>
      <rect x="259" y="859" width="104" height="32" class="nonterminal"/>
      <text class="nonterminal" x="269" y="879">useDatabase</text>
   </a>
   <a xmlns:xlink="http://www.w3.org/1999/xlink"
      xlink:href="#dropSchema"
      xlink:title="dropSchema">
      <rect x="261" y="905" width="98" height="32"/>
      <rect x="259" y="903" width="98" height="32" class="nonterminal"/>
      <text class="nonterminal" x="269" y="923">dropSchema</text>
   </a>
   <a xmlns:xlink="http://www.w3.org/1999/xlink"
      xlink:href="#useSchema"
      xlink:title="useSchema">
      <rect x="261" y="949" width="92" height="32"/>
      <rect x="259" y="947" width="92" height="32" class="nonterminal"/>
      <text class="nonterminal" x="269" y="967">useSchema</text>
   </a>
   <a xmlns:xlink="http://www.w3.org/1999/xlink"
      xlink:href="#createSchema"
      xlink:title="createSchema">
      <rect x="261" y="993" width="110" height="32"/>
      <rect x="259" y="991" width="110" height="32" class="nonterminal"/>
      <text class="nonterminal" x="269" y="1011">createSchema</text>
   </a>
   <a xmlns:xlink="http://www.w3.org/1999/xlink"
      xlink:href="#createDDLProcedure"
      xlink:title="createDDLProcedure">
      <rect x="261" y="1037" width="150" height="32"/>
      <rect x="259"
            y="1035"
            width="150"
            height="32"
            class="nonterminal"/>
      <text class="nonterminal" x="269" y="1055">createDDLProcedure</text>
   </a>
   <a xmlns:xlink="http://www.w3.org/1999/xlink"
      xlink:href="#createDataWrapper"
      xlink:title="createDataWrapper">
      <rect x="261" y="1081" width="146" height="32"/>
      <rect x="259"
            y="1079"
            width="146"
            height="32"
            class="nonterminal"/>
      <text class="nonterminal" x="269" y="1099">createDataWrapper</text>
   </a>
   <a xmlns:xlink="http://www.w3.org/1999/xlink"
      xlink:href="#dropDataWrapper"
      xlink:title="dropDataWrapper">
      <rect x="261" y="1125" width="134" height="32"/>
      <rect x="259"
            y="1123"
            width="134"
            height="32"
            class="nonterminal"/>
      <text class="nonterminal" x="269" y="1143">dropDataWrapper</text>
   </a>
   <a xmlns:xlink="http://www.w3.org/1999/xlink"
      xlink:href="#dropProcedure"
      xlink:title="dropProcedure">
      <rect x="261" y="1169" width="114" height="32"/>
      <rect x="259"
            y="1167"
            width="114"
            height="32"
            class="nonterminal"/>
      <text class="nonterminal" x="269" y="1187">dropProcedure</text>
   </a>
   <path class="line"
         d="m17 51 h2 m20 0 h10 m0 0 h160 m-190 0 l20 0 m-1 0 q-9 0 -9 -10 l0 -14 q0 -10 10 -10 m170 34 l20 0 m-20 0 q10 0 10 -10 l0 -14 q0 -10 -10 -10 m-170 0 h10 m150 0 h10 m40 34 h10 m94 0 h10 m20 0 h10 m0 0 h160 m-190 0 h20 m170 0 h20 m-210 0 q10 0 10 10 m190 0 q0 -10 10 -10 m-200 10 v12 m190 0 v-12 m-190 12 q0 10 10 10 m170 0 q10 0 10 -10 m-180 10 h10 m94 0 h10 m0 0 h56 m-180 -10 v20 m190 0 v-20 m-190 20 v24 m190 0 v-24 m-190 24 q0 10 10 10 m170 0 q10 0 10 -10 m-180 10 h10 m150 0 h10 m-324 -76 h20 m324 0 h20 m-364 0 q10 0 10 10 m344 0 q0 -10 10 -10 m-354 10 v100 m344 0 v-100 m-344 100 q0 10 10 10 m324 0 q10 0 10 -10 m-334 10 h10 m134 0 h10 m0 0 h170 m-334 -10 v20 m344 0 v-20 m-344 20 v24 m344 0 v-24 m-344 24 q0 10 10 10 m324 0 q10 0 10 -10 m-334 10 h10 m116 0 h10 m0 0 h188 m-334 -10 v20 m344 0 v-20 m-344 20 v24 m344 0 v-24 m-344 24 q0 10 10 10 m324 0 q10 0 10 -10 m-334 10 h10 m104 0 h10 m0 0 h200 m-334 -10 v20 m344 0 v-20 m-344 20 v24 m344 0 v-24 m-344 24 q0 10 10 10 m324 0 q10 0 10 -10 m-334 10 h10 m108 0 h10 m0 0 h196 m-334 -10 v20 m344 0 v-20 m-344 20 v24 m344 0 v-24 m-344 24 q0 10 10 10 m324 0 q10 0 10 -10 m-334 10 h10 m102 0 h10 m0 0 h202 m-334 -10 v20 m344 0 v-20 m-344 20 v24 m344 0 v-24 m-344 24 q0 10 10 10 m324 0 q10 0 10 -10 m-334 10 h10 m88 0 h10 m0 0 h216 m-334 -10 v20 m344 0 v-20 m-344 20 v24 m344 0 v-24 m-344 24 q0 10 10 10 m324 0 q10 0 10 -10 m-334 10 h10 m76 0 h10 m0 0 h228 m-334 -10 v20 m344 0 v-20 m-344 20 v24 m344 0 v-24 m-344 24 q0 10 10 10 m324 0 q10 0 10 -10 m-334 10 h10 m54 0 h10 m0 0 h250 m-334 -10 v20 m344 0 v-20 m-344 20 v24 m344 0 v-24 m-344 24 q0 10 10 10 m324 0 q10 0 10 -10 m-334 10 h10 m98 0 h10 m0 0 h206 m-334 -10 v20 m344 0 v-20 m-344 20 v24 m344 0 v-24 m-344 24 q0 10 10 10 m324 0 q10 0 10 -10 m-334 10 h10 m96 0 h10 m0 0 h208 m-334 -10 v20 m344 0 v-20 m-344 20 v24 m344 0 v-24 m-344 24 q0 10 10 10 m324 0 q10 0 10 -10 m-334 10 h10 m84 0 h10 m0 0 h220 m-334 -10 v20 m344 0 v-20 m-344 20 v24 m344 0 v-24 m-344 24 q0 10 10 10 m324 0 q10 0 10 -10 m-334 10 h10 m90 0 h10 m0 0 h214 m-334 -10 v20 m344 0 v-20 m-344 20 v24 m344 0 v-24 m-344 24 q0 10 10 10 m324 0 q10 0 10 -10 m-334 10 h10 m112 0 h10 m0 0 h192 m-334 -10 v20 m344 0 v-20 m-344 20 v24 m344 0 v-24 m-344 24 q0 10 10 10 m324 0 q10 0 10 -10 m-334 10 h10 m110 0 h10 m0 0 h194 m-334 -10 v20 m344 0 v-20 m-344 20 v24 m344 0 v-24 m-344 24 q0 10 10 10 m324 0 q10 0 10 -10 m-334 10 h10 m122 0 h10 m0 0 h182 m-334 -10 v20 m344 0 v-20 m-344 20 v24 m344 0 v-24 m-344 24 q0 10 10 10 m324 0 q10 0 10 -10 m-334 10 h10 m122 0 h10 m0 0 h182 m-334 -10 v20 m344 0 v-20 m-344 20 v24 m344 0 v-24 m-344 24 q0 10 10 10 m324 0 q10 0 10 -10 m-334 10 h10 m104 0 h10 m0 0 h200 m-334 -10 v20 m344 0 v-20 m-344 20 v24 m344 0 v-24 m-344 24 q0 10 10 10 m324 0 q10 0 10 -10 m-334 10 h10 m98 0 h10 m0 0 h206 m-334 -10 v20 m344 0 v-20 m-344 20 v24 m344 0 v-24 m-344 24 q0 10 10 10 m324 0 q10 0 10 -10 m-334 10 h10 m92 0 h10 m0 0 h212 m-334 -10 v20 m344 0 v-20 m-344 20 v24 m344 0 v-24 m-344 24 q0 10 10 10 m324 0 q10 0 10 -10 m-334 10 h10 m110 0 h10 m0 0 h194 m-334 -10 v20 m344 0 v-20 m-344 20 v24 m344 0 v-24 m-344 24 q0 10 10 10 m324 0 q10 0 10 -10 m-334 10 h10 m150 0 h10 m0 0 h154 m-334 -10 v20 m344 0 v-20 m-344 20 v24 m344 0 v-24 m-344 24 q0 10 10 10 m324 0 q10 0 10 -10 m-334 10 h10 m146 0 h10 m0 0 h158 m-334 -10 v20 m344 0 v-20 m-344 20 v24 m344 0 v-24 m-344 24 q0 10 10 10 m324 0 q10 0 10 -10 m-334 10 h10 m134 0 h10 m0 0 h170 m-334 -10 v20 m344 0 v-20 m-344 20 v24 m344 0 v-24 m-344 24 q0 10 10 10 m324 0 q10 0 10 -10 m-334 10 h10 m114 0 h10 m0 0 h190 m23 -1132 h-3"/>
   <polygon points="603 51 611 47 611 55"/>
   <polygon points="603 51 595 47 595 55"/>
</svg>
