<?xml version="1.0" encoding="UTF-8"?>
<svg xmlns="http://www.w3.org/2000/svg" width="647" height="81">
   <defs>
      <style type="text/css">
    @namespace "http://www.w3.org/2000/svg";
    .line                 {fill: none; stroke: #332900; stroke-width: 1;}
    .bold-line            {stroke: #141000; shape-rendering: crispEdges; stroke-width: 2;}
    .thin-line            {stroke: #1F1800; shape-rendering: crispEdges}
    .filled               {fill: #332900; stroke: none;}
    text.terminal         {font-family: Verdana, Sans-serif;
                            font-size: 12px;
                            fill: #141000;
                            font-weight: bold;
                          }
    text.nonterminal      {font-family: Verdana, Sans-serif;
                            font-size: 12px;
                            fill: #1A1400;
                            font-weight: normal;
                          }
    text.regexp           {font-family: Verdana, Sans-serif;
                            font-size: 12px;
                            fill: #1F1800;
                            font-weight: normal;
                          }
    rect, circle, polygon {fill: #332900; stroke: #332900;}
    rect.terminal         {fill: #FFDB4D; stroke: #332900; stroke-width: 1;}
    rect.nonterminal      {fill: #FFEC9E; stroke: #332900; stroke-width: 1;}
    rect.text             {fill: none; stroke: none;}
    polygon.regexp        {fill: #FFF4C7; stroke: #332900; stroke-width: 1;}
  </style>
   </defs>
   <polygon points="9 17 1 13 1 21"/>
   <polygon points="17 17 9 13 9 21"/>
   <rect x="31" y="3" width="70" height="32" rx="10"/>
   <rect x="29"
         y="1"
         width="70"
         height="32"
         class="terminal"
         rx="10"/>
   <text class="terminal" x="39" y="21">declare</text>
   <a xmlns:xlink="http://www.w3.org/1999/xlink"
      xlink:href="#parseDataType"
      xlink:title="parseDataType">
      <rect x="141" y="3" width="116" height="32"/>
      <rect x="139" y="1" width="116" height="32" class="nonterminal"/>
      <text class="nonterminal" x="149" y="21">parseDataType</text>
   </a>
   <rect x="141" y="47" width="86" height="32" rx="10"/>
   <rect x="139"
         y="45"
         width="86"
         height="32"
         class="terminal"
         rx="10"/>
   <text class="terminal" x="149" y="65">exception</text>
   <a xmlns:xlink="http://www.w3.org/1999/xlink"
      xlink:href="#id"
      xlink:title="id">
      <rect x="297" y="3" width="30" height="32"/>
      <rect x="295" y="1" width="30" height="32" class="nonterminal"/>
      <text class="nonterminal" x="305" y="21">id</text>
   </a>
   <rect x="367" y="35" width="30" height="32" rx="10"/>
   <rect x="365"
         y="33"
         width="30"
         height="32"
         class="terminal"
         rx="10"/>
   <text class="terminal" x="375" y="53">=</text>
   <a xmlns:xlink="http://www.w3.org/1999/xlink"
      xlink:href="#assignStatementOperand"
      xlink:title="assignStatementOperand">
      <rect x="417" y="35" width="182" height="32"/>
      <rect x="415" y="33" width="182" height="32" class="nonterminal"/>
      <text class="nonterminal" x="425" y="53">assignStatementOperand</text>
   </a>
   <path class="line"
         d="m17 17 h2 m0 0 h10 m70 0 h10 m20 0 h10 m116 0 h10 m-156 0 h20 m136 0 h20 m-176 0 q10 0 10 10 m156 0 q0 -10 10 -10 m-166 10 v24 m156 0 v-24 m-156 24 q0 10 10 10 m136 0 q10 0 10 -10 m-146 10 h10 m86 0 h10 m0 0 h30 m20 -44 h10 m30 0 h10 m20 0 h10 m0 0 h242 m-272 0 h20 m252 0 h20 m-292 0 q10 0 10 10 m272 0 q0 -10 10 -10 m-282 10 v12 m272 0 v-12 m-272 12 q0 10 10 10 m252 0 q10 0 10 -10 m-262 10 h10 m30 0 h10 m0 0 h10 m182 0 h10 m23 -32 h-3"/>
   <polygon points="637 17 645 13 645 21"/>
   <polygon points="637 17 629 13 629 21"/>
</svg>
