<?xml version="1.0" encoding="UTF-8"?>
<svg xmlns="http://www.w3.org/2000/svg" width="291" height="301">
   <defs>
      <style type="text/css">
    @namespace "http://www.w3.org/2000/svg";
    .line                 {fill: none; stroke: #332900; stroke-width: 1;}
    .bold-line            {stroke: #141000; shape-rendering: crispEdges; stroke-width: 2;}
    .thin-line            {stroke: #1F1800; shape-rendering: crispEdges}
    .filled               {fill: #332900; stroke: none;}
    text.terminal         {font-family: Verdana, Sans-serif;
                            font-size: 12px;
                            fill: #141000;
                            font-weight: bold;
                          }
    text.nonterminal      {font-family: Verdana, Sans-serif;
                            font-size: 12px;
                            fill: #1A1400;
                            font-weight: normal;
                          }
    text.regexp           {font-family: Verdana, Sans-serif;
                            font-size: 12px;
                            fill: #1F1800;
                            font-weight: normal;
                          }
    rect, circle, polygon {fill: #332900; stroke: #332900;}
    rect.terminal         {fill: #FFDB4D; stroke: #332900; stroke-width: 1;}
    rect.nonterminal      {fill: #FFEC9E; stroke: #332900; stroke-width: 1;}
    rect.text             {fill: none; stroke: none;}
    polygon.regexp        {fill: #FFF4C7; stroke: #332900; stroke-width: 1;}
  </style>
   </defs>
   <polygon points="9 17 1 13 1 21"/>
   <polygon points="17 17 9 13 9 21"/>
   <a xmlns:xlink="http://www.w3.org/1999/xlink"
      xlink:href="#assignStatement"
      xlink:title="assignStatement">
      <rect x="51" y="3" width="128" height="32"/>
      <rect x="49" y="1" width="128" height="32" class="nonterminal"/>
      <text class="nonterminal" x="59" y="21">assignStatement</text>
   </a>
   <a xmlns:xlink="http://www.w3.org/1999/xlink"
      xlink:href="#sqlStatement"
      xlink:title="sqlStatement">
      <rect x="51" y="47" width="104" height="32"/>
      <rect x="49" y="45" width="104" height="32" class="nonterminal"/>
      <text class="nonterminal" x="59" y="65">sqlStatement</text>
   </a>
   <a xmlns:xlink="http://www.w3.org/1999/xlink"
      xlink:href="#errorStatement"
      xlink:title="errorStatement">
      <rect x="51" y="91" width="118" height="32"/>
      <rect x="49" y="89" width="118" height="32" class="nonterminal"/>
      <text class="nonterminal" x="59" y="109">errorStatement</text>
   </a>
   <a xmlns:xlink="http://www.w3.org/1999/xlink"
      xlink:href="#raiseStatement"
      xlink:title="raiseStatement">
      <rect x="51" y="135" width="118" height="32"/>
      <rect x="49" y="133" width="118" height="32" class="nonterminal"/>
      <text class="nonterminal" x="59" y="153">raiseStatement</text>
   </a>
   <a xmlns:xlink="http://www.w3.org/1999/xlink"
      xlink:href="#declareStatement"
      xlink:title="declareStatement">
      <rect x="51" y="179" width="132" height="32"/>
      <rect x="49" y="177" width="132" height="32" class="nonterminal"/>
      <text class="nonterminal" x="59" y="197">declareStatement</text>
   </a>
   <a xmlns:xlink="http://www.w3.org/1999/xlink"
      xlink:href="#branchingStatement"
      xlink:title="branchingStatement">
      <rect x="51" y="223" width="148" height="32"/>
      <rect x="49" y="221" width="148" height="32" class="nonterminal"/>
      <text class="nonterminal" x="59" y="241">branchingStatement</text>
   </a>
   <a xmlns:xlink="http://www.w3.org/1999/xlink"
      xlink:href="#returnStatement"
      xlink:title="returnStatement">
      <rect x="51" y="267" width="126" height="32"/>
      <rect x="49" y="265" width="126" height="32" class="nonterminal"/>
      <text class="nonterminal" x="59" y="285">returnStatement</text>
   </a>
   <rect x="239" y="3" width="24" height="32" rx="10"/>
   <rect x="237"
         y="1"
         width="24"
         height="32"
         class="terminal"
         rx="10"/>
   <text class="terminal" x="247" y="21">;</text>
   <path class="line"
         d="m17 17 h2 m20 0 h10 m128 0 h10 m0 0 h20 m-188 0 h20 m168 0 h20 m-208 0 q10 0 10 10 m188 0 q0 -10 10 -10 m-198 10 v24 m188 0 v-24 m-188 24 q0 10 10 10 m168 0 q10 0 10 -10 m-178 10 h10 m104 0 h10 m0 0 h44 m-178 -10 v20 m188 0 v-20 m-188 20 v24 m188 0 v-24 m-188 24 q0 10 10 10 m168 0 q10 0 10 -10 m-178 10 h10 m118 0 h10 m0 0 h30 m-178 -10 v20 m188 0 v-20 m-188 20 v24 m188 0 v-24 m-188 24 q0 10 10 10 m168 0 q10 0 10 -10 m-178 10 h10 m118 0 h10 m0 0 h30 m-178 -10 v20 m188 0 v-20 m-188 20 v24 m188 0 v-24 m-188 24 q0 10 10 10 m168 0 q10 0 10 -10 m-178 10 h10 m132 0 h10 m0 0 h16 m-178 -10 v20 m188 0 v-20 m-188 20 v24 m188 0 v-24 m-188 24 q0 10 10 10 m168 0 q10 0 10 -10 m-178 10 h10 m148 0 h10 m-178 -10 v20 m188 0 v-20 m-188 20 v24 m188 0 v-24 m-188 24 q0 10 10 10 m168 0 q10 0 10 -10 m-178 10 h10 m126 0 h10 m0 0 h22 m20 -264 h10 m24 0 h10 m3 0 h-3"/>
   <polygon points="281 17 289 13 289 21"/>
   <polygon points="281 17 273 13 273 21"/>
</svg>
