<?xml version="1.0" encoding="UTF-8"?>
<svg xmlns="http://www.w3.org/2000/svg" width="503" height="157">
   <defs>
      <style type="text/css">
    @namespace "http://www.w3.org/2000/svg";
    .line                 {fill: none; stroke: #332900; stroke-width: 1;}
    .bold-line            {stroke: #141000; shape-rendering: crispEdges; stroke-width: 2;}
    .thin-line            {stroke: #1F1800; shape-rendering: crispEdges}
    .filled               {fill: #332900; stroke: none;}
    text.terminal         {font-family: Verdana, Sans-serif;
                            font-size: 12px;
                            fill: #141000;
                            font-weight: bold;
                          }
    text.nonterminal      {font-family: Verdana, Sans-serif;
                            font-size: 12px;
                            fill: #1A1400;
                            font-weight: normal;
                          }
    text.regexp           {font-family: Verdana, Sans-serif;
                            font-size: 12px;
                            fill: #1F1800;
                            font-weight: normal;
                          }
    rect, circle, polygon {fill: #332900; stroke: #332900;}
    rect.terminal         {fill: #FFDB4D; stroke: #332900; stroke-width: 1;}
    rect.nonterminal      {fill: #FFEC9E; stroke: #332900; stroke-width: 1;}
    rect.text             {fill: none; stroke: none;}
    polygon.regexp        {fill: #FFF4C7; stroke: #332900; stroke-width: 1;}
  </style>
   </defs>
   <polygon points="9 17 1 13 1 21"/>
   <polygon points="17 17 9 13 9 21"/>
   <rect x="31" y="3" width="50" height="32" rx="10"/>
   <rect x="29"
         y="1"
         width="50"
         height="32"
         class="terminal"
         rx="10"/>
   <text class="terminal" x="39" y="21">drop</text>
   <rect x="141" y="3" width="68" height="32" rx="10"/>
   <rect x="139"
         y="1"
         width="68"
         height="32"
         class="terminal"
         rx="10"/>
   <text class="terminal" x="149" y="21">foreign</text>
   <rect x="141" y="47" width="60" height="32" rx="10"/>
   <rect x="139"
         y="45"
         width="60"
         height="32"
         class="terminal"
         rx="10"/>
   <text class="terminal" x="149" y="65">global</text>
   <rect x="221" y="47" width="90" height="32" rx="10"/>
   <rect x="219"
         y="45"
         width="90"
         height="32"
         class="terminal"
         rx="10"/>
   <text class="terminal" x="229" y="65">temporary</text>
   <rect x="351" y="3" width="54" height="32" rx="10"/>
   <rect x="349"
         y="1"
         width="54"
         height="32"
         class="terminal"
         rx="10"/>
   <text class="terminal" x="359" y="21">table</text>
   <rect x="141" y="123" width="64" height="32" rx="10"/>
   <rect x="139"
         y="121"
         width="64"
         height="32"
         class="terminal"
         rx="10"/>
   <text class="terminal" x="149" y="141">virtual</text>
   <rect x="245" y="91" width="52" height="32" rx="10"/>
   <rect x="243"
         y="89"
         width="52"
         height="32"
         class="terminal"
         rx="10"/>
   <text class="terminal" x="253" y="109">view</text>
   <a xmlns:xlink="http://www.w3.org/1999/xlink"
      xlink:href="#id"
      xlink:title="id">
      <rect x="445" y="3" width="30" height="32"/>
      <rect x="443" y="1" width="30" height="32" class="nonterminal"/>
      <text class="nonterminal" x="453" y="21">id</text>
   </a>
   <path class="line"
         d="m17 17 h2 m0 0 h10 m50 0 h10 m40 0 h10 m68 0 h10 m0 0 h102 m-210 0 h20 m190 0 h20 m-230 0 q10 0 10 10 m210 0 q0 -10 10 -10 m-220 10 v24 m210 0 v-24 m-210 24 q0 10 10 10 m190 0 q10 0 10 -10 m-200 10 h10 m60 0 h10 m0 0 h10 m90 0 h10 m20 -44 h10 m54 0 h10 m-324 0 h20 m304 0 h20 m-344 0 q10 0 10 10 m324 0 q0 -10 10 -10 m-334 10 v68 m324 0 v-68 m-324 68 q0 10 10 10 m304 0 q10 0 10 -10 m-294 10 h10 m0 0 h74 m-104 0 h20 m84 0 h20 m-124 0 q10 0 10 10 m104 0 q0 -10 10 -10 m-114 10 v12 m104 0 v-12 m-104 12 q0 10 10 10 m84 0 q10 0 10 -10 m-94 10 h10 m64 0 h10 m20 -32 h10 m52 0 h10 m0 0 h108 m20 -88 h10 m30 0 h10 m3 0 h-3"/>
   <polygon points="493 17 501 13 501 21"/>
   <polygon points="493 17 485 13 485 21"/>
</svg>
