<?xml version="1.0" encoding="UTF-8"?>
<svg xmlns="http://www.w3.org/2000/svg" width="881" height="243">
   <defs>
      <style type="text/css">
    @namespace "http://www.w3.org/2000/svg";
    .line                 {fill: none; stroke: #332900; stroke-width: 1;}
    .bold-line            {stroke: #141000; shape-rendering: crispEdges; stroke-width: 2;}
    .thin-line            {stroke: #1F1800; shape-rendering: crispEdges}
    .filled               {fill: #332900; stroke: none;}
    text.terminal         {font-family: Verdana, Sans-serif;
                            font-size: 12px;
                            fill: #141000;
                            font-weight: bold;
                          }
    text.nonterminal      {font-family: Verdana, Sans-serif;
                            font-size: 12px;
                            fill: #1A1400;
                            font-weight: normal;
                          }
    text.regexp           {font-family: Verdana, Sans-serif;
                            font-size: 12px;
                            fill: #1F1800;
                            font-weight: normal;
                          }
    rect, circle, polygon {fill: #332900; stroke: #332900;}
    rect.terminal         {fill: #FFDB4D; stroke: #332900; stroke-width: 1;}
    rect.nonterminal      {fill: #FFEC9E; stroke: #332900; stroke-width: 1;}
    rect.text             {fill: none; stroke: none;}
    polygon.regexp        {fill: #FFF4C7; stroke: #332900; stroke-width: 1;}
  </style>
   </defs>
   <polygon points="9 17 1 13 1 21"/>
   <polygon points="17 17 9 13 9 21"/>
   <rect x="51" y="3" width="72" height="32" rx="10"/>
   <rect x="49"
         y="1"
         width="72"
         height="32"
         class="terminal"
         rx="10"/>
   <text class="terminal" x="59" y="21">execute</text>
   <rect x="51" y="47" width="50" height="32" rx="10"/>
   <rect x="49"
         y="45"
         width="50"
         height="32"
         class="terminal"
         rx="10"/>
   <text class="terminal" x="59" y="65">exec</text>
   <rect x="183" y="35" width="60" height="32" rx="10"/>
   <rect x="181"
         y="33"
         width="60"
         height="32"
         class="terminal"
         rx="10"/>
   <text class="terminal" x="191" y="53">string</text>
   <rect x="183" y="79" width="90" height="32" rx="10"/>
   <rect x="181"
         y="77"
         width="90"
         height="32"
         class="terminal"
         rx="10"/>
   <text class="terminal" x="191" y="97">immediate</text>
   <a xmlns:xlink="http://www.w3.org/1999/xlink"
      xlink:href="#expression"
      xlink:title="expression">
      <rect x="313" y="3" width="90" height="32"/>
      <rect x="311" y="1" width="90" height="32" class="nonterminal"/>
      <text class="nonterminal" x="321" y="21">expression</text>
   </a>
   <rect x="443" y="35" width="34" height="32" rx="10"/>
   <rect x="441"
         y="33"
         width="34"
         height="32"
         class="terminal"
         rx="10"/>
   <text class="terminal" x="451" y="53">as</text>
   <a xmlns:xlink="http://www.w3.org/1999/xlink"
      xlink:href="#createElementsWithTypes"
      xlink:title="createElementsWithTypes">
      <rect x="497" y="35" width="186" height="32"/>
      <rect x="495" y="33" width="186" height="32" class="nonterminal"/>
      <text class="nonterminal" x="505" y="53">createElementsWithTypes</text>
   </a>
   <rect x="723" y="67" width="46" height="32" rx="10"/>
   <rect x="721"
         y="65"
         width="46"
         height="32"
         class="terminal"
         rx="10"/>
   <text class="terminal" x="731" y="85">into</text>
   <a xmlns:xlink="http://www.w3.org/1999/xlink"
      xlink:href="#id"
      xlink:title="id">
      <rect x="789" y="67" width="30" height="32"/>
      <rect x="787" y="65" width="30" height="32" class="nonterminal"/>
      <text class="nonterminal" x="797" y="85">id</text>
   </a>
   <rect x="409" y="165" width="56" height="32" rx="10"/>
   <rect x="407"
         y="163"
         width="56"
         height="32"
         class="terminal"
         rx="10"/>
   <text class="terminal" x="417" y="183">using</text>
   <a xmlns:xlink="http://www.w3.org/1999/xlink"
      xlink:href="#setClauseList"
      xlink:title="setClauseList">
      <rect x="485" y="165" width="106" height="32"/>
      <rect x="483" y="163" width="106" height="32" class="nonterminal"/>
      <text class="nonterminal" x="493" y="183">setClauseList</text>
   </a>
   <rect x="651" y="165" width="66" height="32" rx="10"/>
   <rect x="649"
         y="163"
         width="66"
         height="32"
         class="terminal"
         rx="10"/>
   <text class="terminal" x="659" y="183">update</text>
   <a xmlns:xlink="http://www.w3.org/1999/xlink"
      xlink:href="#intVal"
      xlink:title="intVal">
      <rect x="757" y="165" width="56" height="32"/>
      <rect x="755" y="163" width="56" height="32" class="nonterminal"/>
      <text class="nonterminal" x="765" y="183">intVal</text>
   </a>
   <rect x="757" y="209" width="28" height="32" rx="10"/>
   <rect x="755"
         y="207"
         width="28"
         height="32"
         class="terminal"
         rx="10"/>
   <text class="terminal" x="765" y="227">*</text>
   <path class="line"
         d="m17 17 h2 m20 0 h10 m72 0 h10 m-112 0 h20 m92 0 h20 m-132 0 q10 0 10 10 m112 0 q0 -10 10 -10 m-122 10 v24 m112 0 v-24 m-112 24 q0 10 10 10 m92 0 q10 0 10 -10 m-102 10 h10 m50 0 h10 m0 0 h22 m40 -44 h10 m0 0 h100 m-130 0 h20 m110 0 h20 m-150 0 q10 0 10 10 m130 0 q0 -10 10 -10 m-140 10 v12 m130 0 v-12 m-130 12 q0 10 10 10 m110 0 q10 0 10 -10 m-120 10 h10 m60 0 h10 m0 0 h30 m-120 -10 v20 m130 0 v-20 m-130 20 v24 m130 0 v-24 m-130 24 q0 10 10 10 m110 0 q10 0 10 -10 m-120 10 h10 m90 0 h10 m20 -76 h10 m90 0 h10 m20 0 h10 m0 0 h406 m-436 0 h20 m416 0 h20 m-456 0 q10 0 10 10 m436 0 q0 -10 10 -10 m-446 10 v12 m436 0 v-12 m-436 12 q0 10 10 10 m416 0 q10 0 10 -10 m-426 10 h10 m34 0 h10 m0 0 h10 m186 0 h10 m20 0 h10 m0 0 h106 m-136 0 h20 m116 0 h20 m-156 0 q10 0 10 10 m136 0 q0 -10 10 -10 m-146 10 v12 m136 0 v-12 m-136 12 q0 10 10 10 m116 0 q10 0 10 -10 m-126 10 h10 m46 0 h10 m0 0 h10 m30 0 h10 m42 -64 l2 0 m2 0 l2 0 m2 0 l2 0 m-514 130 l2 0 m2 0 l2 0 m2 0 l2 0 m22 0 h10 m0 0 h192 m-222 0 h20 m202 0 h20 m-242 0 q10 0 10 10 m222 0 q0 -10 10 -10 m-232 10 v12 m222 0 v-12 m-222 12 q0 10 10 10 m202 0 q10 0 10 -10 m-212 10 h10 m56 0 h10 m0 0 h10 m106 0 h10 m40 -32 h10 m0 0 h192 m-222 0 h20 m202 0 h20 m-242 0 q10 0 10 10 m222 0 q0 -10 10 -10 m-232 10 v12 m222 0 v-12 m-222 12 q0 10 10 10 m202 0 q10 0 10 -10 m-212 10 h10 m66 0 h10 m20 0 h10 m56 0 h10 m-96 0 h20 m76 0 h20 m-116 0 q10 0 10 10 m96 0 q0 -10 10 -10 m-106 10 v24 m96 0 v-24 m-96 24 q0 10 10 10 m76 0 q10 0 10 -10 m-86 10 h10 m28 0 h10 m0 0 h28 m43 -76 h-3"/>
   <polygon points="871 147 879 143 879 151"/>
   <polygon points="871 147 863 143 863 151"/>
</svg>
