<?xml version="1.0" encoding="UTF-8"?>
<svg xmlns="http://www.w3.org/2000/svg" width="179" height="169">
   <defs>
      <style type="text/css">
    @namespace "http://www.w3.org/2000/svg";
    .line                 {fill: none; stroke: #332900; stroke-width: 1;}
    .bold-line            {stroke: #141000; shape-rendering: crispEdges; stroke-width: 2;}
    .thin-line            {stroke: #1F1800; shape-rendering: crispEdges}
    .filled               {fill: #332900; stroke: none;}
    text.terminal         {font-family: Verdana, Sans-serif;
                            font-size: 12px;
                            fill: #141000;
                            font-weight: bold;
                          }
    text.nonterminal      {font-family: Verdana, Sans-serif;
                            font-size: 12px;
                            fill: #1A1400;
                            font-weight: normal;
                          }
    text.regexp           {font-family: Verdana, Sans-serif;
                            font-size: 12px;
                            fill: #1F1800;
                            font-weight: normal;
                          }
    rect, circle, polygon {fill: #332900; stroke: #332900;}
    rect.terminal         {fill: #FFDB4D; stroke: #332900; stroke-width: 1;}
    rect.nonterminal      {fill: #FFEC9E; stroke: #332900; stroke-width: 1;}
    rect.text             {fill: none; stroke: none;}
    polygon.regexp        {fill: #FFF4C7; stroke: #332900; stroke-width: 1;}
  </style>
   </defs>
   <polygon points="9 17 1 13 1 21"/>
   <polygon points="17 17 9 13 9 21"/>
   <rect x="31" y="3" width="28" height="32" rx="10"/>
   <rect x="29"
         y="1"
         width="28"
         height="32"
         class="terminal"
         rx="10"/>
   <text class="terminal" x="39" y="21">{</text>
   <rect x="99" y="3" width="28" height="32" rx="10"/>
   <rect x="97"
         y="1"
         width="28"
         height="32"
         class="terminal"
         rx="10"/>
   <text class="terminal" x="107" y="21">d</text>
   <rect x="99" y="47" width="24" height="32" rx="10"/>
   <rect x="97"
         y="45"
         width="24"
         height="32"
         class="terminal"
         rx="10"/>
   <text class="terminal" x="107" y="65">t</text>
   <rect x="99" y="91" width="32" height="32" rx="10"/>
   <rect x="97"
         y="89"
         width="32"
         height="32"
         class="terminal"
         rx="10"/>
   <text class="terminal" x="107" y="109">ts</text>
   <rect x="99" y="135" width="28" height="32" rx="10"/>
   <rect x="97"
         y="133"
         width="28"
         height="32"
         class="terminal"
         rx="10"/>
   <text class="terminal" x="107" y="153">b</text>
   <path class="line"
         d="m17 17 h2 m0 0 h10 m28 0 h10 m20 0 h10 m28 0 h10 m0 0 h4 m-72 0 h20 m52 0 h20 m-92 0 q10 0 10 10 m72 0 q0 -10 10 -10 m-82 10 v24 m72 0 v-24 m-72 24 q0 10 10 10 m52 0 q10 0 10 -10 m-62 10 h10 m24 0 h10 m0 0 h8 m-62 -10 v20 m72 0 v-20 m-72 20 v24 m72 0 v-24 m-72 24 q0 10 10 10 m52 0 q10 0 10 -10 m-62 10 h10 m32 0 h10 m-62 -10 v20 m72 0 v-20 m-72 20 v24 m72 0 v-24 m-72 24 q0 10 10 10 m52 0 q10 0 10 -10 m-62 10 h10 m28 0 h10 m0 0 h4 m23 -132 h-3"/>
   <polygon points="169 17 177 13 177 21"/>
   <polygon points="169 17 161 13 161 21"/>
</svg>
