<?xml version="1.0" encoding="UTF-8"?>
<svg xmlns="http://www.w3.org/2000/svg" width="969" height="187">
   <defs>
      <style type="text/css">
    @namespace "http://www.w3.org/2000/svg";
    .line                 {fill: none; stroke: #332900; stroke-width: 1;}
    .bold-line            {stroke: #141000; shape-rendering: crispEdges; stroke-width: 2;}
    .thin-line            {stroke: #1F1800; shape-rendering: crispEdges}
    .filled               {fill: #332900; stroke: none;}
    text.terminal         {font-family: Verdana, Sans-serif;
                            font-size: 12px;
                            fill: #141000;
                            font-weight: bold;
                          }
    text.nonterminal      {font-family: Verdana, Sans-serif;
                            font-size: 12px;
                            fill: #1A1400;
                            font-weight: normal;
                          }
    text.regexp           {font-family: Verdana, Sans-serif;
                            font-size: 12px;
                            fill: #1F1800;
                            font-weight: normal;
                          }
    rect, circle, polygon {fill: #332900; stroke: #332900;}
    rect.terminal         {fill: #FFDB4D; stroke: #332900; stroke-width: 1;}
    rect.nonterminal      {fill: #FFEC9E; stroke: #332900; stroke-width: 1;}
    rect.text             {fill: none; stroke: none;}
    polygon.regexp        {fill: #FFF4C7; stroke: #332900; stroke-width: 1;}
  </style>
   </defs>
   <polygon points="9 17 1 13 1 21"/>
   <polygon points="17 17 9 13 9 21"/>
   <rect x="31" y="3" width="104" height="32" rx="10"/>
   <rect x="29"
         y="1"
         width="104"
         height="32"
         class="terminal"
         rx="10"/>
   <text class="terminal" x="39" y="21">sqlexception</text>
   <a xmlns:xlink="http://www.w3.org/1999/xlink"
      xlink:href="#commonValueExpression"
      xlink:title="commonValueExpression">
      <rect x="155" y="3" width="178" height="32"/>
      <rect x="153" y="1" width="178" height="32" class="nonterminal"/>
      <text class="nonterminal" x="163" y="21">commonValueExpression</text>
   </a>
   <rect x="373" y="35" width="74" height="32" rx="10"/>
   <rect x="371"
         y="33"
         width="74"
         height="32"
         class="terminal"
         rx="10"/>
   <text class="terminal" x="381" y="53">sqlstate</text>
   <a xmlns:xlink="http://www.w3.org/1999/xlink"
      xlink:href="#commonValueExpression"
      xlink:title="commonValueExpression">
      <rect x="467" y="35" width="178" height="32"/>
      <rect x="465" y="33" width="178" height="32" class="nonterminal"/>
      <text class="nonterminal" x="475" y="53">commonValueExpression</text>
   </a>
   <rect x="685" y="67" width="24" height="32" rx="10"/>
   <rect x="683"
         y="65"
         width="24"
         height="32"
         class="terminal"
         rx="10"/>
   <text class="terminal" x="693" y="85">,</text>
   <a xmlns:xlink="http://www.w3.org/1999/xlink"
      xlink:href="#commonValueExpression"
      xlink:title="commonValueExpression">
      <rect x="729" y="67" width="178" height="32"/>
      <rect x="727" y="65" width="178" height="32" class="nonterminal"/>
      <text class="nonterminal" x="737" y="85">commonValueExpression</text>
   </a>
   <rect x="701" y="153" width="56" height="32" rx="10"/>
   <rect x="699"
         y="151"
         width="56"
         height="32"
         class="terminal"
         rx="10"/>
   <text class="terminal" x="709" y="171">chain</text>
   <a xmlns:xlink="http://www.w3.org/1999/xlink"
      xlink:href="#exceptionReference"
      xlink:title="exceptionReference">
      <rect x="777" y="153" width="144" height="32"/>
      <rect x="775" y="151" width="144" height="32" class="nonterminal"/>
      <text class="nonterminal" x="785" y="171">exceptionReference</text>
   </a>
   <path class="line"
         d="m17 17 h2 m0 0 h10 m104 0 h10 m0 0 h10 m178 0 h10 m20 0 h10 m0 0 h564 m-594 0 h20 m574 0 h20 m-614 0 q10 0 10 10 m594 0 q0 -10 10 -10 m-604 10 v12 m594 0 v-12 m-594 12 q0 10 10 10 m574 0 q10 0 10 -10 m-584 10 h10 m74 0 h10 m0 0 h10 m178 0 h10 m20 0 h10 m0 0 h232 m-262 0 h20 m242 0 h20 m-282 0 q10 0 10 10 m262 0 q0 -10 10 -10 m-272 10 v12 m262 0 v-12 m-262 12 q0 10 10 10 m242 0 q10 0 10 -10 m-252 10 h10 m24 0 h10 m0 0 h10 m178 0 h10 m42 -64 l2 0 m2 0 l2 0 m2 0 l2 0 m-310 118 l2 0 m2 0 l2 0 m2 0 l2 0 m22 0 h10 m0 0 h230 m-260 0 h20 m240 0 h20 m-280 0 q10 0 10 10 m260 0 q0 -10 10 -10 m-270 10 v12 m260 0 v-12 m-260 12 q0 10 10 10 m240 0 q10 0 10 -10 m-250 10 h10 m56 0 h10 m0 0 h10 m144 0 h10 m23 -32 h-3"/>
   <polygon points="959 135 967 131 967 139"/>
   <polygon points="959 135 951 131 951 139"/>
</svg>
