<?xml version="1.0" encoding="UTF-8"?>
<svg xmlns="http://www.w3.org/2000/svg" width="557" height="97">
   <defs>
      <style type="text/css">
    @namespace "http://www.w3.org/2000/svg";
    .line                 {fill: none; stroke: #332900; stroke-width: 1;}
    .bold-line            {stroke: #141000; shape-rendering: crispEdges; stroke-width: 2;}
    .thin-line            {stroke: #1F1800; shape-rendering: crispEdges}
    .filled               {fill: #332900; stroke: none;}
    text.terminal         {font-family: Verdana, Sans-serif;
                            font-size: 12px;
                            fill: #141000;
                            font-weight: bold;
                          }
    text.nonterminal      {font-family: Verdana, Sans-serif;
                            font-size: 12px;
                            fill: #1A1400;
                            font-weight: normal;
                          }
    text.regexp           {font-family: Verdana, Sans-serif;
                            font-size: 12px;
                            fill: #1F1800;
                            font-weight: normal;
                          }
    rect, circle, polygon {fill: #332900; stroke: #332900;}
    rect.terminal         {fill: #FFDB4D; stroke: #332900; stroke-width: 1;}
    rect.nonterminal      {fill: #FFEC9E; stroke: #332900; stroke-width: 1;}
    rect.text             {fill: none; stroke: none;}
    polygon.regexp        {fill: #FFF4C7; stroke: #332900; stroke-width: 1;}
  </style>
   </defs>
   <polygon points="9 61 1 57 1 65"/>
   <polygon points="17 61 9 57 9 65"/>
   <rect x="31" y="47" width="68" height="32" rx="10"/>
   <rect x="29"
         y="45"
         width="68"
         height="32"
         class="terminal"
         rx="10"/>
   <text class="terminal" x="39" y="65">explain</text>
   <rect x="139" y="47" width="26" height="32" rx="10"/>
   <rect x="137"
         y="45"
         width="26"
         height="32"
         class="terminal"
         rx="10"/>
   <text class="terminal" x="147" y="65">(</text>
   <a xmlns:xlink="http://www.w3.org/1999/xlink"
      xlink:href="#explainOption"
      xlink:title="explainOption">
      <rect x="205" y="47" width="106" height="32"/>
      <rect x="203" y="45" width="106" height="32" class="nonterminal"/>
      <text class="nonterminal" x="213" y="65">explainOption</text>
   </a>
   <rect x="205" y="3" width="24" height="32" rx="10"/>
   <rect x="203"
         y="1"
         width="24"
         height="32"
         class="terminal"
         rx="10"/>
   <text class="terminal" x="213" y="21">,</text>
   <rect x="351" y="47" width="26" height="32" rx="10"/>
   <rect x="349"
         y="45"
         width="26"
         height="32"
         class="terminal"
         rx="10"/>
   <text class="terminal" x="359" y="65">)</text>
   <a xmlns:xlink="http://www.w3.org/1999/xlink"
      xlink:href="#userCommand"
      xlink:title="userCommand">
      <rect x="417" y="47" width="112" height="32"/>
      <rect x="415" y="45" width="112" height="32" class="nonterminal"/>
      <text class="nonterminal" x="425" y="65">userCommand</text>
   </a>
   <path class="line"
         d="m17 61 h2 m0 0 h10 m68 0 h10 m20 0 h10 m26 0 h10 m20 0 h10 m106 0 h10 m-146 0 l20 0 m-1 0 q-9 0 -9 -10 l0 -24 q0 -10 10 -10 m126 44 l20 0 m-20 0 q10 0 10 -10 l0 -24 q0 -10 -10 -10 m-126 0 h10 m24 0 h10 m0 0 h82 m20 44 h10 m26 0 h10 m-278 0 h20 m258 0 h20 m-298 0 q10 0 10 10 m278 0 q0 -10 10 -10 m-288 10 v14 m278 0 v-14 m-278 14 q0 10 10 10 m258 0 q10 0 10 -10 m-268 10 h10 m0 0 h248 m20 -34 h10 m112 0 h10 m3 0 h-3"/>
   <polygon points="547 61 555 57 555 65"/>
   <polygon points="547 61 539 57 539 65"/>
</svg>
