<?xml version="1.0" encoding="UTF-8"?>
<svg xmlns="http://www.w3.org/2000/svg" width="283" height="277">
   <defs>
      <style type="text/css">
    @namespace "http://www.w3.org/2000/svg";
    .line                 {fill: none; stroke: #332900; stroke-width: 1;}
    .bold-line            {stroke: #141000; shape-rendering: crispEdges; stroke-width: 2;}
    .thin-line            {stroke: #1F1800; shape-rendering: crispEdges}
    .filled               {fill: #332900; stroke: none;}
    text.terminal         {font-family: Verdana, Sans-serif;
                            font-size: 12px;
                            fill: #141000;
                            font-weight: bold;
                          }
    text.nonterminal      {font-family: Verdana, Sans-serif;
                            font-size: 12px;
                            fill: #1A1400;
                            font-weight: normal;
                          }
    text.regexp           {font-family: Verdana, Sans-serif;
                            font-size: 12px;
                            fill: #1F1800;
                            font-weight: normal;
                          }
    rect, circle, polygon {fill: #332900; stroke: #332900;}
    rect.terminal         {fill: #FFDB4D; stroke: #332900; stroke-width: 1;}
    rect.nonterminal      {fill: #FFEC9E; stroke: #332900; stroke-width: 1;}
    rect.text             {fill: none; stroke: none;}
    polygon.regexp        {fill: #FFF4C7; stroke: #332900; stroke-width: 1;}
  </style>
   </defs>
   <polygon points="9 17 1 13 1 21"/>
   <polygon points="17 17 9 13 9 21"/>
   <rect x="51" y="3" width="72" height="32" rx="10"/>
   <rect x="49"
         y="1"
         width="72"
         height="32"
         class="terminal"
         rx="10"/>
   <text class="terminal" x="59" y="21">analyze</text>
   <rect x="163" y="35" width="48" height="32" rx="10"/>
   <rect x="161"
         y="33"
         width="48"
         height="32"
         class="terminal"
         rx="10"/>
   <text class="terminal" x="171" y="53">true</text>
   <rect x="163" y="79" width="52" height="32" rx="10"/>
   <rect x="161"
         y="77"
         width="52"
         height="32"
         class="terminal"
         rx="10"/>
   <text class="terminal" x="171" y="97">false</text>
   <rect x="51" y="123" width="64" height="32" rx="10"/>
   <rect x="49"
         y="121"
         width="64"
         height="32"
         class="terminal"
         rx="10"/>
   <text class="terminal" x="59" y="141">format</text>
   <rect x="155" y="155" width="44" height="32" rx="10"/>
   <rect x="153"
         y="153"
         width="44"
         height="32"
         class="terminal"
         rx="10"/>
   <text class="terminal" x="163" y="173">xml</text>
   <rect x="155" y="199" width="46" height="32" rx="10"/>
   <rect x="153"
         y="197"
         width="46"
         height="32"
         class="terminal"
         rx="10"/>
   <text class="terminal" x="163" y="217">text</text>
   <rect x="155" y="243" width="52" height="32" rx="10"/>
   <rect x="153"
         y="241"
         width="52"
         height="32"
         class="terminal"
         rx="10"/>
   <text class="terminal" x="163" y="261">yaml</text>
   <path class="line"
         d="m17 17 h2 m20 0 h10 m72 0 h10 m20 0 h10 m0 0 h62 m-92 0 h20 m72 0 h20 m-112 0 q10 0 10 10 m92 0 q0 -10 10 -10 m-102 10 v12 m92 0 v-12 m-92 12 q0 10 10 10 m72 0 q10 0 10 -10 m-82 10 h10 m48 0 h10 m0 0 h4 m-82 -10 v20 m92 0 v-20 m-92 20 v24 m92 0 v-24 m-92 24 q0 10 10 10 m72 0 q10 0 10 -10 m-82 10 h10 m52 0 h10 m-204 -76 h20 m204 0 h20 m-244 0 q10 0 10 10 m224 0 q0 -10 10 -10 m-234 10 v100 m224 0 v-100 m-224 100 q0 10 10 10 m204 0 q10 0 10 -10 m-214 10 h10 m64 0 h10 m20 0 h10 m0 0 h62 m-92 0 h20 m72 0 h20 m-112 0 q10 0 10 10 m92 0 q0 -10 10 -10 m-102 10 v12 m92 0 v-12 m-92 12 q0 10 10 10 m72 0 q10 0 10 -10 m-82 10 h10 m44 0 h10 m0 0 h8 m-82 -10 v20 m92 0 v-20 m-92 20 v24 m92 0 v-24 m-92 24 q0 10 10 10 m72 0 q10 0 10 -10 m-82 10 h10 m46 0 h10 m0 0 h6 m-82 -10 v20 m92 0 v-20 m-92 20 v24 m92 0 v-24 m-92 24 q0 10 10 10 m72 0 q10 0 10 -10 m-82 10 h10 m52 0 h10 m20 -120 h8 m23 -120 h-3"/>
   <polygon points="273 17 281 13 281 21"/>
   <polygon points="273 17 265 13 265 21"/>
</svg>
