<?xml version="1.0" encoding="UTF-8"?>
<svg xmlns="http://www.w3.org/2000/svg" width="539" height="81">
   <defs>
      <style type="text/css">
    @namespace "http://www.w3.org/2000/svg";
    .line                 {fill: none; stroke: #332900; stroke-width: 1;}
    .bold-line            {stroke: #141000; shape-rendering: crispEdges; stroke-width: 2;}
    .thin-line            {stroke: #1F1800; shape-rendering: crispEdges}
    .filled               {fill: #332900; stroke: none;}
    text.terminal         {font-family: Verdana, Sans-serif;
                            font-size: 12px;
                            fill: #141000;
                            font-weight: bold;
                          }
    text.nonterminal      {font-family: Verdana, Sans-serif;
                            font-size: 12px;
                            fill: #1A1400;
                            font-weight: normal;
                          }
    text.regexp           {font-family: Verdana, Sans-serif;
                            font-size: 12px;
                            fill: #1F1800;
                            font-weight: normal;
                          }
    rect, circle, polygon {fill: #332900; stroke: #332900;}
    rect.terminal         {fill: #FFDB4D; stroke: #332900; stroke-width: 1;}
    rect.nonterminal      {fill: #FFEC9E; stroke: #332900; stroke-width: 1;}
    rect.text             {fill: none; stroke: none;}
    polygon.regexp        {fill: #FFF4C7; stroke: #332900; stroke-width: 1;}
  </style>
   </defs>
   <polygon points="9 17 1 13 1 21"/>
   <polygon points="17 17 9 13 9 21"/>
   <rect x="31" y="3" width="54" height="32" rx="10"/>
   <rect x="29"
         y="1"
         width="54"
         height="32"
         class="terminal"
         rx="10"/>
   <text class="terminal" x="39" y="21">fetch</text>
   <rect x="125" y="3" width="48" height="32" rx="10"/>
   <rect x="123"
         y="1"
         width="48"
         height="32"
         class="terminal"
         rx="10"/>
   <text class="terminal" x="133" y="21">first</text>
   <rect x="125" y="47" width="50" height="32" rx="10"/>
   <rect x="123"
         y="45"
         width="50"
         height="32"
         class="terminal"
         rx="10"/>
   <text class="terminal" x="133" y="65">next</text>
   <a xmlns:xlink="http://www.w3.org/1999/xlink"
      xlink:href="#intParam"
      xlink:title="intParam">
      <rect x="235" y="35" width="76" height="32"/>
      <rect x="233" y="33" width="76" height="32" class="nonterminal"/>
      <text class="nonterminal" x="243" y="53">intParam</text>
   </a>
   <rect x="371" y="3" width="46" height="32" rx="10"/>
   <rect x="369"
         y="1"
         width="46"
         height="32"
         class="terminal"
         rx="10"/>
   <text class="terminal" x="379" y="21">row</text>
   <rect x="371" y="47" width="52" height="32" rx="10"/>
   <rect x="369"
         y="45"
         width="52"
         height="32"
         class="terminal"
         rx="10"/>
   <text class="terminal" x="379" y="65">rows</text>
   <rect x="463" y="3" width="48" height="32" rx="10"/>
   <rect x="461"
         y="1"
         width="48"
         height="32"
         class="terminal"
         rx="10"/>
   <text class="terminal" x="471" y="21">only</text>
   <path class="line"
         d="m17 17 h2 m0 0 h10 m54 0 h10 m20 0 h10 m48 0 h10 m0 0 h2 m-90 0 h20 m70 0 h20 m-110 0 q10 0 10 10 m90 0 q0 -10 10 -10 m-100 10 v24 m90 0 v-24 m-90 24 q0 10 10 10 m70 0 q10 0 10 -10 m-80 10 h10 m50 0 h10 m40 -44 h10 m0 0 h86 m-116 0 h20 m96 0 h20 m-136 0 q10 0 10 10 m116 0 q0 -10 10 -10 m-126 10 v12 m116 0 v-12 m-116 12 q0 10 10 10 m96 0 q10 0 10 -10 m-106 10 h10 m76 0 h10 m40 -32 h10 m46 0 h10 m0 0 h6 m-92 0 h20 m72 0 h20 m-112 0 q10 0 10 10 m92 0 q0 -10 10 -10 m-102 10 v24 m92 0 v-24 m-92 24 q0 10 10 10 m72 0 q10 0 10 -10 m-82 10 h10 m52 0 h10 m20 -44 h10 m48 0 h10 m3 0 h-3"/>
   <polygon points="529 17 537 13 537 21"/>
   <polygon points="529 17 521 13 521 21"/>
</svg>
