<?xml version="1.0" encoding="UTF-8"?>
<svg xmlns="http://www.w3.org/2000/svg" width="621" height="69">
   <defs>
      <style type="text/css">
    @namespace "http://www.w3.org/2000/svg";
    .line                 {fill: none; stroke: #332900; stroke-width: 1;}
    .bold-line            {stroke: #141000; shape-rendering: crispEdges; stroke-width: 2;}
    .thin-line            {stroke: #1F1800; shape-rendering: crispEdges}
    .filled               {fill: #332900; stroke: none;}
    text.terminal         {font-family: Verdana, Sans-serif;
                            font-size: 12px;
                            fill: #141000;
                            font-weight: bold;
                          }
    text.nonterminal      {font-family: Verdana, Sans-serif;
                            font-size: 12px;
                            fill: #1A1400;
                            font-weight: normal;
                          }
    text.regexp           {font-family: Verdana, Sans-serif;
                            font-size: 12px;
                            fill: #1F1800;
                            font-weight: normal;
                          }
    rect, circle, polygon {fill: #332900; stroke: #332900;}
    rect.terminal         {fill: #FFDB4D; stroke: #332900; stroke-width: 1;}
    rect.nonterminal      {fill: #FFEC9E; stroke: #332900; stroke-width: 1;}
    rect.text             {fill: none; stroke: none;}
    polygon.regexp        {fill: #FFF4C7; stroke: #332900; stroke-width: 1;}
  </style>
   </defs>
   <polygon points="9 17 1 13 1 21"/>
   <polygon points="17 17 9 13 9 21"/>
   <rect x="31" y="3" width="68" height="32" rx="10"/>
   <rect x="29"
         y="1"
         width="68"
         height="32"
         class="terminal"
         rx="10"/>
   <text class="terminal" x="39" y="21">foreign</text>
   <rect x="119" y="3" width="44" height="32" rx="10"/>
   <rect x="117"
         y="1"
         width="44"
         height="32"
         class="terminal"
         rx="10"/>
   <text class="terminal" x="127" y="21">key</text>
   <a xmlns:xlink="http://www.w3.org/1999/xlink"
      xlink:href="#columnList"
      xlink:title="columnList">
      <rect x="183" y="3" width="86" height="32"/>
      <rect x="181" y="1" width="86" height="32" class="nonterminal"/>
      <text class="nonterminal" x="191" y="21">columnList</text>
   </a>
   <rect x="289" y="3" width="108" height="32" rx="10"/>
   <rect x="287"
         y="1"
         width="108"
         height="32"
         class="terminal"
         rx="10"/>
   <text class="terminal" x="297" y="21">REFERENCES</text>
   <a xmlns:xlink="http://www.w3.org/1999/xlink"
      xlink:href="#id"
      xlink:title="id">
      <rect x="417" y="3" width="30" height="32"/>
      <rect x="415" y="1" width="30" height="32" class="nonterminal"/>
      <text class="nonterminal" x="425" y="21">id</text>
   </a>
   <a xmlns:xlink="http://www.w3.org/1999/xlink"
      xlink:href="#columnList"
      xlink:title="columnList">
      <rect x="487" y="35" width="86" height="32"/>
      <rect x="485" y="33" width="86" height="32" class="nonterminal"/>
      <text class="nonterminal" x="495" y="53">columnList</text>
   </a>
   <path class="line"
         d="m17 17 h2 m0 0 h10 m68 0 h10 m0 0 h10 m44 0 h10 m0 0 h10 m86 0 h10 m0 0 h10 m108 0 h10 m0 0 h10 m30 0 h10 m20 0 h10 m0 0 h96 m-126 0 h20 m106 0 h20 m-146 0 q10 0 10 10 m126 0 q0 -10 10 -10 m-136 10 v12 m126 0 v-12 m-126 12 q0 10 10 10 m106 0 q10 0 10 -10 m-116 10 h10 m86 0 h10 m23 -32 h-3"/>
   <polygon points="611 17 619 13 619 21"/>
   <polygon points="611 17 603 13 603 21"/>
</svg>
