<?xml version="1.0" encoding="UTF-8"?>
<svg xmlns="http://www.w3.org/2000/svg" width="685" height="147">
   <defs>
      <style type="text/css">
    @namespace "http://www.w3.org/2000/svg";
    .line                 {fill: none; stroke: #332900; stroke-width: 1;}
    .bold-line            {stroke: #141000; shape-rendering: crispEdges; stroke-width: 2;}
    .thin-line            {stroke: #1F1800; shape-rendering: crispEdges}
    .filled               {fill: #332900; stroke: none;}
    text.terminal         {font-family: Verdana, Sans-serif;
                            font-size: 12px;
                            fill: #141000;
                            font-weight: bold;
                          }
    text.nonterminal      {font-family: Verdana, Sans-serif;
                            font-size: 12px;
                            fill: #1A1400;
                            font-weight: normal;
                          }
    text.regexp           {font-family: Verdana, Sans-serif;
                            font-size: 12px;
                            fill: #1F1800;
                            font-weight: normal;
                          }
    rect, circle, polygon {fill: #332900; stroke: #332900;}
    rect.terminal         {fill: #FFDB4D; stroke: #332900; stroke-width: 1;}
    rect.nonterminal      {fill: #FFEC9E; stroke: #332900; stroke-width: 1;}
    rect.text             {fill: none; stroke: none;}
    polygon.regexp        {fill: #FFF4C7; stroke: #332900; stroke-width: 1;}
  </style>
   </defs>
   <polygon points="9 51 1 47 1 55"/>
   <polygon points="17 51 9 47 9 55"/>
   <rect x="31" y="37" width="38" height="32" rx="10"/>
   <rect x="29"
         y="35"
         width="38"
         height="32"
         class="terminal"
         rx="10"/>
   <text class="terminal" x="39" y="55">for</text>
   <rect x="89" y="37" width="52" height="32" rx="10"/>
   <rect x="87"
         y="35"
         width="52"
         height="32"
         class="terminal"
         rx="10"/>
   <text class="terminal" x="97" y="55">each</text>
   <rect x="161" y="37" width="46" height="32" rx="10"/>
   <rect x="159"
         y="35"
         width="46"
         height="32"
         class="terminal"
         rx="10"/>
   <text class="terminal" x="169" y="55">row</text>
   <rect x="247" y="37" width="56" height="32" rx="10"/>
   <rect x="245"
         y="35"
         width="56"
         height="32"
         class="terminal"
         rx="10"/>
   <text class="terminal" x="255" y="55">begin</text>
   <rect x="343" y="69" width="64" height="32" rx="10"/>
   <rect x="341"
         y="67"
         width="64"
         height="32"
         class="terminal"
         rx="10"/>
   <text class="terminal" x="351" y="87">atomic</text>
   <a xmlns:xlink="http://www.w3.org/1999/xlink"
      xlink:href="#statement"
      xlink:title="statement">
      <rect x="467" y="3" width="86" height="32"/>
      <rect x="465" y="1" width="86" height="32" class="nonterminal"/>
      <text class="nonterminal" x="475" y="21">statement</text>
   </a>
   <rect x="593" y="37" width="44" height="32" rx="10"/>
   <rect x="591"
         y="35"
         width="44"
         height="32"
         class="terminal"
         rx="10"/>
   <text class="terminal" x="601" y="55">end</text>
   <a xmlns:xlink="http://www.w3.org/1999/xlink"
      xlink:href="#statement"
      xlink:title="statement">
      <rect x="247" y="113" width="86" height="32"/>
      <rect x="245" y="111" width="86" height="32" class="nonterminal"/>
      <text class="nonterminal" x="255" y="131">statement</text>
   </a>
   <path class="line"
         d="m17 51 h2 m0 0 h10 m38 0 h10 m0 0 h10 m52 0 h10 m0 0 h10 m46 0 h10 m20 0 h10 m56 0 h10 m20 0 h10 m0 0 h74 m-104 0 h20 m84 0 h20 m-124 0 q10 0 10 10 m104 0 q0 -10 10 -10 m-114 10 v12 m104 0 v-12 m-104 12 q0 10 10 10 m84 0 q10 0 10 -10 m-94 10 h10 m64 0 h10 m40 -32 h10 m0 0 h96 m-126 0 l20 0 m-1 0 q-9 0 -9 -10 l0 -14 q0 -10 10 -10 m106 34 l20 0 m-20 0 q10 0 10 -10 l0 -14 q0 -10 -10 -10 m-106 0 h10 m86 0 h10 m20 34 h10 m44 0 h10 m-430 0 h20 m410 0 h20 m-450 0 q10 0 10 10 m430 0 q0 -10 10 -10 m-440 10 v56 m430 0 v-56 m-430 56 q0 10 10 10 m410 0 q10 0 10 -10 m-420 10 h10 m86 0 h10 m0 0 h304 m23 -76 h-3"/>
   <polygon points="675 51 683 47 683 55"/>
   <polygon points="675 51 667 47 667 55"/>
</svg>
