<?xml version="1.0" encoding="UTF-8"?>
<svg xmlns="http://www.w3.org/2000/svg" width="1205" height="649">
   <defs>
      <style type="text/css">
    @namespace "http://www.w3.org/2000/svg";
    .line                 {fill: none; stroke: #332900; stroke-width: 1;}
    .bold-line            {stroke: #141000; shape-rendering: crispEdges; stroke-width: 2;}
    .thin-line            {stroke: #1F1800; shape-rendering: crispEdges}
    .filled               {fill: #332900; stroke: none;}
    text.terminal         {font-family: Verdana, Sans-serif;
                            font-size: 12px;
                            fill: #141000;
                            font-weight: bold;
                          }
    text.nonterminal      {font-family: Verdana, Sans-serif;
                            font-size: 12px;
                            fill: #1A1400;
                            font-weight: normal;
                          }
    text.regexp           {font-family: Verdana, Sans-serif;
                            font-size: 12px;
                            fill: #1F1800;
                            font-weight: normal;
                          }
    rect, circle, polygon {fill: #332900; stroke: #332900;}
    rect.terminal         {fill: #FFDB4D; stroke: #332900; stroke-width: 1;}
    rect.nonterminal      {fill: #FFEC9E; stroke: #332900; stroke-width: 1;}
    rect.text             {fill: none; stroke: none;}
    polygon.regexp        {fill: #FFF4C7; stroke: #332900; stroke-width: 1;}
  </style>
   </defs>
   <polygon points="9 17 1 13 1 21"/>
   <polygon points="17 17 9 13 9 21"/>
   <rect x="31" y="3" width="56" height="32" rx="10"/>
   <rect x="29"
         y="1"
         width="56"
         height="32"
         class="terminal"
         rx="10"/>
   <text class="terminal" x="39" y="21">grant</text>
   <a xmlns:xlink="http://www.w3.org/1999/xlink"
      xlink:href="#readGrantTypes"
      xlink:title="readGrantTypes">
      <rect x="85" y="113" width="122" height="32"/>
      <rect x="83" y="111" width="122" height="32" class="nonterminal"/>
      <text class="nonterminal" x="93" y="131">readGrantTypes</text>
   </a>
   <rect x="85" y="69" width="24" height="32" rx="10"/>
   <rect x="83"
         y="67"
         width="24"
         height="32"
         class="terminal"
         rx="10"/>
   <text class="terminal" x="93" y="87">,</text>
   <rect x="267" y="113" width="36" height="32" rx="10"/>
   <rect x="265"
         y="111"
         width="36"
         height="32"
         class="terminal"
         rx="10"/>
   <text class="terminal" x="275" y="131">on</text>
   <rect x="363" y="113" width="54" height="32" rx="10"/>
   <rect x="361"
         y="111"
         width="54"
         height="32"
         class="terminal"
         rx="10"/>
   <text class="terminal" x="371" y="131">table</text>
   <rect x="363" y="157" width="88" height="32" rx="10"/>
   <rect x="361"
         y="155"
         width="88"
         height="32"
         class="terminal"
         rx="10"/>
   <text class="terminal" x="371" y="175">procedure</text>
   <a xmlns:xlink="http://www.w3.org/1999/xlink"
      xlink:href="#id"
      xlink:title="id">
      <rect x="491" y="113" width="30" height="32"/>
      <rect x="489" y="111" width="30" height="32" class="nonterminal"/>
      <text class="nonterminal" x="499" y="131">id</text>
   </a>
   <rect x="561" y="145" width="82" height="32" rx="10"/>
   <rect x="559"
         y="143"
         width="82"
         height="32"
         class="terminal"
         rx="10"/>
   <text class="terminal" x="569" y="163">condition</text>
   <rect x="703" y="209" width="42" height="32" rx="10"/>
   <rect x="701"
         y="207"
         width="42"
         height="32"
         class="terminal"
         rx="10"/>
   <text class="terminal" x="711" y="227">not</text>
   <rect x="785" y="177" width="88" height="32" rx="10"/>
   <rect x="783"
         y="175"
         width="88"
         height="32"
         class="terminal"
         rx="10"/>
   <text class="terminal" x="793" y="195">constraint</text>
   <a xmlns:xlink="http://www.w3.org/1999/xlink"
      xlink:href="#stringVal"
      xlink:title="stringVal">
      <rect x="913" y="145" width="76" height="32"/>
      <rect x="911" y="143" width="76" height="32" class="nonterminal"/>
      <text class="nonterminal" x="921" y="163">stringVal</text>
   </a>
   <rect x="363" y="253" width="74" height="32" rx="10"/>
   <rect x="361"
         y="251"
         width="74"
         height="32"
         class="terminal"
         rx="10"/>
   <text class="terminal" x="371" y="271">function</text>
   <rect x="363" y="297" width="70" height="32" rx="10"/>
   <rect x="361"
         y="295"
         width="70"
         height="32"
         class="terminal"
         rx="10"/>
   <text class="terminal" x="371" y="315">schema</text>
   <a xmlns:xlink="http://www.w3.org/1999/xlink"
      xlink:href="#id"
      xlink:title="id">
      <rect x="477" y="253" width="30" height="32"/>
      <rect x="475" y="251" width="30" height="32" class="nonterminal"/>
      <text class="nonterminal" x="485" y="271">id</text>
   </a>
   <rect x="343" y="341" width="68" height="32" rx="10"/>
   <rect x="341"
         y="339"
         width="68"
         height="32"
         class="terminal"
         rx="10"/>
   <text class="terminal" x="351" y="359">column</text>
   <a xmlns:xlink="http://www.w3.org/1999/xlink"
      xlink:href="#id"
      xlink:title="id">
      <rect x="431" y="341" width="30" height="32"/>
      <rect x="429" y="339" width="30" height="32" class="nonterminal"/>
      <text class="nonterminal" x="439" y="359">id</text>
   </a>
   <rect x="501" y="373" width="56" height="32" rx="10"/>
   <rect x="499"
         y="371"
         width="56"
         height="32"
         class="terminal"
         rx="10"/>
   <text class="terminal" x="509" y="391">mask</text>
   <rect x="597" y="405" width="56" height="32" rx="10"/>
   <rect x="595"
         y="403"
         width="56"
         height="32"
         class="terminal"
         rx="10"/>
   <text class="terminal" x="605" y="423">order</text>
   <a xmlns:xlink="http://www.w3.org/1999/xlink"
      xlink:href="#intVal"
      xlink:title="intVal">
      <rect x="673" y="405" width="56" height="32"/>
      <rect x="671" y="403" width="56" height="32" class="nonterminal"/>
      <text class="nonterminal" x="681" y="423">intVal</text>
   </a>
   <a xmlns:xlink="http://www.w3.org/1999/xlink"
      xlink:href="#stringVal"
      xlink:title="stringVal">
      <rect x="769" y="373" width="76" height="32"/>
      <rect x="767" y="371" width="76" height="32" class="nonterminal"/>
      <text class="nonterminal" x="777" y="391">stringVal</text>
   </a>
   <rect x="905" y="373" width="82" height="32" rx="10"/>
   <rect x="903"
         y="371"
         width="82"
         height="32"
         class="terminal"
         rx="10"/>
   <text class="terminal" x="913" y="391">condition</text>
   <a xmlns:xlink="http://www.w3.org/1999/xlink"
      xlink:href="#criteria"
      xlink:title="criteria">
      <rect x="1027" y="373" width="64" height="32"/>
      <rect x="1025" y="371" width="64" height="32" class="nonterminal"/>
      <text class="nonterminal" x="1035" y="391">criteria</text>
   </a>
   <a xmlns:xlink="http://www.w3.org/1999/xlink"
      xlink:href="#stringVal"
      xlink:title="stringVal">
      <rect x="1027" y="417" width="76" height="32"/>
      <rect x="1025" y="415" width="76" height="32" class="nonterminal"/>
      <text class="nonterminal" x="1035" y="435">stringVal</text>
   </a>
   <rect x="45" y="461" width="36" height="32" rx="10"/>
   <rect x="43"
         y="459"
         width="36"
         height="32"
         class="terminal"
         rx="10"/>
   <text class="terminal" x="53" y="479">all</text>
   <rect x="101" y="461" width="86" height="32" rx="10"/>
   <rect x="99"
         y="459"
         width="86"
         height="32"
         class="terminal"
         rx="10"/>
   <text class="terminal" x="109" y="479">privileges</text>
   <rect x="45" y="505" width="90" height="32" rx="10"/>
   <rect x="43"
         y="503"
         width="90"
         height="32"
         class="terminal"
         rx="10"/>
   <text class="terminal" x="53" y="523">temporary</text>
   <rect x="155" y="505" width="54" height="32" rx="10"/>
   <rect x="153"
         y="503"
         width="54"
         height="32"
         class="terminal"
         rx="10"/>
   <text class="terminal" x="163" y="523">table</text>
   <rect x="45" y="549" width="60" height="32" rx="10"/>
   <rect x="43"
         y="547"
         width="60"
         height="32"
         class="terminal"
         rx="10"/>
   <text class="terminal" x="53" y="567">usage</text>
   <rect x="125" y="549" width="36" height="32" rx="10"/>
   <rect x="123"
         y="547"
         width="36"
         height="32"
         class="terminal"
         rx="10"/>
   <text class="terminal" x="133" y="567">on</text>
   <rect x="181" y="549" width="82" height="32" rx="10"/>
   <rect x="179"
         y="547"
         width="82"
         height="32"
         class="terminal"
         rx="10"/>
   <text class="terminal" x="189" y="567">language</text>
   <a xmlns:xlink="http://www.w3.org/1999/xlink"
      xlink:href="#id"
      xlink:title="id">
      <rect x="283" y="549" width="30" height="32"/>
      <rect x="281" y="547" width="30" height="32" class="nonterminal"/>
      <text class="nonterminal" x="291" y="567">id</text>
   </a>
   <rect x="1093" y="615" width="34" height="32" rx="10"/>
   <rect x="1091"
         y="613"
         width="34"
         height="32"
         class="terminal"
         rx="10"/>
   <text class="terminal" x="1101" y="633">to</text>
   <a xmlns:xlink="http://www.w3.org/1999/xlink"
      xlink:href="#id"
      xlink:title="id">
      <rect x="1147" y="615" width="30" height="32"/>
      <rect x="1145" y="613" width="30" height="32" class="nonterminal"/>
      <text class="nonterminal" x="1155" y="633">id</text>
   </a>
   <path class="line"
         d="m17 17 h2 m0 0 h10 m56 0 h10 m2 0 l2 0 m2 0 l2 0 m2 0 l2 0 m-106 110 l2 0 m2 0 l2 0 m2 0 l2 0 m62 0 h10 m122 0 h10 m-162 0 l20 0 m-1 0 q-9 0 -9 -10 l0 -24 q0 -10 10 -10 m142 44 l20 0 m-20 0 q10 0 10 -10 l0 -24 q0 -10 -10 -10 m-142 0 h10 m24 0 h10 m0 0 h98 m-182 44 h20 m182 0 h20 m-222 0 q10 0 10 10 m202 0 q0 -10 10 -10 m-212 10 v14 m202 0 v-14 m-202 14 q0 10 10 10 m182 0 q10 0 10 -10 m-192 10 h10 m0 0 h172 m20 -34 h10 m36 0 h10 m40 0 h10 m54 0 h10 m0 0 h34 m-128 0 h20 m108 0 h20 m-148 0 q10 0 10 10 m128 0 q0 -10 10 -10 m-138 10 v24 m128 0 v-24 m-128 24 q0 10 10 10 m108 0 q10 0 10 -10 m-118 10 h10 m88 0 h10 m20 -44 h10 m30 0 h10 m20 0 h10 m0 0 h438 m-468 0 h20 m448 0 h20 m-488 0 q10 0 10 10 m468 0 q0 -10 10 -10 m-478 10 v12 m468 0 v-12 m-468 12 q0 10 10 10 m448 0 q10 0 10 -10 m-458 10 h10 m82 0 h10 m20 0 h10 m0 0 h200 m-230 0 h20 m210 0 h20 m-250 0 q10 0 10 10 m230 0 q0 -10 10 -10 m-240 10 v12 m230 0 v-12 m-230 12 q0 10 10 10 m210 0 q10 0 10 -10 m-200 10 h10 m0 0 h52 m-82 0 h20 m62 0 h20 m-102 0 q10 0 10 10 m82 0 q0 -10 10 -10 m-92 10 v12 m82 0 v-12 m-82 12 q0 10 10 10 m62 0 q10 0 10 -10 m-72 10 h10 m42 0 h10 m20 -32 h10 m88 0 h10 m20 -32 h10 m76 0 h10 m20 -32 h134 m-840 0 h20 m820 0 h20 m-860 0 q10 0 10 10 m840 0 q0 -10 10 -10 m-850 10 v120 m840 0 v-120 m-840 120 q0 10 10 10 m820 0 q10 0 10 -10 m-810 10 h10 m74 0 h10 m-114 0 h20 m94 0 h20 m-134 0 q10 0 10 10 m114 0 q0 -10 10 -10 m-124 10 v24 m114 0 v-24 m-114 24 q0 10 10 10 m94 0 q10 0 10 -10 m-104 10 h10 m70 0 h10 m0 0 h4 m20 -44 h10 m30 0 h10 m0 0 h636 m-830 -10 v20 m840 0 v-20 m-840 20 v68 m840 0 v-68 m-840 68 q0 10 10 10 m820 0 q10 0 10 -10 m-830 10 h10 m68 0 h10 m0 0 h10 m30 0 h10 m20 0 h10 m0 0 h354 m-384 0 h20 m364 0 h20 m-404 0 q10 0 10 10 m384 0 q0 -10 10 -10 m-394 10 v12 m384 0 v-12 m-384 12 q0 10 10 10 m364 0 q10 0 10 -10 m-374 10 h10 m56 0 h10 m20 0 h10 m0 0 h142 m-172 0 h20 m152 0 h20 m-192 0 q10 0 10 10 m172 0 q0 -10 10 -10 m-182 10 v12 m172 0 v-12 m-172 12 q0 10 10 10 m152 0 q10 0 10 -10 m-162 10 h10 m56 0 h10 m0 0 h10 m56 0 h10 m20 -32 h10 m76 0 h10 m40 -32 h10 m0 0 h228 m-258 0 h20 m238 0 h20 m-278 0 q10 0 10 10 m258 0 q0 -10 10 -10 m-268 10 v12 m258 0 v-12 m-258 12 q0 10 10 10 m238 0 q10 0 10 -10 m-248 10 h10 m82 0 h10 m20 0 h10 m64 0 h10 m0 0 h12 m-116 0 h20 m96 0 h20 m-136 0 q10 0 10 10 m116 0 q0 -10 10 -10 m-126 10 v24 m116 0 v-24 m-116 24 q0 10 10 10 m96 0 q10 0 10 -10 m-106 10 h10 m76 0 h10 m-1098 -304 h20 m1138 0 h20 m-1178 0 q10 0 10 10 m1158 0 q0 -10 10 -10 m-1168 10 v328 m1158 0 v-328 m-1158 328 q0 10 10 10 m1138 0 q10 0 10 -10 m-1148 10 h10 m36 0 h10 m0 0 h10 m86 0 h10 m0 0 h976 m-1148 -10 v20 m1158 0 v-20 m-1158 20 v24 m1158 0 v-24 m-1158 24 q0 10 10 10 m1138 0 q10 0 10 -10 m-1148 10 h10 m90 0 h10 m0 0 h10 m54 0 h10 m0 0 h954 m-1148 -10 v20 m1158 0 v-20 m-1158 20 v24 m1158 0 v-24 m-1158 24 q0 10 10 10 m1138 0 q10 0 10 -10 m-1148 10 h10 m60 0 h10 m0 0 h10 m36 0 h10 m0 0 h10 m82 0 h10 m0 0 h10 m30 0 h10 m0 0 h850 m22 -436 l2 0 m2 0 l2 0 m2 0 l2 0 m-134 502 l2 0 m2 0 l2 0 m2 0 l2 0 m2 0 h10 m34 0 h10 m0 0 h10 m30 0 h10 m3 0 h-3"/>
   <polygon points="1195 629 1203 625 1203 633"/>
   <polygon points="1195 629 1187 625 1187 633"/>
</svg>
