<?xml version="1.0" encoding="UTF-8"?>
<svg xmlns="http://www.w3.org/2000/svg" width="287" height="291">
   <defs>
      <style type="text/css">
    @namespace "http://www.w3.org/2000/svg";
    .line                 {fill: none; stroke: #332900; stroke-width: 1;}
    .bold-line            {stroke: #141000; shape-rendering: crispEdges; stroke-width: 2;}
    .thin-line            {stroke: #1F1800; shape-rendering: crispEdges}
    .filled               {fill: #332900; stroke: none;}
    text.terminal         {font-family: Verdana, Sans-serif;
                            font-size: 12px;
                            fill: #141000;
                            font-weight: bold;
                          }
    text.nonterminal      {font-family: Verdana, Sans-serif;
                            font-size: 12px;
                            fill: #1A1400;
                            font-weight: normal;
                          }
    text.regexp           {font-family: Verdana, Sans-serif;
                            font-size: 12px;
                            fill: #1F1800;
                            font-weight: normal;
                          }
    rect, circle, polygon {fill: #332900; stroke: #332900;}
    rect.terminal         {fill: #FFDB4D; stroke: #332900; stroke-width: 1;}
    rect.nonterminal      {fill: #FFEC9E; stroke: #332900; stroke-width: 1;}
    rect.text             {fill: none; stroke: none;}
    polygon.regexp        {fill: #FFF4C7; stroke: #332900; stroke-width: 1;}
  </style>
   </defs>
   <polygon points="9 139 1 135 1 143"/>
   <polygon points="17 139 9 135 9 143"/>
   <rect x="51" y="125" width="28" height="32" rx="10"/>
   <rect x="49"
         y="123"
         width="28"
         height="32"
         class="terminal"
         rx="10"/>
   <text class="terminal" x="59" y="143">_</text>
   <rect x="51" y="169" width="32" height="32" rx="10"/>
   <rect x="49"
         y="167"
         width="32"
         height="32"
         class="terminal"
         rx="10"/>
   <text class="terminal" x="59" y="187">@</text>
   <rect x="51" y="213" width="30" height="32" rx="10"/>
   <rect x="49"
         y="211"
         width="30"
         height="32"
         class="terminal"
         rx="10"/>
   <text class="terminal" x="59" y="231">#</text>
   <a xmlns:xlink="http://www.w3.org/1999/xlink"
      xlink:href="#LETTER"
      xlink:title="LETTER">
      <rect x="51" y="257" width="64" height="32"/>
      <rect x="49" y="255" width="64" height="32" class="nonterminal"/>
      <text class="nonterminal" x="59" y="275">LETTER</text>
   </a>
   <a xmlns:xlink="http://www.w3.org/1999/xlink"
      xlink:href="#LETTER"
      xlink:title="LETTER">
      <rect x="175" y="91" width="64" height="32"/>
      <rect x="173" y="89" width="64" height="32" class="nonterminal"/>
      <text class="nonterminal" x="183" y="109">LETTER</text>
   </a>
   <rect x="175" y="47" width="28" height="32" rx="10"/>
   <rect x="173"
         y="45"
         width="28"
         height="32"
         class="terminal"
         rx="10"/>
   <text class="terminal" x="183" y="65">_</text>
   <a xmlns:xlink="http://www.w3.org/1999/xlink"
      xlink:href="#DIGIT"
      xlink:title="DIGIT">
      <rect x="175" y="3" width="56" height="32"/>
      <rect x="173" y="1" width="56" height="32" class="nonterminal"/>
      <text class="nonterminal" x="183" y="21">DIGIT</text>
   </a>
   <path class="line"
         d="m17 139 h2 m20 0 h10 m28 0 h10 m0 0 h36 m-104 0 h20 m84 0 h20 m-124 0 q10 0 10 10 m104 0 q0 -10 10 -10 m-114 10 v24 m104 0 v-24 m-104 24 q0 10 10 10 m84 0 q10 0 10 -10 m-94 10 h10 m32 0 h10 m0 0 h32 m-94 -10 v20 m104 0 v-20 m-104 20 v24 m104 0 v-24 m-104 24 q0 10 10 10 m84 0 q10 0 10 -10 m-94 10 h10 m30 0 h10 m0 0 h34 m-94 -10 v20 m104 0 v-20 m-104 20 v24 m104 0 v-24 m-104 24 q0 10 10 10 m84 0 q10 0 10 -10 m-94 10 h10 m64 0 h10 m40 -132 h10 m0 0 h74 m-104 0 l20 0 m-1 0 q-9 0 -9 -10 l0 -14 q0 -10 10 -10 m84 34 l20 0 m-20 0 q10 0 10 -10 l0 -14 q0 -10 -10 -10 m-84 0 h10 m64 0 h10 m-94 10 l0 -44 q0 -10 10 -10 m94 54 l0 -44 q0 -10 -10 -10 m-84 0 h10 m28 0 h10 m0 0 h36 m-94 10 l0 -44 q0 -10 10 -10 m94 54 l0 -44 q0 -10 -10 -10 m-84 0 h10 m56 0 h10 m0 0 h8 m23 122 h-3"/>
   <polygon points="277 139 285 135 285 143"/>
   <polygon points="277 139 269 135 269 143"/>
</svg>
