<?xml version="1.0" encoding="UTF-8"?>
<svg xmlns="http://www.w3.org/2000/svg" width="581" height="69">
   <defs>
      <style type="text/css">
    @namespace "http://www.w3.org/2000/svg";
    .line                 {fill: none; stroke: #332900; stroke-width: 1;}
    .bold-line            {stroke: #141000; shape-rendering: crispEdges; stroke-width: 2;}
    .thin-line            {stroke: #1F1800; shape-rendering: crispEdges}
    .filled               {fill: #332900; stroke: none;}
    text.terminal         {font-family: Verdana, Sans-serif;
                            font-size: 12px;
                            fill: #141000;
                            font-weight: bold;
                          }
    text.nonterminal      {font-family: Verdana, Sans-serif;
                            font-size: 12px;
                            fill: #1A1400;
                            font-weight: normal;
                          }
    text.regexp           {font-family: Verdana, Sans-serif;
                            font-size: 12px;
                            fill: #1F1800;
                            font-weight: normal;
                          }
    rect, circle, polygon {fill: #332900; stroke: #332900;}
    rect.terminal         {fill: #FFDB4D; stroke: #332900; stroke-width: 1;}
    rect.nonterminal      {fill: #FFEC9E; stroke: #332900; stroke-width: 1;}
    rect.text             {fill: none; stroke: none;}
    polygon.regexp        {fill: #FFF4C7; stroke: #332900; stroke-width: 1;}
  </style>
   </defs>
   <polygon points="9 17 1 13 1 21"/>
   <polygon points="17 17 9 13 9 21"/>
   <rect x="31" y="3" width="28" height="32" rx="10"/>
   <rect x="29"
         y="1"
         width="28"
         height="32"
         class="terminal"
         rx="10"/>
   <text class="terminal" x="39" y="21">if</text>
   <rect x="79" y="3" width="26" height="32" rx="10"/>
   <rect x="77"
         y="1"
         width="26"
         height="32"
         class="terminal"
         rx="10"/>
   <text class="terminal" x="87" y="21">(</text>
   <a xmlns:xlink="http://www.w3.org/1999/xlink"
      xlink:href="#criteria"
      xlink:title="criteria">
      <rect x="125" y="3" width="64" height="32"/>
      <rect x="123" y="1" width="64" height="32" class="nonterminal"/>
      <text class="nonterminal" x="133" y="21">criteria</text>
   </a>
   <rect x="209" y="3" width="26" height="32" rx="10"/>
   <rect x="207"
         y="1"
         width="26"
         height="32"
         class="terminal"
         rx="10"/>
   <text class="terminal" x="217" y="21">)</text>
   <a xmlns:xlink="http://www.w3.org/1999/xlink"
      xlink:href="#statement"
      xlink:title="statement">
      <rect x="255" y="3" width="86" height="32"/>
      <rect x="253" y="1" width="86" height="32" class="nonterminal"/>
      <text class="nonterminal" x="263" y="21">statement</text>
   </a>
   <rect x="381" y="35" width="46" height="32" rx="10"/>
   <rect x="379"
         y="33"
         width="46"
         height="32"
         class="terminal"
         rx="10"/>
   <text class="terminal" x="389" y="53">else</text>
   <a xmlns:xlink="http://www.w3.org/1999/xlink"
      xlink:href="#statement"
      xlink:title="statement">
      <rect x="447" y="35" width="86" height="32"/>
      <rect x="445" y="33" width="86" height="32" class="nonterminal"/>
      <text class="nonterminal" x="455" y="53">statement</text>
   </a>
   <path class="line"
         d="m17 17 h2 m0 0 h10 m28 0 h10 m0 0 h10 m26 0 h10 m0 0 h10 m64 0 h10 m0 0 h10 m26 0 h10 m0 0 h10 m86 0 h10 m20 0 h10 m0 0 h162 m-192 0 h20 m172 0 h20 m-212 0 q10 0 10 10 m192 0 q0 -10 10 -10 m-202 10 v12 m192 0 v-12 m-192 12 q0 10 10 10 m172 0 q10 0 10 -10 m-182 10 h10 m46 0 h10 m0 0 h10 m86 0 h10 m23 -32 h-3"/>
   <polygon points="571 17 579 13 579 21"/>
   <polygon points="571 17 563 13 563 21"/>
</svg>
