<?xml version="1.0" encoding="UTF-8"?>
<svg xmlns="http://www.w3.org/2000/svg" width="947" height="81">
   <defs>
      <style type="text/css">
    @namespace "http://www.w3.org/2000/svg";
    .line                 {fill: none; stroke: #332900; stroke-width: 1;}
    .bold-line            {stroke: #141000; shape-rendering: crispEdges; stroke-width: 2;}
    .thin-line            {stroke: #1F1800; shape-rendering: crispEdges}
    .filled               {fill: #332900; stroke: none;}
    text.terminal         {font-family: Verdana, Sans-serif;
                            font-size: 12px;
                            fill: #141000;
                            font-weight: bold;
                          }
    text.nonterminal      {font-family: Verdana, Sans-serif;
                            font-size: 12px;
                            fill: #1A1400;
                            font-weight: normal;
                          }
    text.regexp           {font-family: Verdana, Sans-serif;
                            font-size: 12px;
                            fill: #1F1800;
                            font-weight: normal;
                          }
    rect, circle, polygon {fill: #332900; stroke: #332900;}
    rect.terminal         {fill: #FFDB4D; stroke: #332900; stroke-width: 1;}
    rect.nonterminal      {fill: #FFEC9E; stroke: #332900; stroke-width: 1;}
    rect.text             {fill: none; stroke: none;}
    polygon.regexp        {fill: #FFF4C7; stroke: #332900; stroke-width: 1;}
  </style>
   </defs>
   <polygon points="9 17 1 13 1 21"/>
   <polygon points="17 17 9 13 9 21"/>
   <rect x="31" y="3" width="64" height="32" rx="10"/>
   <rect x="29"
         y="1"
         width="64"
         height="32"
         class="terminal"
         rx="10"/>
   <text class="terminal" x="39" y="21">import</text>
   <rect x="135" y="35" width="68" height="32" rx="10"/>
   <rect x="133"
         y="33"
         width="68"
         height="32"
         class="terminal"
         rx="10"/>
   <text class="terminal" x="143" y="53">foreign</text>
   <rect x="223" y="35" width="70" height="32" rx="10"/>
   <rect x="221"
         y="33"
         width="70"
         height="32"
         class="terminal"
         rx="10"/>
   <text class="terminal" x="231" y="53">schema</text>
   <a xmlns:xlink="http://www.w3.org/1999/xlink"
      xlink:href="#id"
      xlink:title="id">
      <rect x="313" y="35" width="30" height="32"/>
      <rect x="311" y="33" width="30" height="32" class="nonterminal"/>
      <text class="nonterminal" x="321" y="53">id</text>
   </a>
   <rect x="383" y="3" width="52" height="32" rx="10"/>
   <rect x="381"
         y="1"
         width="52"
         height="32"
         class="terminal"
         rx="10"/>
   <text class="terminal" x="391" y="21">from</text>
   <rect x="475" y="3" width="62" height="32" rx="10"/>
   <rect x="473"
         y="1"
         width="62"
         height="32"
         class="terminal"
         rx="10"/>
   <text class="terminal" x="483" y="21">server</text>
   <rect x="475" y="47" width="88" height="32" rx="10"/>
   <rect x="473"
         y="45"
         width="88"
         height="32"
         class="terminal"
         rx="10"/>
   <text class="terminal" x="483" y="65">repository</text>
   <a xmlns:xlink="http://www.w3.org/1999/xlink"
      xlink:href="#id"
      xlink:title="id">
      <rect x="603" y="3" width="30" height="32"/>
      <rect x="601" y="1" width="30" height="32" class="nonterminal"/>
      <text class="nonterminal" x="611" y="21">id</text>
   </a>
   <rect x="653" y="3" width="46" height="32" rx="10"/>
   <rect x="651"
         y="1"
         width="46"
         height="32"
         class="terminal"
         rx="10"/>
   <text class="terminal" x="661" y="21">into</text>
   <a xmlns:xlink="http://www.w3.org/1999/xlink"
      xlink:href="#id"
      xlink:title="id">
      <rect x="719" y="3" width="30" height="32"/>
      <rect x="717" y="1" width="30" height="32" class="nonterminal"/>
      <text class="nonterminal" x="727" y="21">id</text>
   </a>
   <a xmlns:xlink="http://www.w3.org/1999/xlink"
      xlink:href="#optionsClause"
      xlink:title="optionsClause">
      <rect x="789" y="35" width="110" height="32"/>
      <rect x="787" y="33" width="110" height="32" class="nonterminal"/>
      <text class="nonterminal" x="797" y="53">optionsClause</text>
   </a>
   <path class="line"
         d="m17 17 h2 m0 0 h10 m64 0 h10 m20 0 h10 m0 0 h218 m-248 0 h20 m228 0 h20 m-268 0 q10 0 10 10 m248 0 q0 -10 10 -10 m-258 10 v12 m248 0 v-12 m-248 12 q0 10 10 10 m228 0 q10 0 10 -10 m-238 10 h10 m68 0 h10 m0 0 h10 m70 0 h10 m0 0 h10 m30 0 h10 m20 -32 h10 m52 0 h10 m20 0 h10 m62 0 h10 m0 0 h26 m-128 0 h20 m108 0 h20 m-148 0 q10 0 10 10 m128 0 q0 -10 10 -10 m-138 10 v24 m128 0 v-24 m-128 24 q0 10 10 10 m108 0 q10 0 10 -10 m-118 10 h10 m88 0 h10 m20 -44 h10 m30 0 h10 m0 0 h10 m46 0 h10 m0 0 h10 m30 0 h10 m20 0 h10 m0 0 h120 m-150 0 h20 m130 0 h20 m-170 0 q10 0 10 10 m150 0 q0 -10 10 -10 m-160 10 v12 m150 0 v-12 m-150 12 q0 10 10 10 m130 0 q10 0 10 -10 m-140 10 h10 m110 0 h10 m23 -32 h-3"/>
   <polygon points="937 17 945 13 945 21"/>
   <polygon points="937 17 929 13 929 21"/>
</svg>
