<?xml version="1.0" encoding="UTF-8"?>
<svg xmlns="http://www.w3.org/2000/svg" width="255" height="389">
   <defs>
      <style type="text/css">
    @namespace "http://www.w3.org/2000/svg";
    .line                 {fill: none; stroke: #332900; stroke-width: 1;}
    .bold-line            {stroke: #141000; shape-rendering: crispEdges; stroke-width: 2;}
    .thin-line            {stroke: #1F1800; shape-rendering: crispEdges}
    .filled               {fill: #332900; stroke: none;}
    text.terminal         {font-family: Verdana, Sans-serif;
                            font-size: 12px;
                            fill: #141000;
                            font-weight: bold;
                          }
    text.nonterminal      {font-family: Verdana, Sans-serif;
                            font-size: 12px;
                            fill: #1A1400;
                            font-weight: normal;
                          }
    text.regexp           {font-family: Verdana, Sans-serif;
                            font-size: 12px;
                            fill: #1F1800;
                            font-weight: normal;
                          }
    rect, circle, polygon {fill: #332900; stroke: #332900;}
    rect.terminal         {fill: #FFDB4D; stroke: #332900; stroke-width: 1;}
    rect.nonterminal      {fill: #FFEC9E; stroke: #332900; stroke-width: 1;}
    rect.text             {fill: none; stroke: none;}
    polygon.regexp        {fill: #FFF4C7; stroke: #332900; stroke-width: 1;}
  </style>
   </defs>
   <polygon points="9 17 1 13 1 21"/>
   <polygon points="17 17 9 13 9 21"/>
   <rect x="51" y="3" width="156" height="32" rx="10"/>
   <rect x="49"
         y="1"
         width="156"
         height="32"
         class="terminal"
         rx="10"/>
   <text class="terminal" x="59" y="21">sql_tsi_frac_second</text>
   <rect x="51" y="47" width="120" height="32" rx="10"/>
   <rect x="49"
         y="45"
         width="120"
         height="32"
         class="terminal"
         rx="10"/>
   <text class="terminal" x="59" y="65">sql_tsi_second</text>
   <rect x="51" y="91" width="120" height="32" rx="10"/>
   <rect x="49"
         y="89"
         width="120"
         height="32"
         class="terminal"
         rx="10"/>
   <text class="terminal" x="59" y="109">sql_tsi_minute</text>
   <rect x="51" y="135" width="104" height="32" rx="10"/>
   <rect x="49"
         y="133"
         width="104"
         height="32"
         class="terminal"
         rx="10"/>
   <text class="terminal" x="59" y="153">sql_tsi_hour</text>
   <rect x="51" y="179" width="98" height="32" rx="10"/>
   <rect x="49"
         y="177"
         width="98"
         height="32"
         class="terminal"
         rx="10"/>
   <text class="terminal" x="59" y="197">sql_tsi_day</text>
   <rect x="51" y="223" width="110" height="32" rx="10"/>
   <rect x="49"
         y="221"
         width="110"
         height="32"
         class="terminal"
         rx="10"/>
   <text class="terminal" x="59" y="241">sql_tsi_week</text>
   <rect x="51" y="267" width="118" height="32" rx="10"/>
   <rect x="49"
         y="265"
         width="118"
         height="32"
         class="terminal"
         rx="10"/>
   <text class="terminal" x="59" y="285">sql_tsi_month</text>
   <rect x="51" y="311" width="124" height="32" rx="10"/>
   <rect x="49"
         y="309"
         width="124"
         height="32"
         class="terminal"
         rx="10"/>
   <text class="terminal" x="59" y="329">sql_tsi_quarter</text>
   <rect x="51" y="355" width="104" height="32" rx="10"/>
   <rect x="49"
         y="353"
         width="104"
         height="32"
         class="terminal"
         rx="10"/>
   <text class="terminal" x="59" y="373">sql_tsi_year</text>
   <path class="line"
         d="m17 17 h2 m20 0 h10 m156 0 h10 m-196 0 h20 m176 0 h20 m-216 0 q10 0 10 10 m196 0 q0 -10 10 -10 m-206 10 v24 m196 0 v-24 m-196 24 q0 10 10 10 m176 0 q10 0 10 -10 m-186 10 h10 m120 0 h10 m0 0 h36 m-186 -10 v20 m196 0 v-20 m-196 20 v24 m196 0 v-24 m-196 24 q0 10 10 10 m176 0 q10 0 10 -10 m-186 10 h10 m120 0 h10 m0 0 h36 m-186 -10 v20 m196 0 v-20 m-196 20 v24 m196 0 v-24 m-196 24 q0 10 10 10 m176 0 q10 0 10 -10 m-186 10 h10 m104 0 h10 m0 0 h52 m-186 -10 v20 m196 0 v-20 m-196 20 v24 m196 0 v-24 m-196 24 q0 10 10 10 m176 0 q10 0 10 -10 m-186 10 h10 m98 0 h10 m0 0 h58 m-186 -10 v20 m196 0 v-20 m-196 20 v24 m196 0 v-24 m-196 24 q0 10 10 10 m176 0 q10 0 10 -10 m-186 10 h10 m110 0 h10 m0 0 h46 m-186 -10 v20 m196 0 v-20 m-196 20 v24 m196 0 v-24 m-196 24 q0 10 10 10 m176 0 q10 0 10 -10 m-186 10 h10 m118 0 h10 m0 0 h38 m-186 -10 v20 m196 0 v-20 m-196 20 v24 m196 0 v-24 m-196 24 q0 10 10 10 m176 0 q10 0 10 -10 m-186 10 h10 m124 0 h10 m0 0 h32 m-186 -10 v20 m196 0 v-20 m-196 20 v24 m196 0 v-24 m-196 24 q0 10 10 10 m176 0 q10 0 10 -10 m-186 10 h10 m104 0 h10 m0 0 h52 m23 -352 h-3"/>
   <polygon points="245 17 253 13 253 21"/>
   <polygon points="245 17 237 13 237 21"/>
</svg>
