<?xml version="1.0" encoding="UTF-8"?>
<svg xmlns="http://www.w3.org/2000/svg" width="551" height="69">
   <defs>
      <style type="text/css">
    @namespace "http://www.w3.org/2000/svg";
    .line                 {fill: none; stroke: #332900; stroke-width: 1;}
    .bold-line            {stroke: #141000; shape-rendering: crispEdges; stroke-width: 2;}
    .thin-line            {stroke: #1F1800; shape-rendering: crispEdges}
    .filled               {fill: #332900; stroke: none;}
    text.terminal         {font-family: Verdana, Sans-serif;
                            font-size: 12px;
                            fill: #141000;
                            font-weight: bold;
                          }
    text.nonterminal      {font-family: Verdana, Sans-serif;
                            font-size: 12px;
                            fill: #1A1400;
                            font-weight: normal;
                          }
    text.regexp           {font-family: Verdana, Sans-serif;
                            font-size: 12px;
                            fill: #1F1800;
                            font-weight: normal;
                          }
    rect, circle, polygon {fill: #332900; stroke: #332900;}
    rect.terminal         {fill: #FFDB4D; stroke: #332900; stroke-width: 1;}
    rect.nonterminal      {fill: #FFEC9E; stroke: #332900; stroke-width: 1;}
    rect.text             {fill: none; stroke: none;}
    polygon.regexp        {fill: #FFF4C7; stroke: #332900; stroke-width: 1;}
  </style>
   </defs>
   <polygon points="9 17 1 13 1 21"/>
   <polygon points="17 17 9 13 9 21"/>
   <rect x="31" y="3" width="30" height="32" rx="10"/>
   <rect x="29"
         y="1"
         width="30"
         height="32"
         class="terminal"
         rx="10"/>
   <text class="terminal" x="39" y="21">is</text>
   <rect x="101" y="35" width="42" height="32" rx="10"/>
   <rect x="99"
         y="33"
         width="42"
         height="32"
         class="terminal"
         rx="10"/>
   <text class="terminal" x="109" y="53">not</text>
   <rect x="183" y="3" width="70" height="32" rx="10"/>
   <rect x="181"
         y="1"
         width="70"
         height="32"
         class="terminal"
         rx="10"/>
   <text class="terminal" x="191" y="21">distinct</text>
   <rect x="273" y="3" width="52" height="32" rx="10"/>
   <rect x="271"
         y="1"
         width="52"
         height="32"
         class="terminal"
         rx="10"/>
   <text class="terminal" x="281" y="21">from</text>
   <a xmlns:xlink="http://www.w3.org/1999/xlink"
      xlink:href="#commonValueExpression"
      xlink:title="commonValueExpression">
      <rect x="345" y="3" width="178" height="32"/>
      <rect x="343" y="1" width="178" height="32" class="nonterminal"/>
      <text class="nonterminal" x="353" y="21">commonValueExpression</text>
   </a>
   <path class="line"
         d="m17 17 h2 m0 0 h10 m30 0 h10 m20 0 h10 m0 0 h52 m-82 0 h20 m62 0 h20 m-102 0 q10 0 10 10 m82 0 q0 -10 10 -10 m-92 10 v12 m82 0 v-12 m-82 12 q0 10 10 10 m62 0 q10 0 10 -10 m-72 10 h10 m42 0 h10 m20 -32 h10 m70 0 h10 m0 0 h10 m52 0 h10 m0 0 h10 m178 0 h10 m3 0 h-3"/>
   <polygon points="541 17 549 13 549 21"/>
   <polygon points="541 17 533 13 533 21"/>
</svg>
