<?xml version="1.0" encoding="UTF-8"?>
<svg xmlns="http://www.w3.org/2000/svg" width="317" height="115">
   <defs>
      <style type="text/css">
    @namespace "http://www.w3.org/2000/svg";
    .line                 {fill: none; stroke: #332900; stroke-width: 1;}
    .bold-line            {stroke: #141000; shape-rendering: crispEdges; stroke-width: 2;}
    .thin-line            {stroke: #1F1800; shape-rendering: crispEdges}
    .filled               {fill: #332900; stroke: none;}
    text.terminal         {font-family: Verdana, Sans-serif;
                            font-size: 12px;
                            fill: #141000;
                            font-weight: bold;
                          }
    text.nonterminal      {font-family: Verdana, Sans-serif;
                            font-size: 12px;
                            fill: #1A1400;
                            font-weight: normal;
                          }
    text.regexp           {font-family: Verdana, Sans-serif;
                            font-size: 12px;
                            fill: #1F1800;
                            font-weight: normal;
                          }
    rect, circle, polygon {fill: #332900; stroke: #332900;}
    rect.terminal         {fill: #FFDB4D; stroke: #332900; stroke-width: 1;}
    rect.nonterminal      {fill: #FFEC9E; stroke: #332900; stroke-width: 1;}
    rect.text             {fill: none; stroke: none;}
    polygon.regexp        {fill: #FFF4C7; stroke: #332900; stroke-width: 1;}
  </style>
   </defs>
   <polygon points="9 95 1 91 1 99"/>
   <polygon points="17 95 9 91 9 99"/>
   <a xmlns:xlink="http://www.w3.org/1999/xlink"
      xlink:href="#tablePrimary"
      xlink:title="tablePrimary">
      <rect x="31" y="81" width="100" height="32"/>
      <rect x="29" y="79" width="100" height="32" class="nonterminal"/>
      <text class="nonterminal" x="39" y="99">tablePrimary</text>
   </a>
   <a xmlns:xlink="http://www.w3.org/1999/xlink"
      xlink:href="#crossJoin"
      xlink:title="crossJoin">
      <rect x="171" y="47" width="78" height="32"/>
      <rect x="169" y="45" width="78" height="32" class="nonterminal"/>
      <text class="nonterminal" x="179" y="65">crossJoin</text>
   </a>
   <a xmlns:xlink="http://www.w3.org/1999/xlink"
      xlink:href="#qualifiedJoin"
      xlink:title="qualifiedJoin">
      <rect x="171" y="3" width="98" height="32"/>
      <rect x="169" y="1" width="98" height="32" class="nonterminal"/>
      <text class="nonterminal" x="179" y="21">qualifiedJoin</text>
   </a>
   <path class="line"
         d="m17 95 h2 m0 0 h10 m100 0 h10 m20 0 h10 m0 0 h108 m-138 0 l20 0 m-1 0 q-9 0 -9 -10 l0 -14 q0 -10 10 -10 m118 34 l20 0 m-20 0 q10 0 10 -10 l0 -14 q0 -10 -10 -10 m-118 0 h10 m78 0 h10 m0 0 h20 m-128 10 l0 -44 q0 -10 10 -10 m128 54 l0 -44 q0 -10 -10 -10 m-118 0 h10 m98 0 h10 m23 78 h-3"/>
   <polygon points="307 95 315 91 315 99"/>
   <polygon points="307 95 299 91 299 99"/>
</svg>
