<?xml version="1.0" encoding="UTF-8"?>
<svg xmlns="http://www.w3.org/2000/svg" width="959" height="255">
   <defs>
      <style type="text/css">
    @namespace "http://www.w3.org/2000/svg";
    .line                 {fill: none; stroke: #332900; stroke-width: 1;}
    .bold-line            {stroke: #141000; shape-rendering: crispEdges; stroke-width: 2;}
    .thin-line            {stroke: #1F1800; shape-rendering: crispEdges}
    .filled               {fill: #332900; stroke: none;}
    text.terminal         {font-family: Verdana, Sans-serif;
                            font-size: 12px;
                            fill: #141000;
                            font-weight: bold;
                          }
    text.nonterminal      {font-family: Verdana, Sans-serif;
                            font-size: 12px;
                            fill: #1A1400;
                            font-weight: normal;
                          }
    text.regexp           {font-family: Verdana, Sans-serif;
                            font-size: 12px;
                            fill: #1F1800;
                            font-weight: normal;
                          }
    rect, circle, polygon {fill: #332900; stroke: #332900;}
    rect.terminal         {fill: #FFDB4D; stroke: #332900; stroke-width: 1;}
    rect.nonterminal      {fill: #FFEC9E; stroke: #332900; stroke-width: 1;}
    rect.text             {fill: none; stroke: none;}
    polygon.regexp        {fill: #FFF4C7; stroke: #332900; stroke-width: 1;}
  </style>
   </defs>
   <polygon points="9 61 1 57 1 65"/>
   <polygon points="17 61 9 57 9 65"/>
   <rect x="31" y="47" width="82" height="32" rx="10"/>
   <rect x="29"
         y="45"
         width="82"
         height="32"
         class="terminal"
         rx="10"/>
   <text class="terminal" x="39" y="65">jsontable</text>
   <rect x="133" y="47" width="26" height="32" rx="10"/>
   <rect x="131"
         y="45"
         width="26"
         height="32"
         class="terminal"
         rx="10"/>
   <text class="terminal" x="141" y="65">(</text>
   <a xmlns:xlink="http://www.w3.org/1999/xlink"
      xlink:href="#valueExpressionPrimary"
      xlink:title="valueExpressionPrimary">
      <rect x="179" y="47" width="172" height="32"/>
      <rect x="177" y="45" width="172" height="32" class="nonterminal"/>
      <text class="nonterminal" x="187" y="65">valueExpressionPrimary</text>
   </a>
   <rect x="371" y="47" width="24" height="32" rx="10"/>
   <rect x="369"
         y="45"
         width="24"
         height="32"
         class="terminal"
         rx="10"/>
   <text class="terminal" x="379" y="65">,</text>
   <a xmlns:xlink="http://www.w3.org/1999/xlink"
      xlink:href="#stringVal"
      xlink:title="stringVal">
      <rect x="415" y="47" width="76" height="32"/>
      <rect x="413" y="45" width="76" height="32" class="nonterminal"/>
      <text class="nonterminal" x="423" y="65">stringVal</text>
   </a>
   <rect x="531" y="79" width="24" height="32" rx="10"/>
   <rect x="529"
         y="77"
         width="24"
         height="32"
         class="terminal"
         rx="10"/>
   <text class="terminal" x="539" y="97">,</text>
   <rect x="595" y="79" width="48" height="32" rx="10"/>
   <rect x="593"
         y="77"
         width="48"
         height="32"
         class="terminal"
         rx="10"/>
   <text class="terminal" x="603" y="97">true</text>
   <rect x="595" y="123" width="52" height="32" rx="10"/>
   <rect x="593"
         y="121"
         width="52"
         height="32"
         class="terminal"
         rx="10"/>
   <text class="terminal" x="603" y="141">false</text>
   <rect x="707" y="47" width="76" height="32" rx="10"/>
   <rect x="705"
         y="45"
         width="76"
         height="32"
         class="terminal"
         rx="10"/>
   <text class="terminal" x="715" y="65">columns</text>
   <a xmlns:xlink="http://www.w3.org/1999/xlink"
      xlink:href="#jsonColumn"
      xlink:title="jsonColumn">
      <rect x="823" y="47" width="94" height="32"/>
      <rect x="821" y="45" width="94" height="32" class="nonterminal"/>
      <text class="nonterminal" x="831" y="65">jsonColumn</text>
   </a>
   <rect x="823" y="3" width="24" height="32" rx="10"/>
   <rect x="821"
         y="1"
         width="24"
         height="32"
         class="terminal"
         rx="10"/>
   <text class="terminal" x="831" y="21">,</text>
   <rect x="761" y="189" width="26" height="32" rx="10"/>
   <rect x="759"
         y="187"
         width="26"
         height="32"
         class="terminal"
         rx="10"/>
   <text class="terminal" x="769" y="207">)</text>
   <rect x="827" y="221" width="34" height="32" rx="10"/>
   <rect x="825"
         y="219"
         width="34"
         height="32"
         class="terminal"
         rx="10"/>
   <text class="terminal" x="835" y="239">as</text>
   <a xmlns:xlink="http://www.w3.org/1999/xlink"
      xlink:href="#id"
      xlink:title="id">
      <rect x="901" y="189" width="30" height="32"/>
      <rect x="899" y="187" width="30" height="32" class="nonterminal"/>
      <text class="nonterminal" x="909" y="207">id</text>
   </a>
   <path class="line"
         d="m17 61 h2 m0 0 h10 m82 0 h10 m0 0 h10 m26 0 h10 m0 0 h10 m172 0 h10 m0 0 h10 m24 0 h10 m0 0 h10 m76 0 h10 m20 0 h10 m0 0 h146 m-176 0 h20 m156 0 h20 m-196 0 q10 0 10 10 m176 0 q0 -10 10 -10 m-186 10 v12 m176 0 v-12 m-176 12 q0 10 10 10 m156 0 q10 0 10 -10 m-166 10 h10 m24 0 h10 m20 0 h10 m48 0 h10 m0 0 h4 m-92 0 h20 m72 0 h20 m-112 0 q10 0 10 10 m92 0 q0 -10 10 -10 m-102 10 v24 m92 0 v-24 m-92 24 q0 10 10 10 m72 0 q10 0 10 -10 m-82 10 h10 m52 0 h10 m40 -76 h10 m76 0 h10 m20 0 h10 m94 0 h10 m-134 0 l20 0 m-1 0 q-9 0 -9 -10 l0 -24 q0 -10 10 -10 m114 44 l20 0 m-20 0 q10 0 10 -10 l0 -24 q0 -10 -10 -10 m-114 0 h10 m24 0 h10 m0 0 h70 m22 44 l2 0 m2 0 l2 0 m2 0 l2 0 m-220 142 l2 0 m2 0 l2 0 m2 0 l2 0 m2 0 h10 m26 0 h10 m20 0 h10 m0 0 h44 m-74 0 h20 m54 0 h20 m-94 0 q10 0 10 10 m74 0 q0 -10 10 -10 m-84 10 v12 m74 0 v-12 m-74 12 q0 10 10 10 m54 0 q10 0 10 -10 m-64 10 h10 m34 0 h10 m20 -32 h10 m30 0 h10 m3 0 h-3"/>
   <polygon points="949 203 957 199 957 207"/>
   <polygon points="949 203 941 199 941 207"/>
</svg>
