<?xml version="1.0" encoding="UTF-8"?>
<svg xmlns="http://www.w3.org/2000/svg" width="253" height="71">
   <defs>
      <style type="text/css">
    @namespace "http://www.w3.org/2000/svg";
    .line                 {fill: none; stroke: #332900; stroke-width: 1;}
    .bold-line            {stroke: #141000; shape-rendering: crispEdges; stroke-width: 2;}
    .thin-line            {stroke: #1F1800; shape-rendering: crispEdges}
    .filled               {fill: #332900; stroke: none;}
    text.terminal         {font-family: Verdana, Sans-serif;
                            font-size: 12px;
                            fill: #141000;
                            font-weight: bold;
                          }
    text.nonterminal      {font-family: Verdana, Sans-serif;
                            font-size: 12px;
                            fill: #1A1400;
                            font-weight: normal;
                          }
    text.regexp           {font-family: Verdana, Sans-serif;
                            font-size: 12px;
                            fill: #1F1800;
                            font-weight: normal;
                          }
    rect, circle, polygon {fill: #332900; stroke: #332900;}
    rect.terminal         {fill: #FFDB4D; stroke: #332900; stroke-width: 1;}
    rect.nonterminal      {fill: #FFEC9E; stroke: #332900; stroke-width: 1;}
    rect.text             {fill: none; stroke: none;}
    polygon.regexp        {fill: #FFF4C7; stroke: #332900; stroke-width: 1;}
  </style>
   </defs>
   <polygon points="9 51 1 47 1 55"/>
   <polygon points="17 51 9 47 9 55"/>
   <rect x="31" y="37" width="32" height="32" rx="10"/>
   <rect x="29"
         y="35"
         width="32"
         height="32"
         class="terminal"
         rx="10"/>
   <text class="terminal" x="39" y="55">--</text>
   <polygon points="103 19 110 3 198 3 205 19 198 35 110 35"/>
   <polygon points="101 17 108 1 196 1 203 17 196 33 108 33" class="regexp"/>
   <text class="regexp" x="116" y="21">[^#xD#xA]</text>
   <path class="line"
         d="m17 51 h2 m0 0 h10 m32 0 h10 m20 0 h10 m0 0 h112 m-142 0 l20 0 m-1 0 q-9 0 -9 -10 l0 -14 q0 -10 10 -10 m122 34 l20 0 m-20 0 q10 0 10 -10 l0 -14 q0 -10 -10 -10 m-122 0 h10 m102 0 h10 m23 34 h-3"/>
   <polygon points="243 51 251 47 251 55"/>
   <polygon points="243 51 235 47 235 55"/>
</svg>
