<?xml version="1.0" encoding="UTF-8"?>
<svg xmlns="http://www.w3.org/2000/svg" width="601" height="121">
   <defs>
      <style type="text/css">
    @namespace "http://www.w3.org/2000/svg";
    .line                 {fill: none; stroke: #332900; stroke-width: 1;}
    .bold-line            {stroke: #141000; shape-rendering: crispEdges; stroke-width: 2;}
    .thin-line            {stroke: #1F1800; shape-rendering: crispEdges}
    .filled               {fill: #332900; stroke: none;}
    text.terminal         {font-family: Verdana, Sans-serif;
                            font-size: 12px;
                            fill: #141000;
                            font-weight: bold;
                          }
    text.nonterminal      {font-family: Verdana, Sans-serif;
                            font-size: 12px;
                            fill: #1A1400;
                            font-weight: normal;
                          }
    text.regexp           {font-family: Verdana, Sans-serif;
                            font-size: 12px;
                            fill: #1F1800;
                            font-weight: normal;
                          }
    rect, circle, polygon {fill: #332900; stroke: #332900;}
    rect.terminal         {fill: #FFDB4D; stroke: #332900; stroke-width: 1;}
    rect.nonterminal      {fill: #FFEC9E; stroke: #332900; stroke-width: 1;}
    rect.text             {fill: none; stroke: none;}
    polygon.regexp        {fill: #FFF4C7; stroke: #332900; stroke-width: 1;}
  </style>
   </defs>
   <polygon points="9 5 1 1 1 9"/>
   <polygon points="17 5 9 1 9 9"/>
   <rect x="51" y="23" width="26" height="32" rx="10"/>
   <rect x="49"
         y="21"
         width="26"
         height="32"
         class="terminal"
         rx="10"/>
   <text class="terminal" x="59" y="41">(</text>
   <rect x="117" y="55" width="48" height="32" rx="10"/>
   <rect x="115"
         y="53"
         width="48"
         height="32"
         class="terminal"
         rx="10"/>
   <text class="terminal" x="125" y="73">max</text>
   <rect x="185" y="55" width="24" height="32" rx="10"/>
   <rect x="183"
         y="53"
         width="24"
         height="32"
         class="terminal"
         rx="10"/>
   <text class="terminal" x="193" y="73">:</text>
   <a xmlns:xlink="http://www.w3.org/1999/xlink"
      xlink:href="#intVal"
      xlink:title="intVal">
      <rect x="229" y="55" width="56" height="32"/>
      <rect x="227" y="53" width="56" height="32" class="nonterminal"/>
      <text class="nonterminal" x="237" y="73">intVal</text>
   </a>
   <rect x="365" y="87" width="36" height="32" rx="10"/>
   <rect x="363"
         y="85"
         width="36"
         height="32"
         class="terminal"
         rx="10"/>
   <text class="terminal" x="373" y="105">no</text>
   <rect x="441" y="55" width="46" height="32" rx="10"/>
   <rect x="439"
         y="53"
         width="46"
         height="32"
         class="terminal"
         rx="10"/>
   <text class="terminal" x="449" y="73">join</text>
   <rect x="527" y="23" width="26" height="32" rx="10"/>
   <rect x="525"
         y="21"
         width="26"
         height="32"
         class="terminal"
         rx="10"/>
   <text class="terminal" x="535" y="41">)</text>
   <path class="line"
         d="m17 5 h2 m20 0 h10 m0 0 h512 m-542 0 h20 m522 0 h20 m-562 0 q10 0 10 10 m542 0 q0 -10 10 -10 m-552 10 v12 m542 0 v-12 m-542 12 q0 10 10 10 m522 0 q10 0 10 -10 m-532 10 h10 m26 0 h10 m20 0 h10 m0 0 h178 m-208 0 h20 m188 0 h20 m-228 0 q10 0 10 10 m208 0 q0 -10 10 -10 m-218 10 v12 m208 0 v-12 m-208 12 q0 10 10 10 m188 0 q10 0 10 -10 m-198 10 h10 m48 0 h10 m0 0 h10 m24 0 h10 m0 0 h10 m56 0 h10 m40 -32 h10 m0 0 h152 m-182 0 h20 m162 0 h20 m-202 0 q10 0 10 10 m182 0 q0 -10 10 -10 m-192 10 v12 m182 0 v-12 m-182 12 q0 10 10 10 m162 0 q10 0 10 -10 m-152 10 h10 m0 0 h46 m-76 0 h20 m56 0 h20 m-96 0 q10 0 10 10 m76 0 q0 -10 10 -10 m-86 10 v12 m76 0 v-12 m-76 12 q0 10 10 10 m56 0 q10 0 10 -10 m-66 10 h10 m36 0 h10 m20 -32 h10 m46 0 h10 m20 -32 h10 m26 0 h10 m23 -32 h-3"/>
   <polygon points="591 5 599 1 599 9"/>
   <polygon points="591 5 583 1 583 9"/>
</svg>
