<?xml version="1.0" encoding="UTF-8"?>
<svg xmlns="http://www.w3.org/2000/svg" width="827" height="113">
   <defs>
      <style type="text/css">
    @namespace "http://www.w3.org/2000/svg";
    .line                 {fill: none; stroke: #332900; stroke-width: 1;}
    .bold-line            {stroke: #141000; shape-rendering: crispEdges; stroke-width: 2;}
    .thin-line            {stroke: #1F1800; shape-rendering: crispEdges}
    .filled               {fill: #332900; stroke: none;}
    text.terminal         {font-family: Verdana, Sans-serif;
                            font-size: 12px;
                            fill: #141000;
                            font-weight: bold;
                          }
    text.nonterminal      {font-family: Verdana, Sans-serif;
                            font-size: 12px;
                            fill: #1A1400;
                            font-weight: normal;
                          }
    text.regexp           {font-family: Verdana, Sans-serif;
                            font-size: 12px;
                            fill: #1F1800;
                            font-weight: normal;
                          }
    rect, circle, polygon {fill: #332900; stroke: #332900;}
    rect.terminal         {fill: #FFDB4D; stroke: #332900; stroke-width: 1;}
    rect.nonterminal      {fill: #FFEC9E; stroke: #332900; stroke-width: 1;}
    rect.text             {fill: none; stroke: none;}
    polygon.regexp        {fill: #FFF4C7; stroke: #332900; stroke-width: 1;}
  </style>
   </defs>
   <polygon points="9 17 1 13 1 21"/>
   <polygon points="17 17 9 13 9 21"/>
   <rect x="51" y="35" width="42" height="32" rx="10"/>
   <rect x="49"
         y="33"
         width="42"
         height="32"
         class="terminal"
         rx="10"/>
   <text class="terminal" x="59" y="53">not</text>
   <rect x="153" y="3" width="44" height="32" rx="10"/>
   <rect x="151"
         y="1"
         width="44"
         height="32"
         class="terminal"
         rx="10"/>
   <text class="terminal" x="161" y="21">like</text>
   <rect x="153" y="47" width="66" height="32" rx="10"/>
   <rect x="151"
         y="45"
         width="66"
         height="32"
         class="terminal"
         rx="10"/>
   <text class="terminal" x="161" y="65">similar</text>
   <rect x="239" y="47" width="34" height="32" rx="10"/>
   <rect x="237"
         y="45"
         width="34"
         height="32"
         class="terminal"
         rx="10"/>
   <text class="terminal" x="247" y="65">to</text>
   <a xmlns:xlink="http://www.w3.org/1999/xlink"
      xlink:href="#commonValueExpression"
      xlink:title="commonValueExpression">
      <rect x="313" y="3" width="178" height="32"/>
      <rect x="311" y="1" width="178" height="32" class="nonterminal"/>
      <text class="nonterminal" x="321" y="21">commonValueExpression</text>
   </a>
   <rect x="531" y="35" width="66" height="32" rx="10"/>
   <rect x="529"
         y="33"
         width="66"
         height="32"
         class="terminal"
         rx="10"/>
   <text class="terminal" x="539" y="53">escape</text>
   <a xmlns:xlink="http://www.w3.org/1999/xlink"
      xlink:href="#charVal"
      xlink:title="charVal">
      <rect x="617" y="35" width="66" height="32"/>
      <rect x="615" y="33" width="66" height="32" class="nonterminal"/>
      <text class="nonterminal" x="625" y="53">charVal</text>
   </a>
   <rect x="531" y="79" width="28" height="32" rx="10"/>
   <rect x="529"
         y="77"
         width="28"
         height="32"
         class="terminal"
         rx="10"/>
   <text class="terminal" x="539" y="97">{</text>
   <rect x="579" y="79" width="66" height="32" rx="10"/>
   <rect x="577"
         y="77"
         width="66"
         height="32"
         class="terminal"
         rx="10"/>
   <text class="terminal" x="587" y="97">escape</text>
   <a xmlns:xlink="http://www.w3.org/1999/xlink"
      xlink:href="#charVal"
      xlink:title="charVal">
      <rect x="665" y="79" width="66" height="32"/>
      <rect x="663" y="77" width="66" height="32" class="nonterminal"/>
      <text class="nonterminal" x="673" y="97">charVal</text>
   </a>
   <rect x="751" y="79" width="28" height="32" rx="10"/>
   <rect x="749"
         y="77"
         width="28"
         height="32"
         class="terminal"
         rx="10"/>
   <text class="terminal" x="759" y="97">}</text>
   <path class="line"
         d="m17 17 h2 m20 0 h10 m0 0 h52 m-82 0 h20 m62 0 h20 m-102 0 q10 0 10 10 m82 0 q0 -10 10 -10 m-92 10 v12 m82 0 v-12 m-82 12 q0 10 10 10 m62 0 q10 0 10 -10 m-72 10 h10 m42 0 h10 m40 -32 h10 m44 0 h10 m0 0 h76 m-160 0 h20 m140 0 h20 m-180 0 q10 0 10 10 m160 0 q0 -10 10 -10 m-170 10 v24 m160 0 v-24 m-160 24 q0 10 10 10 m140 0 q10 0 10 -10 m-150 10 h10 m66 0 h10 m0 0 h10 m34 0 h10 m20 -44 h10 m178 0 h10 m20 0 h10 m0 0 h258 m-288 0 h20 m268 0 h20 m-308 0 q10 0 10 10 m288 0 q0 -10 10 -10 m-298 10 v12 m288 0 v-12 m-288 12 q0 10 10 10 m268 0 q10 0 10 -10 m-278 10 h10 m66 0 h10 m0 0 h10 m66 0 h10 m0 0 h96 m-278 -10 v20 m288 0 v-20 m-288 20 v24 m288 0 v-24 m-288 24 q0 10 10 10 m268 0 q10 0 10 -10 m-278 10 h10 m28 0 h10 m0 0 h10 m66 0 h10 m0 0 h10 m66 0 h10 m0 0 h10 m28 0 h10 m23 -76 h-3"/>
   <polygon points="817 17 825 13 825 21"/>
   <polygon points="817 17 809 13 809 21"/>
</svg>
