<?xml version="1.0" encoding="UTF-8"?>
<svg xmlns="http://www.w3.org/2000/svg" width="279" height="125">
   <defs>
      <style type="text/css">
    @namespace "http://www.w3.org/2000/svg";
    .line                 {fill: none; stroke: #332900; stroke-width: 1;}
    .bold-line            {stroke: #141000; shape-rendering: crispEdges; stroke-width: 2;}
    .thin-line            {stroke: #1F1800; shape-rendering: crispEdges}
    .filled               {fill: #332900; stroke: none;}
    text.terminal         {font-family: Verdana, Sans-serif;
                            font-size: 12px;
                            fill: #141000;
                            font-weight: bold;
                          }
    text.nonterminal      {font-family: Verdana, Sans-serif;
                            font-size: 12px;
                            fill: #1A1400;
                            font-weight: normal;
                          }
    text.regexp           {font-family: Verdana, Sans-serif;
                            font-size: 12px;
                            fill: #1F1800;
                            font-weight: normal;
                          }
    rect, circle, polygon {fill: #332900; stroke: #332900;}
    rect.terminal         {fill: #FFDB4D; stroke: #332900; stroke-width: 1;}
    rect.nonterminal      {fill: #FFEC9E; stroke: #332900; stroke-width: 1;}
    rect.text             {fill: none; stroke: none;}
    polygon.regexp        {fill: #FFF4C7; stroke: #332900; stroke-width: 1;}
  </style>
   </defs>
   <polygon points="9 17 1 13 1 21"/>
   <polygon points="17 17 9 13 9 21"/>
   <a xmlns:xlink="http://www.w3.org/1999/xlink"
      xlink:href="#stringVal"
      xlink:title="stringVal">
      <rect x="51" y="3" width="76" height="32"/>
      <rect x="49" y="1" width="76" height="32" class="nonterminal"/>
      <text class="nonterminal" x="59" y="21">stringVal</text>
   </a>
   <rect x="147" y="3" width="34" height="32" rx="10"/>
   <rect x="145"
         y="1"
         width="34"
         height="32"
         class="terminal"
         rx="10"/>
   <text class="terminal" x="155" y="21">as</text>
   <a xmlns:xlink="http://www.w3.org/1999/xlink"
      xlink:href="#id"
      xlink:title="id">
      <rect x="201" y="3" width="30" height="32"/>
      <rect x="199" y="1" width="30" height="32" class="nonterminal"/>
      <text class="nonterminal" x="209" y="21">id</text>
   </a>
   <rect x="51" y="47" width="36" height="32" rx="10"/>
   <rect x="49"
         y="45"
         width="36"
         height="32"
         class="terminal"
         rx="10"/>
   <text class="terminal" x="59" y="65">no</text>
   <rect x="107" y="47" width="68" height="32" rx="10"/>
   <rect x="105"
         y="45"
         width="68"
         height="32"
         class="terminal"
         rx="10"/>
   <text class="terminal" x="115" y="65">default</text>
   <rect x="51" y="91" width="68" height="32" rx="10"/>
   <rect x="49"
         y="89"
         width="68"
         height="32"
         class="terminal"
         rx="10"/>
   <text class="terminal" x="59" y="109">default</text>
   <a xmlns:xlink="http://www.w3.org/1999/xlink"
      xlink:href="#stringVal"
      xlink:title="stringVal">
      <rect x="139" y="91" width="76" height="32"/>
      <rect x="137" y="89" width="76" height="32" class="nonterminal"/>
      <text class="nonterminal" x="147" y="109">stringVal</text>
   </a>
   <path class="line"
         d="m17 17 h2 m20 0 h10 m76 0 h10 m0 0 h10 m34 0 h10 m0 0 h10 m30 0 h10 m-220 0 h20 m200 0 h20 m-240 0 q10 0 10 10 m220 0 q0 -10 10 -10 m-230 10 v24 m220 0 v-24 m-220 24 q0 10 10 10 m200 0 q10 0 10 -10 m-210 10 h10 m36 0 h10 m0 0 h10 m68 0 h10 m0 0 h56 m-210 -10 v20 m220 0 v-20 m-220 20 v24 m220 0 v-24 m-220 24 q0 10 10 10 m200 0 q10 0 10 -10 m-210 10 h10 m68 0 h10 m0 0 h10 m76 0 h10 m0 0 h16 m23 -88 h-3"/>
   <polygon points="269 17 277 13 277 21"/>
   <polygon points="269 17 261 13 261 21"/>
</svg>
