<?xml version="1.0" encoding="UTF-8"?>
<svg xmlns="http://www.w3.org/2000/svg" width="351" height="421">
   <defs>
      <style type="text/css">
    @namespace "http://www.w3.org/2000/svg";
    .line                 {fill: none; stroke: #332900; stroke-width: 1;}
    .bold-line            {stroke: #141000; shape-rendering: crispEdges; stroke-width: 2;}
    .thin-line            {stroke: #1F1800; shape-rendering: crispEdges}
    .filled               {fill: #332900; stroke: none;}
    text.terminal         {font-family: Verdana, Sans-serif;
                            font-size: 12px;
                            fill: #141000;
                            font-weight: bold;
                          }
    text.nonterminal      {font-family: Verdana, Sans-serif;
                            font-size: 12px;
                            fill: #1A1400;
                            font-weight: normal;
                          }
    text.regexp           {font-family: Verdana, Sans-serif;
                            font-size: 12px;
                            fill: #1F1800;
                            font-weight: normal;
                          }
    rect, circle, polygon {fill: #332900; stroke: #332900;}
    rect.terminal         {fill: #FFDB4D; stroke: #332900; stroke-width: 1;}
    rect.nonterminal      {fill: #FFEC9E; stroke: #332900; stroke-width: 1;}
    rect.text             {fill: none; stroke: none;}
    polygon.regexp        {fill: #FFF4C7; stroke: #332900; stroke-width: 1;}
  </style>
   </defs>
   <polygon points="9 17 1 13 1 21"/>
   <polygon points="17 17 9 13 9 21"/>
   <rect x="71" y="35" width="50" height="32" rx="10"/>
   <rect x="69"
         y="33"
         width="50"
         height="32"
         class="terminal"
         rx="10"/>
   <text class="terminal" x="79" y="53">date</text>
   <rect x="71" y="79" width="50" height="32" rx="10"/>
   <rect x="69"
         y="77"
         width="50"
         height="32"
         class="terminal"
         rx="10"/>
   <text class="terminal" x="79" y="97">time</text>
   <rect x="71" y="123" width="92" height="32" rx="10"/>
   <rect x="69"
         y="121"
         width="92"
         height="32"
         class="terminal"
         rx="10"/>
   <text class="terminal" x="79" y="141">timestamp</text>
   <a xmlns:xlink="http://www.w3.org/1999/xlink"
      xlink:href="#stringVal"
      xlink:title="stringVal">
      <rect x="203" y="3" width="76" height="32"/>
      <rect x="201" y="1" width="76" height="32" class="nonterminal"/>
      <text class="nonterminal" x="211" y="21">stringVal</text>
   </a>
   <a xmlns:xlink="http://www.w3.org/1999/xlink"
      xlink:href="#BINARYSTRINGVAL"
      xlink:title="BINARYSTRINGVAL">
      <rect x="51" y="167" width="136" height="32"/>
      <rect x="49" y="165" width="136" height="32" class="nonterminal"/>
      <text class="nonterminal" x="59" y="185">BINARYSTRINGVAL</text>
   </a>
   <rect x="51" y="211" width="52" height="32" rx="10"/>
   <rect x="49"
         y="209"
         width="52"
         height="32"
         class="terminal"
         rx="10"/>
   <text class="terminal" x="59" y="229">false</text>
   <rect x="51" y="255" width="48" height="32" rx="10"/>
   <rect x="49"
         y="253"
         width="48"
         height="32"
         class="terminal"
         rx="10"/>
   <text class="terminal" x="59" y="273">true</text>
   <rect x="51" y="299" width="82" height="32" rx="10"/>
   <rect x="49"
         y="297"
         width="82"
         height="32"
         class="terminal"
         rx="10"/>
   <text class="terminal" x="59" y="317">unknown</text>
   <rect x="51" y="343" width="44" height="32" rx="10"/>
   <rect x="49"
         y="341"
         width="44"
         height="32"
         class="terminal"
         rx="10"/>
   <text class="terminal" x="59" y="361">null</text>
   <a xmlns:xlink="http://www.w3.org/1999/xlink"
      xlink:href="#ESCAPEDTYPE"
      xlink:title="ESCAPEDTYPE">
      <rect x="51" y="387" width="108" height="32"/>
      <rect x="49" y="385" width="108" height="32" class="nonterminal"/>
      <text class="nonterminal" x="59" y="405">ESCAPEDTYPE</text>
   </a>
   <a xmlns:xlink="http://www.w3.org/1999/xlink"
      xlink:href="#stringVal"
      xlink:title="stringVal">
      <rect x="179" y="387" width="76" height="32"/>
      <rect x="177" y="385" width="76" height="32" class="nonterminal"/>
      <text class="nonterminal" x="187" y="405">stringVal</text>
   </a>
   <rect x="275" y="387" width="28" height="32" rx="10"/>
   <rect x="273"
         y="385"
         width="28"
         height="32"
         class="terminal"
         rx="10"/>
   <text class="terminal" x="283" y="405">}</text>
   <path class="line"
         d="m17 17 h2 m40 0 h10 m0 0 h102 m-132 0 h20 m112 0 h20 m-152 0 q10 0 10 10 m132 0 q0 -10 10 -10 m-142 10 v12 m132 0 v-12 m-132 12 q0 10 10 10 m112 0 q10 0 10 -10 m-122 10 h10 m50 0 h10 m0 0 h42 m-122 -10 v20 m132 0 v-20 m-132 20 v24 m132 0 v-24 m-132 24 q0 10 10 10 m112 0 q10 0 10 -10 m-122 10 h10 m50 0 h10 m0 0 h42 m-122 -10 v20 m132 0 v-20 m-132 20 v24 m132 0 v-24 m-132 24 q0 10 10 10 m112 0 q10 0 10 -10 m-122 10 h10 m92 0 h10 m20 -120 h10 m76 0 h10 m0 0 h24 m-292 0 h20 m272 0 h20 m-312 0 q10 0 10 10 m292 0 q0 -10 10 -10 m-302 10 v144 m292 0 v-144 m-292 144 q0 10 10 10 m272 0 q10 0 10 -10 m-282 10 h10 m136 0 h10 m0 0 h116 m-282 -10 v20 m292 0 v-20 m-292 20 v24 m292 0 v-24 m-292 24 q0 10 10 10 m272 0 q10 0 10 -10 m-282 10 h10 m52 0 h10 m0 0 h200 m-282 -10 v20 m292 0 v-20 m-292 20 v24 m292 0 v-24 m-292 24 q0 10 10 10 m272 0 q10 0 10 -10 m-282 10 h10 m48 0 h10 m0 0 h204 m-282 -10 v20 m292 0 v-20 m-292 20 v24 m292 0 v-24 m-292 24 q0 10 10 10 m272 0 q10 0 10 -10 m-282 10 h10 m82 0 h10 m0 0 h170 m-282 -10 v20 m292 0 v-20 m-292 20 v24 m292 0 v-24 m-292 24 q0 10 10 10 m272 0 q10 0 10 -10 m-282 10 h10 m44 0 h10 m0 0 h208 m-282 -10 v20 m292 0 v-20 m-292 20 v24 m292 0 v-24 m-292 24 q0 10 10 10 m272 0 q10 0 10 -10 m-282 10 h10 m108 0 h10 m0 0 h10 m76 0 h10 m0 0 h10 m28 0 h10 m23 -384 h-3"/>
   <polygon points="341 17 349 13 349 21"/>
   <polygon points="341 17 333 13 333 21"/>
</svg>
