<?xml version="1.0" encoding="UTF-8"?>
<svg xmlns="http://www.w3.org/2000/svg" width="235" height="389">
   <defs>
      <style type="text/css">
    @namespace "http://www.w3.org/2000/svg";
    .line                 {fill: none; stroke: #332900; stroke-width: 1;}
    .bold-line            {stroke: #141000; shape-rendering: crispEdges; stroke-width: 2;}
    .thin-line            {stroke: #1F1800; shape-rendering: crispEdges}
    .filled               {fill: #332900; stroke: none;}
    text.terminal         {font-family: Verdana, Sans-serif;
                            font-size: 12px;
                            fill: #141000;
                            font-weight: bold;
                          }
    text.nonterminal      {font-family: Verdana, Sans-serif;
                            font-size: 12px;
                            fill: #1A1400;
                            font-weight: normal;
                          }
    text.regexp           {font-family: Verdana, Sans-serif;
                            font-size: 12px;
                            fill: #1F1800;
                            font-weight: normal;
                          }
    rect, circle, polygon {fill: #332900; stroke: #332900;}
    rect.terminal         {fill: #FFDB4D; stroke: #332900; stroke-width: 1;}
    rect.nonterminal      {fill: #FFEC9E; stroke: #332900; stroke-width: 1;}
    rect.text             {fill: none; stroke: none;}
    polygon.regexp        {fill: #FFF4C7; stroke: #332900; stroke-width: 1;}
  </style>
   </defs>
   <polygon points="9 17 1 13 1 21"/>
   <polygon points="17 17 9 13 9 21"/>
   <rect x="51" y="3" width="86" height="32" rx="10"/>
   <rect x="49"
         y="1"
         width="86"
         height="32"
         class="terminal"
         rx="10"/>
   <text class="terminal" x="59" y="21">exception</text>
   <rect x="51" y="47" width="56" height="32" rx="10"/>
   <rect x="49"
         y="45"
         width="56"
         height="32"
         class="terminal"
         rx="10"/>
   <text class="terminal" x="59" y="65">serial</text>
   <rect x="51" y="91" width="62" height="32" rx="10"/>
   <rect x="49"
         y="89"
         width="62"
         height="32"
         class="terminal"
         rx="10"/>
   <text class="terminal" x="59" y="109">object</text>
   <rect x="51" y="135" width="56" height="32" rx="10"/>
   <rect x="49"
         y="133"
         width="56"
         height="32"
         class="terminal"
         rx="10"/>
   <text class="terminal" x="59" y="153">index</text>
   <rect x="51" y="179" width="48" height="32" rx="10"/>
   <rect x="49"
         y="177"
         width="48"
         height="32"
         class="terminal"
         rx="10"/>
   <text class="terminal" x="59" y="197">json</text>
   <rect x="51" y="223" width="84" height="32" rx="10"/>
   <rect x="49"
         y="221"
         width="84"
         height="32"
         class="terminal"
         rx="10"/>
   <text class="terminal" x="59" y="241">geometry</text>
   <rect x="51" y="267" width="92" height="32" rx="10"/>
   <rect x="49"
         y="265"
         width="92"
         height="32"
         class="terminal"
         rx="10"/>
   <text class="terminal" x="59" y="285">geography</text>
   <rect x="51" y="311" width="68" height="32" rx="10"/>
   <rect x="49"
         y="309"
         width="68"
         height="32"
         class="terminal"
         rx="10"/>
   <text class="terminal" x="59" y="329">default</text>
   <a xmlns:xlink="http://www.w3.org/1999/xlink"
      xlink:href="#basicNonReserved"
      xlink:title="basicNonReserved">
      <rect x="51" y="355" width="136" height="32"/>
      <rect x="49" y="353" width="136" height="32" class="nonterminal"/>
      <text class="nonterminal" x="59" y="373">basicNonReserved</text>
   </a>
   <path class="line"
         d="m17 17 h2 m20 0 h10 m86 0 h10 m0 0 h50 m-176 0 h20 m156 0 h20 m-196 0 q10 0 10 10 m176 0 q0 -10 10 -10 m-186 10 v24 m176 0 v-24 m-176 24 q0 10 10 10 m156 0 q10 0 10 -10 m-166 10 h10 m56 0 h10 m0 0 h80 m-166 -10 v20 m176 0 v-20 m-176 20 v24 m176 0 v-24 m-176 24 q0 10 10 10 m156 0 q10 0 10 -10 m-166 10 h10 m62 0 h10 m0 0 h74 m-166 -10 v20 m176 0 v-20 m-176 20 v24 m176 0 v-24 m-176 24 q0 10 10 10 m156 0 q10 0 10 -10 m-166 10 h10 m56 0 h10 m0 0 h80 m-166 -10 v20 m176 0 v-20 m-176 20 v24 m176 0 v-24 m-176 24 q0 10 10 10 m156 0 q10 0 10 -10 m-166 10 h10 m48 0 h10 m0 0 h88 m-166 -10 v20 m176 0 v-20 m-176 20 v24 m176 0 v-24 m-176 24 q0 10 10 10 m156 0 q10 0 10 -10 m-166 10 h10 m84 0 h10 m0 0 h52 m-166 -10 v20 m176 0 v-20 m-176 20 v24 m176 0 v-24 m-176 24 q0 10 10 10 m156 0 q10 0 10 -10 m-166 10 h10 m92 0 h10 m0 0 h44 m-166 -10 v20 m176 0 v-20 m-176 20 v24 m176 0 v-24 m-176 24 q0 10 10 10 m156 0 q10 0 10 -10 m-166 10 h10 m68 0 h10 m0 0 h68 m-166 -10 v20 m176 0 v-20 m-176 20 v24 m176 0 v-24 m-176 24 q0 10 10 10 m156 0 q10 0 10 -10 m-166 10 h10 m136 0 h10 m23 -352 h-3"/>
   <polygon points="225 17 233 13 233 21"/>
   <polygon points="225 17 217 13 217 21"/>
</svg>
