<?xml version="1.0" encoding="UTF-8"?>
<svg xmlns="http://www.w3.org/2000/svg" width="931" height="255">
   <defs>
      <style type="text/css">
    @namespace "http://www.w3.org/2000/svg";
    .line                 {fill: none; stroke: #332900; stroke-width: 1;}
    .bold-line            {stroke: #141000; shape-rendering: crispEdges; stroke-width: 2;}
    .thin-line            {stroke: #1F1800; shape-rendering: crispEdges}
    .filled               {fill: #332900; stroke: none;}
    text.terminal         {font-family: Verdana, Sans-serif;
                            font-size: 12px;
                            fill: #141000;
                            font-weight: bold;
                          }
    text.nonterminal      {font-family: Verdana, Sans-serif;
                            font-size: 12px;
                            fill: #1A1400;
                            font-weight: normal;
                          }
    text.regexp           {font-family: Verdana, Sans-serif;
                            font-size: 12px;
                            fill: #1F1800;
                            font-weight: normal;
                          }
    rect, circle, polygon {fill: #332900; stroke: #332900;}
    rect.terminal         {fill: #FFDB4D; stroke: #332900; stroke-width: 1;}
    rect.nonterminal      {fill: #FFEC9E; stroke: #332900; stroke-width: 1;}
    rect.text             {fill: none; stroke: none;}
    polygon.regexp        {fill: #FFF4C7; stroke: #332900; stroke-width: 1;}
  </style>
   </defs>
   <polygon points="9 61 1 57 1 65"/>
   <polygon points="17 61 9 57 9 65"/>
   <rect x="31" y="47" width="96" height="32" rx="10"/>
   <rect x="29"
         y="45"
         width="96"
         height="32"
         class="terminal"
         rx="10"/>
   <text class="terminal" x="39" y="65">objecttable</text>
   <rect x="147" y="47" width="26" height="32" rx="10"/>
   <rect x="145"
         y="45"
         width="26"
         height="32"
         class="terminal"
         rx="10"/>
   <text class="terminal" x="155" y="65">(</text>
   <rect x="213" y="79" width="82" height="32" rx="10"/>
   <rect x="211"
         y="77"
         width="82"
         height="32"
         class="terminal"
         rx="10"/>
   <text class="terminal" x="221" y="97">language</text>
   <a xmlns:xlink="http://www.w3.org/1999/xlink"
      xlink:href="#stringVal"
      xlink:title="stringVal">
      <rect x="315" y="79" width="76" height="32"/>
      <rect x="313" y="77" width="76" height="32" class="nonterminal"/>
      <text class="nonterminal" x="323" y="97">stringVal</text>
   </a>
   <a xmlns:xlink="http://www.w3.org/1999/xlink"
      xlink:href="#stringVal"
      xlink:title="stringVal">
      <rect x="431" y="47" width="76" height="32"/>
      <rect x="429" y="45" width="76" height="32" class="nonterminal"/>
      <text class="nonterminal" x="439" y="65">stringVal</text>
   </a>
   <rect x="547" y="47" width="72" height="32" rx="10"/>
   <rect x="545"
         y="45"
         width="72"
         height="32"
         class="terminal"
         rx="10"/>
   <text class="terminal" x="555" y="65">passing</text>
   <a xmlns:xlink="http://www.w3.org/1999/xlink"
      xlink:href="#derivedColumn"
      xlink:title="derivedColumn">
      <rect x="659" y="47" width="114" height="32"/>
      <rect x="657" y="45" width="114" height="32" class="nonterminal"/>
      <text class="nonterminal" x="667" y="65">derivedColumn</text>
   </a>
   <rect x="659" y="3" width="24" height="32" rx="10"/>
   <rect x="657"
         y="1"
         width="24"
         height="32"
         class="terminal"
         rx="10"/>
   <text class="terminal" x="667" y="21">,</text>
   <rect x="833" y="47" width="76" height="32" rx="10"/>
   <rect x="831"
         y="45"
         width="76"
         height="32"
         class="terminal"
         rx="10"/>
   <text class="terminal" x="841" y="65">columns</text>
   <a xmlns:xlink="http://www.w3.org/1999/xlink"
      xlink:href="#objectColumn"
      xlink:title="objectColumn">
      <rect x="587" y="189" width="106" height="32"/>
      <rect x="585" y="187" width="106" height="32" class="nonterminal"/>
      <text class="nonterminal" x="595" y="207">objectColumn</text>
   </a>
   <rect x="587" y="145" width="24" height="32" rx="10"/>
   <rect x="585"
         y="143"
         width="24"
         height="32"
         class="terminal"
         rx="10"/>
   <text class="terminal" x="595" y="163">,</text>
   <rect x="733" y="189" width="26" height="32" rx="10"/>
   <rect x="731"
         y="187"
         width="26"
         height="32"
         class="terminal"
         rx="10"/>
   <text class="terminal" x="741" y="207">)</text>
   <rect x="799" y="221" width="34" height="32" rx="10"/>
   <rect x="797"
         y="219"
         width="34"
         height="32"
         class="terminal"
         rx="10"/>
   <text class="terminal" x="807" y="239">as</text>
   <a xmlns:xlink="http://www.w3.org/1999/xlink"
      xlink:href="#id"
      xlink:title="id">
      <rect x="873" y="189" width="30" height="32"/>
      <rect x="871" y="187" width="30" height="32" class="nonterminal"/>
      <text class="nonterminal" x="881" y="207">id</text>
   </a>
   <path class="line"
         d="m17 61 h2 m0 0 h10 m96 0 h10 m0 0 h10 m26 0 h10 m20 0 h10 m0 0 h188 m-218 0 h20 m198 0 h20 m-238 0 q10 0 10 10 m218 0 q0 -10 10 -10 m-228 10 v12 m218 0 v-12 m-218 12 q0 10 10 10 m198 0 q10 0 10 -10 m-208 10 h10 m82 0 h10 m0 0 h10 m76 0 h10 m20 -32 h10 m76 0 h10 m20 0 h10 m72 0 h10 m20 0 h10 m114 0 h10 m-154 0 l20 0 m-1 0 q-9 0 -9 -10 l0 -24 q0 -10 10 -10 m134 44 l20 0 m-20 0 q10 0 10 -10 l0 -24 q0 -10 -10 -10 m-134 0 h10 m24 0 h10 m0 0 h90 m-266 44 h20 m266 0 h20 m-306 0 q10 0 10 10 m286 0 q0 -10 10 -10 m-296 10 v14 m286 0 v-14 m-286 14 q0 10 10 10 m266 0 q10 0 10 -10 m-276 10 h10 m0 0 h256 m20 -34 h10 m76 0 h10 m2 0 l2 0 m2 0 l2 0 m2 0 l2 0 m-386 142 l2 0 m2 0 l2 0 m2 0 l2 0 m22 0 h10 m106 0 h10 m-146 0 l20 0 m-1 0 q-9 0 -9 -10 l0 -24 q0 -10 10 -10 m126 44 l20 0 m-20 0 q10 0 10 -10 l0 -24 q0 -10 -10 -10 m-126 0 h10 m24 0 h10 m0 0 h82 m20 44 h10 m26 0 h10 m20 0 h10 m0 0 h44 m-74 0 h20 m54 0 h20 m-94 0 q10 0 10 10 m74 0 q0 -10 10 -10 m-84 10 v12 m74 0 v-12 m-74 12 q0 10 10 10 m54 0 q10 0 10 -10 m-64 10 h10 m34 0 h10 m20 -32 h10 m30 0 h10 m3 0 h-3"/>
   <polygon points="921 203 929 199 929 207"/>
   <polygon points="921 203 913 199 913 207"/>
</svg>
