<?xml version="1.0" encoding="UTF-8"?>
<svg xmlns="http://www.w3.org/2000/svg" width="591" height="69">
   <defs>
      <style type="text/css">
    @namespace "http://www.w3.org/2000/svg";
    .line                 {fill: none; stroke: #332900; stroke-width: 1;}
    .bold-line            {stroke: #141000; shape-rendering: crispEdges; stroke-width: 2;}
    .thin-line            {stroke: #1F1800; shape-rendering: crispEdges}
    .filled               {fill: #332900; stroke: none;}
    text.terminal         {font-family: Verdana, Sans-serif;
                            font-size: 12px;
                            fill: #141000;
                            font-weight: bold;
                          }
    text.nonterminal      {font-family: Verdana, Sans-serif;
                            font-size: 12px;
                            fill: #1A1400;
                            font-weight: normal;
                          }
    text.regexp           {font-family: Verdana, Sans-serif;
                            font-size: 12px;
                            fill: #1F1800;
                            font-weight: normal;
                          }
    rect, circle, polygon {fill: #332900; stroke: #332900;}
    rect.terminal         {fill: #FFDB4D; stroke: #332900; stroke-width: 1;}
    rect.nonterminal      {fill: #FFEC9E; stroke: #332900; stroke-width: 1;}
    rect.text             {fill: none; stroke: none;}
    polygon.regexp        {fill: #FFF4C7; stroke: #332900; stroke-width: 1;}
  </style>
   </defs>
   <polygon points="9 17 1 13 1 21"/>
   <polygon points="17 17 9 13 9 21"/>
   <a xmlns:xlink="http://www.w3.org/1999/xlink"
      xlink:href="#id"
      xlink:title="id">
      <rect x="31" y="3" width="30" height="32"/>
      <rect x="29" y="1" width="30" height="32" class="nonterminal"/>
      <text class="nonterminal" x="39" y="21">id</text>
   </a>
   <a xmlns:xlink="http://www.w3.org/1999/xlink"
      xlink:href="#parseBasicDataType"
      xlink:title="parseBasicDataType">
      <rect x="81" y="3" width="148" height="32"/>
      <rect x="79" y="1" width="148" height="32" class="nonterminal"/>
      <text class="nonterminal" x="89" y="21">parseBasicDataType</text>
   </a>
   <a xmlns:xlink="http://www.w3.org/1999/xlink"
      xlink:href="#stringVal"
      xlink:title="stringVal">
      <rect x="249" y="3" width="76" height="32"/>
      <rect x="247" y="1" width="76" height="32" class="nonterminal"/>
      <text class="nonterminal" x="257" y="21">stringVal</text>
   </a>
   <rect x="365" y="35" width="68" height="32" rx="10"/>
   <rect x="363"
         y="33"
         width="68"
         height="32"
         class="terminal"
         rx="10"/>
   <text class="terminal" x="373" y="53">default</text>
   <a xmlns:xlink="http://www.w3.org/1999/xlink"
      xlink:href="#expression"
      xlink:title="expression">
      <rect x="453" y="35" width="90" height="32"/>
      <rect x="451" y="33" width="90" height="32" class="nonterminal"/>
      <text class="nonterminal" x="461" y="53">expression</text>
   </a>
   <path class="line"
         d="m17 17 h2 m0 0 h10 m30 0 h10 m0 0 h10 m148 0 h10 m0 0 h10 m76 0 h10 m20 0 h10 m0 0 h188 m-218 0 h20 m198 0 h20 m-238 0 q10 0 10 10 m218 0 q0 -10 10 -10 m-228 10 v12 m218 0 v-12 m-218 12 q0 10 10 10 m198 0 q10 0 10 -10 m-208 10 h10 m68 0 h10 m0 0 h10 m90 0 h10 m23 -32 h-3"/>
   <polygon points="581 17 589 13 589 21"/>
   <polygon points="581 17 573 13 573 21"/>
</svg>
