<?xml version="1.0" encoding="UTF-8"?>
<svg xmlns="http://www.w3.org/2000/svg" width="619" height="349">
   <defs>
      <style type="text/css">
    @namespace "http://www.w3.org/2000/svg";
    .line                 {fill: none; stroke: #332900; stroke-width: 1;}
    .bold-line            {stroke: #141000; shape-rendering: crispEdges; stroke-width: 2;}
    .thin-line            {stroke: #1F1800; shape-rendering: crispEdges}
    .filled               {fill: #332900; stroke: none;}
    text.terminal         {font-family: Verdana, Sans-serif;
                            font-size: 12px;
                            fill: #141000;
                            font-weight: bold;
                          }
    text.nonterminal      {font-family: Verdana, Sans-serif;
                            font-size: 12px;
                            fill: #1A1400;
                            font-weight: normal;
                          }
    text.regexp           {font-family: Verdana, Sans-serif;
                            font-size: 12px;
                            fill: #1F1800;
                            font-weight: normal;
                          }
    rect, circle, polygon {fill: #332900; stroke: #332900;}
    rect.terminal         {fill: #FFDB4D; stroke: #332900; stroke-width: 1;}
    rect.nonterminal      {fill: #FFEC9E; stroke: #332900; stroke-width: 1;}
    rect.text             {fill: none; stroke: none;}
    polygon.regexp        {fill: #FFF4C7; stroke: #332900; stroke-width: 1;}
  </style>
   </defs>
   <polygon points="9 77 1 73 1 81"/>
   <polygon points="17 77 9 73 9 81"/>
   <rect x="31" y="63" width="62" height="32" rx="10"/>
   <rect x="29"
         y="61"
         width="62"
         height="32"
         class="terminal"
         rx="10"/>
   <text class="terminal" x="39" y="81">option</text>
   <rect x="193" y="63" width="82" height="32" rx="10"/>
   <rect x="191"
         y="61"
         width="82"
         height="32"
         class="terminal"
         rx="10"/>
   <text class="terminal" x="201" y="81">makedep</text>
   <rect x="193" y="107" width="78" height="32" rx="10"/>
   <rect x="191"
         y="105"
         width="78"
         height="32"
         class="terminal"
         rx="10"/>
   <text class="terminal" x="201" y="125">makeind</text>
   <a xmlns:xlink="http://www.w3.org/1999/xlink"
      xlink:href="#id"
      xlink:title="id">
      <rect x="335" y="63" width="30" height="32"/>
      <rect x="333" y="61" width="30" height="32" class="nonterminal"/>
      <text class="nonterminal" x="343" y="81">id</text>
   </a>
   <a xmlns:xlink="http://www.w3.org/1999/xlink"
      xlink:href="#makedepOptions"
      xlink:title="makedepOptions">
      <rect x="385" y="63" width="126" height="32"/>
      <rect x="383" y="61" width="126" height="32" class="nonterminal"/>
      <text class="nonterminal" x="393" y="81">makedepOptions</text>
   </a>
   <rect x="335" y="19" width="24" height="32" rx="10"/>
   <rect x="333"
         y="17"
         width="24"
         height="32"
         class="terminal"
         rx="10"/>
   <text class="terminal" x="343" y="37">,</text>
   <rect x="173" y="195" width="104" height="32" rx="10"/>
   <rect x="171"
         y="193"
         width="104"
         height="32"
         class="terminal"
         rx="10"/>
   <text class="terminal" x="181" y="213">makenotdep</text>
   <a xmlns:xlink="http://www.w3.org/1999/xlink"
      xlink:href="#id"
      xlink:title="id">
      <rect x="317" y="195" width="30" height="32"/>
      <rect x="315" y="193" width="30" height="32" class="nonterminal"/>
      <text class="nonterminal" x="325" y="213">id</text>
   </a>
   <rect x="317" y="151" width="24" height="32" rx="10"/>
   <rect x="315"
         y="149"
         width="24"
         height="32"
         class="terminal"
         rx="10"/>
   <text class="terminal" x="325" y="169">,</text>
   <rect x="173" y="283" width="74" height="32" rx="10"/>
   <rect x="171"
         y="281"
         width="74"
         height="32"
         class="terminal"
         rx="10"/>
   <text class="terminal" x="181" y="301">nocache</text>
   <a xmlns:xlink="http://www.w3.org/1999/xlink"
      xlink:href="#id"
      xlink:title="id">
      <rect x="307" y="283" width="30" height="32"/>
      <rect x="305" y="281" width="30" height="32" class="nonterminal"/>
      <text class="nonterminal" x="315" y="301">id</text>
   </a>
   <rect x="307" y="239" width="24" height="32" rx="10"/>
   <rect x="305"
         y="237"
         width="24"
         height="32"
         class="terminal"
         rx="10"/>
   <text class="terminal" x="315" y="257">,</text>
   <path class="line"
         d="m17 77 h2 m0 0 h10 m62 0 h10 m80 0 h10 m82 0 h10 m-122 0 h20 m102 0 h20 m-142 0 q10 0 10 10 m122 0 q0 -10 10 -10 m-132 10 v24 m122 0 v-24 m-122 24 q0 10 10 10 m102 0 q10 0 10 -10 m-112 10 h10 m78 0 h10 m0 0 h4 m40 -44 h10 m30 0 h10 m0 0 h10 m126 0 h10 m-216 0 l20 0 m-1 0 q-9 0 -9 -10 l0 -24 q0 -10 10 -10 m196 44 l20 0 m-20 0 q10 0 10 -10 l0 -24 q0 -10 -10 -10 m-196 0 h10 m24 0 h10 m0 0 h152 m-378 44 h20 m378 0 h20 m-418 0 q10 0 10 10 m398 0 q0 -10 10 -10 m-408 10 v112 m398 0 v-112 m-398 112 q0 10 10 10 m378 0 q10 0 10 -10 m-388 10 h10 m104 0 h10 m20 0 h10 m30 0 h10 m-70 0 l20 0 m-1 0 q-9 0 -9 -10 l0 -24 q0 -10 10 -10 m50 44 l20 0 m-20 0 q10 0 10 -10 l0 -24 q0 -10 -10 -10 m-50 0 h10 m24 0 h10 m0 0 h6 m20 44 h164 m-388 -10 v20 m398 0 v-20 m-398 20 v68 m398 0 v-68 m-398 68 q0 10 10 10 m378 0 q10 0 10 -10 m-388 10 h10 m74 0 h10 m40 0 h10 m30 0 h10 m-70 0 l20 0 m-1 0 q-9 0 -9 -10 l0 -24 q0 -10 10 -10 m50 44 l20 0 m-20 0 q10 0 10 -10 l0 -24 q0 -10 -10 -10 m-50 0 h10 m24 0 h10 m0 0 h6 m-90 44 h20 m90 0 h20 m-130 0 q10 0 10 10 m110 0 q0 -10 10 -10 m-120 10 v14 m110 0 v-14 m-110 14 q0 10 10 10 m90 0 q10 0 10 -10 m-100 10 h10 m0 0 h80 m20 -34 h154 m-418 -220 l20 0 m-1 0 q-9 0 -9 -10 l0 -56 q0 -10 10 -10 m418 76 l20 0 m-20 0 q10 0 10 -10 l0 -56 q0 -10 -10 -10 m-418 0 h10 m0 0 h408 m-458 76 h20 m458 0 h20 m-498 0 q10 0 10 10 m478 0 q0 -10 10 -10 m-488 10 v250 m478 0 v-250 m-478 250 q0 10 10 10 m458 0 q10 0 10 -10 m-468 10 h10 m0 0 h448 m23 -270 h-3"/>
   <polygon points="609 77 617 73 617 81"/>
   <polygon points="609 77 601 73 601 81"/>
</svg>
