<?xml version="1.0" encoding="UTF-8"?>
<svg xmlns="http://www.w3.org/2000/svg" width="547" height="125">
   <defs>
      <style type="text/css">
    @namespace "http://www.w3.org/2000/svg";
    .line                 {fill: none; stroke: #332900; stroke-width: 1;}
    .bold-line            {stroke: #141000; shape-rendering: crispEdges; stroke-width: 2;}
    .thin-line            {stroke: #1F1800; shape-rendering: crispEdges}
    .filled               {fill: #332900; stroke: none;}
    text.terminal         {font-family: Verdana, Sans-serif;
                            font-size: 12px;
                            fill: #141000;
                            font-weight: bold;
                          }
    text.nonterminal      {font-family: Verdana, Sans-serif;
                            font-size: 12px;
                            fill: #1A1400;
                            font-weight: normal;
                          }
    text.regexp           {font-family: Verdana, Sans-serif;
                            font-size: 12px;
                            fill: #1F1800;
                            font-weight: normal;
                          }
    rect, circle, polygon {fill: #332900; stroke: #332900;}
    rect.terminal         {fill: #FFDB4D; stroke: #332900; stroke-width: 1;}
    rect.nonterminal      {fill: #FFEC9E; stroke: #332900; stroke-width: 1;}
    rect.text             {fill: none; stroke: none;}
    polygon.regexp        {fill: #FFF4C7; stroke: #332900; stroke-width: 1;}
  </style>
   </defs>
   <polygon points="9 17 1 13 1 21"/>
   <polygon points="17 17 9 13 9 21"/>
   <rect x="51" y="3" width="70" height="32" rx="10"/>
   <rect x="49"
         y="1"
         width="70"
         height="32"
         class="terminal"
         rx="10"/>
   <text class="terminal" x="59" y="21">xmlagg</text>
   <rect x="51" y="47" width="90" height="32" rx="10"/>
   <rect x="49"
         y="45"
         width="90"
         height="32"
         class="terminal"
         rx="10"/>
   <text class="terminal" x="59" y="65">array_agg</text>
   <rect x="51" y="91" width="118" height="32" rx="10"/>
   <rect x="49"
         y="89"
         width="118"
         height="32"
         class="terminal"
         rx="10"/>
   <text class="terminal" x="59" y="109">jsonarray_agg</text>
   <rect x="209" y="3" width="26" height="32" rx="10"/>
   <rect x="207"
         y="1"
         width="26"
         height="32"
         class="terminal"
         rx="10"/>
   <text class="terminal" x="217" y="21">(</text>
   <a xmlns:xlink="http://www.w3.org/1999/xlink"
      xlink:href="#expression"
      xlink:title="expression">
      <rect x="255" y="3" width="90" height="32"/>
      <rect x="253" y="1" width="90" height="32" class="nonterminal"/>
      <text class="nonterminal" x="263" y="21">expression</text>
   </a>
   <a xmlns:xlink="http://www.w3.org/1999/xlink"
      xlink:href="#orderby"
      xlink:title="orderby">
      <rect x="385" y="35" width="68" height="32"/>
      <rect x="383" y="33" width="68" height="32" class="nonterminal"/>
      <text class="nonterminal" x="393" y="53">orderby</text>
   </a>
   <rect x="493" y="3" width="26" height="32" rx="10"/>
   <rect x="491"
         y="1"
         width="26"
         height="32"
         class="terminal"
         rx="10"/>
   <text class="terminal" x="501" y="21">)</text>
   <path class="line"
         d="m17 17 h2 m20 0 h10 m70 0 h10 m0 0 h48 m-158 0 h20 m138 0 h20 m-178 0 q10 0 10 10 m158 0 q0 -10 10 -10 m-168 10 v24 m158 0 v-24 m-158 24 q0 10 10 10 m138 0 q10 0 10 -10 m-148 10 h10 m90 0 h10 m0 0 h28 m-148 -10 v20 m158 0 v-20 m-158 20 v24 m158 0 v-24 m-158 24 q0 10 10 10 m138 0 q10 0 10 -10 m-148 10 h10 m118 0 h10 m20 -88 h10 m26 0 h10 m0 0 h10 m90 0 h10 m20 0 h10 m0 0 h78 m-108 0 h20 m88 0 h20 m-128 0 q10 0 10 10 m108 0 q0 -10 10 -10 m-118 10 v12 m108 0 v-12 m-108 12 q0 10 10 10 m88 0 q10 0 10 -10 m-98 10 h10 m68 0 h10 m20 -32 h10 m26 0 h10 m3 0 h-3"/>
   <polygon points="537 17 545 13 545 21"/>
   <polygon points="537 17 529 13 529 21"/>
</svg>
