<?xml version="1.0" encoding="UTF-8"?>
<svg xmlns="http://www.w3.org/2000/svg" width="599" height="1245">
   <defs>
      <style type="text/css">
    @namespace "http://www.w3.org/2000/svg";
    .line                 {fill: none; stroke: #332900; stroke-width: 1;}
    .bold-line            {stroke: #141000; shape-rendering: crispEdges; stroke-width: 2;}
    .thin-line            {stroke: #1F1800; shape-rendering: crispEdges}
    .filled               {fill: #332900; stroke: none;}
    text.terminal         {font-family: Verdana, Sans-serif;
                            font-size: 12px;
                            fill: #141000;
                            font-weight: bold;
                          }
    text.nonterminal      {font-family: Verdana, Sans-serif;
                            font-size: 12px;
                            fill: #1A1400;
                            font-weight: normal;
                          }
    text.regexp           {font-family: Verdana, Sans-serif;
                            font-size: 12px;
                            fill: #1F1800;
                            font-weight: normal;
                          }
    rect, circle, polygon {fill: #332900; stroke: #332900;}
    rect.terminal         {fill: #FFDB4D; stroke: #332900; stroke-width: 1;}
    rect.nonterminal      {fill: #FFEC9E; stroke: #332900; stroke-width: 1;}
    rect.text             {fill: none; stroke: none;}
    polygon.regexp        {fill: #FFF4C7; stroke: #332900; stroke-width: 1;}
  </style>
   </defs>
   <polygon points="9 17 1 13 1 21"/>
   <polygon points="17 17 9 13 9 21"/>
   <rect x="71" y="3" width="60" height="32" rx="10"/>
   <rect x="69"
         y="1"
         width="60"
         height="32"
         class="terminal"
         rx="10"/>
   <text class="terminal" x="79" y="21">string</text>
   <rect x="71" y="47" width="72" height="32" rx="10"/>
   <rect x="69"
         y="45"
         width="72"
         height="32"
         class="terminal"
         rx="10"/>
   <text class="terminal" x="79" y="65">varchar</text>
   <rect x="71" y="91" width="50" height="32" rx="10"/>
   <rect x="69"
         y="89"
         width="50"
         height="32"
         class="terminal"
         rx="10"/>
   <text class="terminal" x="79" y="109">char</text>
   <rect x="71" y="135" width="88" height="32" rx="10"/>
   <rect x="69"
         y="133"
         width="88"
         height="32"
         class="terminal"
         rx="10"/>
   <text class="terminal" x="79" y="153">biginteger</text>
   <rect x="71" y="179" width="92" height="32" rx="10"/>
   <rect x="69"
         y="177"
         width="92"
         height="32"
         class="terminal"
         rx="10"/>
   <text class="terminal" x="79" y="197">timestamp</text>
   <rect x="71" y="223" width="62" height="32" rx="10"/>
   <rect x="69"
         y="221"
         width="62"
         height="32"
         class="terminal"
         rx="10"/>
   <text class="terminal" x="79" y="241">object</text>
   <rect x="71" y="267" width="48" height="32" rx="10"/>
   <rect x="69"
         y="265"
         width="48"
         height="32"
         class="terminal"
         rx="10"/>
   <text class="terminal" x="79" y="285">blob</text>
   <rect x="71" y="311" width="48" height="32" rx="10"/>
   <rect x="69"
         y="309"
         width="48"
         height="32"
         class="terminal"
         rx="10"/>
   <text class="terminal" x="79" y="329">clob</text>
   <rect x="71" y="355" width="84" height="32" rx="10"/>
   <rect x="69"
         y="353"
         width="84"
         height="32"
         class="terminal"
         rx="10"/>
   <text class="terminal" x="79" y="373">varbinary</text>
   <rect x="223" y="35" width="26" height="32" rx="10"/>
   <rect x="221"
         y="33"
         width="26"
         height="32"
         class="terminal"
         rx="10"/>
   <text class="terminal" x="231" y="53">(</text>
   <a xmlns:xlink="http://www.w3.org/1999/xlink"
      xlink:href="#intVal"
      xlink:title="intVal">
      <rect x="269" y="35" width="56" height="32"/>
      <rect x="267" y="33" width="56" height="32" class="nonterminal"/>
      <text class="nonterminal" x="277" y="53">intVal</text>
   </a>
   <rect x="345" y="35" width="26" height="32" rx="10"/>
   <rect x="343"
         y="33"
         width="26"
         height="32"
         class="terminal"
         rx="10"/>
   <text class="terminal" x="353" y="53">)</text>
   <rect x="51" y="399" width="72" height="32" rx="10"/>
   <rect x="49"
         y="397"
         width="72"
         height="32"
         class="terminal"
         rx="10"/>
   <text class="terminal" x="59" y="417">boolean</text>
   <rect x="51" y="443" width="50" height="32" rx="10"/>
   <rect x="49"
         y="441"
         width="50"
         height="32"
         class="terminal"
         rx="10"/>
   <text class="terminal" x="59" y="461">byte</text>
   <rect x="51" y="487" width="64" height="32" rx="10"/>
   <rect x="49"
         y="485"
         width="64"
         height="32"
         class="terminal"
         rx="10"/>
   <text class="terminal" x="59" y="505">tinyint</text>
   <rect x="51" y="531" width="54" height="32" rx="10"/>
   <rect x="49"
         y="529"
         width="54"
         height="32"
         class="terminal"
         rx="10"/>
   <text class="terminal" x="59" y="549">short</text>
   <rect x="51" y="575" width="74" height="32" rx="10"/>
   <rect x="49"
         y="573"
         width="74"
         height="32"
         class="terminal"
         rx="10"/>
   <text class="terminal" x="59" y="593">smallint</text>
   <rect x="51" y="619" width="68" height="32" rx="10"/>
   <rect x="49"
         y="617"
         width="68"
         height="32"
         class="terminal"
         rx="10"/>
   <text class="terminal" x="59" y="637">integer</text>
   <rect x="51" y="663" width="48" height="32" rx="10"/>
   <rect x="49"
         y="661"
         width="48"
         height="32"
         class="terminal"
         rx="10"/>
   <text class="terminal" x="59" y="681">long</text>
   <rect x="51" y="707" width="58" height="32" rx="10"/>
   <rect x="49"
         y="705"
         width="58"
         height="32"
         class="terminal"
         rx="10"/>
   <text class="terminal" x="59" y="725">bigint</text>
   <rect x="51" y="751" width="50" height="32" rx="10"/>
   <rect x="49"
         y="749"
         width="50"
         height="32"
         class="terminal"
         rx="10"/>
   <text class="terminal" x="59" y="769">float</text>
   <rect x="51" y="795" width="46" height="32" rx="10"/>
   <rect x="49"
         y="793"
         width="46"
         height="32"
         class="terminal"
         rx="10"/>
   <text class="terminal" x="59" y="813">real</text>
   <rect x="51" y="839" width="66" height="32" rx="10"/>
   <rect x="49"
         y="837"
         width="66"
         height="32"
         class="terminal"
         rx="10"/>
   <text class="terminal" x="59" y="857">double</text>
   <rect x="71" y="883" width="92" height="32" rx="10"/>
   <rect x="69"
         y="881"
         width="92"
         height="32"
         class="terminal"
         rx="10"/>
   <text class="terminal" x="79" y="901">bigdecimal</text>
   <rect x="71" y="927" width="72" height="32" rx="10"/>
   <rect x="69"
         y="925"
         width="72"
         height="32"
         class="terminal"
         rx="10"/>
   <text class="terminal" x="79" y="945">decimal</text>
   <rect x="223" y="915" width="26" height="32" rx="10"/>
   <rect x="221"
         y="913"
         width="26"
         height="32"
         class="terminal"
         rx="10"/>
   <text class="terminal" x="231" y="933">(</text>
   <a xmlns:xlink="http://www.w3.org/1999/xlink"
      xlink:href="#intVal"
      xlink:title="intVal">
      <rect x="269" y="915" width="56" height="32"/>
      <rect x="267" y="913" width="56" height="32" class="nonterminal"/>
      <text class="nonterminal" x="277" y="933">intVal</text>
   </a>
   <rect x="365" y="947" width="24" height="32" rx="10"/>
   <rect x="363"
         y="945"
         width="24"
         height="32"
         class="terminal"
         rx="10"/>
   <text class="terminal" x="373" y="965">,</text>
   <a xmlns:xlink="http://www.w3.org/1999/xlink"
      xlink:href="#intVal"
      xlink:title="intVal">
      <rect x="409" y="947" width="56" height="32"/>
      <rect x="407" y="945" width="56" height="32" class="nonterminal"/>
      <text class="nonterminal" x="417" y="965">intVal</text>
   </a>
   <rect x="505" y="915" width="26" height="32" rx="10"/>
   <rect x="503"
         y="913"
         width="26"
         height="32"
         class="terminal"
         rx="10"/>
   <text class="terminal" x="513" y="933">)</text>
   <rect x="51" y="991" width="50" height="32" rx="10"/>
   <rect x="49"
         y="989"
         width="50"
         height="32"
         class="terminal"
         rx="10"/>
   <text class="terminal" x="59" y="1009">date</text>
   <rect x="51" y="1035" width="50" height="32" rx="10"/>
   <rect x="49"
         y="1033"
         width="50"
         height="32"
         class="terminal"
         rx="10"/>
   <text class="terminal" x="59" y="1053">time</text>
   <rect x="51" y="1079" width="48" height="32" rx="10"/>
   <rect x="49"
         y="1077"
         width="48"
         height="32"
         class="terminal"
         rx="10"/>
   <text class="terminal" x="59" y="1097">json</text>
   <rect x="51" y="1123" width="84" height="32" rx="10"/>
   <rect x="49"
         y="1121"
         width="84"
         height="32"
         class="terminal"
         rx="10"/>
   <text class="terminal" x="59" y="1141">geometry</text>
   <rect x="51" y="1167" width="92" height="32" rx="10"/>
   <rect x="49"
         y="1165"
         width="92"
         height="32"
         class="terminal"
         rx="10"/>
   <text class="terminal" x="59" y="1185">geography</text>
   <rect x="51" y="1211" width="44" height="32" rx="10"/>
   <rect x="49"
         y="1209"
         width="44"
         height="32"
         class="terminal"
         rx="10"/>
   <text class="terminal" x="59" y="1229">xml</text>
   <path class="line"
         d="m17 17 h2 m40 0 h10 m60 0 h10 m0 0 h32 m-132 0 h20 m112 0 h20 m-152 0 q10 0 10 10 m132 0 q0 -10 10 -10 m-142 10 v24 m132 0 v-24 m-132 24 q0 10 10 10 m112 0 q10 0 10 -10 m-122 10 h10 m72 0 h10 m0 0 h20 m-122 -10 v20 m132 0 v-20 m-132 20 v24 m132 0 v-24 m-132 24 q0 10 10 10 m112 0 q10 0 10 -10 m-122 10 h10 m50 0 h10 m0 0 h42 m-122 -10 v20 m132 0 v-20 m-132 20 v24 m132 0 v-24 m-132 24 q0 10 10 10 m112 0 q10 0 10 -10 m-122 10 h10 m88 0 h10 m0 0 h4 m-122 -10 v20 m132 0 v-20 m-132 20 v24 m132 0 v-24 m-132 24 q0 10 10 10 m112 0 q10 0 10 -10 m-122 10 h10 m92 0 h10 m-122 -10 v20 m132 0 v-20 m-132 20 v24 m132 0 v-24 m-132 24 q0 10 10 10 m112 0 q10 0 10 -10 m-122 10 h10 m62 0 h10 m0 0 h30 m-122 -10 v20 m132 0 v-20 m-132 20 v24 m132 0 v-24 m-132 24 q0 10 10 10 m112 0 q10 0 10 -10 m-122 10 h10 m48 0 h10 m0 0 h44 m-122 -10 v20 m132 0 v-20 m-132 20 v24 m132 0 v-24 m-132 24 q0 10 10 10 m112 0 q10 0 10 -10 m-122 10 h10 m48 0 h10 m0 0 h44 m-122 -10 v20 m132 0 v-20 m-132 20 v24 m132 0 v-24 m-132 24 q0 10 10 10 m112 0 q10 0 10 -10 m-122 10 h10 m84 0 h10 m0 0 h8 m40 -352 h10 m0 0 h158 m-188 0 h20 m168 0 h20 m-208 0 q10 0 10 10 m188 0 q0 -10 10 -10 m-198 10 v12 m188 0 v-12 m-188 12 q0 10 10 10 m168 0 q10 0 10 -10 m-178 10 h10 m26 0 h10 m0 0 h10 m56 0 h10 m0 0 h10 m26 0 h10 m20 -32 h160 m-540 0 h20 m520 0 h20 m-560 0 q10 0 10 10 m540 0 q0 -10 10 -10 m-550 10 v376 m540 0 v-376 m-540 376 q0 10 10 10 m520 0 q10 0 10 -10 m-530 10 h10 m72 0 h10 m0 0 h428 m-530 -10 v20 m540 0 v-20 m-540 20 v24 m540 0 v-24 m-540 24 q0 10 10 10 m520 0 q10 0 10 -10 m-530 10 h10 m50 0 h10 m0 0 h450 m-530 -10 v20 m540 0 v-20 m-540 20 v24 m540 0 v-24 m-540 24 q0 10 10 10 m520 0 q10 0 10 -10 m-530 10 h10 m64 0 h10 m0 0 h436 m-530 -10 v20 m540 0 v-20 m-540 20 v24 m540 0 v-24 m-540 24 q0 10 10 10 m520 0 q10 0 10 -10 m-530 10 h10 m54 0 h10 m0 0 h446 m-530 -10 v20 m540 0 v-20 m-540 20 v24 m540 0 v-24 m-540 24 q0 10 10 10 m520 0 q10 0 10 -10 m-530 10 h10 m74 0 h10 m0 0 h426 m-530 -10 v20 m540 0 v-20 m-540 20 v24 m540 0 v-24 m-540 24 q0 10 10 10 m520 0 q10 0 10 -10 m-530 10 h10 m68 0 h10 m0 0 h432 m-530 -10 v20 m540 0 v-20 m-540 20 v24 m540 0 v-24 m-540 24 q0 10 10 10 m520 0 q10 0 10 -10 m-530 10 h10 m48 0 h10 m0 0 h452 m-530 -10 v20 m540 0 v-20 m-540 20 v24 m540 0 v-24 m-540 24 q0 10 10 10 m520 0 q10 0 10 -10 m-530 10 h10 m58 0 h10 m0 0 h442 m-530 -10 v20 m540 0 v-20 m-540 20 v24 m540 0 v-24 m-540 24 q0 10 10 10 m520 0 q10 0 10 -10 m-530 10 h10 m50 0 h10 m0 0 h450 m-530 -10 v20 m540 0 v-20 m-540 20 v24 m540 0 v-24 m-540 24 q0 10 10 10 m520 0 q10 0 10 -10 m-530 10 h10 m46 0 h10 m0 0 h454 m-530 -10 v20 m540 0 v-20 m-540 20 v24 m540 0 v-24 m-540 24 q0 10 10 10 m520 0 q10 0 10 -10 m-530 10 h10 m66 0 h10 m0 0 h434 m-530 -10 v20 m540 0 v-20 m-540 20 v24 m540 0 v-24 m-540 24 q0 10 10 10 m520 0 q10 0 10 -10 m-510 10 h10 m92 0 h10 m-132 0 h20 m112 0 h20 m-152 0 q10 0 10 10 m132 0 q0 -10 10 -10 m-142 10 v24 m132 0 v-24 m-132 24 q0 10 10 10 m112 0 q10 0 10 -10 m-122 10 h10 m72 0 h10 m0 0 h20 m40 -44 h10 m0 0 h318 m-348 0 h20 m328 0 h20 m-368 0 q10 0 10 10 m348 0 q0 -10 10 -10 m-358 10 v12 m348 0 v-12 m-348 12 q0 10 10 10 m328 0 q10 0 10 -10 m-338 10 h10 m26 0 h10 m0 0 h10 m56 0 h10 m20 0 h10 m0 0 h110 m-140 0 h20 m120 0 h20 m-160 0 q10 0 10 10 m140 0 q0 -10 10 -10 m-150 10 v12 m140 0 v-12 m-140 12 q0 10 10 10 m120 0 q10 0 10 -10 m-130 10 h10 m24 0 h10 m0 0 h10 m56 0 h10 m20 -32 h10 m26 0 h10 m-510 -42 v20 m540 0 v-20 m-540 20 v88 m540 0 v-88 m-540 88 q0 10 10 10 m520 0 q10 0 10 -10 m-530 10 h10 m50 0 h10 m0 0 h450 m-530 -10 v20 m540 0 v-20 m-540 20 v24 m540 0 v-24 m-540 24 q0 10 10 10 m520 0 q10 0 10 -10 m-530 10 h10 m50 0 h10 m0 0 h450 m-530 -10 v20 m540 0 v-20 m-540 20 v24 m540 0 v-24 m-540 24 q0 10 10 10 m520 0 q10 0 10 -10 m-530 10 h10 m48 0 h10 m0 0 h452 m-530 -10 v20 m540 0 v-20 m-540 20 v24 m540 0 v-24 m-540 24 q0 10 10 10 m520 0 q10 0 10 -10 m-530 10 h10 m84 0 h10 m0 0 h416 m-530 -10 v20 m540 0 v-20 m-540 20 v24 m540 0 v-24 m-540 24 q0 10 10 10 m520 0 q10 0 10 -10 m-530 10 h10 m92 0 h10 m0 0 h408 m-530 -10 v20 m540 0 v-20 m-540 20 v24 m540 0 v-24 m-540 24 q0 10 10 10 m520 0 q10 0 10 -10 m-530 10 h10 m44 0 h10 m0 0 h456 m23 -1208 h-3"/>
   <polygon points="589 17 597 13 597 21"/>
   <polygon points="589 17 581 13 581 21"/>
</svg>
