<?xml version="1.0" encoding="UTF-8"?>
<svg xmlns="http://www.w3.org/2000/svg" width="447" height="147">
   <defs>
      <style type="text/css">
    @namespace "http://www.w3.org/2000/svg";
    .line                 {fill: none; stroke: #332900; stroke-width: 1;}
    .bold-line            {stroke: #141000; shape-rendering: crispEdges; stroke-width: 2;}
    .thin-line            {stroke: #1F1800; shape-rendering: crispEdges}
    .filled               {fill: #332900; stroke: none;}
    text.terminal         {font-family: Verdana, Sans-serif;
                            font-size: 12px;
                            fill: #141000;
                            font-weight: bold;
                          }
    text.nonterminal      {font-family: Verdana, Sans-serif;
                            font-size: 12px;
                            fill: #1A1400;
                            font-weight: normal;
                          }
    text.regexp           {font-family: Verdana, Sans-serif;
                            font-size: 12px;
                            fill: #1F1800;
                            font-weight: normal;
                          }
    rect, circle, polygon {fill: #332900; stroke: #332900;}
    rect.terminal         {fill: #FFDB4D; stroke: #332900; stroke-width: 1;}
    rect.nonterminal      {fill: #FFEC9E; stroke: #332900; stroke-width: 1;}
    rect.text             {fill: none; stroke: none;}
    polygon.regexp        {fill: #FFF4C7; stroke: #332900; stroke-width: 1;}
  </style>
   </defs>
   <polygon points="9 17 1 13 1 21"/>
   <polygon points="17 17 9 13 9 21"/>
   <a xmlns:xlink="http://www.w3.org/1999/xlink"
      xlink:href="#parseBasicDataType"
      xlink:title="parseBasicDataType">
      <rect x="51" y="3" width="148" height="32"/>
      <rect x="49" y="1" width="148" height="32" class="nonterminal"/>
      <text class="nonterminal" x="59" y="21">parseBasicDataType</text>
   </a>
   <a xmlns:xlink="http://www.w3.org/1999/xlink"
      xlink:href="#ID"
      xlink:title="ID">
      <rect x="71" y="69" width="34" height="32"/>
      <rect x="69" y="67" width="34" height="32" class="nonterminal"/>
      <text class="nonterminal" x="79" y="87">ID</text>
   </a>
   <a xmlns:xlink="http://www.w3.org/1999/xlink"
      xlink:href="#basicNonReserved"
      xlink:title="basicNonReserved">
      <rect x="71" y="113" width="136" height="32"/>
      <rect x="69" y="111" width="136" height="32" class="nonterminal"/>
      <text class="nonterminal" x="79" y="131">basicNonReserved</text>
   </a>
   <rect x="287" y="69" width="26" height="32" rx="10"/>
   <rect x="285"
         y="67"
         width="26"
         height="32"
         class="terminal"
         rx="10"/>
   <text class="terminal" x="295" y="87">[</text>
   <rect x="333" y="69" width="26" height="32" rx="10"/>
   <rect x="331"
         y="67"
         width="26"
         height="32"
         class="terminal"
         rx="10"/>
   <text class="terminal" x="341" y="87">]</text>
   <path class="line"
         d="m17 17 h2 m20 0 h10 m148 0 h10 m0 0 h200 m-388 0 h20 m368 0 h20 m-408 0 q10 0 10 10 m388 0 q0 -10 10 -10 m-398 10 v46 m388 0 v-46 m-388 46 q0 10 10 10 m368 0 q10 0 10 -10 m-358 10 h10 m34 0 h10 m0 0 h102 m-176 0 h20 m156 0 h20 m-196 0 q10 0 10 10 m176 0 q0 -10 10 -10 m-186 10 v24 m176 0 v-24 m-176 24 q0 10 10 10 m156 0 q10 0 10 -10 m-166 10 h10 m136 0 h10 m60 -44 h10 m26 0 h10 m0 0 h10 m26 0 h10 m-112 0 l20 0 m-1 0 q-9 0 -9 -10 l0 -12 q0 -10 10 -10 m92 32 l20 0 m-20 0 q10 0 10 -10 l0 -12 q0 -10 -10 -10 m-92 0 h10 m0 0 h82 m-132 32 h20 m132 0 h20 m-172 0 q10 0 10 10 m152 0 q0 -10 10 -10 m-162 10 v14 m152 0 v-14 m-152 14 q0 10 10 10 m132 0 q10 0 10 -10 m-142 10 h10 m0 0 h122 m43 -100 h-3"/>
   <polygon points="437 17 445 13 445 21"/>
   <polygon points="437 17 429 13 429 21"/>
</svg>
