<?xml version="1.0" encoding="UTF-8"?>
<svg xmlns="http://www.w3.org/2000/svg" width="875" height="287">
   <defs>
      <style type="text/css">
    @namespace "http://www.w3.org/2000/svg";
    .line                 {fill: none; stroke: #332900; stroke-width: 1;}
    .bold-line            {stroke: #141000; shape-rendering: crispEdges; stroke-width: 2;}
    .thin-line            {stroke: #1F1800; shape-rendering: crispEdges}
    .filled               {fill: #332900; stroke: none;}
    text.terminal         {font-family: Verdana, Sans-serif;
                            font-size: 12px;
                            fill: #141000;
                            font-weight: bold;
                          }
    text.nonterminal      {font-family: Verdana, Sans-serif;
                            font-size: 12px;
                            fill: #1A1400;
                            font-weight: normal;
                          }
    text.regexp           {font-family: Verdana, Sans-serif;
                            font-size: 12px;
                            fill: #1F1800;
                            font-weight: normal;
                          }
    rect, circle, polygon {fill: #332900; stroke: #332900;}
    rect.terminal         {fill: #FFDB4D; stroke: #332900; stroke-width: 1;}
    rect.nonterminal      {fill: #FFEC9E; stroke: #332900; stroke-width: 1;}
    rect.text             {fill: none; stroke: none;}
    polygon.regexp        {fill: #FFF4C7; stroke: #332900; stroke-width: 1;}
  </style>
   </defs>
   <polygon points="9 17 1 13 1 21"/>
   <polygon points="17 17 9 13 9 21"/>
   <rect x="51" y="35" width="32" height="32" rx="10"/>
   <rect x="49"
         y="33"
         width="32"
         height="32"
         class="terminal"
         rx="10"/>
   <text class="terminal" x="59" y="53">in</text>
   <rect x="51" y="79" width="42" height="32" rx="10"/>
   <rect x="49"
         y="77"
         width="42"
         height="32"
         class="terminal"
         rx="10"/>
   <text class="terminal" x="59" y="97">out</text>
   <rect x="51" y="123" width="54" height="32" rx="10"/>
   <rect x="49"
         y="121"
         width="54"
         height="32"
         class="terminal"
         rx="10"/>
   <text class="terminal" x="59" y="141">inout</text>
   <rect x="51" y="167" width="74" height="32" rx="10"/>
   <rect x="49"
         y="165"
         width="74"
         height="32"
         class="terminal"
         rx="10"/>
   <text class="terminal" x="59" y="185">variadic</text>
   <a xmlns:xlink="http://www.w3.org/1999/xlink"
      xlink:href="#id"
      xlink:title="id">
      <rect x="165" y="3" width="30" height="32"/>
      <rect x="163" y="1" width="30" height="32" class="nonterminal"/>
      <text class="nonterminal" x="173" y="21">id</text>
   </a>
   <a xmlns:xlink="http://www.w3.org/1999/xlink"
      xlink:href="#parseDataType"
      xlink:title="parseDataType">
      <rect x="215" y="3" width="116" height="32"/>
      <rect x="213" y="1" width="116" height="32" class="nonterminal"/>
      <text class="nonterminal" x="223" y="21">parseDataType</text>
   </a>
   <rect x="371" y="35" width="42" height="32" rx="10"/>
   <rect x="369"
         y="33"
         width="42"
         height="32"
         class="terminal"
         rx="10"/>
   <text class="terminal" x="379" y="53">not</text>
   <rect x="433" y="35" width="44" height="32" rx="10"/>
   <rect x="431"
         y="33"
         width="44"
         height="32"
         class="terminal"
         rx="10"/>
   <text class="terminal" x="441" y="53">null</text>
   <rect x="537" y="35" width="58" height="32" rx="10"/>
   <rect x="535"
         y="33"
         width="58"
         height="32"
         class="terminal"
         rx="10"/>
   <text class="terminal" x="545" y="53">result</text>
   <rect x="655" y="35" width="68" height="32" rx="10"/>
   <rect x="653"
         y="33"
         width="68"
         height="32"
         class="terminal"
         rx="10"/>
   <text class="terminal" x="663" y="53">default</text>
   <a xmlns:xlink="http://www.w3.org/1999/xlink"
      xlink:href="#expression"
      xlink:title="expression">
      <rect x="743" y="35" width="90" height="32"/>
      <rect x="741" y="33" width="90" height="32" class="nonterminal"/>
      <text class="nonterminal" x="751" y="53">expression</text>
   </a>
   <a xmlns:xlink="http://www.w3.org/1999/xlink"
      xlink:href="#optionsClause"
      xlink:title="optionsClause">
      <rect x="717" y="253" width="110" height="32"/>
      <rect x="715" y="251" width="110" height="32" class="nonterminal"/>
      <text class="nonterminal" x="725" y="271">optionsClause</text>
   </a>
   <path class="line"
         d="m17 17 h2 m20 0 h10 m0 0 h84 m-114 0 h20 m94 0 h20 m-134 0 q10 0 10 10 m114 0 q0 -10 10 -10 m-124 10 v12 m114 0 v-12 m-114 12 q0 10 10 10 m94 0 q10 0 10 -10 m-104 10 h10 m32 0 h10 m0 0 h42 m-104 -10 v20 m114 0 v-20 m-114 20 v24 m114 0 v-24 m-114 24 q0 10 10 10 m94 0 q10 0 10 -10 m-104 10 h10 m42 0 h10 m0 0 h32 m-104 -10 v20 m114 0 v-20 m-114 20 v24 m114 0 v-24 m-114 24 q0 10 10 10 m94 0 q10 0 10 -10 m-104 10 h10 m54 0 h10 m0 0 h20 m-104 -10 v20 m114 0 v-20 m-114 20 v24 m114 0 v-24 m-114 24 q0 10 10 10 m94 0 q10 0 10 -10 m-104 10 h10 m74 0 h10 m20 -164 h10 m30 0 h10 m0 0 h10 m116 0 h10 m20 0 h10 m0 0 h116 m-146 0 h20 m126 0 h20 m-166 0 q10 0 10 10 m146 0 q0 -10 10 -10 m-156 10 v12 m146 0 v-12 m-146 12 q0 10 10 10 m126 0 q10 0 10 -10 m-136 10 h10 m42 0 h10 m0 0 h10 m44 0 h10 m40 -32 h10 m0 0 h68 m-98 0 h20 m78 0 h20 m-118 0 q10 0 10 10 m98 0 q0 -10 10 -10 m-108 10 v12 m98 0 v-12 m-98 12 q0 10 10 10 m78 0 q10 0 10 -10 m-88 10 h10 m58 0 h10 m40 -32 h10 m0 0 h188 m-218 0 h20 m198 0 h20 m-238 0 q10 0 10 10 m218 0 q0 -10 10 -10 m-228 10 v12 m218 0 v-12 m-218 12 q0 10 10 10 m198 0 q10 0 10 -10 m-208 10 h10 m68 0 h10 m0 0 h10 m90 0 h10 m22 -32 l2 0 m2 0 l2 0 m2 0 l2 0 m-200 218 l2 0 m2 0 l2 0 m2 0 l2 0 m22 0 h10 m0 0 h120 m-150 0 h20 m130 0 h20 m-170 0 q10 0 10 10 m150 0 q0 -10 10 -10 m-160 10 v12 m150 0 v-12 m-150 12 q0 10 10 10 m130 0 q10 0 10 -10 m-140 10 h10 m110 0 h10 m23 -32 h-3"/>
   <polygon points="865 235 873 231 873 239"/>
   <polygon points="865 235 857 231 857 239"/>
</svg>
