<?xml version="1.0" encoding="UTF-8"?>
<svg xmlns="http://www.w3.org/2000/svg" width="563" height="101">
   <defs>
      <style type="text/css">
    @namespace "http://www.w3.org/2000/svg";
    .line                 {fill: none; stroke: #332900; stroke-width: 1;}
    .bold-line            {stroke: #141000; shape-rendering: crispEdges; stroke-width: 2;}
    .thin-line            {stroke: #1F1800; shape-rendering: crispEdges}
    .filled               {fill: #332900; stroke: none;}
    text.terminal         {font-family: Verdana, Sans-serif;
                            font-size: 12px;
                            fill: #141000;
                            font-weight: bold;
                          }
    text.nonterminal      {font-family: Verdana, Sans-serif;
                            font-size: 12px;
                            fill: #1A1400;
                            font-weight: normal;
                          }
    text.regexp           {font-family: Verdana, Sans-serif;
                            font-size: 12px;
                            fill: #1F1800;
                            font-weight: normal;
                          }
    rect, circle, polygon {fill: #332900; stroke: #332900;}
    rect.terminal         {fill: #FFDB4D; stroke: #332900; stroke-width: 1;}
    rect.nonterminal      {fill: #FFEC9E; stroke: #332900; stroke-width: 1;}
    rect.text             {fill: none; stroke: none;}
    polygon.regexp        {fill: #FFF4C7; stroke: #332900; stroke-width: 1;}
  </style>
   </defs>
   <polygon points="9 17 1 13 1 21"/>
   <polygon points="17 17 9 13 9 21"/>
   <rect x="51" y="35" width="62" height="32" rx="10"/>
   <rect x="49"
         y="33"
         width="62"
         height="32"
         class="terminal"
         rx="10"/>
   <text class="terminal" x="59" y="53">create</text>
   <rect x="153" y="67" width="64" height="32" rx="10"/>
   <rect x="151"
         y="65"
         width="64"
         height="32"
         class="terminal"
         rx="10"/>
   <text class="terminal" x="161" y="85">virtual</text>
   <rect x="257" y="35" width="88" height="32" rx="10"/>
   <rect x="255"
         y="33"
         width="88"
         height="32"
         class="terminal"
         rx="10"/>
   <text class="terminal" x="265" y="53">procedure</text>
   <a xmlns:xlink="http://www.w3.org/1999/xlink"
      xlink:href="#statement"
      xlink:title="statement">
      <rect x="385" y="3" width="86" height="32"/>
      <rect x="383" y="1" width="86" height="32" class="nonterminal"/>
      <text class="nonterminal" x="393" y="21">statement</text>
   </a>
   <a xmlns:xlink="http://www.w3.org/1999/xlink"
      xlink:href="#EOF"
      xlink:title="EOF">
      <rect x="491" y="3" width="44" height="32"/>
      <rect x="489" y="1" width="44" height="32" class="nonterminal"/>
      <text class="nonterminal" x="499" y="21">EOF</text>
   </a>
   <path class="line"
         d="m17 17 h2 m20 0 h10 m0 0 h304 m-334 0 h20 m314 0 h20 m-354 0 q10 0 10 10 m334 0 q0 -10 10 -10 m-344 10 v12 m334 0 v-12 m-334 12 q0 10 10 10 m314 0 q10 0 10 -10 m-324 10 h10 m62 0 h10 m20 0 h10 m0 0 h74 m-104 0 h20 m84 0 h20 m-124 0 q10 0 10 10 m104 0 q0 -10 10 -10 m-114 10 v12 m104 0 v-12 m-104 12 q0 10 10 10 m84 0 q10 0 10 -10 m-94 10 h10 m64 0 h10 m20 -32 h10 m88 0 h10 m20 -32 h10 m86 0 h10 m0 0 h10 m44 0 h10 m3 0 h-3"/>
   <polygon points="553 17 561 13 561 21"/>
   <polygon points="553 17 545 13 545 21"/>
</svg>
