<?xml version="1.0" encoding="UTF-8"?>
<svg xmlns="http://www.w3.org/2000/svg" width="649" height="201">
   <defs>
      <style type="text/css">
    @namespace "http://www.w3.org/2000/svg";
    .line                 {fill: none; stroke: #332900; stroke-width: 1;}
    .bold-line            {stroke: #141000; shape-rendering: crispEdges; stroke-width: 2;}
    .thin-line            {stroke: #1F1800; shape-rendering: crispEdges}
    .filled               {fill: #332900; stroke: none;}
    text.terminal         {font-family: Verdana, Sans-serif;
                            font-size: 12px;
                            fill: #141000;
                            font-weight: bold;
                          }
    text.nonterminal      {font-family: Verdana, Sans-serif;
                            font-size: 12px;
                            fill: #1A1400;
                            font-weight: normal;
                          }
    text.regexp           {font-family: Verdana, Sans-serif;
                            font-size: 12px;
                            fill: #1F1800;
                            font-weight: normal;
                          }
    rect, circle, polygon {fill: #332900; stroke: #332900;}
    rect.terminal         {fill: #FFDB4D; stroke: #332900; stroke-width: 1;}
    rect.nonterminal      {fill: #FFEC9E; stroke: #332900; stroke-width: 1;}
    rect.text             {fill: none; stroke: none;}
    polygon.regexp        {fill: #FFF4C7; stroke: #332900; stroke-width: 1;}
  </style>
   </defs>
   <polygon points="9 17 1 13 1 21"/>
   <polygon points="17 17 9 13 9 21"/>
   <rect x="71" y="35" width="52" height="32" rx="10"/>
   <rect x="69"
         y="33"
         width="52"
         height="32"
         class="terminal"
         rx="10"/>
   <text class="terminal" x="79" y="53">right</text>
   <rect x="71" y="79" width="42" height="32" rx="10"/>
   <rect x="69"
         y="77"
         width="42"
         height="32"
         class="terminal"
         rx="10"/>
   <text class="terminal" x="79" y="97">left</text>
   <rect x="71" y="123" width="42" height="32" rx="10"/>
   <rect x="69"
         y="121"
         width="42"
         height="32"
         class="terminal"
         rx="10"/>
   <text class="terminal" x="79" y="141">full</text>
   <rect x="183" y="67" width="56" height="32" rx="10"/>
   <rect x="181"
         y="65"
         width="56"
         height="32"
         class="terminal"
         rx="10"/>
   <text class="terminal" x="191" y="85">outer</text>
   <rect x="51" y="167" width="54" height="32" rx="10"/>
   <rect x="49"
         y="165"
         width="54"
         height="32"
         class="terminal"
         rx="10"/>
   <text class="terminal" x="59" y="185">inner</text>
   <rect x="299" y="3" width="46" height="32" rx="10"/>
   <rect x="297"
         y="1"
         width="46"
         height="32"
         class="terminal"
         rx="10"/>
   <text class="terminal" x="307" y="21">join</text>
   <a xmlns:xlink="http://www.w3.org/1999/xlink"
      xlink:href="#tableReference"
      xlink:title="tableReference">
      <rect x="365" y="3" width="116" height="32"/>
      <rect x="363" y="1" width="116" height="32" class="nonterminal"/>
      <text class="nonterminal" x="373" y="21">tableReference</text>
   </a>
   <rect x="501" y="3" width="36" height="32" rx="10"/>
   <rect x="499"
         y="1"
         width="36"
         height="32"
         class="terminal"
         rx="10"/>
   <text class="terminal" x="509" y="21">on</text>
   <a xmlns:xlink="http://www.w3.org/1999/xlink"
      xlink:href="#criteria"
      xlink:title="criteria">
      <rect x="557" y="3" width="64" height="32"/>
      <rect x="555" y="1" width="64" height="32" class="nonterminal"/>
      <text class="nonterminal" x="565" y="21">criteria</text>
   </a>
   <path class="line"
         d="m17 17 h2 m20 0 h10 m0 0 h218 m-248 0 h20 m228 0 h20 m-268 0 q10 0 10 10 m248 0 q0 -10 10 -10 m-258 10 v12 m248 0 v-12 m-248 12 q0 10 10 10 m228 0 q10 0 10 -10 m-218 10 h10 m52 0 h10 m-92 0 h20 m72 0 h20 m-112 0 q10 0 10 10 m92 0 q0 -10 10 -10 m-102 10 v24 m92 0 v-24 m-92 24 q0 10 10 10 m72 0 q10 0 10 -10 m-82 10 h10 m42 0 h10 m0 0 h10 m-82 -10 v20 m92 0 v-20 m-92 20 v24 m92 0 v-24 m-92 24 q0 10 10 10 m72 0 q10 0 10 -10 m-82 10 h10 m42 0 h10 m0 0 h10 m40 -88 h10 m0 0 h66 m-96 0 h20 m76 0 h20 m-116 0 q10 0 10 10 m96 0 q0 -10 10 -10 m-106 10 v12 m96 0 v-12 m-96 12 q0 10 10 10 m76 0 q10 0 10 -10 m-86 10 h10 m56 0 h10 m-218 -42 v20 m248 0 v-20 m-248 20 v112 m248 0 v-112 m-248 112 q0 10 10 10 m228 0 q10 0 10 -10 m-238 10 h10 m54 0 h10 m0 0 h154 m20 -164 h10 m46 0 h10 m0 0 h10 m116 0 h10 m0 0 h10 m36 0 h10 m0 0 h10 m64 0 h10 m3 0 h-3"/>
   <polygon points="639 17 647 13 647 21"/>
   <polygon points="639 17 631 13 631 21"/>
</svg>
