<?xml version="1.0" encoding="UTF-8"?>
<svg xmlns="http://www.w3.org/2000/svg" width="467" height="213">
   <defs>
      <style type="text/css">
    @namespace "http://www.w3.org/2000/svg";
    .line                 {fill: none; stroke: #332900; stroke-width: 1;}
    .bold-line            {stroke: #141000; shape-rendering: crispEdges; stroke-width: 2;}
    .thin-line            {stroke: #1F1800; shape-rendering: crispEdges}
    .filled               {fill: #332900; stroke: none;}
    text.terminal         {font-family: Verdana, Sans-serif;
                            font-size: 12px;
                            fill: #141000;
                            font-weight: bold;
                          }
    text.nonterminal      {font-family: Verdana, Sans-serif;
                            font-size: 12px;
                            fill: #1A1400;
                            font-weight: normal;
                          }
    text.regexp           {font-family: Verdana, Sans-serif;
                            font-size: 12px;
                            fill: #1F1800;
                            font-weight: normal;
                          }
    rect, circle, polygon {fill: #332900; stroke: #332900;}
    rect.terminal         {fill: #FFDB4D; stroke: #332900; stroke-width: 1;}
    rect.nonterminal      {fill: #FFEC9E; stroke: #332900; stroke-width: 1;}
    rect.text             {fill: none; stroke: none;}
    polygon.regexp        {fill: #FFF4C7; stroke: #332900; stroke-width: 1;}
  </style>
   </defs>
   <polygon points="9 17 1 13 1 21"/>
   <polygon points="17 17 9 13 9 21"/>
   <a xmlns:xlink="http://www.w3.org/1999/xlink"
      xlink:href="#query"
      xlink:title="query">
      <rect x="51" y="3" width="56" height="32"/>
      <rect x="49" y="1" width="56" height="32" class="nonterminal"/>
      <text class="nonterminal" x="59" y="21">query</text>
   </a>
   <rect x="71" y="91" width="64" height="32" rx="10"/>
   <rect x="69"
         y="89"
         width="64"
         height="32"
         class="terminal"
         rx="10"/>
   <text class="terminal" x="79" y="109">values</text>
   <rect x="175" y="91" width="26" height="32" rx="10"/>
   <rect x="173"
         y="89"
         width="26"
         height="32"
         class="terminal"
         rx="10"/>
   <text class="terminal" x="183" y="109">(</text>
   <a xmlns:xlink="http://www.w3.org/1999/xlink"
      xlink:href="#expressionList"
      xlink:title="expressionList">
      <rect x="221" y="91" width="112" height="32"/>
      <rect x="219" y="89" width="112" height="32" class="nonterminal"/>
      <text class="nonterminal" x="229" y="109">expressionList</text>
   </a>
   <rect x="175" y="47" width="24" height="32" rx="10"/>
   <rect x="173"
         y="45"
         width="24"
         height="32"
         class="terminal"
         rx="10"/>
   <text class="terminal" x="183" y="65">,</text>
   <rect x="219" y="47" width="26" height="32" rx="10"/>
   <rect x="217"
         y="45"
         width="26"
         height="32"
         class="terminal"
         rx="10"/>
   <text class="terminal" x="227" y="65">)</text>
   <rect x="71" y="135" width="26" height="32" rx="10"/>
   <rect x="69"
         y="133"
         width="26"
         height="32"
         class="terminal"
         rx="10"/>
   <text class="terminal" x="79" y="153">(</text>
   <a xmlns:xlink="http://www.w3.org/1999/xlink"
      xlink:href="#queryExpressionBody"
      xlink:title="queryExpressionBody">
      <rect x="117" y="135" width="156" height="32"/>
      <rect x="115" y="133" width="156" height="32" class="nonterminal"/>
      <text class="nonterminal" x="125" y="153">queryExpressionBody</text>
   </a>
   <rect x="393" y="91" width="26" height="32" rx="10"/>
   <rect x="391"
         y="89"
         width="26"
         height="32"
         class="terminal"
         rx="10"/>
   <text class="terminal" x="401" y="109">)</text>
   <rect x="51" y="179" width="54" height="32" rx="10"/>
   <rect x="49"
         y="177"
         width="54"
         height="32"
         class="terminal"
         rx="10"/>
   <text class="terminal" x="59" y="197">table</text>
   <a xmlns:xlink="http://www.w3.org/1999/xlink"
      xlink:href="#id"
      xlink:title="id">
      <rect x="125" y="179" width="30" height="32"/>
      <rect x="123" y="177" width="30" height="32" class="nonterminal"/>
      <text class="nonterminal" x="133" y="197">id</text>
   </a>
   <path class="line"
         d="m17 17 h2 m20 0 h10 m56 0 h10 m0 0 h312 m-408 0 h20 m388 0 h20 m-428 0 q10 0 10 10 m408 0 q0 -10 10 -10 m-418 10 v68 m408 0 v-68 m-408 68 q0 10 10 10 m388 0 q10 0 10 -10 m-378 10 h10 m64 0 h10 m20 0 h10 m26 0 h10 m0 0 h10 m112 0 h10 m-198 0 l20 0 m-1 0 q-9 0 -9 -10 l0 -24 q0 -10 10 -10 m178 44 l20 0 m-20 0 q10 0 10 -10 l0 -24 q0 -10 -10 -10 m-178 0 h10 m24 0 h10 m0 0 h10 m26 0 h10 m0 0 h88 m-302 44 h20 m302 0 h20 m-342 0 q10 0 10 10 m322 0 q0 -10 10 -10 m-332 10 v24 m322 0 v-24 m-322 24 q0 10 10 10 m302 0 q10 0 10 -10 m-312 10 h10 m26 0 h10 m0 0 h10 m156 0 h10 m0 0 h80 m20 -44 h10 m26 0 h10 m-398 -10 v20 m408 0 v-20 m-408 20 v68 m408 0 v-68 m-408 68 q0 10 10 10 m388 0 q10 0 10 -10 m-398 10 h10 m54 0 h10 m0 0 h10 m30 0 h10 m0 0 h264 m23 -176 h-3"/>
   <polygon points="457 17 465 13 465 21"/>
   <polygon points="457 17 449 13 449 21"/>
</svg>
