<?xml version="1.0" encoding="UTF-8"?>
<svg xmlns="http://www.w3.org/2000/svg" width="617" height="69">
   <defs>
      <style type="text/css">
    @namespace "http://www.w3.org/2000/svg";
    .line                 {fill: none; stroke: #332900; stroke-width: 1;}
    .bold-line            {stroke: #141000; shape-rendering: crispEdges; stroke-width: 2;}
    .thin-line            {stroke: #1F1800; shape-rendering: crispEdges}
    .filled               {fill: #332900; stroke: none;}
    text.terminal         {font-family: Verdana, Sans-serif;
                            font-size: 12px;
                            fill: #141000;
                            font-weight: bold;
                          }
    text.nonterminal      {font-family: Verdana, Sans-serif;
                            font-size: 12px;
                            fill: #1A1400;
                            font-weight: normal;
                          }
    text.regexp           {font-family: Verdana, Sans-serif;
                            font-size: 12px;
                            fill: #1F1800;
                            font-weight: normal;
                          }
    rect, circle, polygon {fill: #332900; stroke: #332900;}
    rect.terminal         {fill: #FFDB4D; stroke: #332900; stroke-width: 1;}
    rect.nonterminal      {fill: #FFEC9E; stroke: #332900; stroke-width: 1;}
    rect.text             {fill: none; stroke: none;}
    polygon.regexp        {fill: #FFF4C7; stroke: #332900; stroke-width: 1;}
  </style>
   </defs>
   <polygon points="9 33 1 29 1 37"/>
   <polygon points="17 33 9 29 9 37"/>
   <rect x="31" y="19" width="98" height="32" rx="10"/>
   <rect x="29"
         y="17"
         width="98"
         height="32"
         class="terminal"
         rx="10"/>
   <text class="terminal" x="39" y="37">querystring</text>
   <rect x="149" y="19" width="26" height="32" rx="10"/>
   <rect x="147"
         y="17"
         width="26"
         height="32"
         class="terminal"
         rx="10"/>
   <text class="terminal" x="157" y="37">(</text>
   <a xmlns:xlink="http://www.w3.org/1999/xlink"
      xlink:href="#expression"
      xlink:title="expression">
      <rect x="195" y="19" width="90" height="32"/>
      <rect x="193" y="17" width="90" height="32" class="nonterminal"/>
      <text class="nonterminal" x="203" y="37">expression</text>
   </a>
   <rect x="345" y="19" width="24" height="32" rx="10"/>
   <rect x="343"
         y="17"
         width="24"
         height="32"
         class="terminal"
         rx="10"/>
   <text class="terminal" x="353" y="37">,</text>
   <a xmlns:xlink="http://www.w3.org/1999/xlink"
      xlink:href="#derivedColumn"
      xlink:title="derivedColumn">
      <rect x="389" y="19" width="114" height="32"/>
      <rect x="387" y="17" width="114" height="32" class="nonterminal"/>
      <text class="nonterminal" x="397" y="37">derivedColumn</text>
   </a>
   <rect x="563" y="19" width="26" height="32" rx="10"/>
   <rect x="561"
         y="17"
         width="26"
         height="32"
         class="terminal"
         rx="10"/>
   <text class="terminal" x="571" y="37">)</text>
   <path class="line"
         d="m17 33 h2 m0 0 h10 m98 0 h10 m0 0 h10 m26 0 h10 m0 0 h10 m90 0 h10 m40 0 h10 m24 0 h10 m0 0 h10 m114 0 h10 m-198 0 l20 0 m-1 0 q-9 0 -9 -10 l0 -12 q0 -10 10 -10 m178 32 l20 0 m-20 0 q10 0 10 -10 l0 -12 q0 -10 -10 -10 m-178 0 h10 m0 0 h168 m-218 32 h20 m218 0 h20 m-258 0 q10 0 10 10 m238 0 q0 -10 10 -10 m-248 10 v14 m238 0 v-14 m-238 14 q0 10 10 10 m218 0 q10 0 10 -10 m-228 10 h10 m0 0 h208 m20 -34 h10 m26 0 h10 m3 0 h-3"/>
   <polygon points="607 33 615 29 615 37"/>
   <polygon points="607 33 599 29 599 37"/>
</svg>
