<?xml version="1.0" encoding="UTF-8"?>
<svg xmlns="http://www.w3.org/2000/svg" width="505" height="97">
   <defs>
      <style type="text/css">
    @namespace "http://www.w3.org/2000/svg";
    .line                 {fill: none; stroke: #332900; stroke-width: 1;}
    .bold-line            {stroke: #141000; shape-rendering: crispEdges; stroke-width: 2;}
    .thin-line            {stroke: #1F1800; shape-rendering: crispEdges}
    .filled               {fill: #332900; stroke: none;}
    text.terminal         {font-family: Verdana, Sans-serif;
                            font-size: 12px;
                            fill: #141000;
                            font-weight: bold;
                          }
    text.nonterminal      {font-family: Verdana, Sans-serif;
                            font-size: 12px;
                            fill: #1A1400;
                            font-weight: normal;
                          }
    text.regexp           {font-family: Verdana, Sans-serif;
                            font-size: 12px;
                            fill: #1F1800;
                            font-weight: normal;
                          }
    rect, circle, polygon {fill: #332900; stroke: #332900;}
    rect.terminal         {fill: #FFDB4D; stroke: #332900; stroke-width: 1;}
    rect.nonterminal      {fill: #FFEC9E; stroke: #332900; stroke-width: 1;}
    rect.text             {fill: none; stroke: none;}
    polygon.regexp        {fill: #FFF4C7; stroke: #332900; stroke-width: 1;}
  </style>
   </defs>
   <polygon points="9 61 1 57 1 65"/>
   <polygon points="17 61 9 57 9 65"/>
   <rect x="51" y="47" width="50" height="32" rx="10"/>
   <rect x="49"
         y="45"
         width="50"
         height="32"
         class="terminal"
         rx="10"/>
   <text class="terminal" x="59" y="65">with</text>
   <a xmlns:xlink="http://www.w3.org/1999/xlink"
      xlink:href="#withListElement"
      xlink:title="withListElement">
      <rect x="141" y="47" width="120" height="32"/>
      <rect x="139" y="45" width="120" height="32" class="nonterminal"/>
      <text class="nonterminal" x="149" y="65">withListElement</text>
   </a>
   <rect x="141" y="3" width="24" height="32" rx="10"/>
   <rect x="139"
         y="1"
         width="24"
         height="32"
         class="terminal"
         rx="10"/>
   <text class="terminal" x="149" y="21">,</text>
   <a xmlns:xlink="http://www.w3.org/1999/xlink"
      xlink:href="#queryExpressionBody"
      xlink:title="queryExpressionBody">
      <rect x="321" y="47" width="156" height="32"/>
      <rect x="319" y="45" width="156" height="32" class="nonterminal"/>
      <text class="nonterminal" x="329" y="65">queryExpressionBody</text>
   </a>
   <path class="line"
         d="m17 61 h2 m20 0 h10 m50 0 h10 m20 0 h10 m120 0 h10 m-160 0 l20 0 m-1 0 q-9 0 -9 -10 l0 -24 q0 -10 10 -10 m140 44 l20 0 m-20 0 q10 0 10 -10 l0 -24 q0 -10 -10 -10 m-140 0 h10 m24 0 h10 m0 0 h96 m-250 44 h20 m250 0 h20 m-290 0 q10 0 10 10 m270 0 q0 -10 10 -10 m-280 10 v14 m270 0 v-14 m-270 14 q0 10 10 10 m250 0 q10 0 10 -10 m-260 10 h10 m0 0 h240 m20 -34 h10 m156 0 h10 m3 0 h-3"/>
   <polygon points="495 61 503 57 503 65"/>
   <polygon points="495 61 487 57 487 65"/>
</svg>
