<?xml version="1.0" encoding="UTF-8"?>
<svg xmlns="http://www.w3.org/2000/svg" width="687" height="189">
   <defs>
      <style type="text/css">
    @namespace "http://www.w3.org/2000/svg";
    .line                 {fill: none; stroke: #332900; stroke-width: 1;}
    .bold-line            {stroke: #141000; shape-rendering: crispEdges; stroke-width: 2;}
    .thin-line            {stroke: #1F1800; shape-rendering: crispEdges}
    .filled               {fill: #332900; stroke: none;}
    text.terminal         {font-family: Verdana, Sans-serif;
                            font-size: 12px;
                            fill: #141000;
                            font-weight: bold;
                          }
    text.nonterminal      {font-family: Verdana, Sans-serif;
                            font-size: 12px;
                            fill: #1A1400;
                            font-weight: normal;
                          }
    text.regexp           {font-family: Verdana, Sans-serif;
                            font-size: 12px;
                            fill: #1F1800;
                            font-weight: normal;
                          }
    rect, circle, polygon {fill: #332900; stroke: #332900;}
    rect.terminal         {fill: #FFDB4D; stroke: #332900; stroke-width: 1;}
    rect.nonterminal      {fill: #FFEC9E; stroke: #332900; stroke-width: 1;}
    rect.text             {fill: none; stroke: none;}
    polygon.regexp        {fill: #FFF4C7; stroke: #332900; stroke-width: 1;}
  </style>
   </defs>
   <polygon points="9 137 1 133 1 141"/>
   <polygon points="17 137 9 133 9 141"/>
   <a xmlns:xlink="http://www.w3.org/1999/xlink"
      xlink:href="#queryTerm"
      xlink:title="queryTerm">
      <rect x="51" y="123" width="88" height="32"/>
      <rect x="49" y="121" width="88" height="32" class="nonterminal"/>
      <text class="nonterminal" x="59" y="141">queryTerm</text>
   </a>
   <rect x="71" y="35" width="36" height="32" rx="10"/>
   <rect x="69"
         y="33"
         width="36"
         height="32"
         class="terminal"
         rx="10"/>
   <text class="terminal" x="79" y="53">all</text>
   <rect x="71" y="79" width="70" height="32" rx="10"/>
   <rect x="69"
         y="77"
         width="70"
         height="32"
         class="terminal"
         rx="10"/>
   <text class="terminal" x="79" y="97">distinct</text>
   <rect x="201" y="3" width="58" height="32" rx="10"/>
   <rect x="199"
         y="1"
         width="58"
         height="32"
         class="terminal"
         rx="10"/>
   <text class="terminal" x="209" y="21">union</text>
   <rect x="201" y="47" width="64" height="32" rx="10"/>
   <rect x="199"
         y="45"
         width="64"
         height="32"
         class="terminal"
         rx="10"/>
   <text class="terminal" x="209" y="65">except</text>
   <a xmlns:xlink="http://www.w3.org/1999/xlink"
      xlink:href="#orderby"
      xlink:title="orderby">
      <rect x="345" y="155" width="68" height="32"/>
      <rect x="343" y="153" width="68" height="32" class="nonterminal"/>
      <text class="nonterminal" x="353" y="173">orderby</text>
   </a>
   <a xmlns:xlink="http://www.w3.org/1999/xlink"
      xlink:href="#limit"
      xlink:title="limit">
      <rect x="473" y="155" width="46" height="32"/>
      <rect x="471" y="153" width="46" height="32" class="nonterminal"/>
      <text class="nonterminal" x="481" y="173">limit</text>
   </a>
   <a xmlns:xlink="http://www.w3.org/1999/xlink"
      xlink:href="#option"
      xlink:title="option">
      <rect x="579" y="155" width="60" height="32"/>
      <rect x="577" y="153" width="60" height="32" class="nonterminal"/>
      <text class="nonterminal" x="587" y="173">option</text>
   </a>
   <path class="line"
         d="m17 137 h2 m20 0 h10 m88 0 h10 m0 0 h146 m-274 0 l20 0 m-1 0 q-9 0 -9 -10 l0 -100 q0 -10 10 -10 m254 120 l20 0 m-20 0 q10 0 10 -10 l0 -100 q0 -10 -10 -10 m-234 0 h10 m0 0 h80 m-110 0 h20 m90 0 h20 m-130 0 q10 0 10 10 m110 0 q0 -10 10 -10 m-120 10 v12 m110 0 v-12 m-110 12 q0 10 10 10 m90 0 q10 0 10 -10 m-100 10 h10 m36 0 h10 m0 0 h34 m-100 -10 v20 m110 0 v-20 m-110 20 v24 m110 0 v-24 m-110 24 q0 10 10 10 m90 0 q10 0 10 -10 m-100 10 h10 m70 0 h10 m40 -76 h10 m58 0 h10 m0 0 h6 m-104 0 h20 m84 0 h20 m-124 0 q10 0 10 10 m104 0 q0 -10 10 -10 m-114 10 v24 m104 0 v-24 m-104 24 q0 10 10 10 m84 0 q10 0 10 -10 m-94 10 h10 m64 0 h10 m60 76 h10 m0 0 h78 m-108 0 h20 m88 0 h20 m-128 0 q10 0 10 10 m108 0 q0 -10 10 -10 m-118 10 v12 m108 0 v-12 m-108 12 q0 10 10 10 m88 0 q10 0 10 -10 m-98 10 h10 m68 0 h10 m40 -32 h10 m0 0 h56 m-86 0 h20 m66 0 h20 m-106 0 q10 0 10 10 m86 0 q0 -10 10 -10 m-96 10 v12 m86 0 v-12 m-86 12 q0 10 10 10 m66 0 q10 0 10 -10 m-76 10 h10 m46 0 h10 m40 -32 h10 m0 0 h70 m-100 0 h20 m80 0 h20 m-120 0 q10 0 10 10 m100 0 q0 -10 10 -10 m-110 10 v12 m100 0 v-12 m-100 12 q0 10 10 10 m80 0 q10 0 10 -10 m-90 10 h10 m60 0 h10 m23 -32 h-3"/>
   <polygon points="677 137 685 133 685 141"/>
   <polygon points="677 137 669 133 669 141"/>
</svg>
