<?xml version="1.0" encoding="UTF-8"?>
<svg xmlns="http://www.w3.org/2000/svg" width="327" height="147">
   <defs>
      <style type="text/css">
    @namespace "http://www.w3.org/2000/svg";
    .line                 {fill: none; stroke: #332900; stroke-width: 1;}
    .bold-line            {stroke: #141000; shape-rendering: crispEdges; stroke-width: 2;}
    .thin-line            {stroke: #1F1800; shape-rendering: crispEdges}
    .filled               {fill: #332900; stroke: none;}
    text.terminal         {font-family: Verdana, Sans-serif;
                            font-size: 12px;
                            fill: #141000;
                            font-weight: bold;
                          }
    text.nonterminal      {font-family: Verdana, Sans-serif;
                            font-size: 12px;
                            fill: #1A1400;
                            font-weight: normal;
                          }
    text.regexp           {font-family: Verdana, Sans-serif;
                            font-size: 12px;
                            fill: #1F1800;
                            font-weight: normal;
                          }
    rect, circle, polygon {fill: #332900; stroke: #332900;}
    rect.terminal         {fill: #FFDB4D; stroke: #332900; stroke-width: 1;}
    rect.nonterminal      {fill: #FFEC9E; stroke: #332900; stroke-width: 1;}
    rect.text             {fill: none; stroke: none;}
    polygon.regexp        {fill: #FFF4C7; stroke: #332900; stroke-width: 1;}
  </style>
   </defs>
   <polygon points="9 17 1 13 1 21"/>
   <polygon points="17 17 9 13 9 21"/>
   <a xmlns:xlink="http://www.w3.org/1999/xlink"
      xlink:href="#ID_PART"
      xlink:title="ID_PART">
      <rect x="51" y="3" width="74" height="32"/>
      <rect x="49" y="1" width="74" height="32" class="nonterminal"/>
      <text class="nonterminal" x="59" y="21">ID_PART</text>
   </a>
   <rect x="51" y="69" width="26" height="32" rx="10"/>
   <rect x="49"
         y="67"
         width="26"
         height="32"
         class="terminal"
         rx="10"/>
   <text class="terminal" x="59" y="87">"</text>
   <rect x="137" y="69" width="34" height="32" rx="10"/>
   <rect x="135"
         y="67"
         width="34"
         height="32"
         class="terminal"
         rx="10"/>
   <text class="terminal" x="145" y="87">""</text>
   <polygon points="137 129 144 113 186 113 193 129 186 145 144 145"/>
   <polygon points="135 127 142 111 184 111 191 127 184 143 142 143" class="regexp"/>
   <text class="regexp" x="150" y="131">[^"]</text>
   <rect x="253" y="69" width="26" height="32" rx="10"/>
   <rect x="251"
         y="67"
         width="26"
         height="32"
         class="terminal"
         rx="10"/>
   <text class="terminal" x="261" y="87">"</text>
   <path class="line"
         d="m17 17 h2 m20 0 h10 m74 0 h10 m0 0 h154 m-268 0 h20 m248 0 h20 m-288 0 q10 0 10 10 m268 0 q0 -10 10 -10 m-278 10 v46 m268 0 v-46 m-268 46 q0 10 10 10 m248 0 q10 0 10 -10 m-258 10 h10 m26 0 h10 m40 0 h10 m34 0 h10 m0 0 h22 m-96 0 h20 m76 0 h20 m-116 0 q10 0 10 10 m96 0 q0 -10 10 -10 m-106 10 v24 m96 0 v-24 m-96 24 q0 10 10 10 m76 0 q10 0 10 -10 m-86 10 h10 m56 0 h10 m-116 -44 l20 0 m-1 0 q-9 0 -9 -10 l0 -12 q0 -10 10 -10 m116 32 l20 0 m-20 0 q10 0 10 -10 l0 -12 q0 -10 -10 -10 m-116 0 h10 m0 0 h106 m20 32 h10 m26 0 h10 m23 -66 h-3"/>
   <polygon points="317 17 325 13 325 21"/>
   <polygon points="317 17 309 13 309 21"/>
</svg>
