<?xml version="1.0" encoding="UTF-8"?>
<svg xmlns="http://www.w3.org/2000/svg" width="391" height="125">
   <defs>
      <style type="text/css">
    @namespace "http://www.w3.org/2000/svg";
    .line                 {fill: none; stroke: #332900; stroke-width: 1;}
    .bold-line            {stroke: #141000; shape-rendering: crispEdges; stroke-width: 2;}
    .thin-line            {stroke: #1F1800; shape-rendering: crispEdges}
    .filled               {fill: #332900; stroke: none;}
    text.terminal         {font-family: Verdana, Sans-serif;
                            font-size: 12px;
                            fill: #141000;
                            font-weight: bold;
                          }
    text.nonterminal      {font-family: Verdana, Sans-serif;
                            font-size: 12px;
                            fill: #1A1400;
                            font-weight: normal;
                          }
    text.regexp           {font-family: Verdana, Sans-serif;
                            font-size: 12px;
                            fill: #1F1800;
                            font-weight: normal;
                          }
    rect, circle, polygon {fill: #332900; stroke: #332900;}
    rect.terminal         {fill: #FFDB4D; stroke: #332900; stroke-width: 1;}
    rect.nonterminal      {fill: #FFEC9E; stroke: #332900; stroke-width: 1;}
    rect.text             {fill: none; stroke: none;}
    polygon.regexp        {fill: #FFF4C7; stroke: #332900; stroke-width: 1;}
  </style>
   </defs>
   <polygon points="9 17 1 13 1 21"/>
   <polygon points="17 17 9 13 9 21"/>
   <rect x="51" y="3" width="44" height="32" rx="10"/>
   <rect x="49"
         y="1"
         width="44"
         height="32"
         class="terminal"
         rx="10"/>
   <text class="terminal" x="59" y="21">any</text>
   <rect x="115" y="3" width="112" height="32" rx="10"/>
   <rect x="113"
         y="1"
         width="112"
         height="32"
         class="terminal"
         rx="10"/>
   <text class="terminal" x="123" y="21">authenticated</text>
   <rect x="71" y="47" width="48" height="32" rx="10"/>
   <rect x="69"
         y="45"
         width="48"
         height="32"
         class="terminal"
         rx="10"/>
   <text class="terminal" x="79" y="65">jaas</text>
   <rect x="71" y="91" width="68" height="32" rx="10"/>
   <rect x="69"
         y="89"
         width="68"
         height="32"
         class="terminal"
         rx="10"/>
   <text class="terminal" x="79" y="109">foreign</text>
   <rect x="179" y="47" width="46" height="32" rx="10"/>
   <rect x="177"
         y="45"
         width="46"
         height="32"
         class="terminal"
         rx="10"/>
   <text class="terminal" x="187" y="65">role</text>
   <a xmlns:xlink="http://www.w3.org/1999/xlink"
      xlink:href="#identifierList"
      xlink:title="identifierList">
      <rect x="245" y="47" width="98" height="32"/>
      <rect x="243" y="45" width="98" height="32" class="nonterminal"/>
      <text class="nonterminal" x="253" y="65">identifierList</text>
   </a>
   <path class="line"
         d="m17 17 h2 m20 0 h10 m44 0 h10 m0 0 h10 m112 0 h10 m0 0 h116 m-332 0 h20 m312 0 h20 m-352 0 q10 0 10 10 m332 0 q0 -10 10 -10 m-342 10 v24 m332 0 v-24 m-332 24 q0 10 10 10 m312 0 q10 0 10 -10 m-302 10 h10 m48 0 h10 m0 0 h20 m-108 0 h20 m88 0 h20 m-128 0 q10 0 10 10 m108 0 q0 -10 10 -10 m-118 10 v24 m108 0 v-24 m-108 24 q0 10 10 10 m88 0 q10 0 10 -10 m-98 10 h10 m68 0 h10 m20 -44 h10 m46 0 h10 m0 0 h10 m98 0 h10 m23 -44 h-3"/>
   <polygon points="381 17 389 13 389 21"/>
   <polygon points="381 17 373 13 373 21"/>
</svg>
