<?xml version="1.0" encoding="UTF-8"?>
<svg xmlns="http://www.w3.org/2000/svg" width="953" height="421">
   <defs>
      <style type="text/css">
    @namespace "http://www.w3.org/2000/svg";
    .line                 {fill: none; stroke: #332900; stroke-width: 1;}
    .bold-line            {stroke: #141000; shape-rendering: crispEdges; stroke-width: 2;}
    .thin-line            {stroke: #1F1800; shape-rendering: crispEdges}
    .filled               {fill: #332900; stroke: none;}
    text.terminal         {font-family: Verdana, Sans-serif;
                            font-size: 12px;
                            fill: #141000;
                            font-weight: bold;
                          }
    text.nonterminal      {font-family: Verdana, Sans-serif;
                            font-size: 12px;
                            fill: #1A1400;
                            font-weight: normal;
                          }
    text.regexp           {font-family: Verdana, Sans-serif;
                            font-size: 12px;
                            fill: #1F1800;
                            font-weight: normal;
                          }
    rect, circle, polygon {fill: #332900; stroke: #332900;}
    rect.terminal         {fill: #FFDB4D; stroke: #332900; stroke-width: 1;}
    rect.nonterminal      {fill: #FFEC9E; stroke: #332900; stroke-width: 1;}
    rect.text             {fill: none; stroke: none;}
    polygon.regexp        {fill: #FFF4C7; stroke: #332900; stroke-width: 1;}
  </style>
   </defs>
   <polygon points="9 61 1 57 1 65"/>
   <polygon points="17 61 9 57 9 65"/>
   <rect x="31" y="47" width="74" height="32" rx="10"/>
   <rect x="29"
         y="45"
         width="74"
         height="32"
         class="terminal"
         rx="10"/>
   <text class="terminal" x="39" y="65">REVOKE</text>
   <a xmlns:xlink="http://www.w3.org/1999/xlink"
      xlink:href="#readGrantTypes"
      xlink:title="readGrantTypes">
      <rect x="185" y="47" width="122" height="32"/>
      <rect x="183" y="45" width="122" height="32" class="nonterminal"/>
      <text class="nonterminal" x="193" y="65">readGrantTypes</text>
   </a>
   <rect x="185" y="3" width="24" height="32" rx="10"/>
   <rect x="183"
         y="1"
         width="24"
         height="32"
         class="terminal"
         rx="10"/>
   <text class="terminal" x="193" y="21">,</text>
   <rect x="367" y="47" width="36" height="32" rx="10"/>
   <rect x="365"
         y="45"
         width="36"
         height="32"
         class="terminal"
         rx="10"/>
   <text class="terminal" x="375" y="65">on</text>
   <rect x="463" y="47" width="54" height="32" rx="10"/>
   <rect x="461"
         y="45"
         width="54"
         height="32"
         class="terminal"
         rx="10"/>
   <text class="terminal" x="471" y="65">table</text>
   <rect x="463" y="91" width="88" height="32" rx="10"/>
   <rect x="461"
         y="89"
         width="88"
         height="32"
         class="terminal"
         rx="10"/>
   <text class="terminal" x="471" y="109">procedure</text>
   <a xmlns:xlink="http://www.w3.org/1999/xlink"
      xlink:href="#id"
      xlink:title="id">
      <rect x="591" y="47" width="30" height="32"/>
      <rect x="589" y="45" width="30" height="32" class="nonterminal"/>
      <text class="nonterminal" x="599" y="65">id</text>
   </a>
   <rect x="661" y="79" width="82" height="32" rx="10"/>
   <rect x="659"
         y="77"
         width="82"
         height="32"
         class="terminal"
         rx="10"/>
   <text class="terminal" x="669" y="97">condition</text>
   <rect x="463" y="135" width="74" height="32" rx="10"/>
   <rect x="461"
         y="133"
         width="74"
         height="32"
         class="terminal"
         rx="10"/>
   <text class="terminal" x="471" y="153">function</text>
   <rect x="463" y="179" width="70" height="32" rx="10"/>
   <rect x="461"
         y="177"
         width="70"
         height="32"
         class="terminal"
         rx="10"/>
   <text class="terminal" x="471" y="197">schema</text>
   <a xmlns:xlink="http://www.w3.org/1999/xlink"
      xlink:href="#id"
      xlink:title="id">
      <rect x="577" y="135" width="30" height="32"/>
      <rect x="575" y="133" width="30" height="32" class="nonterminal"/>
      <text class="nonterminal" x="585" y="153">id</text>
   </a>
   <rect x="443" y="223" width="68" height="32" rx="10"/>
   <rect x="441"
         y="221"
         width="68"
         height="32"
         class="terminal"
         rx="10"/>
   <text class="terminal" x="451" y="241">column</text>
   <a xmlns:xlink="http://www.w3.org/1999/xlink"
      xlink:href="#id"
      xlink:title="id">
      <rect x="531" y="223" width="30" height="32"/>
      <rect x="529" y="221" width="30" height="32" class="nonterminal"/>
      <text class="nonterminal" x="539" y="241">id</text>
   </a>
   <rect x="601" y="255" width="56" height="32" rx="10"/>
   <rect x="599"
         y="253"
         width="56"
         height="32"
         class="terminal"
         rx="10"/>
   <text class="terminal" x="609" y="273">mask</text>
   <rect x="145" y="299" width="36" height="32" rx="10"/>
   <rect x="143"
         y="297"
         width="36"
         height="32"
         class="terminal"
         rx="10"/>
   <text class="terminal" x="153" y="317">all</text>
   <rect x="201" y="299" width="86" height="32" rx="10"/>
   <rect x="199"
         y="297"
         width="86"
         height="32"
         class="terminal"
         rx="10"/>
   <text class="terminal" x="209" y="317">privileges</text>
   <rect x="145" y="343" width="90" height="32" rx="10"/>
   <rect x="143"
         y="341"
         width="90"
         height="32"
         class="terminal"
         rx="10"/>
   <text class="terminal" x="153" y="361">temporary</text>
   <rect x="255" y="343" width="54" height="32" rx="10"/>
   <rect x="253"
         y="341"
         width="54"
         height="32"
         class="terminal"
         rx="10"/>
   <text class="terminal" x="263" y="361">table</text>
   <rect x="145" y="387" width="60" height="32" rx="10"/>
   <rect x="143"
         y="385"
         width="60"
         height="32"
         class="terminal"
         rx="10"/>
   <text class="terminal" x="153" y="405">usage</text>
   <rect x="225" y="387" width="36" height="32" rx="10"/>
   <rect x="223"
         y="385"
         width="36"
         height="32"
         class="terminal"
         rx="10"/>
   <text class="terminal" x="233" y="405">on</text>
   <rect x="281" y="387" width="82" height="32" rx="10"/>
   <rect x="279"
         y="385"
         width="82"
         height="32"
         class="terminal"
         rx="10"/>
   <text class="terminal" x="289" y="405">language</text>
   <a xmlns:xlink="http://www.w3.org/1999/xlink"
      xlink:href="#id"
      xlink:title="id">
      <rect x="383" y="387" width="30" height="32"/>
      <rect x="381" y="385" width="30" height="32" class="nonterminal"/>
      <text class="nonterminal" x="391" y="405">id</text>
   </a>
   <rect x="823" y="47" width="52" height="32" rx="10"/>
   <rect x="821"
         y="45"
         width="52"
         height="32"
         class="terminal"
         rx="10"/>
   <text class="terminal" x="831" y="65">from</text>
   <a xmlns:xlink="http://www.w3.org/1999/xlink"
      xlink:href="#id"
      xlink:title="id">
      <rect x="895" y="47" width="30" height="32"/>
      <rect x="893" y="45" width="30" height="32" class="nonterminal"/>
      <text class="nonterminal" x="903" y="65">id</text>
   </a>
   <path class="line"
         d="m17 61 h2 m0 0 h10 m74 0 h10 m60 0 h10 m122 0 h10 m-162 0 l20 0 m-1 0 q-9 0 -9 -10 l0 -24 q0 -10 10 -10 m142 44 l20 0 m-20 0 q10 0 10 -10 l0 -24 q0 -10 -10 -10 m-142 0 h10 m24 0 h10 m0 0 h98 m-182 44 h20 m182 0 h20 m-222 0 q10 0 10 10 m202 0 q0 -10 10 -10 m-212 10 v14 m202 0 v-14 m-202 14 q0 10 10 10 m182 0 q10 0 10 -10 m-192 10 h10 m0 0 h172 m20 -34 h10 m36 0 h10 m40 0 h10 m54 0 h10 m0 0 h34 m-128 0 h20 m108 0 h20 m-148 0 q10 0 10 10 m128 0 q0 -10 10 -10 m-138 10 v24 m128 0 v-24 m-128 24 q0 10 10 10 m108 0 q10 0 10 -10 m-118 10 h10 m88 0 h10 m20 -44 h10 m30 0 h10 m20 0 h10 m0 0 h92 m-122 0 h20 m102 0 h20 m-142 0 q10 0 10 10 m122 0 q0 -10 10 -10 m-132 10 v12 m122 0 v-12 m-122 12 q0 10 10 10 m102 0 q10 0 10 -10 m-112 10 h10 m82 0 h10 m-340 -32 h20 m340 0 h20 m-380 0 q10 0 10 10 m360 0 q0 -10 10 -10 m-370 10 v68 m360 0 v-68 m-360 68 q0 10 10 10 m340 0 q10 0 10 -10 m-330 10 h10 m74 0 h10 m-114 0 h20 m94 0 h20 m-134 0 q10 0 10 10 m114 0 q0 -10 10 -10 m-124 10 v24 m114 0 v-24 m-114 24 q0 10 10 10 m94 0 q10 0 10 -10 m-104 10 h10 m70 0 h10 m0 0 h4 m20 -44 h10 m30 0 h10 m0 0 h156 m-350 -10 v20 m360 0 v-20 m-360 20 v68 m360 0 v-68 m-360 68 q0 10 10 10 m340 0 q10 0 10 -10 m-350 10 h10 m68 0 h10 m0 0 h10 m30 0 h10 m20 0 h10 m0 0 h66 m-96 0 h20 m76 0 h20 m-116 0 q10 0 10 10 m96 0 q0 -10 10 -10 m-106 10 v12 m96 0 v-12 m-96 12 q0 10 10 10 m76 0 q10 0 10 -10 m-86 10 h10 m56 0 h10 m20 -32 h86 m-658 -176 h20 m658 0 h20 m-698 0 q10 0 10 10 m678 0 q0 -10 10 -10 m-688 10 v232 m678 0 v-232 m-678 232 q0 10 10 10 m658 0 q10 0 10 -10 m-668 10 h10 m36 0 h10 m0 0 h10 m86 0 h10 m0 0 h496 m-668 -10 v20 m678 0 v-20 m-678 20 v24 m678 0 v-24 m-678 24 q0 10 10 10 m658 0 q10 0 10 -10 m-668 10 h10 m90 0 h10 m0 0 h10 m54 0 h10 m0 0 h474 m-668 -10 v20 m678 0 v-20 m-678 20 v24 m678 0 v-24 m-678 24 q0 10 10 10 m658 0 q10 0 10 -10 m-668 10 h10 m60 0 h10 m0 0 h10 m36 0 h10 m0 0 h10 m82 0 h10 m0 0 h10 m30 0 h10 m0 0 h370 m20 -340 h10 m52 0 h10 m0 0 h10 m30 0 h10 m3 0 h-3"/>
   <polygon points="943 61 951 57 951 65"/>
   <polygon points="943 61 935 57 935 65"/>
</svg>
