<?xml version="1.0" encoding="UTF-8"?>
<svg xmlns="http://www.w3.org/2000/svg" width="457" height="113">
   <defs>
      <style type="text/css">
    @namespace "http://www.w3.org/2000/svg";
    .line                 {fill: none; stroke: #332900; stroke-width: 1;}
    .bold-line            {stroke: #141000; shape-rendering: crispEdges; stroke-width: 2;}
    .thin-line            {stroke: #1F1800; shape-rendering: crispEdges}
    .filled               {fill: #332900; stroke: none;}
    text.terminal         {font-family: Verdana, Sans-serif;
                            font-size: 12px;
                            fill: #141000;
                            font-weight: bold;
                          }
    text.nonterminal      {font-family: Verdana, Sans-serif;
                            font-size: 12px;
                            fill: #1A1400;
                            font-weight: normal;
                          }
    text.regexp           {font-family: Verdana, Sans-serif;
                            font-size: 12px;
                            fill: #1F1800;
                            font-weight: normal;
                          }
    rect, circle, polygon {fill: #332900; stroke: #332900;}
    rect.terminal         {fill: #FFDB4D; stroke: #332900; stroke-width: 1;}
    rect.nonterminal      {fill: #FFEC9E; stroke: #332900; stroke-width: 1;}
    rect.text             {fill: none; stroke: none;}
    polygon.regexp        {fill: #FFF4C7; stroke: #332900; stroke-width: 1;}
  </style>
   </defs>
   <polygon points="9 17 1 13 1 21"/>
   <polygon points="17 17 9 13 9 21"/>
   <a xmlns:xlink="http://www.w3.org/1999/xlink"
      xlink:href="#sortKey"
      xlink:title="sortKey">
      <rect x="31" y="3" width="68" height="32"/>
      <rect x="29" y="1" width="68" height="32" class="nonterminal"/>
      <text class="nonterminal" x="39" y="21">sortKey</text>
   </a>
   <rect x="139" y="35" width="42" height="32" rx="10"/>
   <rect x="137"
         y="33"
         width="42"
         height="32"
         class="terminal"
         rx="10"/>
   <text class="terminal" x="147" y="53">asc</text>
   <rect x="139" y="79" width="50" height="32" rx="10"/>
   <rect x="137"
         y="77"
         width="50"
         height="32"
         class="terminal"
         rx="10"/>
   <text class="terminal" x="147" y="97">desc</text>
   <rect x="249" y="35" width="52" height="32" rx="10"/>
   <rect x="247"
         y="33"
         width="52"
         height="32"
         class="terminal"
         rx="10"/>
   <text class="terminal" x="257" y="53">nulls</text>
   <rect x="341" y="35" width="48" height="32" rx="10"/>
   <rect x="339"
         y="33"
         width="48"
         height="32"
         class="terminal"
         rx="10"/>
   <text class="terminal" x="349" y="53">first</text>
   <rect x="341" y="79" width="44" height="32" rx="10"/>
   <rect x="339"
         y="77"
         width="44"
         height="32"
         class="terminal"
         rx="10"/>
   <text class="terminal" x="349" y="97">last</text>
   <path class="line"
         d="m17 17 h2 m0 0 h10 m68 0 h10 m20 0 h10 m0 0 h60 m-90 0 h20 m70 0 h20 m-110 0 q10 0 10 10 m90 0 q0 -10 10 -10 m-100 10 v12 m90 0 v-12 m-90 12 q0 10 10 10 m70 0 q10 0 10 -10 m-80 10 h10 m42 0 h10 m0 0 h8 m-80 -10 v20 m90 0 v-20 m-90 20 v24 m90 0 v-24 m-90 24 q0 10 10 10 m70 0 q10 0 10 -10 m-80 10 h10 m50 0 h10 m40 -76 h10 m0 0 h170 m-200 0 h20 m180 0 h20 m-220 0 q10 0 10 10 m200 0 q0 -10 10 -10 m-210 10 v12 m200 0 v-12 m-200 12 q0 10 10 10 m180 0 q10 0 10 -10 m-190 10 h10 m52 0 h10 m20 0 h10 m48 0 h10 m-88 0 h20 m68 0 h20 m-108 0 q10 0 10 10 m88 0 q0 -10 10 -10 m-98 10 v24 m88 0 v-24 m-88 24 q0 10 10 10 m68 0 q10 0 10 -10 m-78 10 h10 m44 0 h10 m0 0 h4 m43 -76 h-3"/>
   <polygon points="447 17 455 13 455 21"/>
   <polygon points="447 17 439 13 439 21"/>
</svg>
