<?xml version="1.0" encoding="UTF-8"?>
<svg xmlns="http://www.w3.org/2000/svg" width="489" height="113">
   <defs>
      <style type="text/css">
    @namespace "http://www.w3.org/2000/svg";
    .line                 {fill: none; stroke: #332900; stroke-width: 1;}
    .bold-line            {stroke: #141000; shape-rendering: crispEdges; stroke-width: 2;}
    .thin-line            {stroke: #1F1800; shape-rendering: crispEdges}
    .filled               {fill: #332900; stroke: none;}
    text.terminal         {font-family: Verdana, Sans-serif;
                            font-size: 12px;
                            fill: #141000;
                            font-weight: bold;
                          }
    text.nonterminal      {font-family: Verdana, Sans-serif;
                            font-size: 12px;
                            fill: #1A1400;
                            font-weight: normal;
                          }
    text.regexp           {font-family: Verdana, Sans-serif;
                            font-size: 12px;
                            fill: #1F1800;
                            font-weight: normal;
                          }
    rect, circle, polygon {fill: #332900; stroke: #332900;}
    rect.terminal         {fill: #FFDB4D; stroke: #332900; stroke-width: 1;}
    rect.nonterminal      {fill: #FFEC9E; stroke: #332900; stroke-width: 1;}
    rect.text             {fill: none; stroke: none;}
    polygon.regexp        {fill: #FFF4C7; stroke: #332900; stroke-width: 1;}
  </style>
   </defs>
   <polygon points="9 17 1 13 1 21"/>
   <polygon points="17 17 9 13 9 21"/>
   <a xmlns:xlink="http://www.w3.org/1999/xlink"
      xlink:href="#userCommand"
      xlink:title="userCommand">
      <rect x="51" y="3" width="112" height="32"/>
      <rect x="49" y="1" width="112" height="32" class="nonterminal"/>
      <text class="nonterminal" x="59" y="21">userCommand</text>
   </a>
   <a xmlns:xlink="http://www.w3.org/1999/xlink"
      xlink:href="#dynamicCommand"
      xlink:title="dynamicCommand">
      <rect x="51" y="47" width="136" height="32"/>
      <rect x="49" y="45" width="136" height="32" class="nonterminal"/>
      <text class="nonterminal" x="59" y="65">dynamicCommand</text>
   </a>
   <rect x="267" y="35" width="50" height="32" rx="10"/>
   <rect x="265"
         y="33"
         width="50"
         height="32"
         class="terminal"
         rx="10"/>
   <text class="terminal" x="275" y="53">with</text>
   <rect x="267" y="79" width="72" height="32" rx="10"/>
   <rect x="265"
         y="77"
         width="72"
         height="32"
         class="terminal"
         rx="10"/>
   <text class="terminal" x="275" y="97">without</text>
   <rect x="379" y="35" width="62" height="32" rx="10"/>
   <rect x="377"
         y="33"
         width="62"
         height="32"
         class="terminal"
         rx="10"/>
   <text class="terminal" x="387" y="53">return</text>
   <path class="line"
         d="m17 17 h2 m20 0 h10 m112 0 h10 m0 0 h24 m-176 0 h20 m156 0 h20 m-196 0 q10 0 10 10 m176 0 q0 -10 10 -10 m-186 10 v24 m176 0 v-24 m-176 24 q0 10 10 10 m156 0 q10 0 10 -10 m-166 10 h10 m136 0 h10 m40 -44 h10 m0 0 h204 m-234 0 h20 m214 0 h20 m-254 0 q10 0 10 10 m234 0 q0 -10 10 -10 m-244 10 v12 m234 0 v-12 m-234 12 q0 10 10 10 m214 0 q10 0 10 -10 m-204 10 h10 m50 0 h10 m0 0 h22 m-112 0 h20 m92 0 h20 m-132 0 q10 0 10 10 m112 0 q0 -10 10 -10 m-122 10 v24 m112 0 v-24 m-112 24 q0 10 10 10 m92 0 q10 0 10 -10 m-102 10 h10 m72 0 h10 m20 -44 h10 m62 0 h10 m23 -32 h-3"/>
   <polygon points="479 17 487 13 487 21"/>
   <polygon points="479 17 471 13 471 21"/>
</svg>
