<?xml version="1.0" encoding="UTF-8"?>
<svg xmlns="http://www.w3.org/2000/svg" width="425" height="213">
   <defs>
      <style type="text/css">
    @namespace "http://www.w3.org/2000/svg";
    .line                 {fill: none; stroke: #332900; stroke-width: 1;}
    .bold-line            {stroke: #141000; shape-rendering: crispEdges; stroke-width: 2;}
    .thin-line            {stroke: #1F1800; shape-rendering: crispEdges}
    .filled               {fill: #332900; stroke: none;}
    text.terminal         {font-family: Verdana, Sans-serif;
                            font-size: 12px;
                            fill: #141000;
                            font-weight: bold;
                          }
    text.nonterminal      {font-family: Verdana, Sans-serif;
                            font-size: 12px;
                            fill: #1A1400;
                            font-weight: normal;
                          }
    text.regexp           {font-family: Verdana, Sans-serif;
                            font-size: 12px;
                            fill: #1F1800;
                            font-weight: normal;
                          }
    rect, circle, polygon {fill: #332900; stroke: #332900;}
    rect.terminal         {fill: #FFDB4D; stroke: #332900; stroke-width: 1;}
    rect.nonterminal      {fill: #FFEC9E; stroke: #332900; stroke-width: 1;}
    rect.text             {fill: none; stroke: none;}
    polygon.regexp        {fill: #FFF4C7; stroke: #332900; stroke-width: 1;}
  </style>
   </defs>
   <polygon points="9 17 1 13 1 21"/>
   <polygon points="17 17 9 13 9 21"/>
   <a xmlns:xlink="http://www.w3.org/1999/xlink"
      xlink:href="#id"
      xlink:title="id">
      <rect x="71" y="35" width="30" height="32"/>
      <rect x="69" y="33" width="30" height="32" class="nonterminal"/>
      <text class="nonterminal" x="79" y="53">id</text>
   </a>
   <rect x="121" y="35" width="24" height="32" rx="10"/>
   <rect x="119"
         y="33"
         width="24"
         height="32"
         class="terminal"
         rx="10"/>
   <text class="terminal" x="129" y="53">:</text>
   <a xmlns:xlink="http://www.w3.org/1999/xlink"
      xlink:href="#loopStatement"
      xlink:title="loopStatement">
      <rect x="205" y="3" width="114" height="32"/>
      <rect x="203" y="1" width="114" height="32" class="nonterminal"/>
      <text class="nonterminal" x="213" y="21">loopStatement</text>
   </a>
   <a xmlns:xlink="http://www.w3.org/1999/xlink"
      xlink:href="#whileStatement"
      xlink:title="whileStatement">
      <rect x="205" y="47" width="118" height="32"/>
      <rect x="203" y="45" width="118" height="32" class="nonterminal"/>
      <text class="nonterminal" x="213" y="65">whileStatement</text>
   </a>
   <a xmlns:xlink="http://www.w3.org/1999/xlink"
      xlink:href="#compoundStatement"
      xlink:title="compoundStatement">
      <rect x="205" y="91" width="152" height="32"/>
      <rect x="203" y="89" width="152" height="32" class="nonterminal"/>
      <text class="nonterminal" x="213" y="109">compoundStatement</text>
   </a>
   <a xmlns:xlink="http://www.w3.org/1999/xlink"
      xlink:href="#ifStatement"
      xlink:title="ifStatement">
      <rect x="51" y="135" width="94" height="32"/>
      <rect x="49" y="133" width="94" height="32" class="nonterminal"/>
      <text class="nonterminal" x="59" y="153">ifStatement</text>
   </a>
   <a xmlns:xlink="http://www.w3.org/1999/xlink"
      xlink:href="#delimitedStatement"
      xlink:title="delimitedStatement">
      <rect x="51" y="179" width="144" height="32"/>
      <rect x="49" y="177" width="144" height="32" class="nonterminal"/>
      <text class="nonterminal" x="59" y="197">delimitedStatement</text>
   </a>
   <path class="line"
         d="m17 17 h2 m40 0 h10 m0 0 h84 m-114 0 h20 m94 0 h20 m-134 0 q10 0 10 10 m114 0 q0 -10 10 -10 m-124 10 v12 m114 0 v-12 m-114 12 q0 10 10 10 m94 0 q10 0 10 -10 m-104 10 h10 m30 0 h10 m0 0 h10 m24 0 h10 m40 -32 h10 m114 0 h10 m0 0 h38 m-192 0 h20 m172 0 h20 m-212 0 q10 0 10 10 m192 0 q0 -10 10 -10 m-202 10 v24 m192 0 v-24 m-192 24 q0 10 10 10 m172 0 q10 0 10 -10 m-182 10 h10 m118 0 h10 m0 0 h34 m-182 -10 v20 m192 0 v-20 m-192 20 v24 m192 0 v-24 m-192 24 q0 10 10 10 m172 0 q10 0 10 -10 m-182 10 h10 m152 0 h10 m-346 -88 h20 m346 0 h20 m-386 0 q10 0 10 10 m366 0 q0 -10 10 -10 m-376 10 v112 m366 0 v-112 m-366 112 q0 10 10 10 m346 0 q10 0 10 -10 m-356 10 h10 m94 0 h10 m0 0 h232 m-356 -10 v20 m366 0 v-20 m-366 20 v24 m366 0 v-24 m-366 24 q0 10 10 10 m346 0 q10 0 10 -10 m-356 10 h10 m144 0 h10 m0 0 h182 m23 -176 h-3"/>
   <polygon points="415 17 423 13 423 21"/>
   <polygon points="415 17 407 13 407 21"/>
</svg>
