<?xml version="1.0" encoding="UTF-8"?>
<svg xmlns="http://www.w3.org/2000/svg" width="655" height="125">
   <defs>
      <style type="text/css">
    @namespace "http://www.w3.org/2000/svg";
    .line                 {fill: none; stroke: #332900; stroke-width: 1;}
    .bold-line            {stroke: #141000; shape-rendering: crispEdges; stroke-width: 2;}
    .thin-line            {stroke: #1F1800; shape-rendering: crispEdges}
    .filled               {fill: #332900; stroke: none;}
    text.terminal         {font-family: Verdana, Sans-serif;
                            font-size: 12px;
                            fill: #141000;
                            font-weight: bold;
                          }
    text.nonterminal      {font-family: Verdana, Sans-serif;
                            font-size: 12px;
                            fill: #1A1400;
                            font-weight: normal;
                          }
    text.regexp           {font-family: Verdana, Sans-serif;
                            font-size: 12px;
                            fill: #1F1800;
                            font-weight: normal;
                          }
    rect, circle, polygon {fill: #332900; stroke: #332900;}
    rect.terminal         {fill: #FFDB4D; stroke: #332900; stroke-width: 1;}
    rect.nonterminal      {fill: #FFEC9E; stroke: #332900; stroke-width: 1;}
    rect.text             {fill: none; stroke: none;}
    polygon.regexp        {fill: #FFF4C7; stroke: #332900; stroke-width: 1;}
  </style>
   </defs>
   <polygon points="9 17 1 13 1 21"/>
   <polygon points="17 17 9 13 9 21"/>
   <rect x="51" y="3" width="50" height="32" rx="10"/>
   <rect x="49"
         y="1"
         width="50"
         height="32"
         class="terminal"
         rx="10"/>
   <text class="terminal" x="59" y="21">exec</text>
   <rect x="51" y="47" width="72" height="32" rx="10"/>
   <rect x="49"
         y="45"
         width="72"
         height="32"
         class="terminal"
         rx="10"/>
   <text class="terminal" x="59" y="65">execute</text>
   <rect x="51" y="91" width="42" height="32" rx="10"/>
   <rect x="49"
         y="89"
         width="42"
         height="32"
         class="terminal"
         rx="10"/>
   <text class="terminal" x="59" y="109">call</text>
   <a xmlns:xlink="http://www.w3.org/1999/xlink"
      xlink:href="#id"
      xlink:title="id">
      <rect x="163" y="3" width="30" height="32"/>
      <rect x="161" y="1" width="30" height="32" class="nonterminal"/>
      <text class="nonterminal" x="171" y="21">id</text>
   </a>
   <rect x="213" y="3" width="26" height="32" rx="10"/>
   <rect x="211"
         y="1"
         width="26"
         height="32"
         class="terminal"
         rx="10"/>
   <text class="terminal" x="221" y="21">(</text>
   <a xmlns:xlink="http://www.w3.org/1999/xlink"
      xlink:href="#executeNamedParams"
      xlink:title="executeNamedParams">
      <rect x="279" y="35" width="162" height="32"/>
      <rect x="277" y="33" width="162" height="32" class="nonterminal"/>
      <text class="nonterminal" x="287" y="53">executeNamedParams</text>
   </a>
   <a xmlns:xlink="http://www.w3.org/1999/xlink"
      xlink:href="#expressionList"
      xlink:title="expressionList">
      <rect x="279" y="79" width="112" height="32"/>
      <rect x="277" y="77" width="112" height="32" class="nonterminal"/>
      <text class="nonterminal" x="287" y="97">expressionList</text>
   </a>
   <rect x="481" y="3" width="26" height="32" rx="10"/>
   <rect x="479"
         y="1"
         width="26"
         height="32"
         class="terminal"
         rx="10"/>
   <text class="terminal" x="489" y="21">)</text>
   <a xmlns:xlink="http://www.w3.org/1999/xlink"
      xlink:href="#option"
      xlink:title="option">
      <rect x="547" y="35" width="60" height="32"/>
      <rect x="545" y="33" width="60" height="32" class="nonterminal"/>
      <text class="nonterminal" x="555" y="53">option</text>
   </a>
   <path class="line"
         d="m17 17 h2 m20 0 h10 m50 0 h10 m0 0 h22 m-112 0 h20 m92 0 h20 m-132 0 q10 0 10 10 m112 0 q0 -10 10 -10 m-122 10 v24 m112 0 v-24 m-112 24 q0 10 10 10 m92 0 q10 0 10 -10 m-102 10 h10 m72 0 h10 m-102 -10 v20 m112 0 v-20 m-112 20 v24 m112 0 v-24 m-112 24 q0 10 10 10 m92 0 q10 0 10 -10 m-102 10 h10 m42 0 h10 m0 0 h30 m20 -88 h10 m30 0 h10 m0 0 h10 m26 0 h10 m20 0 h10 m0 0 h172 m-202 0 h20 m182 0 h20 m-222 0 q10 0 10 10 m202 0 q0 -10 10 -10 m-212 10 v12 m202 0 v-12 m-202 12 q0 10 10 10 m182 0 q10 0 10 -10 m-192 10 h10 m162 0 h10 m-192 -10 v20 m202 0 v-20 m-202 20 v24 m202 0 v-24 m-202 24 q0 10 10 10 m182 0 q10 0 10 -10 m-192 10 h10 m112 0 h10 m0 0 h50 m20 -76 h10 m26 0 h10 m20 0 h10 m0 0 h70 m-100 0 h20 m80 0 h20 m-120 0 q10 0 10 10 m100 0 q0 -10 10 -10 m-110 10 v12 m100 0 v-12 m-100 12 q0 10 10 10 m80 0 q10 0 10 -10 m-90 10 h10 m60 0 h10 m23 -32 h-3"/>
   <polygon points="645 17 653 13 653 21"/>
   <polygon points="645 17 637 13 637 21"/>
</svg>
