<?xml version="1.0" encoding="UTF-8"?>
<svg xmlns="http://www.w3.org/2000/svg" width="331" height="191">
   <defs>
      <style type="text/css">
    @namespace "http://www.w3.org/2000/svg";
    .line                 {fill: none; stroke: #332900; stroke-width: 1;}
    .bold-line            {stroke: #141000; shape-rendering: crispEdges; stroke-width: 2;}
    .thin-line            {stroke: #1F1800; shape-rendering: crispEdges}
    .filled               {fill: #332900; stroke: none;}
    text.terminal         {font-family: Verdana, Sans-serif;
                            font-size: 12px;
                            fill: #141000;
                            font-weight: bold;
                          }
    text.nonterminal      {font-family: Verdana, Sans-serif;
                            font-size: 12px;
                            fill: #1A1400;
                            font-weight: normal;
                          }
    text.regexp           {font-family: Verdana, Sans-serif;
                            font-size: 12px;
                            fill: #1F1800;
                            font-weight: normal;
                          }
    rect, circle, polygon {fill: #332900; stroke: #332900;}
    rect.terminal         {fill: #FFDB4D; stroke: #332900; stroke-width: 1;}
    rect.nonterminal      {fill: #FFEC9E; stroke: #332900; stroke-width: 1;}
    rect.text             {fill: none; stroke: none;}
    polygon.regexp        {fill: #FFF4C7; stroke: #332900; stroke-width: 1;}
  </style>
   </defs>
   <polygon points="9 95 1 91 1 99"/>
   <polygon points="17 95 9 91 9 99"/>
   <rect x="51" y="113" width="30" height="32" rx="10"/>
   <rect x="49"
         y="111"
         width="30"
         height="32"
         class="terminal"
         rx="10"/>
   <text class="terminal" x="59" y="131">N</text>
   <rect x="51" y="157" width="28" height="32" rx="10"/>
   <rect x="49"
         y="155"
         width="28"
         height="32"
         class="terminal"
         rx="10"/>
   <text class="terminal" x="59" y="175">E</text>
   <rect x="121" y="81" width="24" height="32" rx="10"/>
   <rect x="119"
         y="79"
         width="24"
         height="32"
         class="terminal"
         rx="10"/>
   <text class="terminal" x="129" y="99">'</text>
   <rect x="185" y="47" width="28" height="32" rx="10"/>
   <rect x="183"
         y="45"
         width="28"
         height="32"
         class="terminal"
         rx="10"/>
   <text class="terminal" x="193" y="65">''</text>
   <polygon points="185 19 192 3 232 3 239 19 232 35 192 35"/>
   <polygon points="183 17 190 1 230 1 237 17 230 33 190 33" class="regexp"/>
   <text class="regexp" x="198" y="21">[^']</text>
   <rect x="279" y="81" width="24" height="32" rx="10"/>
   <rect x="277"
         y="79"
         width="24"
         height="32"
         class="terminal"
         rx="10"/>
   <text class="terminal" x="287" y="99">'</text>
   <path class="line"
         d="m17 95 h2 m20 0 h10 m0 0 h40 m-70 0 h20 m50 0 h20 m-90 0 q10 0 10 10 m70 0 q0 -10 10 -10 m-80 10 v12 m70 0 v-12 m-70 12 q0 10 10 10 m50 0 q10 0 10 -10 m-60 10 h10 m30 0 h10 m-60 -10 v20 m70 0 v-20 m-70 20 v24 m70 0 v-24 m-70 24 q0 10 10 10 m50 0 q10 0 10 -10 m-60 10 h10 m28 0 h10 m0 0 h2 m20 -76 h10 m24 0 h10 m20 0 h10 m0 0 h64 m-94 0 l20 0 m-1 0 q-9 0 -9 -10 l0 -14 q0 -10 10 -10 m74 34 l20 0 m-20 0 q10 0 10 -10 l0 -14 q0 -10 -10 -10 m-74 0 h10 m28 0 h10 m0 0 h26 m-84 10 l0 -44 q0 -10 10 -10 m84 54 l0 -44 q0 -10 -10 -10 m-74 0 h10 m54 0 h10 m20 78 h10 m24 0 h10 m3 0 h-3"/>
   <polygon points="321 95 329 91 329 99"/>
   <polygon points="321 95 313 91 313 99"/>
</svg>
