<?xml version="1.0" encoding="UTF-8"?>
<svg xmlns="http://www.w3.org/2000/svg" width="585" height="113">
   <defs>
      <style type="text/css">
    @namespace "http://www.w3.org/2000/svg";
    .line                 {fill: none; stroke: #332900; stroke-width: 1;}
    .bold-line            {stroke: #141000; shape-rendering: crispEdges; stroke-width: 2;}
    .thin-line            {stroke: #1F1800; shape-rendering: crispEdges}
    .filled               {fill: #332900; stroke: none;}
    text.terminal         {font-family: Verdana, Sans-serif;
                            font-size: 12px;
                            fill: #141000;
                            font-weight: bold;
                          }
    text.nonterminal      {font-family: Verdana, Sans-serif;
                            font-size: 12px;
                            fill: #1A1400;
                            font-weight: normal;
                          }
    text.regexp           {font-family: Verdana, Sans-serif;
                            font-size: 12px;
                            fill: #1F1800;
                            font-weight: normal;
                          }
    rect, circle, polygon {fill: #332900; stroke: #332900;}
    rect.terminal         {fill: #FFDB4D; stroke: #332900; stroke-width: 1;}
    rect.nonterminal      {fill: #FFEC9E; stroke: #332900; stroke-width: 1;}
    rect.text             {fill: none; stroke: none;}
    polygon.regexp        {fill: #FFF4C7; stroke: #332900; stroke-width: 1;}
  </style>
   </defs>
   <polygon points="9 17 1 13 1 21"/>
   <polygon points="17 17 9 13 9 21"/>
   <rect x="51" y="35" width="54" height="32" rx="10"/>
   <rect x="49"
         y="33"
         width="54"
         height="32"
         class="terminal"
         rx="10"/>
   <text class="terminal" x="59" y="53">table</text>
   <rect x="51" y="79" width="64" height="32" rx="10"/>
   <rect x="49"
         y="77"
         width="64"
         height="32"
         class="terminal"
         rx="10"/>
   <text class="terminal" x="59" y="97">lateral</text>
   <rect x="155" y="3" width="26" height="32" rx="10"/>
   <rect x="153"
         y="1"
         width="26"
         height="32"
         class="terminal"
         rx="10"/>
   <text class="terminal" x="163" y="21">(</text>
   <a xmlns:xlink="http://www.w3.org/1999/xlink"
      xlink:href="#queryExpression"
      xlink:title="queryExpression">
      <rect x="221" y="3" width="126" height="32"/>
      <rect x="219" y="1" width="126" height="32" class="nonterminal"/>
      <text class="nonterminal" x="229" y="21">queryExpression</text>
   </a>
   <a xmlns:xlink="http://www.w3.org/1999/xlink"
      xlink:href="#storedProcedure"
      xlink:title="storedProcedure">
      <rect x="221" y="47" width="126" height="32"/>
      <rect x="219" y="45" width="126" height="32" class="nonterminal"/>
      <text class="nonterminal" x="229" y="65">storedProcedure</text>
   </a>
   <rect x="387" y="3" width="26" height="32" rx="10"/>
   <rect x="385"
         y="1"
         width="26"
         height="32"
         class="terminal"
         rx="10"/>
   <text class="terminal" x="395" y="21">)</text>
   <rect x="453" y="35" width="34" height="32" rx="10"/>
   <rect x="451"
         y="33"
         width="34"
         height="32"
         class="terminal"
         rx="10"/>
   <text class="terminal" x="461" y="53">as</text>
   <a xmlns:xlink="http://www.w3.org/1999/xlink"
      xlink:href="#id"
      xlink:title="id">
      <rect x="527" y="3" width="30" height="32"/>
      <rect x="525" y="1" width="30" height="32" class="nonterminal"/>
      <text class="nonterminal" x="535" y="21">id</text>
   </a>
   <path class="line"
         d="m17 17 h2 m20 0 h10 m0 0 h74 m-104 0 h20 m84 0 h20 m-124 0 q10 0 10 10 m104 0 q0 -10 10 -10 m-114 10 v12 m104 0 v-12 m-104 12 q0 10 10 10 m84 0 q10 0 10 -10 m-94 10 h10 m54 0 h10 m0 0 h10 m-94 -10 v20 m104 0 v-20 m-104 20 v24 m104 0 v-24 m-104 24 q0 10 10 10 m84 0 q10 0 10 -10 m-94 10 h10 m64 0 h10 m20 -76 h10 m26 0 h10 m20 0 h10 m126 0 h10 m-166 0 h20 m146 0 h20 m-186 0 q10 0 10 10 m166 0 q0 -10 10 -10 m-176 10 v24 m166 0 v-24 m-166 24 q0 10 10 10 m146 0 q10 0 10 -10 m-156 10 h10 m126 0 h10 m20 -44 h10 m26 0 h10 m20 0 h10 m0 0 h44 m-74 0 h20 m54 0 h20 m-94 0 q10 0 10 10 m74 0 q0 -10 10 -10 m-84 10 v12 m74 0 v-12 m-74 12 q0 10 10 10 m54 0 q10 0 10 -10 m-64 10 h10 m34 0 h10 m20 -32 h10 m30 0 h10 m3 0 h-3"/>
   <polygon points="575 17 583 13 583 21"/>
   <polygon points="575 17 567 13 567 21"/>
</svg>
