<?xml version="1.0" encoding="UTF-8"?>
<svg xmlns="http://www.w3.org/2000/svg" width="559" height="125">
   <defs>
      <style type="text/css">
    @namespace "http://www.w3.org/2000/svg";
    .line                 {fill: none; stroke: #332900; stroke-width: 1;}
    .bold-line            {stroke: #141000; shape-rendering: crispEdges; stroke-width: 2;}
    .thin-line            {stroke: #1F1800; shape-rendering: crispEdges}
    .filled               {fill: #332900; stroke: none;}
    text.terminal         {font-family: Verdana, Sans-serif;
                            font-size: 12px;
                            fill: #141000;
                            font-weight: bold;
                          }
    text.nonterminal      {font-family: Verdana, Sans-serif;
                            font-size: 12px;
                            fill: #1A1400;
                            font-weight: normal;
                          }
    text.regexp           {font-family: Verdana, Sans-serif;
                            font-size: 12px;
                            fill: #1F1800;
                            font-weight: normal;
                          }
    rect, circle, polygon {fill: #332900; stroke: #332900;}
    rect.terminal         {fill: #FFDB4D; stroke: #332900; stroke-width: 1;}
    rect.nonterminal      {fill: #FFEC9E; stroke: #332900; stroke-width: 1;}
    rect.text             {fill: none; stroke: none;}
    polygon.regexp        {fill: #FFF4C7; stroke: #332900; stroke-width: 1;}
  </style>
   </defs>
   <polygon points="9 17 1 13 1 21"/>
   <polygon points="17 17 9 13 9 21"/>
   <rect x="51" y="35" width="88" height="32" rx="10"/>
   <rect x="49"
         y="33"
         width="88"
         height="32"
         class="terminal"
         rx="10"/>
   <text class="terminal" x="59" y="53">constraint</text>
   <a xmlns:xlink="http://www.w3.org/1999/xlink"
      xlink:href="#id"
      xlink:title="id">
      <rect x="159" y="35" width="30" height="32"/>
      <rect x="157" y="33" width="30" height="32" class="nonterminal"/>
      <text class="nonterminal" x="167" y="53">id</text>
   </a>
   <a xmlns:xlink="http://www.w3.org/1999/xlink"
      xlink:href="#primaryKey"
      xlink:title="primaryKey">
      <rect x="249" y="3" width="92" height="32"/>
      <rect x="247" y="1" width="92" height="32" class="nonterminal"/>
      <text class="nonterminal" x="257" y="21">primaryKey</text>
   </a>
   <a xmlns:xlink="http://www.w3.org/1999/xlink"
      xlink:href="#constraint"
      xlink:title="constraint">
      <rect x="249" y="47" width="84" height="32"/>
      <rect x="247" y="45" width="84" height="32" class="nonterminal"/>
      <text class="nonterminal" x="257" y="65">constraint</text>
   </a>
   <a xmlns:xlink="http://www.w3.org/1999/xlink"
      xlink:href="#foreignKey"
      xlink:title="foreignKey">
      <rect x="249" y="91" width="88" height="32"/>
      <rect x="247" y="89" width="88" height="32" class="nonterminal"/>
      <text class="nonterminal" x="257" y="109">foreignKey</text>
   </a>
   <a xmlns:xlink="http://www.w3.org/1999/xlink"
      xlink:href="#optionsClause"
      xlink:title="optionsClause">
      <rect x="401" y="35" width="110" height="32"/>
      <rect x="399" y="33" width="110" height="32" class="nonterminal"/>
      <text class="nonterminal" x="409" y="53">optionsClause</text>
   </a>
   <path class="line"
         d="m17 17 h2 m20 0 h10 m0 0 h148 m-178 0 h20 m158 0 h20 m-198 0 q10 0 10 10 m178 0 q0 -10 10 -10 m-188 10 v12 m178 0 v-12 m-178 12 q0 10 10 10 m158 0 q10 0 10 -10 m-168 10 h10 m88 0 h10 m0 0 h10 m30 0 h10 m40 -32 h10 m92 0 h10 m-132 0 h20 m112 0 h20 m-152 0 q10 0 10 10 m132 0 q0 -10 10 -10 m-142 10 v24 m132 0 v-24 m-132 24 q0 10 10 10 m112 0 q10 0 10 -10 m-122 10 h10 m84 0 h10 m0 0 h8 m-122 -10 v20 m132 0 v-20 m-132 20 v24 m132 0 v-24 m-132 24 q0 10 10 10 m112 0 q10 0 10 -10 m-122 10 h10 m88 0 h10 m0 0 h4 m40 -88 h10 m0 0 h120 m-150 0 h20 m130 0 h20 m-170 0 q10 0 10 10 m150 0 q0 -10 10 -10 m-160 10 v12 m150 0 v-12 m-150 12 q0 10 10 10 m130 0 q10 0 10 -10 m-140 10 h10 m110 0 h10 m23 -32 h-3"/>
   <polygon points="549 17 557 13 557 21"/>
   <polygon points="549 17 541 13 541 21"/>
</svg>
