<?xml version="1.0" encoding="UTF-8"?>
<svg xmlns="http://www.w3.org/2000/svg" width="857" height="345">
   <defs>
      <style type="text/css">
    @namespace "http://www.w3.org/2000/svg";
    .line                 {fill: none; stroke: #332900; stroke-width: 1;}
    .bold-line            {stroke: #141000; shape-rendering: crispEdges; stroke-width: 2;}
    .thin-line            {stroke: #1F1800; shape-rendering: crispEdges}
    .filled               {fill: #332900; stroke: none;}
    text.terminal         {font-family: Verdana, Sans-serif;
                            font-size: 12px;
                            fill: #141000;
                            font-weight: bold;
                          }
    text.nonterminal      {font-family: Verdana, Sans-serif;
                            font-size: 12px;
                            fill: #1A1400;
                            font-weight: normal;
                          }
    text.regexp           {font-family: Verdana, Sans-serif;
                            font-size: 12px;
                            fill: #1F1800;
                            font-weight: normal;
                          }
    rect, circle, polygon {fill: #332900; stroke: #332900;}
    rect.terminal         {fill: #FFDB4D; stroke: #332900; stroke-width: 1;}
    rect.nonterminal      {fill: #FFEC9E; stroke: #332900; stroke-width: 1;}
    rect.text             {fill: none; stroke: none;}
    polygon.regexp        {fill: #FFF4C7; stroke: #332900; stroke-width: 1;}
  </style>
   </defs>
   <polygon points="9 17 1 13 1 21"/>
   <polygon points="17 17 9 13 9 21"/>
   <a xmlns:xlink="http://www.w3.org/1999/xlink"
      xlink:href="#textTable"
      xlink:title="textTable">
      <rect x="51" y="3" width="78" height="32"/>
      <rect x="49" y="1" width="78" height="32" class="nonterminal"/>
      <text class="nonterminal" x="59" y="21">textTable</text>
   </a>
   <a xmlns:xlink="http://www.w3.org/1999/xlink"
      xlink:href="#arrayTable"
      xlink:title="arrayTable">
      <rect x="51" y="47" width="88" height="32"/>
      <rect x="49" y="45" width="88" height="32" class="nonterminal"/>
      <text class="nonterminal" x="59" y="65">arrayTable</text>
   </a>
   <a xmlns:xlink="http://www.w3.org/1999/xlink"
      xlink:href="#jsonTable"
      xlink:title="jsonTable">
      <rect x="51" y="91" width="80" height="32"/>
      <rect x="49" y="89" width="80" height="32" class="nonterminal"/>
      <text class="nonterminal" x="59" y="109">jsonTable</text>
   </a>
   <a xmlns:xlink="http://www.w3.org/1999/xlink"
      xlink:href="#xmlTable"
      xlink:title="xmlTable">
      <rect x="51" y="135" width="76" height="32"/>
      <rect x="49" y="133" width="76" height="32" class="nonterminal"/>
      <text class="nonterminal" x="59" y="153">xmlTable</text>
   </a>
   <a xmlns:xlink="http://www.w3.org/1999/xlink"
      xlink:href="#objectTable"
      xlink:title="objectTable">
      <rect x="51" y="179" width="94" height="32"/>
      <rect x="49" y="177" width="94" height="32" class="nonterminal"/>
      <text class="nonterminal" x="59" y="197">objectTable</text>
   </a>
   <a xmlns:xlink="http://www.w3.org/1999/xlink"
      xlink:href="#unaryFromClause"
      xlink:title="unaryFromClause">
      <rect x="51" y="223" width="130" height="32"/>
      <rect x="49" y="221" width="130" height="32" class="nonterminal"/>
      <text class="nonterminal" x="59" y="241">unaryFromClause</text>
   </a>
   <a xmlns:xlink="http://www.w3.org/1999/xlink"
      xlink:href="#subqueryFromClause"
      xlink:title="subqueryFromClause">
      <rect x="51" y="267" width="154" height="32"/>
      <rect x="49" y="265" width="154" height="32" class="nonterminal"/>
      <text class="nonterminal" x="59" y="285">subqueryFromClause</text>
   </a>
   <rect x="51" y="311" width="26" height="32" rx="10"/>
   <rect x="49"
         y="309"
         width="26"
         height="32"
         class="terminal"
         rx="10"/>
   <text class="terminal" x="59" y="329">(</text>
   <a xmlns:xlink="http://www.w3.org/1999/xlink"
      xlink:href="#joinedTable"
      xlink:title="joinedTable">
      <rect x="97" y="311" width="94" height="32"/>
      <rect x="95" y="309" width="94" height="32" class="nonterminal"/>
      <text class="nonterminal" x="105" y="329">joinedTable</text>
   </a>
   <rect x="211" y="311" width="26" height="32" rx="10"/>
   <rect x="209"
         y="309"
         width="26"
         height="32"
         class="terminal"
         rx="10"/>
   <text class="terminal" x="219" y="329">)</text>
   <rect x="297" y="35" width="82" height="32" rx="10"/>
   <rect x="295"
         y="33"
         width="82"
         height="32"
         class="terminal"
         rx="10"/>
   <text class="terminal" x="305" y="53">makedep</text>
   <a xmlns:xlink="http://www.w3.org/1999/xlink"
      xlink:href="#makedepOptions"
      xlink:title="makedepOptions">
      <rect x="399" y="35" width="126" height="32"/>
      <rect x="397" y="33" width="126" height="32" class="nonterminal"/>
      <text class="nonterminal" x="407" y="53">makedepOptions</text>
   </a>
   <rect x="297" y="79" width="104" height="32" rx="10"/>
   <rect x="295"
         y="77"
         width="104"
         height="32"
         class="terminal"
         rx="10"/>
   <text class="terminal" x="305" y="97">makenotdep</text>
   <rect x="585" y="35" width="78" height="32" rx="10"/>
   <rect x="583"
         y="33"
         width="78"
         height="32"
         class="terminal"
         rx="10"/>
   <text class="terminal" x="593" y="53">makeind</text>
   <a xmlns:xlink="http://www.w3.org/1999/xlink"
      xlink:href="#makedepOptions"
      xlink:title="makedepOptions">
      <rect x="683" y="35" width="126" height="32"/>
      <rect x="681" y="33" width="126" height="32" class="nonterminal"/>
      <text class="nonterminal" x="691" y="53">makedepOptions</text>
   </a>
   <path class="line"
         d="m17 17 h2 m20 0 h10 m78 0 h10 m0 0 h108 m-226 0 h20 m206 0 h20 m-246 0 q10 0 10 10 m226 0 q0 -10 10 -10 m-236 10 v24 m226 0 v-24 m-226 24 q0 10 10 10 m206 0 q10 0 10 -10 m-216 10 h10 m88 0 h10 m0 0 h98 m-216 -10 v20 m226 0 v-20 m-226 20 v24 m226 0 v-24 m-226 24 q0 10 10 10 m206 0 q10 0 10 -10 m-216 10 h10 m80 0 h10 m0 0 h106 m-216 -10 v20 m226 0 v-20 m-226 20 v24 m226 0 v-24 m-226 24 q0 10 10 10 m206 0 q10 0 10 -10 m-216 10 h10 m76 0 h10 m0 0 h110 m-216 -10 v20 m226 0 v-20 m-226 20 v24 m226 0 v-24 m-226 24 q0 10 10 10 m206 0 q10 0 10 -10 m-216 10 h10 m94 0 h10 m0 0 h92 m-216 -10 v20 m226 0 v-20 m-226 20 v24 m226 0 v-24 m-226 24 q0 10 10 10 m206 0 q10 0 10 -10 m-216 10 h10 m130 0 h10 m0 0 h56 m-216 -10 v20 m226 0 v-20 m-226 20 v24 m226 0 v-24 m-226 24 q0 10 10 10 m206 0 q10 0 10 -10 m-216 10 h10 m154 0 h10 m0 0 h32 m-216 -10 v20 m226 0 v-20 m-226 20 v24 m226 0 v-24 m-226 24 q0 10 10 10 m206 0 q10 0 10 -10 m-216 10 h10 m26 0 h10 m0 0 h10 m94 0 h10 m0 0 h10 m26 0 h10 m40 -308 h10 m0 0 h238 m-268 0 h20 m248 0 h20 m-288 0 q10 0 10 10 m268 0 q0 -10 10 -10 m-278 10 v12 m268 0 v-12 m-268 12 q0 10 10 10 m248 0 q10 0 10 -10 m-258 10 h10 m82 0 h10 m0 0 h10 m126 0 h10 m-258 -10 v20 m268 0 v-20 m-268 20 v24 m268 0 v-24 m-268 24 q0 10 10 10 m248 0 q10 0 10 -10 m-258 10 h10 m104 0 h10 m0 0 h124 m40 -76 h10 m0 0 h234 m-264 0 h20 m244 0 h20 m-284 0 q10 0 10 10 m264 0 q0 -10 10 -10 m-274 10 v12 m264 0 v-12 m-264 12 q0 10 10 10 m244 0 q10 0 10 -10 m-254 10 h10 m78 0 h10 m0 0 h10 m126 0 h10 m23 -32 h-3"/>
   <polygon points="847 17 855 13 855 21"/>
   <polygon points="847 17 839 13 839 21"/>
</svg>
