<?xml version="1.0" encoding="UTF-8"?>
<svg xmlns="http://www.w3.org/2000/svg" width="873" height="255">
   <defs>
      <style type="text/css">
    @namespace "http://www.w3.org/2000/svg";
    .line                 {fill: none; stroke: #332900; stroke-width: 1;}
    .bold-line            {stroke: #141000; shape-rendering: crispEdges; stroke-width: 2;}
    .thin-line            {stroke: #1F1800; shape-rendering: crispEdges}
    .filled               {fill: #332900; stroke: none;}
    text.terminal         {font-family: Verdana, Sans-serif;
                            font-size: 12px;
                            fill: #141000;
                            font-weight: bold;
                          }
    text.nonterminal      {font-family: Verdana, Sans-serif;
                            font-size: 12px;
                            fill: #1A1400;
                            font-weight: normal;
                          }
    text.regexp           {font-family: Verdana, Sans-serif;
                            font-size: 12px;
                            fill: #1F1800;
                            font-weight: normal;
                          }
    rect, circle, polygon {fill: #332900; stroke: #332900;}
    rect.terminal         {fill: #FFDB4D; stroke: #332900; stroke-width: 1;}
    rect.nonterminal      {fill: #FFEC9E; stroke: #332900; stroke-width: 1;}
    rect.text             {fill: none; stroke: none;}
    polygon.regexp        {fill: #FFF4C7; stroke: #332900; stroke-width: 1;}
  </style>
   </defs>
   <polygon points="9 61 1 57 1 65"/>
   <polygon points="17 61 9 57 9 65"/>
   <rect x="31" y="47" width="72" height="32" rx="10"/>
   <rect x="29"
         y="45"
         width="72"
         height="32"
         class="terminal"
         rx="10"/>
   <text class="terminal" x="39" y="65">textagg</text>
   <rect x="123" y="47" width="26" height="32" rx="10"/>
   <rect x="121"
         y="45"
         width="26"
         height="32"
         class="terminal"
         rx="10"/>
   <text class="terminal" x="131" y="65">(</text>
   <rect x="189" y="79" width="38" height="32" rx="10"/>
   <rect x="187"
         y="77"
         width="38"
         height="32"
         class="terminal"
         rx="10"/>
   <text class="terminal" x="197" y="97">for</text>
   <a xmlns:xlink="http://www.w3.org/1999/xlink"
      xlink:href="#derivedColumn"
      xlink:title="derivedColumn">
      <rect x="287" y="47" width="114" height="32"/>
      <rect x="285" y="45" width="114" height="32" class="nonterminal"/>
      <text class="nonterminal" x="295" y="65">derivedColumn</text>
   </a>
   <rect x="287" y="3" width="24" height="32" rx="10"/>
   <rect x="285"
         y="1"
         width="24"
         height="32"
         class="terminal"
         rx="10"/>
   <text class="terminal" x="295" y="21">,</text>
   <rect x="461" y="79" width="80" height="32" rx="10"/>
   <rect x="459"
         y="77"
         width="80"
         height="32"
         class="terminal"
         rx="10"/>
   <text class="terminal" x="469" y="97">delimiter</text>
   <a xmlns:xlink="http://www.w3.org/1999/xlink"
      xlink:href="#charVal"
      xlink:title="charVal">
      <rect x="561" y="79" width="66" height="32"/>
      <rect x="559" y="77" width="66" height="32" class="nonterminal"/>
      <text class="nonterminal" x="569" y="97">charVal</text>
   </a>
   <rect x="687" y="79" width="58" height="32" rx="10"/>
   <rect x="685"
         y="77"
         width="58"
         height="32"
         class="terminal"
         rx="10"/>
   <text class="terminal" x="695" y="97">quote</text>
   <a xmlns:xlink="http://www.w3.org/1999/xlink"
      xlink:href="#charVal"
      xlink:title="charVal">
      <rect x="765" y="79" width="66" height="32"/>
      <rect x="763" y="77" width="66" height="32" class="nonterminal"/>
      <text class="nonterminal" x="773" y="97">charVal</text>
   </a>
   <rect x="687" y="123" width="36" height="32" rx="10"/>
   <rect x="685"
         y="121"
         width="36"
         height="32"
         class="terminal"
         rx="10"/>
   <text class="terminal" x="695" y="141">no</text>
   <rect x="743" y="123" width="58" height="32" rx="10"/>
   <rect x="741"
         y="121"
         width="58"
         height="32"
         class="terminal"
         rx="10"/>
   <text class="terminal" x="751" y="141">quote</text>
   <rect x="395" y="221" width="66" height="32" rx="10"/>
   <rect x="393"
         y="219"
         width="66"
         height="32"
         class="terminal"
         rx="10"/>
   <text class="terminal" x="403" y="239">header</text>
   <rect x="521" y="221" width="80" height="32" rx="10"/>
   <rect x="519"
         y="219"
         width="80"
         height="32"
         class="terminal"
         rx="10"/>
   <text class="terminal" x="529" y="239">encoding</text>
   <a xmlns:xlink="http://www.w3.org/1999/xlink"
      xlink:href="#id"
      xlink:title="id">
      <rect x="621" y="221" width="30" height="32"/>
      <rect x="619" y="219" width="30" height="32" class="nonterminal"/>
      <text class="nonterminal" x="629" y="239">id</text>
   </a>
   <a xmlns:xlink="http://www.w3.org/1999/xlink"
      xlink:href="#orderby"
      xlink:title="orderby">
      <rect x="711" y="221" width="68" height="32"/>
      <rect x="709" y="219" width="68" height="32" class="nonterminal"/>
      <text class="nonterminal" x="719" y="239">orderby</text>
   </a>
   <rect x="819" y="189" width="26" height="32" rx="10"/>
   <rect x="817"
         y="187"
         width="26"
         height="32"
         class="terminal"
         rx="10"/>
   <text class="terminal" x="827" y="207">)</text>
   <path class="line"
         d="m17 61 h2 m0 0 h10 m72 0 h10 m0 0 h10 m26 0 h10 m20 0 h10 m0 0 h48 m-78 0 h20 m58 0 h20 m-98 0 q10 0 10 10 m78 0 q0 -10 10 -10 m-88 10 v12 m78 0 v-12 m-78 12 q0 10 10 10 m58 0 q10 0 10 -10 m-68 10 h10 m38 0 h10 m40 -32 h10 m114 0 h10 m-154 0 l20 0 m-1 0 q-9 0 -9 -10 l0 -24 q0 -10 10 -10 m134 44 l20 0 m-20 0 q10 0 10 -10 l0 -24 q0 -10 -10 -10 m-134 0 h10 m24 0 h10 m0 0 h90 m40 44 h10 m0 0 h176 m-206 0 h20 m186 0 h20 m-226 0 q10 0 10 10 m206 0 q0 -10 10 -10 m-216 10 v12 m206 0 v-12 m-206 12 q0 10 10 10 m186 0 q10 0 10 -10 m-196 10 h10 m80 0 h10 m0 0 h10 m66 0 h10 m40 -32 h10 m0 0 h154 m-184 0 h20 m164 0 h20 m-204 0 q10 0 10 10 m184 0 q0 -10 10 -10 m-194 10 v12 m184 0 v-12 m-184 12 q0 10 10 10 m164 0 q10 0 10 -10 m-174 10 h10 m58 0 h10 m0 0 h10 m66 0 h10 m-174 -10 v20 m184 0 v-20 m-184 20 v24 m184 0 v-24 m-184 24 q0 10 10 10 m164 0 q10 0 10 -10 m-174 10 h10 m36 0 h10 m0 0 h10 m58 0 h10 m0 0 h30 m22 -76 l2 0 m2 0 l2 0 m2 0 l2 0 m-520 142 l2 0 m2 0 l2 0 m2 0 l2 0 m22 0 h10 m0 0 h76 m-106 0 h20 m86 0 h20 m-126 0 q10 0 10 10 m106 0 q0 -10 10 -10 m-116 10 v12 m106 0 v-12 m-106 12 q0 10 10 10 m86 0 q10 0 10 -10 m-96 10 h10 m66 0 h10 m40 -32 h10 m0 0 h140 m-170 0 h20 m150 0 h20 m-190 0 q10 0 10 10 m170 0 q0 -10 10 -10 m-180 10 v12 m170 0 v-12 m-170 12 q0 10 10 10 m150 0 q10 0 10 -10 m-160 10 h10 m80 0 h10 m0 0 h10 m30 0 h10 m40 -32 h10 m0 0 h78 m-108 0 h20 m88 0 h20 m-128 0 q10 0 10 10 m108 0 q0 -10 10 -10 m-118 10 v12 m108 0 v-12 m-108 12 q0 10 10 10 m88 0 q10 0 10 -10 m-98 10 h10 m68 0 h10 m20 -32 h10 m26 0 h10 m3 0 h-3"/>
   <polygon points="863 203 871 199 871 207"/>
   <polygon points="863 203 855 199 855 207"/>
</svg>
