<?xml version="1.0" encoding="UTF-8"?>
<svg xmlns="http://www.w3.org/2000/svg" width="855" height="369">
   <defs>
      <style type="text/css">
    @namespace "http://www.w3.org/2000/svg";
    .line                 {fill: none; stroke: #332900; stroke-width: 1;}
    .bold-line            {stroke: #141000; shape-rendering: crispEdges; stroke-width: 2;}
    .thin-line            {stroke: #1F1800; shape-rendering: crispEdges}
    .filled               {fill: #332900; stroke: none;}
    text.terminal         {font-family: Verdana, Sans-serif;
                            font-size: 12px;
                            fill: #141000;
                            font-weight: bold;
                          }
    text.nonterminal      {font-family: Verdana, Sans-serif;
                            font-size: 12px;
                            fill: #1A1400;
                            font-weight: normal;
                          }
    text.regexp           {font-family: Verdana, Sans-serif;
                            font-size: 12px;
                            fill: #1F1800;
                            font-weight: normal;
                          }
    rect, circle, polygon {fill: #332900; stroke: #332900;}
    rect.terminal         {fill: #FFDB4D; stroke: #332900; stroke-width: 1;}
    rect.nonterminal      {fill: #FFEC9E; stroke: #332900; stroke-width: 1;}
    rect.text             {fill: none; stroke: none;}
    polygon.regexp        {fill: #FFF4C7; stroke: #332900; stroke-width: 1;}
  </style>
   </defs>
   <polygon points="9 61 1 57 1 65"/>
   <polygon points="17 61 9 57 9 65"/>
   <rect x="31" y="47" width="80" height="32" rx="10"/>
   <rect x="29"
         y="45"
         width="80"
         height="32"
         class="terminal"
         rx="10"/>
   <text class="terminal" x="39" y="65">texttable</text>
   <rect x="131" y="47" width="26" height="32" rx="10"/>
   <rect x="129"
         y="45"
         width="26"
         height="32"
         class="terminal"
         rx="10"/>
   <text class="terminal" x="139" y="65">(</text>
   <a xmlns:xlink="http://www.w3.org/1999/xlink"
      xlink:href="#commonValueExpression"
      xlink:title="commonValueExpression">
      <rect x="177" y="47" width="178" height="32"/>
      <rect x="175" y="45" width="178" height="32" class="nonterminal"/>
      <text class="nonterminal" x="185" y="65">commonValueExpression</text>
   </a>
   <rect x="395" y="79" width="74" height="32" rx="10"/>
   <rect x="393"
         y="77"
         width="74"
         height="32"
         class="terminal"
         rx="10"/>
   <text class="terminal" x="403" y="97">selector</text>
   <a xmlns:xlink="http://www.w3.org/1999/xlink"
      xlink:href="#stringVal"
      xlink:title="stringVal">
      <rect x="489" y="79" width="76" height="32"/>
      <rect x="487" y="77" width="76" height="32" class="nonterminal"/>
      <text class="nonterminal" x="497" y="97">stringVal</text>
   </a>
   <rect x="605" y="47" width="76" height="32" rx="10"/>
   <rect x="603"
         y="45"
         width="76"
         height="32"
         class="terminal"
         rx="10"/>
   <text class="terminal" x="613" y="65">columns</text>
   <a xmlns:xlink="http://www.w3.org/1999/xlink"
      xlink:href="#textColumn"
      xlink:title="textColumn">
      <rect x="721" y="47" width="92" height="32"/>
      <rect x="719" y="45" width="92" height="32" class="nonterminal"/>
      <text class="nonterminal" x="729" y="65">textColumn</text>
   </a>
   <rect x="721" y="3" width="24" height="32" rx="10"/>
   <rect x="719"
         y="1"
         width="24"
         height="32"
         class="terminal"
         rx="10"/>
   <text class="terminal" x="729" y="21">,</text>
   <rect x="74" y="161" width="36" height="32" rx="10"/>
   <rect x="72"
         y="159"
         width="36"
         height="32"
         class="terminal"
         rx="10"/>
   <text class="terminal" x="82" y="179">no</text>
   <rect x="130" y="161" width="46" height="32" rx="10"/>
   <rect x="128"
         y="159"
         width="46"
         height="32"
         class="terminal"
         rx="10"/>
   <text class="terminal" x="138" y="179">row</text>
   <rect x="196" y="161" width="80" height="32" rx="10"/>
   <rect x="194"
         y="159"
         width="80"
         height="32"
         class="terminal"
         rx="10"/>
   <text class="terminal" x="204" y="179">delimiter</text>
   <rect x="74" y="205" width="46" height="32" rx="10"/>
   <rect x="72"
         y="203"
         width="46"
         height="32"
         class="terminal"
         rx="10"/>
   <text class="terminal" x="82" y="223">row</text>
   <rect x="140" y="205" width="80" height="32" rx="10"/>
   <rect x="138"
         y="203"
         width="80"
         height="32"
         class="terminal"
         rx="10"/>
   <text class="terminal" x="148" y="223">delimiter</text>
   <a xmlns:xlink="http://www.w3.org/1999/xlink"
      xlink:href="#charVal"
      xlink:title="charVal">
      <rect x="240" y="205" width="66" height="32"/>
      <rect x="238" y="203" width="66" height="32" class="nonterminal"/>
      <text class="nonterminal" x="248" y="223">charVal</text>
   </a>
   <rect x="366" y="161" width="80" height="32" rx="10"/>
   <rect x="364"
         y="159"
         width="80"
         height="32"
         class="terminal"
         rx="10"/>
   <text class="terminal" x="374" y="179">delimiter</text>
   <a xmlns:xlink="http://www.w3.org/1999/xlink"
      xlink:href="#charVal"
      xlink:title="charVal">
      <rect x="466" y="161" width="66" height="32"/>
      <rect x="464" y="159" width="66" height="32" class="nonterminal"/>
      <text class="nonterminal" x="474" y="179">charVal</text>
   </a>
   <rect x="612" y="161" width="66" height="32" rx="10"/>
   <rect x="610"
         y="159"
         width="66"
         height="32"
         class="terminal"
         rx="10"/>
   <text class="terminal" x="620" y="179">escape</text>
   <rect x="612" y="205" width="58" height="32" rx="10"/>
   <rect x="610"
         y="203"
         width="58"
         height="32"
         class="terminal"
         rx="10"/>
   <text class="terminal" x="620" y="223">quote</text>
   <a xmlns:xlink="http://www.w3.org/1999/xlink"
      xlink:href="#charVal"
      xlink:title="charVal">
      <rect x="718" y="161" width="66" height="32"/>
      <rect x="716" y="159" width="66" height="32" class="nonterminal"/>
      <text class="nonterminal" x="726" y="179">charVal</text>
   </a>
   <rect x="87" y="303" width="66" height="32" rx="10"/>
   <rect x="85"
         y="301"
         width="66"
         height="32"
         class="terminal"
         rx="10"/>
   <text class="terminal" x="95" y="321">header</text>
   <a xmlns:xlink="http://www.w3.org/1999/xlink"
      xlink:href="#intVal"
      xlink:title="intVal">
      <rect x="193" y="335" width="56" height="32"/>
      <rect x="191" y="333" width="56" height="32" class="nonterminal"/>
      <text class="nonterminal" x="201" y="353">intVal</text>
   </a>
   <rect x="329" y="303" width="48" height="32" rx="10"/>
   <rect x="327"
         y="301"
         width="48"
         height="32"
         class="terminal"
         rx="10"/>
   <text class="terminal" x="337" y="321">skip</text>
   <a xmlns:xlink="http://www.w3.org/1999/xlink"
      xlink:href="#intVal"
      xlink:title="intVal">
      <rect x="397" y="303" width="56" height="32"/>
      <rect x="395" y="301" width="56" height="32" class="nonterminal"/>
      <text class="nonterminal" x="405" y="321">intVal</text>
   </a>
   <rect x="513" y="303" width="36" height="32" rx="10"/>
   <rect x="511"
         y="301"
         width="36"
         height="32"
         class="terminal"
         rx="10"/>
   <text class="terminal" x="521" y="321">no</text>
   <rect x="569" y="303" width="48" height="32" rx="10"/>
   <rect x="567"
         y="301"
         width="48"
         height="32"
         class="terminal"
         rx="10"/>
   <text class="terminal" x="577" y="321">trim</text>
   <rect x="657" y="271" width="26" height="32" rx="10"/>
   <rect x="655"
         y="269"
         width="26"
         height="32"
         class="terminal"
         rx="10"/>
   <text class="terminal" x="665" y="289">)</text>
   <rect x="723" y="303" width="34" height="32" rx="10"/>
   <rect x="721"
         y="301"
         width="34"
         height="32"
         class="terminal"
         rx="10"/>
   <text class="terminal" x="731" y="321">as</text>
   <a xmlns:xlink="http://www.w3.org/1999/xlink"
      xlink:href="#id"
      xlink:title="id">
      <rect x="797" y="271" width="30" height="32"/>
      <rect x="795" y="269" width="30" height="32" class="nonterminal"/>
      <text class="nonterminal" x="805" y="289">id</text>
   </a>
   <path class="line"
         d="m17 61 h2 m0 0 h10 m80 0 h10 m0 0 h10 m26 0 h10 m0 0 h10 m178 0 h10 m20 0 h10 m0 0 h180 m-210 0 h20 m190 0 h20 m-230 0 q10 0 10 10 m210 0 q0 -10 10 -10 m-220 10 v12 m210 0 v-12 m-210 12 q0 10 10 10 m190 0 q10 0 10 -10 m-200 10 h10 m74 0 h10 m0 0 h10 m76 0 h10 m20 -32 h10 m76 0 h10 m20 0 h10 m92 0 h10 m-132 0 l20 0 m-1 0 q-9 0 -9 -10 l0 -24 q0 -10 10 -10 m112 44 l20 0 m-20 0 q10 0 10 -10 l0 -24 q0 -10 -10 -10 m-112 0 h10 m24 0 h10 m0 0 h68 m22 44 l2 0 m2 0 l2 0 m2 0 l2 0 m-823 82 l2 0 m2 0 l2 0 m2 0 l2 0 m22 0 h10 m0 0 h242 m-272 0 h20 m252 0 h20 m-292 0 q10 0 10 10 m272 0 q0 -10 10 -10 m-282 10 v12 m272 0 v-12 m-272 12 q0 10 10 10 m252 0 q10 0 10 -10 m-262 10 h10 m36 0 h10 m0 0 h10 m46 0 h10 m0 0 h10 m80 0 h10 m0 0 h30 m-262 -10 v20 m272 0 v-20 m-272 20 v24 m272 0 v-24 m-272 24 q0 10 10 10 m252 0 q10 0 10 -10 m-262 10 h10 m46 0 h10 m0 0 h10 m80 0 h10 m0 0 h10 m66 0 h10 m40 -76 h10 m0 0 h176 m-206 0 h20 m186 0 h20 m-226 0 q10 0 10 10 m206 0 q0 -10 10 -10 m-216 10 v12 m206 0 v-12 m-206 12 q0 10 10 10 m186 0 q10 0 10 -10 m-196 10 h10 m80 0 h10 m0 0 h10 m66 0 h10 m40 -32 h10 m0 0 h202 m-232 0 h20 m212 0 h20 m-252 0 q10 0 10 10 m232 0 q0 -10 10 -10 m-242 10 v12 m232 0 v-12 m-232 12 q0 10 10 10 m212 0 q10 0 10 -10 m-202 10 h10 m66 0 h10 m-106 0 h20 m86 0 h20 m-126 0 q10 0 10 10 m106 0 q0 -10 10 -10 m-116 10 v24 m106 0 v-24 m-106 24 q0 10 10 10 m86 0 q10 0 10 -10 m-96 10 h10 m58 0 h10 m0 0 h8 m20 -44 h10 m66 0 h10 m22 -32 l2 0 m2 0 l2 0 m2 0 l2 0 m-781 142 l2 0 m2 0 l2 0 m2 0 l2 0 m22 0 h10 m0 0 h192 m-222 0 h20 m202 0 h20 m-242 0 q10 0 10 10 m222 0 q0 -10 10 -10 m-232 10 v12 m222 0 v-12 m-222 12 q0 10 10 10 m202 0 q10 0 10 -10 m-212 10 h10 m66 0 h10 m20 0 h10 m0 0 h66 m-96 0 h20 m76 0 h20 m-116 0 q10 0 10 10 m96 0 q0 -10 10 -10 m-106 10 v12 m96 0 v-12 m-96 12 q0 10 10 10 m76 0 q10 0 10 -10 m-86 10 h10 m56 0 h10 m60 -64 h10 m0 0 h134 m-164 0 h20 m144 0 h20 m-184 0 q10 0 10 10 m164 0 q0 -10 10 -10 m-174 10 v12 m164 0 v-12 m-164 12 q0 10 10 10 m144 0 q10 0 10 -10 m-154 10 h10 m48 0 h10 m0 0 h10 m56 0 h10 m40 -32 h10 m0 0 h114 m-144 0 h20 m124 0 h20 m-164 0 q10 0 10 10 m144 0 q0 -10 10 -10 m-154 10 v12 m144 0 v-12 m-144 12 q0 10 10 10 m124 0 q10 0 10 -10 m-134 10 h10 m36 0 h10 m0 0 h10 m48 0 h10 m20 -32 h10 m26 0 h10 m20 0 h10 m0 0 h44 m-74 0 h20 m54 0 h20 m-94 0 q10 0 10 10 m74 0 q0 -10 10 -10 m-84 10 v12 m74 0 v-12 m-74 12 q0 10 10 10 m54 0 q10 0 10 -10 m-64 10 h10 m34 0 h10 m20 -32 h10 m30 0 h10 m3 0 h-3"/>
   <polygon points="845 285 853 281 853 289"/>
   <polygon points="845 285 837 281 837 289"/>
</svg>
