<?xml version="1.0" encoding="UTF-8"?>
<svg xmlns="http://www.w3.org/2000/svg" width="1127" height="211">
   <defs>
      <style type="text/css">
    @namespace "http://www.w3.org/2000/svg";
    .line                 {fill: none; stroke: #332900; stroke-width: 1;}
    .bold-line            {stroke: #141000; shape-rendering: crispEdges; stroke-width: 2;}
    .thin-line            {stroke: #1F1800; shape-rendering: crispEdges}
    .filled               {fill: #332900; stroke: none;}
    text.terminal         {font-family: Verdana, Sans-serif;
                            font-size: 12px;
                            fill: #141000;
                            font-weight: bold;
                          }
    text.nonterminal      {font-family: Verdana, Sans-serif;
                            font-size: 12px;
                            fill: #1A1400;
                            font-weight: normal;
                          }
    text.regexp           {font-family: Verdana, Sans-serif;
                            font-size: 12px;
                            fill: #1F1800;
                            font-weight: normal;
                          }
    rect, circle, polygon {fill: #332900; stroke: #332900;}
    rect.terminal         {fill: #FFDB4D; stroke: #332900; stroke-width: 1;}
    rect.nonterminal      {fill: #FFEC9E; stroke: #332900; stroke-width: 1;}
    rect.text             {fill: none; stroke: none;}
    polygon.regexp        {fill: #FFF4C7; stroke: #332900; stroke-width: 1;}
  </style>
   </defs>
   <polygon points="11 17 3 13 3 21"/>
   <polygon points="19 17 11 13 11 21"/>
   <a xmlns:xlink="http://www.w3.org/1999/xlink"
      xlink:href="#id"
      xlink:title="id">
      <rect x="33" y="3" width="30" height="32"/>
      <rect x="31" y="1" width="30" height="32" class="nonterminal"/>
      <text class="nonterminal" x="41" y="21">id</text>
   </a>
   <rect x="45" y="69" width="38" height="32" rx="10"/>
   <rect x="43"
         y="67"
         width="38"
         height="32"
         class="terminal"
         rx="10"/>
   <text class="terminal" x="53" y="87">for</text>
   <rect x="103" y="69" width="84" height="32" rx="10"/>
   <rect x="101"
         y="67"
         width="84"
         height="32"
         class="terminal"
         rx="10"/>
   <text class="terminal" x="111" y="87">ordinality</text>
   <rect x="65" y="145" width="66" height="32" rx="10"/>
   <rect x="63"
         y="143"
         width="66"
         height="32"
         class="terminal"
         rx="10"/>
   <text class="terminal" x="73" y="163">header</text>
   <a xmlns:xlink="http://www.w3.org/1999/xlink"
      xlink:href="#stringVal"
      xlink:title="stringVal">
      <rect x="151" y="145" width="76" height="32"/>
      <rect x="149" y="143" width="76" height="32" class="nonterminal"/>
      <text class="nonterminal" x="159" y="163">stringVal</text>
   </a>
   <a xmlns:xlink="http://www.w3.org/1999/xlink"
      xlink:href="#parseBasicDataType"
      xlink:title="parseBasicDataType">
      <rect x="267" y="113" width="148" height="32"/>
      <rect x="265" y="111" width="148" height="32" class="nonterminal"/>
      <text class="nonterminal" x="275" y="131">parseBasicDataType</text>
   </a>
   <rect x="455" y="145" width="58" height="32" rx="10"/>
   <rect x="453"
         y="143"
         width="58"
         height="32"
         class="terminal"
         rx="10"/>
   <text class="terminal" x="463" y="163">width</text>
   <a xmlns:xlink="http://www.w3.org/1999/xlink"
      xlink:href="#intVal"
      xlink:title="intVal">
      <rect x="533" y="145" width="56" height="32"/>
      <rect x="531" y="143" width="56" height="32" class="nonterminal"/>
      <text class="nonterminal" x="541" y="163">intVal</text>
   </a>
   <rect x="629" y="177" width="36" height="32" rx="10"/>
   <rect x="627"
         y="175"
         width="36"
         height="32"
         class="terminal"
         rx="10"/>
   <text class="terminal" x="637" y="195">no</text>
   <rect x="685" y="177" width="48" height="32" rx="10"/>
   <rect x="683"
         y="175"
         width="48"
         height="32"
         class="terminal"
         rx="10"/>
   <text class="terminal" x="693" y="195">trim</text>
   <rect x="813" y="145" width="74" height="32" rx="10"/>
   <rect x="811"
         y="143"
         width="74"
         height="32"
         class="terminal"
         rx="10"/>
   <text class="terminal" x="821" y="163">selector</text>
   <a xmlns:xlink="http://www.w3.org/1999/xlink"
      xlink:href="#stringVal"
      xlink:title="stringVal">
      <rect x="907" y="145" width="76" height="32"/>
      <rect x="905" y="143" width="76" height="32" class="nonterminal"/>
      <text class="nonterminal" x="915" y="163">stringVal</text>
   </a>
   <a xmlns:xlink="http://www.w3.org/1999/xlink"
      xlink:href="#intVal"
      xlink:title="intVal">
      <rect x="1003" y="145" width="56" height="32"/>
      <rect x="1001" y="143" width="56" height="32" class="nonterminal"/>
      <text class="nonterminal" x="1011" y="163">intVal</text>
   </a>
   <path class="line"
         d="m19 17 h2 m0 0 h10 m30 0 h10 m2 0 l2 0 m2 0 l2 0 m2 0 l2 0 m-82 66 l2 0 m2 0 l2 0 m2 0 l2 0 m22 0 h10 m38 0 h10 m0 0 h10 m84 0 h10 m0 0 h892 m-1074 0 h20 m1054 0 h20 m-1094 0 q10 0 10 10 m1074 0 q0 -10 10 -10 m-1084 10 v24 m1074 0 v-24 m-1074 24 q0 10 10 10 m1054 0 q10 0 10 -10 m-1044 10 h10 m0 0 h172 m-202 0 h20 m182 0 h20 m-222 0 q10 0 10 10 m202 0 q0 -10 10 -10 m-212 10 v12 m202 0 v-12 m-202 12 q0 10 10 10 m182 0 q10 0 10 -10 m-192 10 h10 m66 0 h10 m0 0 h10 m76 0 h10 m20 -32 h10 m148 0 h10 m20 0 h10 m0 0 h308 m-338 0 h20 m318 0 h20 m-358 0 q10 0 10 10 m338 0 q0 -10 10 -10 m-348 10 v12 m338 0 v-12 m-338 12 q0 10 10 10 m318 0 q10 0 10 -10 m-328 10 h10 m58 0 h10 m0 0 h10 m56 0 h10 m20 0 h10 m0 0 h114 m-144 0 h20 m124 0 h20 m-164 0 q10 0 10 10 m144 0 q0 -10 10 -10 m-154 10 v12 m144 0 v-12 m-144 12 q0 10 10 10 m124 0 q10 0 10 -10 m-134 10 h10 m36 0 h10 m0 0 h10 m48 0 h10 m60 -64 h10 m0 0 h256 m-286 0 h20 m266 0 h20 m-306 0 q10 0 10 10 m286 0 q0 -10 10 -10 m-296 10 v12 m286 0 v-12 m-286 12 q0 10 10 10 m266 0 q10 0 10 -10 m-276 10 h10 m74 0 h10 m0 0 h10 m76 0 h10 m0 0 h10 m56 0 h10 m43 -76 h-3"/>
   <polygon points="1117 83 1125 79 1125 87"/>
   <polygon points="1117 83 1109 79 1109 87"/>
</svg>
