<?xml version="1.0" encoding="UTF-8"?>
<svg xmlns="http://www.w3.org/2000/svg" width="669" height="289">
   <defs>
      <style type="text/css">
    @namespace "http://www.w3.org/2000/svg";
    .line                 {fill: none; stroke: #332900; stroke-width: 1;}
    .bold-line            {stroke: #141000; shape-rendering: crispEdges; stroke-width: 2;}
    .thin-line            {stroke: #1F1800; shape-rendering: crispEdges}
    .filled               {fill: #332900; stroke: none;}
    text.terminal         {font-family: Verdana, Sans-serif;
                            font-size: 12px;
                            fill: #141000;
                            font-weight: bold;
                          }
    text.nonterminal      {font-family: Verdana, Sans-serif;
                            font-size: 12px;
                            fill: #1A1400;
                            font-weight: normal;
                          }
    text.regexp           {font-family: Verdana, Sans-serif;
                            font-size: 12px;
                            fill: #1F1800;
                            font-weight: normal;
                          }
    rect, circle, polygon {fill: #332900; stroke: #332900;}
    rect.terminal         {fill: #FFDB4D; stroke: #332900; stroke-width: 1;}
    rect.nonterminal      {fill: #FFEC9E; stroke: #332900; stroke-width: 1;}
    rect.text             {fill: none; stroke: none;}
    polygon.regexp        {fill: #FFF4C7; stroke: #332900; stroke-width: 1;}
  </style>
   </defs>
   <polygon points="9 17 1 13 1 21"/>
   <polygon points="17 17 9 13 9 21"/>
   <a xmlns:xlink="http://www.w3.org/1999/xlink"
      xlink:href="#textAgg"
      xlink:title="textAgg">
      <rect x="91" y="3" width="68" height="32"/>
      <rect x="89" y="1" width="68" height="32" class="nonterminal"/>
      <text class="nonterminal" x="99" y="21">textAgg</text>
   </a>
   <a xmlns:xlink="http://www.w3.org/1999/xlink"
      xlink:href="#aggregateSymbol"
      xlink:title="aggregateSymbol">
      <rect x="91" y="47" width="132" height="32"/>
      <rect x="89" y="45" width="132" height="32" class="nonterminal"/>
      <text class="nonterminal" x="99" y="65">aggregateSymbol</text>
   </a>
   <a xmlns:xlink="http://www.w3.org/1999/xlink"
      xlink:href="#orderedAgg"
      xlink:title="orderedAgg">
      <rect x="91" y="91" width="94" height="32"/>
      <rect x="89" y="89" width="94" height="32" class="nonterminal"/>
      <text class="nonterminal" x="99" y="109">orderedAgg</text>
   </a>
   <a xmlns:xlink="http://www.w3.org/1999/xlink"
      xlink:href="#filterClause"
      xlink:title="filterClause">
      <rect x="283" y="35" width="92" height="32"/>
      <rect x="281" y="33" width="92" height="32" class="nonterminal"/>
      <text class="nonterminal" x="291" y="53">filterClause</text>
   </a>
   <a xmlns:xlink="http://www.w3.org/1999/xlink"
      xlink:href="#function"
      xlink:title="function">
      <rect x="71" y="135" width="70" height="32"/>
      <rect x="69" y="133" width="70" height="32" class="nonterminal"/>
      <text class="nonterminal" x="79" y="153">function</text>
   </a>
   <a xmlns:xlink="http://www.w3.org/1999/xlink"
      xlink:href="#windowSpecification"
      xlink:title="windowSpecification">
      <rect x="455" y="35" width="146" height="32"/>
      <rect x="453" y="33" width="146" height="32" class="nonterminal"/>
      <text class="nonterminal" x="463" y="53">windowSpecification</text>
   </a>
   <a xmlns:xlink="http://www.w3.org/1999/xlink"
      xlink:href="#analyticAggregateSymbol"
      xlink:title="analyticAggregateSymbol">
      <rect x="51" y="179" width="180" height="32"/>
      <rect x="49" y="177" width="180" height="32" class="nonterminal"/>
      <text class="nonterminal" x="59" y="197">analyticAggregateSymbol</text>
   </a>
   <a xmlns:xlink="http://www.w3.org/1999/xlink"
      xlink:href="#filterClause"
      xlink:title="filterClause">
      <rect x="271" y="211" width="92" height="32"/>
      <rect x="269" y="209" width="92" height="32" class="nonterminal"/>
      <text class="nonterminal" x="279" y="229">filterClause</text>
   </a>
   <a xmlns:xlink="http://www.w3.org/1999/xlink"
      xlink:href="#windowSpecification"
      xlink:title="windowSpecification">
      <rect x="403" y="179" width="146" height="32"/>
      <rect x="401" y="177" width="146" height="32" class="nonterminal"/>
      <text class="nonterminal" x="411" y="197">windowSpecification</text>
   </a>
   <rect x="51" y="255" width="72" height="32" rx="10"/>
   <rect x="49"
         y="253"
         width="72"
         height="32"
         class="terminal"
         rx="10"/>
   <text class="terminal" x="59" y="273">xmlcast</text>
   <rect x="143" y="255" width="26" height="32" rx="10"/>
   <rect x="141"
         y="253"
         width="26"
         height="32"
         class="terminal"
         rx="10"/>
   <text class="terminal" x="151" y="273">(</text>
   <a xmlns:xlink="http://www.w3.org/1999/xlink"
      xlink:href="#expression"
      xlink:title="expression">
      <rect x="189" y="255" width="90" height="32"/>
      <rect x="187" y="253" width="90" height="32" class="nonterminal"/>
      <text class="nonterminal" x="197" y="273">expression</text>
   </a>
   <rect x="299" y="255" width="34" height="32" rx="10"/>
   <rect x="297"
         y="253"
         width="34"
         height="32"
         class="terminal"
         rx="10"/>
   <text class="terminal" x="307" y="273">as</text>
   <a xmlns:xlink="http://www.w3.org/1999/xlink"
      xlink:href="#parseDataType"
      xlink:title="parseDataType">
      <rect x="353" y="255" width="116" height="32"/>
      <rect x="351" y="253" width="116" height="32" class="nonterminal"/>
      <text class="nonterminal" x="361" y="273">parseDataType</text>
   </a>
   <rect x="489" y="255" width="26" height="32" rx="10"/>
   <rect x="487"
         y="253"
         width="26"
         height="32"
         class="terminal"
         rx="10"/>
   <text class="terminal" x="497" y="273">)</text>
   <path class="line"
         d="m17 17 h2 m60 0 h10 m68 0 h10 m0 0 h64 m-172 0 h20 m152 0 h20 m-192 0 q10 0 10 10 m172 0 q0 -10 10 -10 m-182 10 v24 m172 0 v-24 m-172 24 q0 10 10 10 m152 0 q10 0 10 -10 m-162 10 h10 m132 0 h10 m-162 -10 v20 m172 0 v-20 m-172 20 v24 m172 0 v-24 m-172 24 q0 10 10 10 m152 0 q10 0 10 -10 m-162 10 h10 m94 0 h10 m0 0 h38 m40 -88 h10 m0 0 h102 m-132 0 h20 m112 0 h20 m-152 0 q10 0 10 10 m132 0 q0 -10 10 -10 m-142 10 v12 m132 0 v-12 m-132 12 q0 10 10 10 m112 0 q10 0 10 -10 m-122 10 h10 m92 0 h10 m-344 -32 h20 m344 0 h20 m-384 0 q10 0 10 10 m364 0 q0 -10 10 -10 m-374 10 v112 m364 0 v-112 m-364 112 q0 10 10 10 m344 0 q10 0 10 -10 m-354 10 h10 m70 0 h10 m0 0 h254 m40 -132 h10 m0 0 h156 m-186 0 h20 m166 0 h20 m-206 0 q10 0 10 10 m186 0 q0 -10 10 -10 m-196 10 v12 m186 0 v-12 m-186 12 q0 10 10 10 m166 0 q10 0 10 -10 m-176 10 h10 m146 0 h10 m-590 -32 h20 m590 0 h20 m-630 0 q10 0 10 10 m610 0 q0 -10 10 -10 m-620 10 v156 m610 0 v-156 m-610 156 q0 10 10 10 m590 0 q10 0 10 -10 m-600 10 h10 m180 0 h10 m20 0 h10 m0 0 h102 m-132 0 h20 m112 0 h20 m-152 0 q10 0 10 10 m132 0 q0 -10 10 -10 m-142 10 v12 m132 0 v-12 m-132 12 q0 10 10 10 m112 0 q10 0 10 -10 m-122 10 h10 m92 0 h10 m20 -32 h10 m146 0 h10 m0 0 h72 m-600 -10 v20 m610 0 v-20 m-610 20 v56 m610 0 v-56 m-610 56 q0 10 10 10 m590 0 q10 0 10 -10 m-600 10 h10 m72 0 h10 m0 0 h10 m26 0 h10 m0 0 h10 m90 0 h10 m0 0 h10 m34 0 h10 m0 0 h10 m116 0 h10 m0 0 h10 m26 0 h10 m0 0 h106 m23 -252 h-3"/>
   <polygon points="659 17 667 13 667 21"/>
   <polygon points="659 17 651 13 651 21"/>
</svg>
