<?xml version="1.0" encoding="UTF-8"?>
<svg xmlns="http://www.w3.org/2000/svg" width="275" height="477">
   <defs>
      <style type="text/css">
    @namespace "http://www.w3.org/2000/svg";
    .line                 {fill: none; stroke: #332900; stroke-width: 1;}
    .bold-line            {stroke: #141000; shape-rendering: crispEdges; stroke-width: 2;}
    .thin-line            {stroke: #1F1800; shape-rendering: crispEdges}
    .filled               {fill: #332900; stroke: none;}
    text.terminal         {font-family: Verdana, Sans-serif;
                            font-size: 12px;
                            fill: #141000;
                            font-weight: bold;
                          }
    text.nonterminal      {font-family: Verdana, Sans-serif;
                            font-size: 12px;
                            fill: #1A1400;
                            font-weight: normal;
                          }
    text.regexp           {font-family: Verdana, Sans-serif;
                            font-size: 12px;
                            fill: #1F1800;
                            font-weight: normal;
                          }
    rect, circle, polygon {fill: #332900; stroke: #332900;}
    rect.terminal         {fill: #FFDB4D; stroke: #332900; stroke-width: 1;}
    rect.nonterminal      {fill: #FFEC9E; stroke: #332900; stroke-width: 1;}
    rect.text             {fill: none; stroke: none;}
    polygon.regexp        {fill: #FFF4C7; stroke: #332900; stroke-width: 1;}
  </style>
   </defs>
   <polygon points="9 17 1 13 1 21"/>
   <polygon points="17 17 9 13 9 21"/>
   <a xmlns:xlink="http://www.w3.org/1999/xlink"
      xlink:href="#queryExpression"
      xlink:title="queryExpression">
      <rect x="51" y="3" width="126" height="32"/>
      <rect x="49" y="1" width="126" height="32" class="nonterminal"/>
      <text class="nonterminal" x="59" y="21">queryExpression</text>
   </a>
   <a xmlns:xlink="http://www.w3.org/1999/xlink"
      xlink:href="#storedProcedure"
      xlink:title="storedProcedure">
      <rect x="51" y="47" width="126" height="32"/>
      <rect x="49" y="45" width="126" height="32" class="nonterminal"/>
      <text class="nonterminal" x="59" y="65">storedProcedure</text>
   </a>
   <a xmlns:xlink="http://www.w3.org/1999/xlink"
      xlink:href="#insert"
      xlink:title="insert">
      <rect x="51" y="91" width="56" height="32"/>
      <rect x="49" y="89" width="56" height="32" class="nonterminal"/>
      <text class="nonterminal" x="59" y="109">insert</text>
   </a>
   <a xmlns:xlink="http://www.w3.org/1999/xlink"
      xlink:href="#update"
      xlink:title="update">
      <rect x="51" y="135" width="64" height="32"/>
      <rect x="49" y="133" width="64" height="32" class="nonterminal"/>
      <text class="nonterminal" x="59" y="153">update</text>
   </a>
   <a xmlns:xlink="http://www.w3.org/1999/xlink"
      xlink:href="#delete"
      xlink:title="delete">
      <rect x="51" y="179" width="60" height="32"/>
      <rect x="49" y="177" width="60" height="32" class="nonterminal"/>
      <text class="nonterminal" x="59" y="197">delete</text>
   </a>
   <a xmlns:xlink="http://www.w3.org/1999/xlink"
      xlink:href="#dropTable"
      xlink:title="dropTable">
      <rect x="51" y="223" width="82" height="32"/>
      <rect x="49" y="221" width="82" height="32" class="nonterminal"/>
      <text class="nonterminal" x="59" y="241">dropTable</text>
   </a>
   <a xmlns:xlink="http://www.w3.org/1999/xlink"
      xlink:href="#createTempTable"
      xlink:title="createTempTable">
      <rect x="51" y="267" width="128" height="32"/>
      <rect x="49" y="265" width="128" height="32" class="nonterminal"/>
      <text class="nonterminal" x="59" y="285">createTempTable</text>
   </a>
   <a xmlns:xlink="http://www.w3.org/1999/xlink"
      xlink:href="#createForeignTempTable"
      xlink:title="createForeignTempTable">
      <rect x="51" y="311" width="176" height="32"/>
      <rect x="49" y="309" width="176" height="32" class="nonterminal"/>
      <text class="nonterminal" x="59" y="329">createForeignTempTable</text>
   </a>
   <a xmlns:xlink="http://www.w3.org/1999/xlink"
      xlink:href="#alter"
      xlink:title="alter">
      <rect x="51" y="355" width="48" height="32"/>
      <rect x="49" y="353" width="48" height="32" class="nonterminal"/>
      <text class="nonterminal" x="59" y="373">alter</text>
   </a>
   <a xmlns:xlink="http://www.w3.org/1999/xlink"
      xlink:href="#createTrigger"
      xlink:title="createTrigger">
      <rect x="51" y="399" width="104" height="32"/>
      <rect x="49" y="397" width="104" height="32" class="nonterminal"/>
      <text class="nonterminal" x="59" y="417">createTrigger</text>
   </a>
   <a xmlns:xlink="http://www.w3.org/1999/xlink"
      xlink:href="#compoundStatement"
      xlink:title="compoundStatement">
      <rect x="51" y="443" width="152" height="32"/>
      <rect x="49" y="441" width="152" height="32" class="nonterminal"/>
      <text class="nonterminal" x="59" y="461">compoundStatement</text>
   </a>
   <path class="line"
         d="m17 17 h2 m20 0 h10 m126 0 h10 m0 0 h50 m-216 0 h20 m196 0 h20 m-236 0 q10 0 10 10 m216 0 q0 -10 10 -10 m-226 10 v24 m216 0 v-24 m-216 24 q0 10 10 10 m196 0 q10 0 10 -10 m-206 10 h10 m126 0 h10 m0 0 h50 m-206 -10 v20 m216 0 v-20 m-216 20 v24 m216 0 v-24 m-216 24 q0 10 10 10 m196 0 q10 0 10 -10 m-206 10 h10 m56 0 h10 m0 0 h120 m-206 -10 v20 m216 0 v-20 m-216 20 v24 m216 0 v-24 m-216 24 q0 10 10 10 m196 0 q10 0 10 -10 m-206 10 h10 m64 0 h10 m0 0 h112 m-206 -10 v20 m216 0 v-20 m-216 20 v24 m216 0 v-24 m-216 24 q0 10 10 10 m196 0 q10 0 10 -10 m-206 10 h10 m60 0 h10 m0 0 h116 m-206 -10 v20 m216 0 v-20 m-216 20 v24 m216 0 v-24 m-216 24 q0 10 10 10 m196 0 q10 0 10 -10 m-206 10 h10 m82 0 h10 m0 0 h94 m-206 -10 v20 m216 0 v-20 m-216 20 v24 m216 0 v-24 m-216 24 q0 10 10 10 m196 0 q10 0 10 -10 m-206 10 h10 m128 0 h10 m0 0 h48 m-206 -10 v20 m216 0 v-20 m-216 20 v24 m216 0 v-24 m-216 24 q0 10 10 10 m196 0 q10 0 10 -10 m-206 10 h10 m176 0 h10 m-206 -10 v20 m216 0 v-20 m-216 20 v24 m216 0 v-24 m-216 24 q0 10 10 10 m196 0 q10 0 10 -10 m-206 10 h10 m48 0 h10 m0 0 h128 m-206 -10 v20 m216 0 v-20 m-216 20 v24 m216 0 v-24 m-216 24 q0 10 10 10 m196 0 q10 0 10 -10 m-206 10 h10 m104 0 h10 m0 0 h72 m-206 -10 v20 m216 0 v-20 m-216 20 v24 m216 0 v-24 m-216 24 q0 10 10 10 m196 0 q10 0 10 -10 m-206 10 h10 m152 0 h10 m0 0 h24 m23 -440 h-3"/>
   <polygon points="265 17 273 13 273 21"/>
   <polygon points="265 17 257 13 257 21"/>
</svg>
