<?xml version="1.0" encoding="UTF-8"?>
<svg xmlns="http://www.w3.org/2000/svg" width="821" height="163">
   <defs>
      <style type="text/css">
    @namespace "http://www.w3.org/2000/svg";
    .line                 {fill: none; stroke: #332900; stroke-width: 1;}
    .bold-line            {stroke: #141000; shape-rendering: crispEdges; stroke-width: 2;}
    .thin-line            {stroke: #1F1800; shape-rendering: crispEdges}
    .filled               {fill: #332900; stroke: none;}
    text.terminal         {font-family: Verdana, Sans-serif;
                            font-size: 12px;
                            fill: #141000;
                            font-weight: bold;
                          }
    text.nonterminal      {font-family: Verdana, Sans-serif;
                            font-size: 12px;
                            fill: #1A1400;
                            font-weight: normal;
                          }
    text.regexp           {font-family: Verdana, Sans-serif;
                            font-size: 12px;
                            fill: #1F1800;
                            font-weight: normal;
                          }
    rect, circle, polygon {fill: #332900; stroke: #332900;}
    rect.terminal         {fill: #FFDB4D; stroke: #332900; stroke-width: 1;}
    rect.nonterminal      {fill: #FFEC9E; stroke: #332900; stroke-width: 1;}
    rect.text             {fill: none; stroke: none;}
    polygon.regexp        {fill: #FFF4C7; stroke: #332900; stroke-width: 1;}
  </style>
   </defs>
   <polygon points="9 17 1 13 1 21"/>
   <polygon points="17 17 9 13 9 21"/>
   <a xmlns:xlink="http://www.w3.org/1999/xlink"
      xlink:href="#nonNumericLiteral"
      xlink:title="nonNumericLiteral">
      <rect x="51" y="3" width="134" height="32"/>
      <rect x="49" y="1" width="134" height="32" class="nonterminal"/>
      <text class="nonterminal" x="59" y="21">nonNumericLiteral</text>
   </a>
   <a xmlns:xlink="http://www.w3.org/1999/xlink"
      xlink:href="#plusMinus"
      xlink:title="plusMinus">
      <rect x="71" y="79" width="82" height="32"/>
      <rect x="69" y="77" width="82" height="32" class="nonterminal"/>
      <text class="nonterminal" x="79" y="97">plusMinus</text>
   </a>
   <a xmlns:xlink="http://www.w3.org/1999/xlink"
      xlink:href="#unsignedNumericLiteral"
      xlink:title="unsignedNumericLiteral">
      <rect x="213" y="47" width="168" height="32"/>
      <rect x="211" y="45" width="168" height="32" class="nonterminal"/>
      <text class="nonterminal" x="221" y="65">unsignedNumericLiteral</text>
   </a>
   <a xmlns:xlink="http://www.w3.org/1999/xlink"
      xlink:href="#unsignedValueExpressionPrimary"
      xlink:title="unsignedValueExpressionPrimary">
      <rect x="213" y="113" width="232" height="32"/>
      <rect x="211" y="111" width="232" height="32" class="nonterminal"/>
      <text class="nonterminal" x="221" y="131">unsignedValueExpressionPrimary</text>
   </a>
   <rect x="505" y="113" width="26" height="32" rx="10"/>
   <rect x="503"
         y="111"
         width="26"
         height="32"
         class="terminal"
         rx="10"/>
   <text class="terminal" x="513" y="131">[</text>
   <a xmlns:xlink="http://www.w3.org/1999/xlink"
      xlink:href="#plusExpression"
      xlink:title="plusExpression">
      <rect x="551" y="113" width="116" height="32"/>
      <rect x="549" y="111" width="116" height="32" class="nonterminal"/>
      <text class="nonterminal" x="559" y="131">plusExpression</text>
   </a>
   <rect x="687" y="113" width="26" height="32" rx="10"/>
   <rect x="685"
         y="111"
         width="26"
         height="32"
         class="terminal"
         rx="10"/>
   <text class="terminal" x="695" y="131">]</text>
   <path class="line"
         d="m17 17 h2 m20 0 h10 m134 0 h10 m0 0 h588 m-762 0 h20 m742 0 h20 m-782 0 q10 0 10 10 m762 0 q0 -10 10 -10 m-772 10 v24 m762 0 v-24 m-762 24 q0 10 10 10 m742 0 q10 0 10 -10 m-732 10 h10 m0 0 h92 m-122 0 h20 m102 0 h20 m-142 0 q10 0 10 10 m122 0 q0 -10 10 -10 m-132 10 v12 m122 0 v-12 m-122 12 q0 10 10 10 m102 0 q10 0 10 -10 m-112 10 h10 m82 0 h10 m40 -32 h10 m168 0 h10 m0 0 h372 m-580 0 h20 m560 0 h20 m-600 0 q10 0 10 10 m580 0 q0 -10 10 -10 m-590 10 v46 m580 0 v-46 m-580 46 q0 10 10 10 m560 0 q10 0 10 -10 m-570 10 h10 m232 0 h10 m40 0 h10 m26 0 h10 m0 0 h10 m116 0 h10 m0 0 h10 m26 0 h10 m-248 0 l20 0 m-1 0 q-9 0 -9 -10 l0 -12 q0 -10 10 -10 m228 32 l20 0 m-20 0 q10 0 10 -10 l0 -12 q0 -10 -10 -10 m-228 0 h10 m0 0 h218 m-268 32 h20 m268 0 h20 m-308 0 q10 0 10 10 m288 0 q0 -10 10 -10 m-298 10 v14 m288 0 v-14 m-288 14 q0 10 10 10 m268 0 q10 0 10 -10 m-278 10 h10 m0 0 h258 m63 -144 h-3"/>
   <polygon points="811 17 819 13 819 21"/>
   <polygon points="811 17 803 13 803 21"/>
</svg>
