<?xml version="1.0" encoding="UTF-8"?>
<svg xmlns="http://www.w3.org/2000/svg" width="691" height="81">
   <defs>
      <style type="text/css">
    @namespace "http://www.w3.org/2000/svg";
    .line                 {fill: none; stroke: #332900; stroke-width: 1;}
    .bold-line            {stroke: #141000; shape-rendering: crispEdges; stroke-width: 2;}
    .thin-line            {stroke: #1F1800; shape-rendering: crispEdges}
    .filled               {fill: #332900; stroke: none;}
    text.terminal         {font-family: Verdana, Sans-serif;
                            font-size: 12px;
                            fill: #141000;
                            font-weight: bold;
                          }
    text.nonterminal      {font-family: Verdana, Sans-serif;
                            font-size: 12px;
                            fill: #1A1400;
                            font-weight: normal;
                          }
    text.regexp           {font-family: Verdana, Sans-serif;
                            font-size: 12px;
                            fill: #1F1800;
                            font-weight: normal;
                          }
    rect, circle, polygon {fill: #332900; stroke: #332900;}
    rect.terminal         {fill: #FFDB4D; stroke: #332900; stroke-width: 1;}
    rect.nonterminal      {fill: #FFEC9E; stroke: #332900; stroke-width: 1;}
    rect.text             {fill: none; stroke: none;}
    polygon.regexp        {fill: #FFF4C7; stroke: #332900; stroke-width: 1;}
  </style>
   </defs>
   <polygon points="9 17 1 13 1 21"/>
   <polygon points="17 17 9 13 9 21"/>
   <rect x="51" y="3" width="58" height="32" rx="10"/>
   <rect x="49"
         y="1"
         width="58"
         height="32"
         class="terminal"
         rx="10"/>
   <text class="terminal" x="59" y="21">range</text>
   <rect x="51" y="47" width="52" height="32" rx="10"/>
   <rect x="49"
         y="45"
         width="52"
         height="32"
         class="terminal"
         rx="10"/>
   <text class="terminal" x="59" y="65">rows</text>
   <rect x="169" y="35" width="78" height="32" rx="10"/>
   <rect x="167"
         y="33"
         width="78"
         height="32"
         class="terminal"
         rx="10"/>
   <text class="terminal" x="177" y="53">between</text>
   <a xmlns:xlink="http://www.w3.org/1999/xlink"
      xlink:href="#windowFrameBound"
      xlink:title="windowFrameBound">
      <rect x="267" y="35" width="146" height="32"/>
      <rect x="265" y="33" width="146" height="32" class="nonterminal"/>
      <text class="nonterminal" x="275" y="53">windowFrameBound</text>
   </a>
   <rect x="433" y="35" width="44" height="32" rx="10"/>
   <rect x="431"
         y="33"
         width="44"
         height="32"
         class="terminal"
         rx="10"/>
   <text class="terminal" x="441" y="53">and</text>
   <a xmlns:xlink="http://www.w3.org/1999/xlink"
      xlink:href="#windowFrameBound"
      xlink:title="windowFrameBound">
      <rect x="517" y="3" width="146" height="32"/>
      <rect x="515" y="1" width="146" height="32" class="nonterminal"/>
      <text class="nonterminal" x="525" y="21">windowFrameBound</text>
   </a>
   <path class="line"
         d="m17 17 h2 m20 0 h10 m58 0 h10 m-98 0 h20 m78 0 h20 m-118 0 q10 0 10 10 m98 0 q0 -10 10 -10 m-108 10 v24 m98 0 v-24 m-98 24 q0 10 10 10 m78 0 q10 0 10 -10 m-88 10 h10 m52 0 h10 m0 0 h6 m40 -44 h10 m0 0 h318 m-348 0 h20 m328 0 h20 m-368 0 q10 0 10 10 m348 0 q0 -10 10 -10 m-358 10 v12 m348 0 v-12 m-348 12 q0 10 10 10 m328 0 q10 0 10 -10 m-338 10 h10 m78 0 h10 m0 0 h10 m146 0 h10 m0 0 h10 m44 0 h10 m20 -32 h10 m146 0 h10 m3 0 h-3"/>
   <polygon points="681 17 689 13 689 21"/>
   <polygon points="681 17 673 13 673 21"/>
</svg>
