<?xml version="1.0" encoding="UTF-8"?>
<svg xmlns="http://www.w3.org/2000/svg" width="821" height="69">
   <defs>
      <style type="text/css">
    @namespace "http://www.w3.org/2000/svg";
    .line                 {fill: none; stroke: #332900; stroke-width: 1;}
    .bold-line            {stroke: #141000; shape-rendering: crispEdges; stroke-width: 2;}
    .thin-line            {stroke: #1F1800; shape-rendering: crispEdges}
    .filled               {fill: #332900; stroke: none;}
    text.terminal         {font-family: Verdana, Sans-serif;
                            font-size: 12px;
                            fill: #141000;
                            font-weight: bold;
                          }
    text.nonterminal      {font-family: Verdana, Sans-serif;
                            font-size: 12px;
                            fill: #1A1400;
                            font-weight: normal;
                          }
    text.regexp           {font-family: Verdana, Sans-serif;
                            font-size: 12px;
                            fill: #1F1800;
                            font-weight: normal;
                          }
    rect, circle, polygon {fill: #332900; stroke: #332900;}
    rect.terminal         {fill: #FFDB4D; stroke: #332900; stroke-width: 1;}
    rect.nonterminal      {fill: #FFEC9E; stroke: #332900; stroke-width: 1;}
    rect.text             {fill: none; stroke: none;}
    polygon.regexp        {fill: #FFF4C7; stroke: #332900; stroke-width: 1;}
  </style>
   </defs>
   <polygon points="9 17 1 13 1 21"/>
   <polygon points="17 17 9 13 9 21"/>
   <rect x="31" y="3" width="50" height="32" rx="10"/>
   <rect x="29"
         y="1"
         width="50"
         height="32"
         class="terminal"
         rx="10"/>
   <text class="terminal" x="39" y="21">over</text>
   <rect x="101" y="3" width="26" height="32" rx="10"/>
   <rect x="99"
         y="1"
         width="26"
         height="32"
         class="terminal"
         rx="10"/>
   <text class="terminal" x="109" y="21">(</text>
   <rect x="167" y="35" width="78" height="32" rx="10"/>
   <rect x="165"
         y="33"
         width="78"
         height="32"
         class="terminal"
         rx="10"/>
   <text class="terminal" x="175" y="53">partition</text>
   <rect x="265" y="35" width="36" height="32" rx="10"/>
   <rect x="263"
         y="33"
         width="36"
         height="32"
         class="terminal"
         rx="10"/>
   <text class="terminal" x="273" y="53">by</text>
   <a xmlns:xlink="http://www.w3.org/1999/xlink"
      xlink:href="#expressionList"
      xlink:title="expressionList">
      <rect x="321" y="35" width="112" height="32"/>
      <rect x="319" y="33" width="112" height="32" class="nonterminal"/>
      <text class="nonterminal" x="329" y="53">expressionList</text>
   </a>
   <a xmlns:xlink="http://www.w3.org/1999/xlink"
      xlink:href="#orderby"
      xlink:title="orderby">
      <rect x="493" y="35" width="68" height="32"/>
      <rect x="491" y="33" width="68" height="32" class="nonterminal"/>
      <text class="nonterminal" x="501" y="53">orderby</text>
   </a>
   <a xmlns:xlink="http://www.w3.org/1999/xlink"
      xlink:href="#windowFrame"
      xlink:title="windowFrame">
      <rect x="621" y="35" width="106" height="32"/>
      <rect x="619" y="33" width="106" height="32" class="nonterminal"/>
      <text class="nonterminal" x="629" y="53">windowFrame</text>
   </a>
   <rect x="767" y="3" width="26" height="32" rx="10"/>
   <rect x="765"
         y="1"
         width="26"
         height="32"
         class="terminal"
         rx="10"/>
   <text class="terminal" x="775" y="21">)</text>
   <path class="line"
         d="m17 17 h2 m0 0 h10 m50 0 h10 m0 0 h10 m26 0 h10 m20 0 h10 m0 0 h276 m-306 0 h20 m286 0 h20 m-326 0 q10 0 10 10 m306 0 q0 -10 10 -10 m-316 10 v12 m306 0 v-12 m-306 12 q0 10 10 10 m286 0 q10 0 10 -10 m-296 10 h10 m78 0 h10 m0 0 h10 m36 0 h10 m0 0 h10 m112 0 h10 m40 -32 h10 m0 0 h78 m-108 0 h20 m88 0 h20 m-128 0 q10 0 10 10 m108 0 q0 -10 10 -10 m-118 10 v12 m108 0 v-12 m-108 12 q0 10 10 10 m88 0 q10 0 10 -10 m-98 10 h10 m68 0 h10 m40 -32 h10 m0 0 h116 m-146 0 h20 m126 0 h20 m-166 0 q10 0 10 10 m146 0 q0 -10 10 -10 m-156 10 v12 m146 0 v-12 m-146 12 q0 10 10 10 m126 0 q10 0 10 -10 m-136 10 h10 m106 0 h10 m20 -32 h10 m26 0 h10 m3 0 h-3"/>
   <polygon points="811 17 819 13 819 21"/>
   <polygon points="811 17 803 13 803 21"/>
</svg>
