<?xml version="1.0" encoding="UTF-8"?>
<svg xmlns="http://www.w3.org/2000/svg" width="799" height="167">
   <defs>
      <style type="text/css">
    @namespace "http://www.w3.org/2000/svg";
    .line                 {fill: none; stroke: #332900; stroke-width: 1;}
    .bold-line            {stroke: #141000; shape-rendering: crispEdges; stroke-width: 2;}
    .thin-line            {stroke: #1F1800; shape-rendering: crispEdges}
    .filled               {fill: #332900; stroke: none;}
    text.terminal         {font-family: Verdana, Sans-serif;
                            font-size: 12px;
                            fill: #141000;
                            font-weight: bold;
                          }
    text.nonterminal      {font-family: Verdana, Sans-serif;
                            font-size: 12px;
                            fill: #1A1400;
                            font-weight: normal;
                          }
    text.regexp           {font-family: Verdana, Sans-serif;
                            font-size: 12px;
                            fill: #1F1800;
                            font-weight: normal;
                          }
    rect, circle, polygon {fill: #332900; stroke: #332900;}
    rect.terminal         {fill: #FFDB4D; stroke: #332900; stroke-width: 1;}
    rect.nonterminal      {fill: #FFEC9E; stroke: #332900; stroke-width: 1;}
    rect.text             {fill: none; stroke: none;}
    polygon.regexp        {fill: #FFF4C7; stroke: #332900; stroke-width: 1;}
  </style>
   </defs>
   <polygon points="9 17 1 13 1 21"/>
   <polygon points="17 17 9 13 9 21"/>
   <rect x="31" y="3" width="100" height="32" rx="10"/>
   <rect x="29"
         y="1"
         width="100"
         height="32"
         class="terminal"
         rx="10"/>
   <text class="terminal" x="39" y="21">xmlelement</text>
   <rect x="151" y="3" width="26" height="32" rx="10"/>
   <rect x="149"
         y="1"
         width="26"
         height="32"
         class="terminal"
         rx="10"/>
   <text class="terminal" x="159" y="21">(</text>
   <rect x="217" y="35" width="56" height="32" rx="10"/>
   <rect x="215"
         y="33"
         width="56"
         height="32"
         class="terminal"
         rx="10"/>
   <text class="terminal" x="225" y="53">name</text>
   <a xmlns:xlink="http://www.w3.org/1999/xlink"
      xlink:href="#id"
      xlink:title="id">
      <rect x="313" y="3" width="30" height="32"/>
      <rect x="311" y="1" width="30" height="32" class="nonterminal"/>
      <text class="nonterminal" x="321" y="21">id</text>
   </a>
   <rect x="383" y="35" width="24" height="32" rx="10"/>
   <rect x="381"
         y="33"
         width="24"
         height="32"
         class="terminal"
         rx="10"/>
   <text class="terminal" x="391" y="53">,</text>
   <a xmlns:xlink="http://www.w3.org/1999/xlink"
      xlink:href="#xmlNamespaces"
      xlink:title="xmlNamespaces">
      <rect x="427" y="35" width="122" height="32"/>
      <rect x="425" y="33" width="122" height="32" class="nonterminal"/>
      <text class="nonterminal" x="435" y="53">xmlNamespaces</text>
   </a>
   <rect x="609" y="35" width="24" height="32" rx="10"/>
   <rect x="607"
         y="33"
         width="24"
         height="32"
         class="terminal"
         rx="10"/>
   <text class="terminal" x="617" y="53">,</text>
   <a xmlns:xlink="http://www.w3.org/1999/xlink"
      xlink:href="#xmlAttributes"
      xlink:title="xmlAttributes">
      <rect x="653" y="35" width="104" height="32"/>
      <rect x="651" y="33" width="104" height="32" class="nonterminal"/>
      <text class="nonterminal" x="661" y="53">xmlAttributes</text>
   </a>
   <rect x="551" y="117" width="24" height="32" rx="10"/>
   <rect x="549"
         y="115"
         width="24"
         height="32"
         class="terminal"
         rx="10"/>
   <text class="terminal" x="559" y="135">,</text>
   <a xmlns:xlink="http://www.w3.org/1999/xlink"
      xlink:href="#expression"
      xlink:title="expression">
      <rect x="595" y="117" width="90" height="32"/>
      <rect x="593" y="115" width="90" height="32" class="nonterminal"/>
      <text class="nonterminal" x="603" y="135">expression</text>
   </a>
   <rect x="745" y="117" width="26" height="32" rx="10"/>
   <rect x="743"
         y="115"
         width="26"
         height="32"
         class="terminal"
         rx="10"/>
   <text class="terminal" x="753" y="135">)</text>
   <path class="line"
         d="m17 17 h2 m0 0 h10 m100 0 h10 m0 0 h10 m26 0 h10 m20 0 h10 m0 0 h66 m-96 0 h20 m76 0 h20 m-116 0 q10 0 10 10 m96 0 q0 -10 10 -10 m-106 10 v12 m96 0 v-12 m-96 12 q0 10 10 10 m76 0 q10 0 10 -10 m-86 10 h10 m56 0 h10 m20 -32 h10 m30 0 h10 m20 0 h10 m0 0 h176 m-206 0 h20 m186 0 h20 m-226 0 q10 0 10 10 m206 0 q0 -10 10 -10 m-216 10 v12 m206 0 v-12 m-206 12 q0 10 10 10 m186 0 q10 0 10 -10 m-196 10 h10 m24 0 h10 m0 0 h10 m122 0 h10 m40 -32 h10 m0 0 h158 m-188 0 h20 m168 0 h20 m-208 0 q10 0 10 10 m188 0 q0 -10 10 -10 m-198 10 v12 m188 0 v-12 m-188 12 q0 10 10 10 m168 0 q10 0 10 -10 m-178 10 h10 m24 0 h10 m0 0 h10 m104 0 h10 m22 -32 l2 0 m2 0 l2 0 m2 0 l2 0 m-310 114 l2 0 m2 0 l2 0 m2 0 l2 0 m42 0 h10 m24 0 h10 m0 0 h10 m90 0 h10 m-174 0 l20 0 m-1 0 q-9 0 -9 -10 l0 -12 q0 -10 10 -10 m154 32 l20 0 m-20 0 q10 0 10 -10 l0 -12 q0 -10 -10 -10 m-154 0 h10 m0 0 h144 m-194 32 h20 m194 0 h20 m-234 0 q10 0 10 10 m214 0 q0 -10 10 -10 m-224 10 v14 m214 0 v-14 m-214 14 q0 10 10 10 m194 0 q10 0 10 -10 m-204 10 h10 m0 0 h184 m20 -34 h10 m26 0 h10 m3 0 h-3"/>
   <polygon points="789 131 797 127 797 135"/>
   <polygon points="789 131 781 127 781 135"/>
</svg>
