<?xml version="1.0" encoding="UTF-8"?>
<svg xmlns="http://www.w3.org/2000/svg" width="645" height="81">
   <defs>
      <style type="text/css">
    @namespace "http://www.w3.org/2000/svg";
    .line                 {fill: none; stroke: #332900; stroke-width: 1;}
    .bold-line            {stroke: #141000; shape-rendering: crispEdges; stroke-width: 2;}
    .thin-line            {stroke: #1F1800; shape-rendering: crispEdges}
    .filled               {fill: #332900; stroke: none;}
    text.terminal         {font-family: Verdana, Sans-serif;
                            font-size: 12px;
                            fill: #141000;
                            font-weight: bold;
                          }
    text.nonterminal      {font-family: Verdana, Sans-serif;
                            font-size: 12px;
                            fill: #1A1400;
                            font-weight: normal;
                          }
    text.regexp           {font-family: Verdana, Sans-serif;
                            font-size: 12px;
                            fill: #1F1800;
                            font-weight: normal;
                          }
    rect, circle, polygon {fill: #332900; stroke: #332900;}
    rect.terminal         {fill: #FFDB4D; stroke: #332900; stroke-width: 1;}
    rect.nonterminal      {fill: #FFEC9E; stroke: #332900; stroke-width: 1;}
    rect.text             {fill: none; stroke: none;}
    polygon.regexp        {fill: #FFF4C7; stroke: #332900; stroke-width: 1;}
  </style>
   </defs>
   <polygon points="9 17 1 13 1 21"/>
   <polygon points="17 17 9 13 9 21"/>
   <rect x="31" y="3" width="82" height="32" rx="10"/>
   <rect x="29"
         y="1"
         width="82"
         height="32"
         class="terminal"
         rx="10"/>
   <text class="terminal" x="39" y="21">xmlparse</text>
   <rect x="133" y="3" width="26" height="32" rx="10"/>
   <rect x="131"
         y="1"
         width="26"
         height="32"
         class="terminal"
         rx="10"/>
   <text class="terminal" x="141" y="21">(</text>
   <rect x="199" y="3" width="86" height="32" rx="10"/>
   <rect x="197"
         y="1"
         width="86"
         height="32"
         class="terminal"
         rx="10"/>
   <text class="terminal" x="207" y="21">document</text>
   <rect x="199" y="47" width="70" height="32" rx="10"/>
   <rect x="197"
         y="45"
         width="70"
         height="32"
         class="terminal"
         rx="10"/>
   <text class="terminal" x="207" y="65">content</text>
   <a xmlns:xlink="http://www.w3.org/1999/xlink"
      xlink:href="#expression"
      xlink:title="expression">
      <rect x="325" y="3" width="90" height="32"/>
      <rect x="323" y="1" width="90" height="32" class="nonterminal"/>
      <text class="nonterminal" x="333" y="21">expression</text>
   </a>
   <rect x="455" y="35" width="96" height="32" rx="10"/>
   <rect x="453"
         y="33"
         width="96"
         height="32"
         class="terminal"
         rx="10"/>
   <text class="terminal" x="463" y="53">wellformed</text>
   <rect x="591" y="3" width="26" height="32" rx="10"/>
   <rect x="589"
         y="1"
         width="26"
         height="32"
         class="terminal"
         rx="10"/>
   <text class="terminal" x="599" y="21">)</text>
   <path class="line"
         d="m17 17 h2 m0 0 h10 m82 0 h10 m0 0 h10 m26 0 h10 m20 0 h10 m86 0 h10 m-126 0 h20 m106 0 h20 m-146 0 q10 0 10 10 m126 0 q0 -10 10 -10 m-136 10 v24 m126 0 v-24 m-126 24 q0 10 10 10 m106 0 q10 0 10 -10 m-116 10 h10 m70 0 h10 m0 0 h16 m20 -44 h10 m90 0 h10 m20 0 h10 m0 0 h106 m-136 0 h20 m116 0 h20 m-156 0 q10 0 10 10 m136 0 q0 -10 10 -10 m-146 10 v12 m136 0 v-12 m-136 12 q0 10 10 10 m116 0 q10 0 10 -10 m-126 10 h10 m96 0 h10 m20 -32 h10 m26 0 h10 m3 0 h-3"/>
   <polygon points="635 17 643 13 643 21"/>
   <polygon points="635 17 627 13 627 21"/>
</svg>
