<?xml version="1.0" encoding="UTF-8"?>
<svg xmlns="http://www.w3.org/2000/svg" width="811" height="255">
   <defs>
      <style type="text/css">
    @namespace "http://www.w3.org/2000/svg";
    .line                 {fill: none; stroke: #332900; stroke-width: 1;}
    .bold-line            {stroke: #141000; shape-rendering: crispEdges; stroke-width: 2;}
    .thin-line            {stroke: #1F1800; shape-rendering: crispEdges}
    .filled               {fill: #332900; stroke: none;}
    text.terminal         {font-family: Verdana, Sans-serif;
                            font-size: 12px;
                            fill: #141000;
                            font-weight: bold;
                          }
    text.nonterminal      {font-family: Verdana, Sans-serif;
                            font-size: 12px;
                            fill: #1A1400;
                            font-weight: normal;
                          }
    text.regexp           {font-family: Verdana, Sans-serif;
                            font-size: 12px;
                            fill: #1F1800;
                            font-weight: normal;
                          }
    rect, circle, polygon {fill: #332900; stroke: #332900;}
    rect.terminal         {fill: #FFDB4D; stroke: #332900; stroke-width: 1;}
    rect.nonterminal      {fill: #FFEC9E; stroke: #332900; stroke-width: 1;}
    rect.text             {fill: none; stroke: none;}
    polygon.regexp        {fill: #FFF4C7; stroke: #332900; stroke-width: 1;}
  </style>
   </defs>
   <polygon points="9 61 1 57 1 65"/>
   <polygon points="17 61 9 57 9 65"/>
   <rect x="31" y="47" width="84" height="32" rx="10"/>
   <rect x="29"
         y="45"
         width="84"
         height="32"
         class="terminal"
         rx="10"/>
   <text class="terminal" x="39" y="65">xmlquery</text>
   <rect x="135" y="47" width="26" height="32" rx="10"/>
   <rect x="133"
         y="45"
         width="26"
         height="32"
         class="terminal"
         rx="10"/>
   <text class="terminal" x="143" y="65">(</text>
   <a xmlns:xlink="http://www.w3.org/1999/xlink"
      xlink:href="#xmlNamespaces"
      xlink:title="xmlNamespaces">
      <rect x="201" y="79" width="122" height="32"/>
      <rect x="199" y="77" width="122" height="32" class="nonterminal"/>
      <text class="nonterminal" x="209" y="97">xmlNamespaces</text>
   </a>
   <rect x="343" y="79" width="24" height="32" rx="10"/>
   <rect x="341"
         y="77"
         width="24"
         height="32"
         class="terminal"
         rx="10"/>
   <text class="terminal" x="351" y="97">,</text>
   <a xmlns:xlink="http://www.w3.org/1999/xlink"
      xlink:href="#stringVal"
      xlink:title="stringVal">
      <rect x="407" y="47" width="76" height="32"/>
      <rect x="405" y="45" width="76" height="32" class="nonterminal"/>
      <text class="nonterminal" x="415" y="65">stringVal</text>
   </a>
   <rect x="523" y="47" width="72" height="32" rx="10"/>
   <rect x="521"
         y="45"
         width="72"
         height="32"
         class="terminal"
         rx="10"/>
   <text class="terminal" x="531" y="65">passing</text>
   <a xmlns:xlink="http://www.w3.org/1999/xlink"
      xlink:href="#derivedColumn"
      xlink:title="derivedColumn">
      <rect x="635" y="47" width="114" height="32"/>
      <rect x="633" y="45" width="114" height="32" class="nonterminal"/>
      <text class="nonterminal" x="643" y="65">derivedColumn</text>
   </a>
   <rect x="635" y="3" width="24" height="32" rx="10"/>
   <rect x="633"
         y="1"
         width="24"
         height="32"
         class="terminal"
         rx="10"/>
   <text class="terminal" x="643" y="21">,</text>
   <rect x="497" y="177" width="44" height="32" rx="10"/>
   <rect x="495"
         y="175"
         width="44"
         height="32"
         class="terminal"
         rx="10"/>
   <text class="terminal" x="505" y="195">null</text>
   <rect x="497" y="221" width="62" height="32" rx="10"/>
   <rect x="495"
         y="219"
         width="62"
         height="32"
         class="terminal"
         rx="10"/>
   <text class="terminal" x="505" y="239">empty</text>
   <rect x="599" y="177" width="36" height="32" rx="10"/>
   <rect x="597"
         y="175"
         width="36"
         height="32"
         class="terminal"
         rx="10"/>
   <text class="terminal" x="607" y="195">on</text>
   <rect x="655" y="177" width="62" height="32" rx="10"/>
   <rect x="653"
         y="175"
         width="62"
         height="32"
         class="terminal"
         rx="10"/>
   <text class="terminal" x="663" y="195">empty</text>
   <rect x="757" y="145" width="26" height="32" rx="10"/>
   <rect x="755"
         y="143"
         width="26"
         height="32"
         class="terminal"
         rx="10"/>
   <text class="terminal" x="765" y="163">)</text>
   <path class="line"
         d="m17 61 h2 m0 0 h10 m84 0 h10 m0 0 h10 m26 0 h10 m20 0 h10 m0 0 h176 m-206 0 h20 m186 0 h20 m-226 0 q10 0 10 10 m206 0 q0 -10 10 -10 m-216 10 v12 m206 0 v-12 m-206 12 q0 10 10 10 m186 0 q10 0 10 -10 m-196 10 h10 m122 0 h10 m0 0 h10 m24 0 h10 m20 -32 h10 m76 0 h10 m20 0 h10 m72 0 h10 m20 0 h10 m114 0 h10 m-154 0 l20 0 m-1 0 q-9 0 -9 -10 l0 -24 q0 -10 10 -10 m134 44 l20 0 m-20 0 q10 0 10 -10 l0 -24 q0 -10 -10 -10 m-134 0 h10 m24 0 h10 m0 0 h90 m-266 44 h20 m266 0 h20 m-306 0 q10 0 10 10 m286 0 q0 -10 10 -10 m-296 10 v14 m286 0 v-14 m-286 14 q0 10 10 10 m266 0 q10 0 10 -10 m-276 10 h10 m0 0 h256 m22 -34 l2 0 m2 0 l2 0 m2 0 l2 0 m-376 98 l2 0 m2 0 l2 0 m2 0 l2 0 m22 0 h10 m0 0 h250 m-280 0 h20 m260 0 h20 m-300 0 q10 0 10 10 m280 0 q0 -10 10 -10 m-290 10 v12 m280 0 v-12 m-280 12 q0 10 10 10 m260 0 q10 0 10 -10 m-250 10 h10 m44 0 h10 m0 0 h18 m-102 0 h20 m82 0 h20 m-122 0 q10 0 10 10 m102 0 q0 -10 10 -10 m-112 10 v24 m102 0 v-24 m-102 24 q0 10 10 10 m82 0 q10 0 10 -10 m-92 10 h10 m62 0 h10 m20 -44 h10 m36 0 h10 m0 0 h10 m62 0 h10 m20 -32 h10 m26 0 h10 m3 0 h-3"/>
   <polygon points="801 159 809 155 809 163"/>
   <polygon points="801 159 793 155 793 163"/>
</svg>
