<?xml version="1.0" encoding="UTF-8"?>
<svg xmlns="http://www.w3.org/2000/svg" width="883" height="387">
   <defs>
      <style type="text/css">
    @namespace "http://www.w3.org/2000/svg";
    .line                 {fill: none; stroke: #332900; stroke-width: 1;}
    .bold-line            {stroke: #141000; shape-rendering: crispEdges; stroke-width: 2;}
    .thin-line            {stroke: #1F1800; shape-rendering: crispEdges}
    .filled               {fill: #332900; stroke: none;}
    text.terminal         {font-family: Verdana, Sans-serif;
                            font-size: 12px;
                            fill: #141000;
                            font-weight: bold;
                          }
    text.nonterminal      {font-family: Verdana, Sans-serif;
                            font-size: 12px;
                            fill: #1A1400;
                            font-weight: normal;
                          }
    text.regexp           {font-family: Verdana, Sans-serif;
                            font-size: 12px;
                            fill: #1F1800;
                            font-weight: normal;
                          }
    rect, circle, polygon {fill: #332900; stroke: #332900;}
    rect.terminal         {fill: #FFDB4D; stroke: #332900; stroke-width: 1;}
    rect.nonterminal      {fill: #FFEC9E; stroke: #332900; stroke-width: 1;}
    rect.text             {fill: none; stroke: none;}
    polygon.regexp        {fill: #FFF4C7; stroke: #332900; stroke-width: 1;}
  </style>
   </defs>
   <polygon points="9 17 1 13 1 21"/>
   <polygon points="17 17 9 13 9 21"/>
   <rect x="31" y="3" width="100" height="32" rx="10"/>
   <rect x="29"
         y="1"
         width="100"
         height="32"
         class="terminal"
         rx="10"/>
   <text class="terminal" x="39" y="21">xmlserialize</text>
   <rect x="151" y="3" width="26" height="32" rx="10"/>
   <rect x="149"
         y="1"
         width="26"
         height="32"
         class="terminal"
         rx="10"/>
   <text class="terminal" x="159" y="21">(</text>
   <rect x="217" y="35" width="86" height="32" rx="10"/>
   <rect x="215"
         y="33"
         width="86"
         height="32"
         class="terminal"
         rx="10"/>
   <text class="terminal" x="225" y="53">document</text>
   <rect x="217" y="79" width="70" height="32" rx="10"/>
   <rect x="215"
         y="77"
         width="70"
         height="32"
         class="terminal"
         rx="10"/>
   <text class="terminal" x="225" y="97">content</text>
   <a xmlns:xlink="http://www.w3.org/1999/xlink"
      xlink:href="#expression"
      xlink:title="expression">
      <rect x="343" y="3" width="90" height="32"/>
      <rect x="341" y="1" width="90" height="32" class="nonterminal"/>
      <text class="nonterminal" x="351" y="21">expression</text>
   </a>
   <rect x="473" y="35" width="34" height="32" rx="10"/>
   <rect x="471"
         y="33"
         width="34"
         height="32"
         class="terminal"
         rx="10"/>
   <text class="terminal" x="481" y="53">as</text>
   <rect x="547" y="35" width="60" height="32" rx="10"/>
   <rect x="545"
         y="33"
         width="60"
         height="32"
         class="terminal"
         rx="10"/>
   <text class="terminal" x="555" y="53">string</text>
   <rect x="547" y="79" width="72" height="32" rx="10"/>
   <rect x="545"
         y="77"
         width="72"
         height="32"
         class="terminal"
         rx="10"/>
   <text class="terminal" x="555" y="97">varchar</text>
   <rect x="547" y="123" width="48" height="32" rx="10"/>
   <rect x="545"
         y="121"
         width="48"
         height="32"
         class="terminal"
         rx="10"/>
   <text class="terminal" x="555" y="141">clob</text>
   <rect x="547" y="167" width="84" height="32" rx="10"/>
   <rect x="545"
         y="165"
         width="84"
         height="32"
         class="terminal"
         rx="10"/>
   <text class="terminal" x="555" y="185">varbinary</text>
   <rect x="547" y="211" width="48" height="32" rx="10"/>
   <rect x="545"
         y="209"
         width="48"
         height="32"
         class="terminal"
         rx="10"/>
   <text class="terminal" x="555" y="229">blob</text>
   <rect x="711" y="35" width="80" height="32" rx="10"/>
   <rect x="709"
         y="33"
         width="80"
         height="32"
         class="terminal"
         rx="10"/>
   <text class="terminal" x="719" y="53">encoding</text>
   <a xmlns:xlink="http://www.w3.org/1999/xlink"
      xlink:href="#id"
      xlink:title="id">
      <rect x="811" y="35" width="30" height="32"/>
      <rect x="809" y="33" width="30" height="32" class="nonterminal"/>
      <text class="nonterminal" x="819" y="53">id</text>
   </a>
   <rect x="299" y="309" width="70" height="32" rx="10"/>
   <rect x="297"
         y="307"
         width="70"
         height="32"
         class="terminal"
         rx="10"/>
   <text class="terminal" x="307" y="327">version</text>
   <a xmlns:xlink="http://www.w3.org/1999/xlink"
      xlink:href="#stringVal"
      xlink:title="stringVal">
      <rect x="389" y="309" width="76" height="32"/>
      <rect x="387" y="307" width="76" height="32" class="nonterminal"/>
      <text class="nonterminal" x="397" y="327">stringVal</text>
   </a>
   <rect x="545" y="309" width="82" height="32" rx="10"/>
   <rect x="543"
         y="307"
         width="82"
         height="32"
         class="terminal"
         rx="10"/>
   <text class="terminal" x="553" y="327">including</text>
   <rect x="545" y="353" width="84" height="32" rx="10"/>
   <rect x="543"
         y="351"
         width="84"
         height="32"
         class="terminal"
         rx="10"/>
   <text class="terminal" x="553" y="371">excluding</text>
   <rect x="669" y="309" width="120" height="32" rx="10"/>
   <rect x="667"
         y="307"
         width="120"
         height="32"
         class="terminal"
         rx="10"/>
   <text class="terminal" x="677" y="327">xmldeclaration</text>
   <rect x="829" y="277" width="26" height="32" rx="10"/>
   <rect x="827"
         y="275"
         width="26"
         height="32"
         class="terminal"
         rx="10"/>
   <text class="terminal" x="837" y="295">)</text>
   <path class="line"
         d="m17 17 h2 m0 0 h10 m100 0 h10 m0 0 h10 m26 0 h10 m20 0 h10 m0 0 h96 m-126 0 h20 m106 0 h20 m-146 0 q10 0 10 10 m126 0 q0 -10 10 -10 m-136 10 v12 m126 0 v-12 m-126 12 q0 10 10 10 m106 0 q10 0 10 -10 m-116 10 h10 m86 0 h10 m-116 -10 v20 m126 0 v-20 m-126 20 v24 m126 0 v-24 m-126 24 q0 10 10 10 m106 0 q10 0 10 -10 m-116 10 h10 m70 0 h10 m0 0 h16 m20 -76 h10 m90 0 h10 m20 0 h10 m0 0 h188 m-218 0 h20 m198 0 h20 m-238 0 q10 0 10 10 m218 0 q0 -10 10 -10 m-228 10 v12 m218 0 v-12 m-218 12 q0 10 10 10 m198 0 q10 0 10 -10 m-208 10 h10 m34 0 h10 m20 0 h10 m60 0 h10 m0 0 h24 m-124 0 h20 m104 0 h20 m-144 0 q10 0 10 10 m124 0 q0 -10 10 -10 m-134 10 v24 m124 0 v-24 m-124 24 q0 10 10 10 m104 0 q10 0 10 -10 m-114 10 h10 m72 0 h10 m0 0 h12 m-114 -10 v20 m124 0 v-20 m-124 20 v24 m124 0 v-24 m-124 24 q0 10 10 10 m104 0 q10 0 10 -10 m-114 10 h10 m48 0 h10 m0 0 h36 m-114 -10 v20 m124 0 v-20 m-124 20 v24 m124 0 v-24 m-124 24 q0 10 10 10 m104 0 q10 0 10 -10 m-114 10 h10 m84 0 h10 m-114 -10 v20 m124 0 v-20 m-124 20 v24 m124 0 v-24 m-124 24 q0 10 10 10 m104 0 q10 0 10 -10 m-114 10 h10 m48 0 h10 m0 0 h36 m60 -208 h10 m0 0 h140 m-170 0 h20 m150 0 h20 m-190 0 q10 0 10 10 m170 0 q0 -10 10 -10 m-180 10 v12 m170 0 v-12 m-170 12 q0 10 10 10 m150 0 q10 0 10 -10 m-160 10 h10 m80 0 h10 m0 0 h10 m30 0 h10 m22 -32 l2 0 m2 0 l2 0 m2 0 l2 0 m-626 274 l2 0 m2 0 l2 0 m2 0 l2 0 m22 0 h10 m0 0 h176 m-206 0 h20 m186 0 h20 m-226 0 q10 0 10 10 m206 0 q0 -10 10 -10 m-216 10 v12 m206 0 v-12 m-206 12 q0 10 10 10 m186 0 q10 0 10 -10 m-196 10 h10 m70 0 h10 m0 0 h10 m76 0 h10 m40 -32 h10 m0 0 h274 m-304 0 h20 m284 0 h20 m-324 0 q10 0 10 10 m304 0 q0 -10 10 -10 m-314 10 v12 m304 0 v-12 m-304 12 q0 10 10 10 m284 0 q10 0 10 -10 m-274 10 h10 m82 0 h10 m0 0 h2 m-124 0 h20 m104 0 h20 m-144 0 q10 0 10 10 m124 0 q0 -10 10 -10 m-134 10 v24 m124 0 v-24 m-124 24 q0 10 10 10 m104 0 q10 0 10 -10 m-114 10 h10 m84 0 h10 m20 -44 h10 m120 0 h10 m20 -32 h10 m26 0 h10 m3 0 h-3"/>
   <polygon points="873 291 881 287 881 295"/>
   <polygon points="873 291 865 287 865 295"/>
</svg>
