<?xml version="1.0" encoding="UTF-8"?>
<svg xmlns="http://www.w3.org/2000/svg" width="805" height="255">
   <defs>
      <style type="text/css">
    @namespace "http://www.w3.org/2000/svg";
    .line                 {fill: none; stroke: #332900; stroke-width: 1;}
    .bold-line            {stroke: #141000; shape-rendering: crispEdges; stroke-width: 2;}
    .thin-line            {stroke: #1F1800; shape-rendering: crispEdges}
    .filled               {fill: #332900; stroke: none;}
    text.terminal         {font-family: Verdana, Sans-serif;
                            font-size: 12px;
                            fill: #141000;
                            font-weight: bold;
                          }
    text.nonterminal      {font-family: Verdana, Sans-serif;
                            font-size: 12px;
                            fill: #1A1400;
                            font-weight: normal;
                          }
    text.regexp           {font-family: Verdana, Sans-serif;
                            font-size: 12px;
                            fill: #1F1800;
                            font-weight: normal;
                          }
    rect, circle, polygon {fill: #332900; stroke: #332900;}
    rect.terminal         {fill: #FFDB4D; stroke: #332900; stroke-width: 1;}
    rect.nonterminal      {fill: #FFEC9E; stroke: #332900; stroke-width: 1;}
    rect.text             {fill: none; stroke: none;}
    polygon.regexp        {fill: #FFF4C7; stroke: #332900; stroke-width: 1;}
  </style>
   </defs>
   <polygon points="9 61 1 57 1 65"/>
   <polygon points="17 61 9 57 9 65"/>
   <rect x="31" y="47" width="78" height="32" rx="10"/>
   <rect x="29"
         y="45"
         width="78"
         height="32"
         class="terminal"
         rx="10"/>
   <text class="terminal" x="39" y="65">xmltable</text>
   <rect x="129" y="47" width="26" height="32" rx="10"/>
   <rect x="127"
         y="45"
         width="26"
         height="32"
         class="terminal"
         rx="10"/>
   <text class="terminal" x="137" y="65">(</text>
   <a xmlns:xlink="http://www.w3.org/1999/xlink"
      xlink:href="#xmlNamespaces"
      xlink:title="xmlNamespaces">
      <rect x="195" y="79" width="122" height="32"/>
      <rect x="193" y="77" width="122" height="32" class="nonterminal"/>
      <text class="nonterminal" x="203" y="97">xmlNamespaces</text>
   </a>
   <rect x="337" y="79" width="24" height="32" rx="10"/>
   <rect x="335"
         y="77"
         width="24"
         height="32"
         class="terminal"
         rx="10"/>
   <text class="terminal" x="345" y="97">,</text>
   <a xmlns:xlink="http://www.w3.org/1999/xlink"
      xlink:href="#stringVal"
      xlink:title="stringVal">
      <rect x="401" y="47" width="76" height="32"/>
      <rect x="399" y="45" width="76" height="32" class="nonterminal"/>
      <text class="nonterminal" x="409" y="65">stringVal</text>
   </a>
   <rect x="517" y="47" width="72" height="32" rx="10"/>
   <rect x="515"
         y="45"
         width="72"
         height="32"
         class="terminal"
         rx="10"/>
   <text class="terminal" x="525" y="65">passing</text>
   <a xmlns:xlink="http://www.w3.org/1999/xlink"
      xlink:href="#derivedColumn"
      xlink:title="derivedColumn">
      <rect x="629" y="47" width="114" height="32"/>
      <rect x="627" y="45" width="114" height="32" class="nonterminal"/>
      <text class="nonterminal" x="637" y="65">derivedColumn</text>
   </a>
   <rect x="629" y="3" width="24" height="32" rx="10"/>
   <rect x="627"
         y="1"
         width="24"
         height="32"
         class="terminal"
         rx="10"/>
   <text class="terminal" x="637" y="21">,</text>
   <rect x="341" y="189" width="76" height="32" rx="10"/>
   <rect x="339"
         y="187"
         width="76"
         height="32"
         class="terminal"
         rx="10"/>
   <text class="terminal" x="349" y="207">columns</text>
   <a xmlns:xlink="http://www.w3.org/1999/xlink"
      xlink:href="#xmlColumn"
      xlink:title="xmlColumn">
      <rect x="457" y="189" width="90" height="32"/>
      <rect x="455" y="187" width="90" height="32" class="nonterminal"/>
      <text class="nonterminal" x="465" y="207">xmlColumn</text>
   </a>
   <rect x="457" y="145" width="24" height="32" rx="10"/>
   <rect x="455"
         y="143"
         width="24"
         height="32"
         class="terminal"
         rx="10"/>
   <text class="terminal" x="465" y="163">,</text>
   <rect x="607" y="189" width="26" height="32" rx="10"/>
   <rect x="605"
         y="187"
         width="26"
         height="32"
         class="terminal"
         rx="10"/>
   <text class="terminal" x="615" y="207">)</text>
   <rect x="673" y="221" width="34" height="32" rx="10"/>
   <rect x="671"
         y="219"
         width="34"
         height="32"
         class="terminal"
         rx="10"/>
   <text class="terminal" x="681" y="239">as</text>
   <a xmlns:xlink="http://www.w3.org/1999/xlink"
      xlink:href="#id"
      xlink:title="id">
      <rect x="747" y="189" width="30" height="32"/>
      <rect x="745" y="187" width="30" height="32" class="nonterminal"/>
      <text class="nonterminal" x="755" y="207">id</text>
   </a>
   <path class="line"
         d="m17 61 h2 m0 0 h10 m78 0 h10 m0 0 h10 m26 0 h10 m20 0 h10 m0 0 h176 m-206 0 h20 m186 0 h20 m-226 0 q10 0 10 10 m206 0 q0 -10 10 -10 m-216 10 v12 m206 0 v-12 m-206 12 q0 10 10 10 m186 0 q10 0 10 -10 m-196 10 h10 m122 0 h10 m0 0 h10 m24 0 h10 m20 -32 h10 m76 0 h10 m20 0 h10 m72 0 h10 m20 0 h10 m114 0 h10 m-154 0 l20 0 m-1 0 q-9 0 -9 -10 l0 -24 q0 -10 10 -10 m134 44 l20 0 m-20 0 q10 0 10 -10 l0 -24 q0 -10 -10 -10 m-134 0 h10 m24 0 h10 m0 0 h90 m-266 44 h20 m266 0 h20 m-306 0 q10 0 10 10 m286 0 q0 -10 10 -10 m-296 10 v14 m286 0 v-14 m-286 14 q0 10 10 10 m266 0 q10 0 10 -10 m-276 10 h10 m0 0 h256 m22 -34 l2 0 m2 0 l2 0 m2 0 l2 0 m-506 142 l2 0 m2 0 l2 0 m2 0 l2 0 m22 0 h10 m76 0 h10 m20 0 h10 m90 0 h10 m-130 0 l20 0 m-1 0 q-9 0 -9 -10 l0 -24 q0 -10 10 -10 m110 44 l20 0 m-20 0 q10 0 10 -10 l0 -24 q0 -10 -10 -10 m-110 0 h10 m24 0 h10 m0 0 h66 m-246 44 h20 m246 0 h20 m-286 0 q10 0 10 10 m266 0 q0 -10 10 -10 m-276 10 v14 m266 0 v-14 m-266 14 q0 10 10 10 m246 0 q10 0 10 -10 m-256 10 h10 m0 0 h236 m20 -34 h10 m26 0 h10 m20 0 h10 m0 0 h44 m-74 0 h20 m54 0 h20 m-94 0 q10 0 10 10 m74 0 q0 -10 10 -10 m-84 10 v12 m74 0 v-12 m-74 12 q0 10 10 10 m54 0 q10 0 10 -10 m-64 10 h10 m34 0 h10 m20 -32 h10 m30 0 h10 m3 0 h-3"/>
   <polygon points="795 203 803 199 803 207"/>
   <polygon points="795 203 787 199 787 207"/>
</svg>
