<?xml version="1.0" encoding="UTF-8"?><svg xmlns="http://www.w3.org/2000/svg" xmlns:xlink="http://www.w3.org/1999/xlink" fill-opacity="1" color-rendering="auto" color-interpolation="auto" text-rendering="auto" stroke="black" stroke-linecap="square" width="613" stroke-miterlimit="10" shape-rendering="auto" stroke-opacity="1" fill="black" stroke-dasharray="none" font-weight="normal" stroke-width="1" height="362" font-family="'Dialog'" font-style="normal" stroke-linejoin="miter" font-size="12px" stroke-dashoffset="0" image-rendering="auto">
  <!--Generated by ySVG 2.6-->
  <defs id="genericDefs"/>
  <g>
    <defs id="defs1">
      <clipPath clipPathUnits="userSpaceOnUse" id="clipPath1">
        <path d="M0 0 L613 0 L613 362 L0 362 L0 0 Z"/>
      </clipPath>
      <clipPath clipPathUnits="userSpaceOnUse" id="clipPath2">
        <path d="M142 10 L755 10 L755 372 L142 372 L142 10 Z"/>
      </clipPath>
    </defs>
    <g fill="white" text-rendering="geometricPrecision" shape-rendering="geometricPrecision" transform="translate(-142,-10)" stroke="white">
      <rect x="142" width="613" height="362" y="10" clip-path="url(#clipPath2)" stroke="none"/>
    </g>
    <g fill="rgb(255,204,0)" text-rendering="geometricPrecision" shape-rendering="geometricPrecision" transform="matrix(1,0,0,1,-142,-10)" stroke="rgb(255,204,0)">
      <rect x="183" y="25" clip-path="url(#clipPath2)" width="166" rx="4" ry="4" height="47" stroke="none"/>
    </g>
    <g text-rendering="geometricPrecision" stroke-miterlimit="1.45" shape-rendering="geometricPrecision" transform="matrix(1,0,0,1,-142,-10)" stroke-linecap="butt">
      <rect x="183" y="25" clip-path="url(#clipPath2)" fill="none" width="166" rx="4" ry="4" height="47"/>
      <text x="220.7363" xml:space="preserve" y="52.6543" clip-path="url(#clipPath2)" font-family="sans-serif" stroke="none">App Config File</text>
    </g>
    <g fill="rgb(255,204,0)" text-rendering="geometricPrecision" shape-rendering="geometricPrecision" transform="matrix(1,0,0,1,-142,-10)" stroke="rgb(255,204,0)">
      <rect x="371" y="132" clip-path="url(#clipPath2)" width="166" rx="4" ry="4" height="47" stroke="none"/>
    </g>
    <g text-rendering="geometricPrecision" stroke-miterlimit="1.45" shape-rendering="geometricPrecision" transform="matrix(1,0,0,1,-142,-10)" stroke-linecap="butt">
      <rect x="371" y="132" clip-path="url(#clipPath2)" fill="none" width="166" rx="4" ry="4" height="47"/>
      <text x="400.0352" xml:space="preserve" y="159.6543" clip-path="url(#clipPath2)" font-family="sans-serif" stroke="none">Descriptor Bundle</text>
    </g>
    <g fill="rgb(255,204,0)" text-rendering="geometricPrecision" shape-rendering="geometricPrecision" transform="matrix(1,0,0,1,-142,-10)" stroke="rgb(255,204,0)">
      <rect x="567" y="198" clip-path="url(#clipPath2)" width="173" rx="4" ry="4" height="47" stroke="none"/>
    </g>
    <g text-rendering="geometricPrecision" stroke-miterlimit="1.45" shape-rendering="geometricPrecision" transform="matrix(1,0,0,1,-142,-10)" stroke-linecap="butt">
      <rect x="567" y="198" clip-path="url(#clipPath2)" fill="none" width="173" rx="4" ry="4" height="47"/>
      <text x="574.4219" xml:space="preserve" y="225.6543" clip-path="url(#clipPath2)" font-family="sans-serif" stroke="none">Script Data Source Bundle</text>
    </g>
    <g fill="rgb(255,204,0)" text-rendering="geometricPrecision" shape-rendering="geometricPrecision" transform="matrix(1,0,0,1,-142,-10)" stroke="rgb(255,204,0)">
      <rect x="371" y="72" clip-path="url(#clipPath2)" width="166" rx="4" ry="4" height="47" stroke="none"/>
    </g>
    <g text-rendering="geometricPrecision" stroke-miterlimit="1.45" shape-rendering="geometricPrecision" transform="matrix(1,0,0,1,-142,-10)" stroke-linecap="butt">
      <rect x="371" y="72" clip-path="url(#clipPath2)" fill="none" width="166" rx="4" ry="4" height="47"/>
      <text x="411.0566" xml:space="preserve" y="99.6543" clip-path="url(#clipPath2)" font-family="sans-serif" stroke="none">Properties File</text>
    </g>
    <g fill="rgb(255,204,0)" text-rendering="geometricPrecision" shape-rendering="geometricPrecision" transform="matrix(1,0,0,1,-142,-10)" stroke="rgb(255,204,0)">
      <rect x="567" y="254" clip-path="url(#clipPath2)" width="173" rx="4" ry="4" height="47" stroke="none"/>
    </g>
    <g text-rendering="geometricPrecision" stroke-miterlimit="1.45" shape-rendering="geometricPrecision" transform="matrix(1,0,0,1,-142,-10)" stroke-linecap="butt">
      <rect x="567" y="254" clip-path="url(#clipPath2)" fill="none" width="173" rx="4" ry="4" height="47"/>
      <text x="587.9482" xml:space="preserve" y="281.6543" clip-path="url(#clipPath2)" font-family="sans-serif" stroke="none">SQL Functions Bundle</text>
    </g>
    <g fill="rgb(255,204,0)" text-rendering="geometricPrecision" shape-rendering="geometricPrecision" transform="matrix(1,0,0,1,-142,-10)" stroke="rgb(255,204,0)">
      <rect x="567" y="310" clip-path="url(#clipPath2)" width="173" rx="4" ry="4" height="47" stroke="none"/>
    </g>
    <g text-rendering="geometricPrecision" stroke-miterlimit="1.45" shape-rendering="geometricPrecision" transform="matrix(1,0,0,1,-142,-10)" stroke-linecap="butt">
      <rect x="567" y="310" clip-path="url(#clipPath2)" fill="none" width="173" rx="4" ry="4" height="47"/>
      <text x="571.4248" xml:space="preserve" y="337.6543" clip-path="url(#clipPath2)" font-family="sans-serif" stroke="none">Template Functions Bundle</text>
      <path fill="none" d="M266 71.9846 L266 155.5 L362.9697 155.5" clip-path="url(#clipPath2)"/>
      <path d="M370.9697 155.5 L358.9697 150.5 L361.9697 155.5 L358.9697 160.5 Z" clip-path="url(#clipPath2)" stroke="none"/>
      <text x="159.9512" xml:space="preserve" y="121.8965" clip-path="url(#clipPath2)" font-family="sans-serif" stroke="none">It has Paths to</text>
      <path fill="none" d="M454 178.9932 L454 221.5 L559.0468 221.5" clip-path="url(#clipPath2)"/>
      <path d="M567.0468 221.5 L555.0468 216.5 L558.0468 221.5 L555.0468 226.5 Z" clip-path="url(#clipPath2)" stroke="none"/>
      <path fill="none" d="M266 71.9541 L266 95.5 L362.9697 95.5" clip-path="url(#clipPath2)"/>
      <path d="M370.9697 95.5 L358.9697 90.5 L361.9697 95.5 L358.9697 100.5 Z" clip-path="url(#clipPath2)" stroke="none"/>
      <path fill="none" d="M454 179.0005 L454 277.5 L559.0468 277.5" clip-path="url(#clipPath2)"/>
      <path d="M567.0468 277.5 L555.0468 272.5 L558.0468 277.5 L555.0468 282.5 Z" clip-path="url(#clipPath2)" stroke="none"/>
      <path fill="none" d="M454 179.0103 L454 333.5 L559.0468 333.5" clip-path="url(#clipPath2)"/>
      <path d="M567.0468 333.5 L555.0468 328.5 L558.0468 333.5 L555.0468 338.5 Z" clip-path="url(#clipPath2)" stroke="none"/>
      <text x="352.498" xml:space="preserve" y="266.3965" clip-path="url(#clipPath2)" font-family="sans-serif" stroke="none">It has URLs to</text>
    </g>
  </g>
</svg>
