<?xml version="1.0" encoding="UTF-8"?><svg xmlns="http://www.w3.org/2000/svg" xmlns:xlink="http://www.w3.org/1999/xlink" fill-opacity="1" color-rendering="auto" color-interpolation="auto" text-rendering="auto" stroke="black" stroke-linecap="square" width="1370" stroke-miterlimit="10" shape-rendering="auto" stroke-opacity="1" fill="black" stroke-dasharray="none" font-weight="normal" stroke-width="1" height="284" font-family="'Dialog'" font-style="normal" stroke-linejoin="miter" font-size="12px" stroke-dashoffset="0" image-rendering="auto">
  <!--Generated by ySVG 2.6-->
  <defs id="genericDefs"/>
  <g>
    <defs id="defs1">
      <clipPath clipPathUnits="userSpaceOnUse" id="clipPath1">
        <path d="M0 0 L1370 0 L1370 284 L0 284 L0 0 Z"/>
      </clipPath>
      <clipPath clipPathUnits="userSpaceOnUse" id="clipPath2">
        <path d="M103 57 L1473 57 L1473 341 L103 341 L103 57 Z"/>
      </clipPath>
    </defs>
    <g fill="white" text-rendering="geometricPrecision" shape-rendering="geometricPrecision" transform="translate(-103,-57)" stroke="white">
      <rect x="103" width="1370" height="284" y="57" clip-path="url(#clipPath2)" stroke="none"/>
    </g>
    <g text-rendering="geometricPrecision" stroke-miterlimit="1.45" shape-rendering="geometricPrecision" transform="matrix(1,0,0,1,-103,-57)" stroke-linecap="butt">
      <rect fill="none" x="1072" width="235" height="224" y="72" clip-path="url(#clipPath2)"/>
      <text x="1078" y="321.1543" clip-path="url(#clipPath2)" font-family="sans-serif" stroke="none" font-weight="bold" xml:space="preserve">Data Sources</text>
      <rect x="1095" y="82" clip-path="url(#clipPath2)" fill="none" width="181" stroke-dasharray="6,2" height="66"/>
    </g>
    <g fill="rgb(38,166,154)" text-rendering="geometricPrecision" shape-rendering="geometricPrecision" transform="matrix(1,0,0,1,-103,-57)" stroke="rgb(38,166,154)">
      <rect x="269" y="72" clip-path="url(#clipPath2)" width="141" rx="4" ry="4" height="224" stroke="none"/>
    </g>
    <g text-rendering="geometricPrecision" stroke-miterlimit="1.45" shape-rendering="geometricPrecision" transform="matrix(1,0,0,1,-103,-57)" stroke-linecap="butt">
      <rect x="269" y="72" clip-path="url(#clipPath2)" fill="none" width="141" rx="4" ry="4" height="224"/>
      <text x="306.3125" y="319.1543" clip-path="url(#clipPath2)" font-family="sans-serif" stroke="none" font-weight="bold" xml:space="preserve">Transport</text>
    </g>
    <g fill="rgb(38,166,154)" text-rendering="geometricPrecision" shape-rendering="geometricPrecision" transform="matrix(1,0,0,1,-103,-57)" stroke="rgb(38,166,154)">
      <rect x="453" y="72" clip-path="url(#clipPath2)" width="589" rx="4" ry="4" height="224" stroke="none"/>
    </g>
    <g text-rendering="geometricPrecision" stroke-miterlimit="1.45" shape-rendering="geometricPrecision" transform="matrix(1,0,0,1,-103,-57)" stroke-linecap="butt">
      <rect x="453" y="72" clip-path="url(#clipPath2)" fill="none" width="589" rx="4" ry="4" height="224"/>
      <text x="702.0371" y="319.1543" clip-path="url(#clipPath2)" font-family="sans-serif" stroke="none" font-weight="bold" xml:space="preserve">Query Engine</text>
    </g>
    <g fill="rgb(255,204,0)" text-rendering="geometricPrecision" shape-rendering="geometricPrecision" transform="matrix(1,0,0,1,-103,-57)" stroke="rgb(255,204,0)">
      <rect x="279" width="121" height="32" y="92" clip-path="url(#clipPath2)" stroke="none"/>
    </g>
    <g text-rendering="geometricPrecision" stroke-miterlimit="1.45" shape-rendering="geometricPrecision" transform="matrix(1,0,0,1,-103,-57)" stroke-linecap="butt">
      <rect fill="none" x="279" width="121" height="32" y="92" clip-path="url(#clipPath2)"/>
      <text x="296.5947" xml:space="preserve" y="112.1543" clip-path="url(#clipPath2)" font-family="sans-serif" stroke="none">Conn. Handler</text>
      <rect fill="none" x="466" width="309" height="206" y="83" clip-path="url(#clipPath2)"/>
    </g>
    <g stroke-linecap="butt" transform="matrix(1,0,0,1,-103,-57)" fill="white" text-rendering="geometricPrecision" font-family="sans-serif" shape-rendering="geometricPrecision" stroke="white" font-weight="bold" stroke-miterlimit="1.45">
      <text x="472" xml:space="preserve" y="280.1699" clip-path="url(#clipPath2)" stroke="none">Request Processor</text>
    </g>
    <g fill="rgb(255,204,0)" text-rendering="geometricPrecision" shape-rendering="geometricPrecision" transform="matrix(1,0,0,1,-103,-57)" stroke="rgb(255,204,0)">
      <rect x="487" width="66" height="32" y="94" clip-path="url(#clipPath2)" stroke="none"/>
    </g>
    <g text-rendering="geometricPrecision" stroke-miterlimit="1.45" shape-rendering="geometricPrecision" transform="matrix(1,0,0,1,-103,-57)" stroke-linecap="butt">
      <rect fill="none" x="487" width="66" height="32" y="94" clip-path="url(#clipPath2)"/>
      <text x="503.4209" xml:space="preserve" y="114.1543" clip-path="url(#clipPath2)" font-family="sans-serif" stroke="none">Parse</text>
    </g>
    <g fill="rgb(255,204,0)" text-rendering="geometricPrecision" shape-rendering="geometricPrecision" transform="matrix(1,0,0,1,-103,-57)" stroke="rgb(255,204,0)">
      <rect x="487" width="66" height="32" y="150" clip-path="url(#clipPath2)" stroke="none"/>
    </g>
    <g text-rendering="geometricPrecision" stroke-miterlimit="1.45" shape-rendering="geometricPrecision" transform="matrix(1,0,0,1,-103,-57)" stroke-linecap="butt">
      <rect fill="none" x="487" width="66" height="32" y="150" clip-path="url(#clipPath2)"/>
      <text x="496.4336" xml:space="preserve" y="170.1543" clip-path="url(#clipPath2)" font-family="sans-serif" stroke="none">Resolve</text>
    </g>
    <g fill="rgb(255,204,0)" text-rendering="geometricPrecision" shape-rendering="geometricPrecision" transform="matrix(1,0,0,1,-103,-57)" stroke="rgb(255,204,0)">
      <rect x="583" width="66" height="32" y="150" clip-path="url(#clipPath2)" stroke="none"/>
    </g>
    <g text-rendering="geometricPrecision" stroke-miterlimit="1.45" shape-rendering="geometricPrecision" transform="matrix(1,0,0,1,-103,-57)" stroke-linecap="butt">
      <rect fill="none" x="583" width="66" height="32" y="150" clip-path="url(#clipPath2)"/>
      <text x="591.3555" xml:space="preserve" y="170.1543" clip-path="url(#clipPath2)" font-family="sans-serif" stroke="none">Validate</text>
    </g>
    <g fill="rgb(255,204,0)" text-rendering="geometricPrecision" shape-rendering="geometricPrecision" transform="matrix(1,0,0,1,-103,-57)" stroke="rgb(255,204,0)">
      <rect x="583" width="66" height="32" y="94" clip-path="url(#clipPath2)" stroke="none"/>
    </g>
    <g text-rendering="geometricPrecision" stroke-miterlimit="1.45" shape-rendering="geometricPrecision" transform="matrix(1,0,0,1,-103,-57)" stroke-linecap="butt">
      <rect fill="none" x="583" width="66" height="32" y="94" clip-path="url(#clipPath2)"/>
      <text x="593.0547" xml:space="preserve" y="114.1543" clip-path="url(#clipPath2)" font-family="sans-serif" stroke="none">Rewrite</text>
    </g>
    <g fill="rgb(255,204,0)" text-rendering="geometricPrecision" shape-rendering="geometricPrecision" transform="matrix(1,0,0,1,-103,-57)" stroke="rgb(255,204,0)">
      <rect x="679" width="66" height="32" y="94" clip-path="url(#clipPath2)" stroke="none"/>
    </g>
    <g text-rendering="geometricPrecision" stroke-miterlimit="1.45" shape-rendering="geometricPrecision" transform="matrix(1,0,0,1,-103,-57)" stroke-linecap="butt">
      <rect fill="none" x="679" width="66" height="32" y="94" clip-path="url(#clipPath2)"/>
      <text x="685.0967" xml:space="preserve" y="114.1543" clip-path="url(#clipPath2)" font-family="sans-serif" stroke="none">Optimize</text>
    </g>
    <g fill="rgb(255,204,0)" text-rendering="geometricPrecision" shape-rendering="geometricPrecision" transform="matrix(1,0,0,1,-103,-57)" stroke="rgb(255,204,0)">
      <rect x="487" width="258" height="32" y="212" clip-path="url(#clipPath2)" stroke="none"/>
    </g>
    <g text-rendering="geometricPrecision" stroke-miterlimit="1.45" shape-rendering="geometricPrecision" transform="matrix(1,0,0,1,-103,-57)" stroke-linecap="butt">
      <rect fill="none" x="487" width="258" height="32" y="212" clip-path="url(#clipPath2)"/>
      <text x="539.4766" xml:space="preserve" y="232.1543" clip-path="url(#clipPath2)" font-family="sans-serif" stroke="none">Async Result Compilation</text>
    </g>
    <g fill="rgb(255,204,0)" text-rendering="geometricPrecision" shape-rendering="geometricPrecision" transform="matrix(1,0,0,1,-103,-57)" stroke="rgb(255,204,0)">
      <rect x="810" width="83" height="206" y="83" clip-path="url(#clipPath2)" stroke="none"/>
    </g>
    <g text-rendering="geometricPrecision" stroke-miterlimit="1.45" shape-rendering="geometricPrecision" transform="matrix(1,0,0,1,-103,-57)" stroke-linecap="butt">
      <rect fill="none" x="810" width="83" height="206" y="83" clip-path="url(#clipPath2)"/>
      <text x="823.7764" xml:space="preserve" y="183.1699" clip-path="url(#clipPath2)" font-family="sans-serif" stroke="none">Data Tier</text>
      <text x="824.6377" xml:space="preserve" y="197.1387" clip-path="url(#clipPath2)" font-family="sans-serif" stroke="none">Interface</text>
    </g>
    <g fill="rgb(255,204,0)" text-rendering="geometricPrecision" shape-rendering="geometricPrecision" transform="matrix(1,0,0,1,-103,-57)" stroke="rgb(255,204,0)">
      <rect x="928" width="83" height="206" y="83" clip-path="url(#clipPath2)" stroke="none"/>
    </g>
    <g text-rendering="geometricPrecision" stroke-miterlimit="1.45" shape-rendering="geometricPrecision" transform="matrix(1,0,0,1,-103,-57)" stroke-linecap="butt">
      <rect fill="none" x="928" width="83" height="206" y="83" clip-path="url(#clipPath2)"/>
      <text x="935.4277" xml:space="preserve" y="183.1699" clip-path="url(#clipPath2)" font-family="sans-serif" stroke="none">Connectors</text>
      <text x="945.875" xml:space="preserve" y="197.1387" clip-path="url(#clipPath2)" font-family="sans-serif" stroke="none">Handler</text>
    </g>
    <g fill="rgb(255,204,0)" text-rendering="geometricPrecision" shape-rendering="geometricPrecision" transform="matrix(1,0,0,1,-103,-57)" stroke="rgb(255,204,0)">
      <rect x="1108" width="75" height="46" y="92" clip-path="url(#clipPath2)" stroke="none"/>
    </g>
    <g text-rendering="geometricPrecision" stroke-miterlimit="1.45" shape-rendering="geometricPrecision" transform="matrix(1,0,0,1,-103,-57)" stroke-linecap="butt">
      <rect fill="none" x="1108" width="75" height="46" y="92" clip-path="url(#clipPath2)"/>
      <text x="1114.9287" xml:space="preserve" y="119.1543" clip-path="url(#clipPath2)" font-family="sans-serif" stroke="none">Translator</text>
    </g>
    <g fill="rgb(255,204,0)" text-rendering="geometricPrecision" shape-rendering="geometricPrecision" transform="matrix(1,0,0,1,-103,-57)" stroke="rgb(255,204,0)">
      <rect x="1188" width="75" height="46" y="92" clip-path="url(#clipPath2)" stroke="none"/>
    </g>
    <g text-rendering="geometricPrecision" stroke-miterlimit="1.45" shape-rendering="geometricPrecision" transform="matrix(1,0,0,1,-103,-57)" stroke-linecap="butt">
      <rect fill="none" x="1188" width="75" height="46" y="92" clip-path="url(#clipPath2)"/>
      <text x="1201.5908" xml:space="preserve" y="119.1543" clip-path="url(#clipPath2)" font-family="sans-serif" stroke="none">Adapter</text>
    </g>
    <g fill="rgb(255,204,0)" text-rendering="geometricPrecision" shape-rendering="geometricPrecision" transform="matrix(1,0,0,1,-103,-57)" stroke="rgb(255,204,0)">
      <rect x="1108" width="75" height="46" y="196" clip-path="url(#clipPath2)" stroke="none"/>
    </g>
    <g text-rendering="geometricPrecision" stroke-miterlimit="1.45" shape-rendering="geometricPrecision" transform="matrix(1,0,0,1,-103,-57)" stroke-linecap="butt">
      <rect fill="none" x="1108" width="75" height="46" y="196" clip-path="url(#clipPath2)"/>
      <text x="1114.9287" xml:space="preserve" y="223.1543" clip-path="url(#clipPath2)" font-family="sans-serif" stroke="none">Translator</text>
    </g>
    <g fill="rgb(255,204,0)" text-rendering="geometricPrecision" shape-rendering="geometricPrecision" transform="matrix(1,0,0,1,-103,-57)" stroke="rgb(255,204,0)">
      <rect x="1188" width="75" height="46" y="196" clip-path="url(#clipPath2)" stroke="none"/>
    </g>
    <g text-rendering="geometricPrecision" stroke-miterlimit="1.45" shape-rendering="geometricPrecision" transform="matrix(1,0,0,1,-103,-57)" stroke-linecap="butt">
      <rect fill="none" x="1188" width="75" height="46" y="196" clip-path="url(#clipPath2)"/>
      <text x="1201.5908" xml:space="preserve" y="223.1543" clip-path="url(#clipPath2)" font-family="sans-serif" stroke="none">Adapter</text>
      <rect x="1095" y="186" clip-path="url(#clipPath2)" fill="none" width="181" stroke-dasharray="6,2" height="66"/>
    </g>
    <g fill="rgb(255,204,0)" text-rendering="geometricPrecision" shape-rendering="geometricPrecision" transform="matrix(1,0,0,1,-103,-57)" stroke="rgb(255,204,0)">
      <path d="M1337 84.5 L1445.9016 84.5 L1458 145.5 L1349.0984 145.5 Z" fill-rule="evenodd" clip-path="url(#clipPath2)" stroke="none"/>
    </g>
    <g text-rendering="geometricPrecision" stroke-miterlimit="1.45" shape-rendering="geometricPrecision" transform="matrix(1,0,0,1,-103,-57)" stroke-linecap="butt">
      <path fill="none" d="M1337 84.5 L1445.9016 84.5 L1458 145.5 L1349.0984 145.5 Z" fill-rule="evenodd" clip-path="url(#clipPath2)"/>
      <text x="1372.1729" xml:space="preserve" y="112.1699" clip-path="url(#clipPath2)" font-family="sans-serif" stroke="none">Remote </text>
      <text x="1360.5273" xml:space="preserve" y="126.1387" clip-path="url(#clipPath2)" font-family="sans-serif" stroke="none">Data Source</text>
    </g>
    <g fill="rgb(255,204,0)" text-rendering="geometricPrecision" shape-rendering="geometricPrecision" transform="matrix(1,0,0,1,-103,-57)" stroke="rgb(255,204,0)">
      <path d="M1337 188.5 L1445.9 188.5 L1458 249.5 L1349.1 249.5 Z" fill-rule="evenodd" clip-path="url(#clipPath2)" stroke="none"/>
    </g>
    <g text-rendering="geometricPrecision" stroke-miterlimit="1.45" shape-rendering="geometricPrecision" transform="matrix(1,0,0,1,-103,-57)" stroke-linecap="butt">
      <path fill="none" d="M1337 188.5 L1445.9 188.5 L1458 249.5 L1349.1 249.5 Z" fill-rule="evenodd" clip-path="url(#clipPath2)"/>
      <text x="1372.1729" xml:space="preserve" y="216.1699" clip-path="url(#clipPath2)" font-family="sans-serif" stroke="none">Remote </text>
      <text x="1360.5273" xml:space="preserve" y="230.1387" clip-path="url(#clipPath2)" font-family="sans-serif" stroke="none">Data Source</text>
    </g>
    <g fill="rgb(255,204,0)" text-rendering="geometricPrecision" shape-rendering="geometricPrecision" transform="matrix(1,0,0,1,-103,-57)" stroke="rgb(255,204,0)">
      <rect x="279" width="121" height="32" y="138" clip-path="url(#clipPath2)" stroke="none"/>
    </g>
    <g text-rendering="geometricPrecision" stroke-miterlimit="1.45" shape-rendering="geometricPrecision" transform="matrix(1,0,0,1,-103,-57)" stroke-linecap="butt">
      <rect fill="none" x="279" width="121" height="32" y="138" clip-path="url(#clipPath2)"/>
      <text x="307.2881" xml:space="preserve" y="158.1543" clip-path="url(#clipPath2)" font-family="sans-serif" stroke="none">Encryption</text>
    </g>
    <g fill="rgb(255,204,0)" text-rendering="geometricPrecision" shape-rendering="geometricPrecision" transform="matrix(1,0,0,1,-103,-57)" stroke="rgb(255,204,0)">
      <rect x="118" width="121" height="32" y="255" clip-path="url(#clipPath2)" stroke="none"/>
    </g>
    <g text-rendering="geometricPrecision" stroke-miterlimit="1.45" shape-rendering="geometricPrecision" transform="matrix(1,0,0,1,-103,-57)" stroke-linecap="butt">
      <rect fill="none" x="118" width="121" height="32" y="255" clip-path="url(#clipPath2)"/>
      <text x="132.3311" xml:space="preserve" y="275.1543" clip-path="url(#clipPath2)" font-family="sans-serif" stroke="none">Auth* Delegate</text>
    </g>
    <g fill="rgb(255,204,0)" text-rendering="geometricPrecision" shape-rendering="geometricPrecision" transform="matrix(1,0,0,1,-103,-57)" stroke="rgb(255,204,0)">
      <rect x="279" width="121" height="32" y="255" clip-path="url(#clipPath2)" stroke="none"/>
    </g>
    <g text-rendering="geometricPrecision" stroke-miterlimit="1.45" shape-rendering="geometricPrecision" transform="matrix(1,0,0,1,-103,-57)" stroke-linecap="butt">
      <rect fill="none" x="279" width="121" height="32" y="255" clip-path="url(#clipPath2)"/>
      <text x="288.4004" xml:space="preserve" y="275.1543" clip-path="url(#clipPath2)" font-family="sans-serif" stroke="none">Session Manager</text>
    </g>
    <g fill="rgb(255,204,0)" text-rendering="geometricPrecision" shape-rendering="geometricPrecision" transform="matrix(1,0,0,1,-103,-57)" stroke="rgb(255,204,0)">
      <rect x="279" width="121" height="31.5" y="212" clip-path="url(#clipPath2)" stroke="none"/>
    </g>
    <g text-rendering="geometricPrecision" stroke-miterlimit="1.45" shape-rendering="geometricPrecision" transform="matrix(1,0,0,1,-103,-57)" stroke-linecap="butt">
      <rect fill="none" x="279" width="121" height="31.5" y="212" clip-path="url(#clipPath2)"/>
      <text x="315.084" xml:space="preserve" y="231.9043" clip-path="url(#clipPath2)" font-family="sans-serif" stroke="none">Protocol</text>
      <path fill="none" d="M417.9736 184 L445.0297 184" clip-path="url(#clipPath2)"/>
      <path d="M409.9736 184 L421.9736 189 L418.9736 184 L421.9736 179 Z" clip-path="url(#clipPath2)" stroke="none"/>
      <path d="M453.0297 184 L441.0297 179 L444.0297 184 L441.0297 189 Z" clip-path="url(#clipPath2)" stroke="none"/>
      <path fill="none" d="M1087 115 L1049.9868 115" clip-path="url(#clipPath2)"/>
      <path d="M1095 115 L1083 110 L1086 115 L1083 120 Z" clip-path="url(#clipPath2)" stroke="none"/>
      <path d="M1041.9868 115 L1053.9868 120 L1050.9868 115 L1053.9868 110 Z" clip-path="url(#clipPath2)" stroke="none"/>
      <path fill="none" d="M520 126 L520 142" clip-path="url(#clipPath2)"/>
      <path d="M520 150 L525 138 L520 141 L515 138 Z" clip-path="url(#clipPath2)" stroke="none"/>
      <path fill="none" d="M553 166 L575 166" clip-path="url(#clipPath2)"/>
      <path d="M583 166 L571 161 L574 166 L571 171 Z" clip-path="url(#clipPath2)" stroke="none"/>
      <path fill="none" d="M616 150 L616 134" clip-path="url(#clipPath2)"/>
      <path d="M616 126 L611 138 L616 135 L621 138 Z" clip-path="url(#clipPath2)" stroke="none"/>
      <path fill="none" d="M649 110 L671 110" clip-path="url(#clipPath2)"/>
      <path d="M679 110 L667 105 L670 110 L667 115 Z" clip-path="url(#clipPath2)" stroke="none"/>
      <path fill="none" d="M783 186 L802 186" clip-path="url(#clipPath2)"/>
      <path d="M775 186 L787 191 L784 186 L787 181 Z" clip-path="url(#clipPath2)" stroke="none"/>
      <path d="M810 186 L798 181 L801 186 L798 191 Z" clip-path="url(#clipPath2)" stroke="none"/>
      <path fill="none" d="M901 186 L920 186" clip-path="url(#clipPath2)"/>
      <path d="M893 186 L905 191 L902 186 L905 181 Z" clip-path="url(#clipPath2)" stroke="none"/>
      <path d="M928 186 L916 181 L919 186 L916 191 Z" clip-path="url(#clipPath2)" stroke="none"/>
      <path fill="none" d="M1087 219 L1050.0078 219" clip-path="url(#clipPath2)"/>
      <path d="M1095 219 L1083 214 L1086 219 L1083 224 Z" clip-path="url(#clipPath2)" stroke="none"/>
      <path d="M1042.0078 219 L1054.0078 224 L1051.0078 219 L1054.0078 214 Z" clip-path="url(#clipPath2)" stroke="none"/>
      <path fill="none" d="M1271 115 L1335.0236 115" clip-path="url(#clipPath2)"/>
      <path d="M1263 115 L1275 120 L1272 115 L1275 110 Z" clip-path="url(#clipPath2)" stroke="none"/>
      <path d="M1343.0236 115 L1331.0236 110 L1334.0236 115 L1331.0236 120 Z" clip-path="url(#clipPath2)" stroke="none"/>
      <path fill="none" d="M1284 219 L1335.0682 219" clip-path="url(#clipPath2)"/>
      <path d="M1276 219 L1288 224 L1285 219 L1288 214 Z" clip-path="url(#clipPath2)" stroke="none"/>
      <path d="M1343.0682 219 L1331.0682 214 L1334.0682 219 L1331.0682 224 Z" clip-path="url(#clipPath2)" stroke="none"/>
      <path fill="none" d="M271 271 L247 271" clip-path="url(#clipPath2)"/>
      <path d="M279 271 L267 266 L270 271 L267 276 Z" clip-path="url(#clipPath2)" stroke="none"/>
      <path d="M239 271 L251 276 L248 271 L251 266 Z" clip-path="url(#clipPath2)" stroke="none"/>
    </g>
  </g>
</svg>
