<?xml version="1.0" encoding="UTF-8"?><svg xmlns="http://www.w3.org/2000/svg" xmlns:xlink="http://www.w3.org/1999/xlink" fill-opacity="1" color-rendering="auto" color-interpolation="auto" text-rendering="auto" stroke="black" stroke-linecap="square" width="699" stroke-miterlimit="10" shape-rendering="auto" stroke-opacity="1" fill="black" stroke-dasharray="none" font-weight="normal" stroke-width="1" height="778" font-family="'Dialog'" font-style="normal" stroke-linejoin="miter" font-size="12px" stroke-dashoffset="0" image-rendering="auto">
  <!--Generated by ySVG 2.6-->
  <defs id="genericDefs"/>
  <g>
    <defs id="defs1">
      <clipPath clipPathUnits="userSpaceOnUse" id="clipPath1">
        <path d="M0 0 L699 0 L699 778 L0 778 L0 0 Z"/>
      </clipPath>
      <clipPath clipPathUnits="userSpaceOnUse" id="clipPath2">
        <path d="M72 -48 L771 -48 L771 730 L72 730 L72 -48 Z"/>
      </clipPath>
    </defs>
    <g fill="white" text-rendering="geometricPrecision" shape-rendering="geometricPrecision" transform="translate(-72,48)" stroke="white">
      <rect x="72" width="699" height="778" y="-48" clip-path="url(#clipPath2)" stroke="none"/>
    </g>
    <g fill="rgb(255,204,0)" text-rendering="geometricPrecision" shape-rendering="geometricPrecision" transform="matrix(1,0,0,1,-72,48)" stroke="rgb(255,204,0)">
      <rect x="218.5007" width="121.25" height="45" y="-32.988" clip-path="url(#clipPath2)" stroke="none"/>
    </g>
    <g text-rendering="geometricPrecision" stroke-miterlimit="1.45" shape-rendering="geometricPrecision" transform="matrix(1,0,0,1,-72,48)" stroke-linecap="butt">
      <rect fill="none" x="218.5007" width="121.25" height="45" y="-32.988" clip-path="url(#clipPath2)"/>
      <text x="258.5623" xml:space="preserve" y="-6.3337" clip-path="url(#clipPath2)" font-family="sans-serif" stroke="none">Engine</text>
    </g>
    <g fill="rgb(255,204,0)" text-rendering="geometricPrecision" shape-rendering="geometricPrecision" transform="matrix(1,0,0,1,-72,48)" stroke="rgb(255,204,0)">
      <rect x="426.3768" width="121.25" height="45" y="-32.988" clip-path="url(#clipPath2)" stroke="none"/>
    </g>
    <g text-rendering="geometricPrecision" stroke-miterlimit="1.45" shape-rendering="geometricPrecision" transform="matrix(1,0,0,1,-72,48)" stroke-linecap="butt">
      <rect fill="none" x="426.3768" width="121.25" height="45" y="-32.988" clip-path="url(#clipPath2)"/>
      <text x="445.9627" xml:space="preserve" y="-6.3337" clip-path="url(#clipPath2)" font-family="sans-serif" stroke="none">Local Storage</text>
    </g>
    <g fill="rgb(255,204,0)" text-rendering="geometricPrecision" shape-rendering="geometricPrecision" transform="matrix(1,0,0,1,-72,48)" stroke="rgb(255,204,0)">
      <rect x="634.2529" width="121.25" height="45" y="-32.988" clip-path="url(#clipPath2)" stroke="none"/>
    </g>
    <g text-rendering="geometricPrecision" stroke-miterlimit="1.45" shape-rendering="geometricPrecision" transform="matrix(1,0,0,1,-72,48)" stroke-linecap="butt">
      <rect fill="none" x="634.2529" width="121.25" height="45" y="-32.988" clip-path="url(#clipPath2)"/>
      <text x="657.5917" xml:space="preserve" y="-13.3181" clip-path="url(#clipPath2)" font-family="sans-serif" stroke="none">URL Storage</text>
      <text x="642.8701" xml:space="preserve" y="0.6507" clip-path="url(#clipPath2)" font-family="sans-serif" stroke="none">(Local or remote)</text>
      <text x="177.612" xml:space="preserve" y="695.9283" clip-path="url(#clipPath2)" font-family="sans-serif" stroke="none">Continue with other Data Sources</text>
    </g>
    <g fill="rgb(38,166,154)" text-rendering="geometricPrecision" shape-rendering="geometricPrecision" transform="matrix(1,0,0,1,-72,48)" stroke="rgb(38,166,154)">
      <rect x="264.1257" y="42.012" clip-path="url(#clipPath2)" width="30" rx="4" ry="4" height="30" stroke="none"/>
    </g>
    <g text-rendering="geometricPrecision" stroke-miterlimit="1.45" shape-rendering="geometricPrecision" transform="matrix(1,0,0,1,-72,48)" stroke-linecap="butt">
      <rect x="264.1257" y="42.012" clip-path="url(#clipPath2)" fill="none" width="30" rx="4" ry="4" height="30"/>
    </g>
    <g fill="rgb(38,166,154)" text-rendering="geometricPrecision" shape-rendering="geometricPrecision" transform="matrix(1,0,0,1,-72,48)" stroke="rgb(38,166,154)">
      <rect x="472.0018" y="33.262" clip-path="url(#clipPath2)" width="30" rx="4" ry="4" height="97.6" stroke="none"/>
    </g>
    <g text-rendering="geometricPrecision" stroke-miterlimit="1.45" shape-rendering="geometricPrecision" transform="matrix(1,0,0,1,-72,48)" stroke-linecap="butt">
      <rect x="472.0018" y="33.262" clip-path="url(#clipPath2)" fill="none" width="30" rx="4" ry="4" height="97.6"/>
    </g>
    <g fill="rgb(38,166,154)" text-rendering="geometricPrecision" shape-rendering="geometricPrecision" transform="matrix(1,0,0,1,-72,48)" stroke="rgb(38,166,154)">
      <rect x="264.1257" y="100.862" clip-path="url(#clipPath2)" width="30" rx="4" ry="4" height="155.8" stroke="none"/>
    </g>
    <g text-rendering="geometricPrecision" stroke-miterlimit="1.45" shape-rendering="geometricPrecision" transform="matrix(1,0,0,1,-72,48)" stroke-linecap="butt">
      <rect x="264.1257" y="100.862" clip-path="url(#clipPath2)" fill="none" width="30" rx="4" ry="4" height="155.8"/>
    </g>
    <g fill="rgb(38,166,154)" text-rendering="geometricPrecision" shape-rendering="geometricPrecision" transform="matrix(1,0,0,1,-72,48)" stroke="rgb(38,166,154)">
      <rect x="472.0018" y="166.462" clip-path="url(#clipPath2)" width="30" rx="4" ry="4" height="90.2" stroke="none"/>
    </g>
    <g text-rendering="geometricPrecision" stroke-miterlimit="1.45" shape-rendering="geometricPrecision" transform="matrix(1,0,0,1,-72,48)" stroke-linecap="butt">
      <rect x="472.0018" y="166.462" clip-path="url(#clipPath2)" fill="none" width="30" rx="4" ry="4" height="90.2"/>
    </g>
    <g fill="rgb(38,166,154)" text-rendering="geometricPrecision" shape-rendering="geometricPrecision" transform="matrix(1,0,0,1,-72,48)" stroke="rgb(38,166,154)">
      <rect x="264.1257" y="286.662" clip-path="url(#clipPath2)" width="30" rx="4" ry="4" height="50" stroke="none"/>
    </g>
    <g text-rendering="geometricPrecision" stroke-miterlimit="1.45" shape-rendering="geometricPrecision" transform="matrix(1,0,0,1,-72,48)" stroke-linecap="butt">
      <rect x="264.1257" y="286.662" clip-path="url(#clipPath2)" fill="none" width="30" rx="4" ry="4" height="50"/>
    </g>
    <g fill="rgb(38,166,154)" text-rendering="geometricPrecision" shape-rendering="geometricPrecision" transform="matrix(1,0,0,1,-72,48)" stroke="rgb(38,166,154)">
      <rect x="679.8779" y="286.662" clip-path="url(#clipPath2)" width="30" rx="4" ry="4" height="50" stroke="none"/>
    </g>
    <g text-rendering="geometricPrecision" stroke-miterlimit="1.45" shape-rendering="geometricPrecision" transform="matrix(1,0,0,1,-72,48)" stroke-linecap="butt">
      <rect x="679.8779" y="286.662" clip-path="url(#clipPath2)" fill="none" width="30" rx="4" ry="4" height="50"/>
    </g>
    <g fill="rgb(38,166,154)" text-rendering="geometricPrecision" shape-rendering="geometricPrecision" transform="matrix(1,0,0,1,-72,48)" stroke="rgb(38,166,154)">
      <rect x="264.1257" y="366.662" clip-path="url(#clipPath2)" width="30" rx="4" ry="4" height="78" stroke="none"/>
    </g>
    <g text-rendering="geometricPrecision" stroke-miterlimit="1.45" shape-rendering="geometricPrecision" transform="matrix(1,0,0,1,-72,48)" stroke-linecap="butt">
      <rect x="264.1257" y="366.662" clip-path="url(#clipPath2)" fill="none" width="30" rx="4" ry="4" height="78"/>
    </g>
    <g fill="rgb(38,166,154)" text-rendering="geometricPrecision" shape-rendering="geometricPrecision" transform="matrix(1,0,0,1,-72,48)" stroke="rgb(38,166,154)">
      <rect x="679.8779" y="366.662" clip-path="url(#clipPath2)" width="30" rx="4" ry="4" height="78" stroke="none"/>
    </g>
    <g text-rendering="geometricPrecision" stroke-miterlimit="1.45" shape-rendering="geometricPrecision" transform="matrix(1,0,0,1,-72,48)" stroke-linecap="butt">
      <rect x="679.8779" y="366.662" clip-path="url(#clipPath2)" fill="none" width="30" rx="4" ry="4" height="78"/>
    </g>
    <g fill="rgb(38,166,154)" text-rendering="geometricPrecision" shape-rendering="geometricPrecision" transform="matrix(1,0,0,1,-72,48)" stroke="rgb(38,166,154)">
      <rect x="264.1257" y="483" clip-path="url(#clipPath2)" width="30" rx="4" ry="4" height="50" stroke="none"/>
    </g>
    <g text-rendering="geometricPrecision" stroke-miterlimit="1.45" shape-rendering="geometricPrecision" transform="matrix(1,0,0,1,-72,48)" stroke-linecap="butt">
      <rect x="264.1257" y="483" clip-path="url(#clipPath2)" fill="none" width="30" rx="4" ry="4" height="50"/>
    </g>
    <g fill="rgb(38,166,154)" text-rendering="geometricPrecision" shape-rendering="geometricPrecision" transform="matrix(1,0,0,1,-72,48)" stroke="rgb(38,166,154)">
      <rect x="679.8779" y="483" clip-path="url(#clipPath2)" width="30" rx="4" ry="4" height="50" stroke="none"/>
    </g>
    <g text-rendering="geometricPrecision" stroke-miterlimit="1.45" shape-rendering="geometricPrecision" transform="matrix(1,0,0,1,-72,48)" stroke-linecap="butt">
      <rect x="679.8779" y="483" clip-path="url(#clipPath2)" fill="none" width="30" rx="4" ry="4" height="50"/>
    </g>
    <g fill="rgb(38,166,154)" text-rendering="geometricPrecision" shape-rendering="geometricPrecision" transform="matrix(1,0,0,1,-72,48)" stroke="rgb(38,166,154)">
      <rect x="264.1257" y="571.338" clip-path="url(#clipPath2)" width="30" rx="4" ry="4" height="50" stroke="none"/>
    </g>
    <g text-rendering="geometricPrecision" stroke-miterlimit="1.45" shape-rendering="geometricPrecision" transform="matrix(1,0,0,1,-72,48)" stroke-linecap="butt">
      <rect x="264.1257" y="571.338" clip-path="url(#clipPath2)" fill="none" width="30" rx="4" ry="4" height="50"/>
    </g>
    <g fill="rgb(38,166,154)" text-rendering="geometricPrecision" shape-rendering="geometricPrecision" transform="matrix(1,0,0,1,-72,48)" stroke="rgb(38,166,154)">
      <rect x="679.8779" y="571.338" clip-path="url(#clipPath2)" width="30" rx="4" ry="4" height="50" stroke="none"/>
    </g>
    <g text-rendering="geometricPrecision" stroke-miterlimit="1.45" shape-rendering="geometricPrecision" transform="matrix(1,0,0,1,-72,48)" stroke-linecap="butt">
      <rect x="679.8779" y="571.338" clip-path="url(#clipPath2)" fill="none" width="30" rx="4" ry="4" height="50"/>
      <path fill="none" stroke-dasharray="6,2" d="M279.1257 12.012 L279.1257 34.0266" clip-path="url(#clipPath2)"/>
      <path stroke-dasharray="6,2" d="M279.1257 42.0266 L284.1257 30.0266 L279.1257 33.0266 L274.1257 30.0266 Z" clip-path="url(#clipPath2)" stroke="none"/>
      <path fill="none" stroke-dasharray="6,2" d="M487.0018 12.012 L487.0018 33.2527" clip-path="url(#clipPath2)"/>
      <path fill="none" d="M294.1445 57.012 L463.9682 57.012" clip-path="url(#clipPath2)"/>
      <path d="M471.9682 57.012 L459.9682 52.012 L462.9682 57.012 L459.9682 62.012 Z" clip-path="url(#clipPath2)" stroke="none"/>
      <text x="324.6283" xml:space="preserve" y="31.1663" clip-path="url(#clipPath2)" font-family="sans-serif" stroke="none">1. Read App Config</text>
      <path fill="none" stroke-dasharray="6,2" d="M279.1257 72.0227 L279.1257 92.8704" clip-path="url(#clipPath2)"/>
      <path stroke-dasharray="6,2" d="M279.1257 100.8704 L284.1257 88.8704 L279.1257 91.8704 L274.1257 88.8704 Z" clip-path="url(#clipPath2)" stroke="none"/>
      <path fill="none" stroke-dasharray="6,2" d="M471.9995 115.8 L302.1557 115.8" clip-path="url(#clipPath2)"/>
      <path stroke-dasharray="6,2" d="M294.1557 115.8 L306.1557 120.8 L303.1557 115.8 L306.1557 110.8 Z" clip-path="url(#clipPath2)" stroke="none"/>
      <path fill="none" stroke-dasharray="6,2" d="M487.0018 130.8458 L487.0018 166.435" clip-path="url(#clipPath2)"/>
      <path fill="none" d="M294.1679 191.062 L463.9873 191.062" clip-path="url(#clipPath2)"/>
      <path d="M471.9873 191.062 L459.9873 186.062 L462.9873 191.062 L459.9873 196.062 Z" clip-path="url(#clipPath2)" stroke="none"/>
      <text x="327.6194" xml:space="preserve" y="165.2163" clip-path="url(#clipPath2)" font-family="sans-serif" stroke="none">2. Read Properties</text>
      <path fill="none" stroke-dasharray="6,2" d="M487.0018 256.6698 L487.0018 669.274" clip-path="url(#clipPath2)"/>
      <path fill="none" stroke-dasharray="6,2" d="M472.0398 240.262 L302.0879 240.262" clip-path="url(#clipPath2)"/>
      <path stroke-dasharray="6,2" d="M294.0879 240.262 L306.0879 245.262 L303.0879 240.262 L306.0879 235.262 Z" clip-path="url(#clipPath2)" stroke="none"/>
      <path fill="none" stroke-dasharray="6,2" d="M279.1257 256.6655 L279.1257 278.6612" clip-path="url(#clipPath2)"/>
      <path stroke-dasharray="6,2" d="M279.1257 286.6612 L284.1257 274.6612 L279.1257 277.6612 L274.1257 274.6612 Z" clip-path="url(#clipPath2)" stroke="none"/>
      <path fill="none" stroke-dasharray="6,2" d="M694.8779 12.012 L694.8779 286.679" clip-path="url(#clipPath2)"/>
      <path fill="none" d="M294.1379 299.1427 L671.8433 299.1427" clip-path="url(#clipPath2)"/>
      <path d="M679.8433 299.1427 L667.8433 294.1427 L670.8433 299.1427 L667.8433 304.1427 Z" clip-path="url(#clipPath2)" stroke="none"/>
      <text x="315.583" xml:space="preserve" y="273.297" clip-path="url(#clipPath2)" font-family="sans-serif" stroke="none">3. Fetch Descriptor bundle</text>
      <path fill="none" stroke-dasharray="6,2" d="M679.8562 323 L302.1716 323" clip-path="url(#clipPath2)"/>
      <path stroke-dasharray="6,2" d="M294.1716 323 L306.1716 328 L303.1716 323 L306.1716 318 Z" clip-path="url(#clipPath2)" stroke="none"/>
      <path fill="none" stroke-dasharray="6,2" d="M279.1257 336.6766 L279.1257 358.6893" clip-path="url(#clipPath2)"/>
      <path stroke-dasharray="6,2" d="M279.1257 366.6893 L284.1257 354.6893 L279.1257 357.6893 L274.1257 354.6893 Z" clip-path="url(#clipPath2)" stroke="none"/>
      <path fill="none" stroke-dasharray="6,2" d="M256.7575 378.0444 L256.6696 377.9967 L256.5468 377.9586 L250.8478 377.384 L245.1488 377.9585 L239.8407 379.6063 L235.0373 382.2135 L230.8522 385.6664 L227.3992 389.8515 L224.792 394.6549 L223.1443 399.963 L222.5698 405.662 L223.1443 411.361 L224.792 416.669 L227.3992 421.4725 L230.8522 425.6575 L235.0373 429.1105 L239.8407 431.7177 L245.1488 433.3654 L250.8477 433.9399 L256.5468 433.3654 L261.8548 431.7177 L264.1439 430.4753" clip-path="url(#clipPath2)"/>
      <path stroke-dasharray="6,2" d="M264.2366 380.8839 L254.7926 371.9502 L255.8226 377.6895 L251.2432 381.2991 Z" clip-path="url(#clipPath2)" stroke="none"/>
      <text x="89.4383" xml:space="preserve" y="410.8163" clip-path="url(#clipPath2)" font-family="sans-serif" stroke="none">Iterate per Script DS</text>
      <path fill="none" stroke-dasharray="6,2" d="M694.8779 336.6766 L694.8779 366.6893" clip-path="url(#clipPath2)"/>
      <path fill="none" d="M294.1639 380.1014 L671.8589 380.1014" clip-path="url(#clipPath2)"/>
      <path d="M679.8589 380.1014 L667.8589 375.1014 L670.8589 380.1014 L667.8589 385.1014 Z" clip-path="url(#clipPath2)" stroke="none"/>
      <text x="327.7167" xml:space="preserve" y="347.2713" clip-path="url(#clipPath2)" font-family="sans-serif" stroke="none">4. Fetch Script Data </text>
      <text x="345.8603" xml:space="preserve" y="361.2401" clip-path="url(#clipPath2)" font-family="sans-serif" stroke="none">Source Bundle</text>
      <path fill="none" stroke-dasharray="6,2" d="M679.8651 428.7862 L302.1401 428.7862" clip-path="url(#clipPath2)"/>
      <path stroke-dasharray="6,2" d="M294.1401 428.7862 L306.1401 433.7862 L303.1401 428.7862 L306.1401 423.7862 Z" clip-path="url(#clipPath2)" stroke="none"/>
      <path fill="none" stroke-dasharray="6,2" d="M279.1257 444.6884 L279.1257 474.9907" clip-path="url(#clipPath2)"/>
      <path stroke-dasharray="6,2" d="M279.1257 482.9907 L284.1257 470.9907 L279.1257 473.9907 L274.1257 470.9907 Z" clip-path="url(#clipPath2)" stroke="none"/>
      <path fill="none" stroke-dasharray="6,2" d="M694.8779 444.6884 L694.8779 482.9907" clip-path="url(#clipPath2)"/>
      <path fill="none" d="M294.1554 494.0204 L671.8433 494.0204" clip-path="url(#clipPath2)"/>
      <path d="M679.8433 494.0204 L667.8433 489.0204 L670.8433 494.0204 L667.8433 499.0204 Z" clip-path="url(#clipPath2)" stroke="none"/>
      <text x="354.0848" xml:space="preserve" y="461.1903" clip-path="url(#clipPath2)" font-family="sans-serif" stroke="none">5. Fetch SQL </text>
      <text x="340.3241" xml:space="preserve" y="475.1591" clip-path="url(#clipPath2)" font-family="sans-serif" stroke="none">Functions Bundle </text>
      <path fill="none" stroke-dasharray="6,2" d="M679.8431 521.0089 L302.1403 521.0089" clip-path="url(#clipPath2)"/>
      <path stroke-dasharray="6,2" d="M294.1403 521.0089 L306.1403 526.0089 L303.1403 521.0089 L306.1403 516.0089 Z" clip-path="url(#clipPath2)" stroke="none"/>
      <path fill="none" stroke-dasharray="6,2" d="M279.1257 532.9745 L279.1257 563.3082" clip-path="url(#clipPath2)"/>
      <path stroke-dasharray="6,2" d="M279.1257 571.3082 L284.1257 559.3082 L279.1257 562.3082 L274.1257 559.3082 Z" clip-path="url(#clipPath2)" stroke="none"/>
      <path fill="none" stroke-dasharray="6,2" d="M279.1257 621.362 L279.1257 661.274" clip-path="url(#clipPath2)"/>
      <path stroke-dasharray="6,2" d="M279.1257 669.274 L284.1257 657.274 L279.1257 660.274 L274.1257 657.274 Z" clip-path="url(#clipPath2)" stroke="none"/>
      <path fill="none" stroke-dasharray="6,2" d="M694.8779 532.9745 L694.8779 571.3082" clip-path="url(#clipPath2)"/>
      <path fill="none" d="M294.1404 581.9846 L671.8589 581.9846" clip-path="url(#clipPath2)"/>
      <path d="M679.8589 581.9846 L667.8589 576.9846 L670.8589 581.9846 L667.8589 586.9846 Z" clip-path="url(#clipPath2)" stroke="none"/>
      <text x="339.5614" xml:space="preserve" y="549.1545" clip-path="url(#clipPath2)" font-family="sans-serif" stroke="none">6. Fetch Template </text>
      <text x="342.3241" xml:space="preserve" y="563.1233" clip-path="url(#clipPath2)" font-family="sans-serif" stroke="none">Functions Bundle </text>
      <path fill="none" stroke-dasharray="6,2" d="M694.8779 621.362 L694.8779 669.274" clip-path="url(#clipPath2)"/>
      <path fill="none" stroke-dasharray="6,2" d="M679.8747 610 L302.1559 610" clip-path="url(#clipPath2)"/>
      <path stroke-dasharray="6,2" d="M294.1559 610 L306.1559 615 L303.1559 610 L306.1559 605 Z" clip-path="url(#clipPath2)" stroke="none"/>
    </g>
  </g>
</svg>
