<?xml version="1.0" encoding="utf-8"?>
<!-- Generator: Adobe Illustrator 27.5.0, SVG Export Plug-In . SVG Version: 6.00 Build 0)  -->
<svg version="1.1" id="Capa_1" xmlns="http://www.w3.org/2000/svg" xmlns:xlink="http://www.w3.org/1999/xlink" x="0px" y="0px"
	 viewBox="0 0 258 91" style="enable-background:new 0 0 258 91;" xml:space="preserve">
<style type="text/css">
	.st0{fill:#FFFFFF;}
	.st1{clip-path:url(#SVGID_00000013888820975229398540000014591320945666011574_);fill:#FFFFFF;}
</style>
<g>
	<path class="st0" d="M115.6,32.5c-3.9,0-7,1.2-9.4,3.5V21H97v44.5h9.2V63c2.4,2.3,5.5,3.5,9.4,3.5c4.3,0,8.1-1.7,11.1-4.9
		c3-3.3,4.6-7.3,4.6-12c0-4.7-1.5-8.8-4.6-12C123.7,34.2,119.9,32.5,115.6,32.5z M122.1,49.5c0,2.4-0.7,4.3-2.3,5.8
		c-1.5,1.5-3.4,2.3-5.7,2.3c-2.3,0-4.2-0.7-5.7-2.3c-1.5-1.5-2.2-3.4-2.2-5.8c0-2.4,0.7-4.3,2.2-5.8c1.5-1.5,3.4-2.3,5.7-2.3
		c2.3,0,4.2,0.7,5.7,2.3C121.4,45.2,122.1,47.1,122.1,49.5z"/>
	<rect x="141.3" y="19.2" class="st0" width="9.2" height="46.4"/>
	<path class="st0" d="M166.7,19.9c-1.5,0-2.8,0.6-3.9,1.7c-1.1,1.1-1.6,2.4-1.6,3.9c0,1.5,0.6,2.8,1.6,3.9c1.1,1.1,2.4,1.6,3.9,1.6
		c1.5,0,2.9-0.6,3.9-1.6c1.1-1.1,1.6-2.4,1.6-3.9c0-1.5-0.5-2.8-1.6-3.9C169.5,20.4,168.2,19.9,166.7,19.9z"/>
	<rect x="162.1" y="33.4" class="st0" width="9.2" height="32.2"/>
	<path class="st0" d="M200.8,32.5c-3.7,0-6.5,1.1-8.6,3.2v-2.3h-9.2v32.2h9.2V48.3c0-2.4,0.6-4.2,1.7-5.3c1.1-1.2,2.6-1.7,4.5-1.7
		c1.7,0,3,0.5,4,1.5c1,1,1.5,2.4,1.5,4.3v18.6h9.2V46c0-4.1-1.2-7.5-3.5-9.8C207.3,33.8,204.3,32.5,200.8,32.5z"/>
	<path class="st0" d="M247.9,33.4v2.8c-2.4-2.4-5.5-3.6-9.3-3.6c-4.5,0-8.3,1.6-11.4,4.8c-3.1,3.2-4.6,7.1-4.6,11.6
		c0,4.6,1.5,8.5,4.6,11.7c3.1,3.2,6.9,4.8,11.4,4.8c3.8,0,6.9-1.2,9.3-3.6v1.6c0,2.3-0.6,4-2,5.2c-1.3,1.2-3.2,1.8-5.5,1.8
		c-3.6,0-6.1-1.3-7.5-4l-0.3-0.6l-7.9,4.5l0.3,0.5c1.4,2.6,3.5,4.6,6.1,5.9c2.6,1.3,5.7,2,9.1,2c4.6,0,8.5-1.3,11.8-3.9
		c3.3-2.6,5-6.5,5-11.4V33.4H247.9z M247.9,49c0,2.3-0.7,4.2-2.3,5.6c-1.5,1.5-3.4,2.2-5.8,2.2c-2.4,0-4.3-0.7-5.8-2.2
		c-1.5-1.5-2.3-3.3-2.3-5.6c0-2.3,0.7-4.1,2.3-5.6c1.5-1.5,3.4-2.2,5.8-2.2s4.3,0.7,5.8,2.2C247.1,44.9,247.9,46.7,247.9,49z"/>
	<g>
		<polygon class="st0" points="64.5,43.1 64.5,33.4 55.4,33.4 		"/>
		<path class="st0" d="M76.1,33.4v17.3c0,2.4-0.6,4.2-1.7,5.3c-1.1,1.2-2.6,1.7-4.5,1.7c-1.7,0-3-0.5-4-1.5c-1-1-1.5-2.4-1.5-4.3
			v-8.5l-9.2,9.2V53c0,4.2,1.2,7.5,3.5,9.8c2.3,2.4,5.3,3.6,8.8,3.6c3.7,0,6.5-1.1,8.6-3.2v2.3h9.2V33.4H76.1z"/>
	</g>
	
		<rect x="37.4" y="36.3" transform="matrix(0.7071 0.7071 -0.7071 0.7071 42.4343 -18.1803)" class="st0" width="11.6" height="11.6"/>
	<g>
		<g>
			<defs>
				<polygon id="SVGID_1_" points="43.2,20.3 29.3,20.3 11.4,38.2 11.4,20.3 0,20.3 0,64.9 11.4,64.9 11.4,52 4.5,45.2 7.1,42.7 
					29.3,64.9 43.2,64.9 21,42.6 				"/>
			</defs>
			<use xlink:href="#SVGID_1_"  style="overflow:visible;fill:#FFFFFF;"/>
			<clipPath id="SVGID_00000000186651208315459140000001127255457678979724_">
				<use xlink:href="#SVGID_1_"  style="overflow:visible;"/>
			</clipPath>
			
				<rect x="0" y="20.3" style="clip-path:url(#SVGID_00000000186651208315459140000001127255457678979724_);fill:#FFFFFF;" width="43.2" height="44.5"/>
		</g>
	</g>
	<g>
		
			<rect x="41.5" y="25.9" transform="matrix(0.7071 0.7071 -0.7071 0.7071 32.1758 -22.4295)" class="st0" width="3.4" height="3.4"/>
		<rect x="49" y="33.4" transform="matrix(0.7071 0.7071 -0.7071 0.7071 39.66 -25.5296)" class="st0" width="3.4" height="3.4"/>
		
			<rect x="56.4" y="40.9" transform="matrix(0.7071 0.7071 -0.7071 0.7071 47.1441 -28.6296)" class="st0" width="3.4" height="3.4"/>
		<rect x="34" y="33.4" transform="matrix(0.7071 0.7071 -0.7071 0.7071 35.2759 -14.9454)" class="st0" width="3.4" height="3.4"/>
		<rect x="49" y="48.4" transform="matrix(0.7071 0.7071 -0.7071 0.7071 50.2442 -21.1454)" class="st0" width="3.4" height="3.4"/>
		
			<rect x="26.5" y="40.9" transform="matrix(0.7071 0.7071 -0.7071 0.7071 38.3759 -7.4612)" class="st0" width="3.4" height="3.4"/>
		<rect x="34" y="48.4" transform="matrix(0.7071 0.7071 -0.7071 0.7071 45.8601 -10.5612)" class="st0" width="3.4" height="3.4"/>
		
			<rect x="41.5" y="55.9" transform="matrix(0.7071 0.7071 -0.7071 0.7071 53.3442 -13.6613)" class="st0" width="3.4" height="3.4"/>
	</g>
</g>
</svg>
