<?xml version="1.0" encoding="utf-8"?>
<!-- Generator: Adobe Illustrator 27.5.0, SVG Export Plug-In . SVG Version: 6.00 Build 0)  -->
<svg version="1.1" id="Capa_1" xmlns="http://www.w3.org/2000/svg" xmlns:xlink="http://www.w3.org/1999/xlink" x="0px" y="0px"
	 viewBox="0 0 257 90" style="enable-background:new 0 0 257 90;" xml:space="preserve">
<style type="text/css">
	.st0{fill:url(#SVGID_1_);}
	.st1{fill:url(#SVGID_00000041977659961559309580000002229935505231983790_);}
	.st2{fill:url(#SVGID_00000049916969043434769200000012097989058464540083_);}
	.st3{fill:url(#SVGID_00000164474033935335933580000013298608322816149641_);}
	.st4{fill:url(#SVGID_00000173129191617323795720000007831091864091281039_);}
	.st5{fill:url(#SVGID_00000050664397124596509100000002805928249370736784_);}
	.st6{fill:url(#SVGID_00000090980272292990175140000015099409391151841172_);}
	.st7{fill:url(#SVGID_00000065793739834789510170000013720684946515871366_);}
	.st8{fill:#863AE8;}
	
		.st9{clip-path:url(#SVGID_00000034776407693996837110000008046075650115821710_);fill:url(#SVGID_00000094579693353821754550000000406604808700606911_);}
</style>
<g>
	<linearGradient id="SVGID_1_" gradientUnits="userSpaceOnUse" x1="114.1586" y1="-4.4248" x2="114.1586" y2="59.6359">
		<stop  offset="0" style="stop-color:#68EAA2"/>
		<stop  offset="0.4058" style="stop-color:#50D19F"/>
		<stop  offset="1" style="stop-color:#26A69A"/>
	</linearGradient>
	<path class="st0" d="M115.6,32.5c-3.9,0-7,1.2-9.4,3.5V21H97v44.5h9.2V63c2.4,2.3,5.5,3.5,9.4,3.5c4.3,0,8.1-1.7,11.1-4.9
		c3-3.3,4.6-7.3,4.6-12c0-4.7-1.5-8.8-4.6-12C123.7,34.2,119.9,32.5,115.6,32.5z M122.1,49.5c0,2.4-0.7,4.3-2.3,5.8
		c-1.5,1.5-3.4,2.3-5.7,2.3c-2.3,0-4.2-0.7-5.7-2.3c-1.5-1.5-2.2-3.4-2.2-5.8c0-2.4,0.7-4.3,2.2-5.8c1.5-1.5,3.4-2.3,5.7-2.3
		c2.3,0,4.2,0.7,5.7,2.3C121.4,45.2,122.1,47.1,122.1,49.5z"/>
	
		<linearGradient id="SVGID_00000097492572390448572280000010281550807590826897_" gradientUnits="userSpaceOnUse" x1="145.8781" y1="-4.4248" x2="145.8781" y2="59.6359">
		<stop  offset="0" style="stop-color:#68EAA2"/>
		<stop  offset="0.4058" style="stop-color:#50D19F"/>
		<stop  offset="1" style="stop-color:#26A69A"/>
	</linearGradient>
	
		<rect x="141.3" y="19.2" style="fill:url(#SVGID_00000097492572390448572280000010281550807590826897_);" width="9.2" height="46.4"/>
	
		<linearGradient id="SVGID_00000101086825065311982940000013338525544068774303_" gradientUnits="userSpaceOnUse" x1="166.7142" y1="-4.4248" x2="166.7142" y2="59.6359">
		<stop  offset="0" style="stop-color:#68EAA2"/>
		<stop  offset="0.4058" style="stop-color:#50D19F"/>
		<stop  offset="1" style="stop-color:#26A69A"/>
	</linearGradient>
	<path style="fill:url(#SVGID_00000101086825065311982940000013338525544068774303_);" d="M166.7,19.9c-1.5,0-2.8,0.6-3.9,1.7
		c-1.1,1.1-1.6,2.4-1.6,3.9c0,1.5,0.6,2.8,1.6,3.9c1.1,1.1,2.4,1.6,3.9,1.6c1.5,0,2.9-0.6,3.9-1.6c1.1-1.1,1.6-2.4,1.6-3.9
		c0-1.5-0.5-2.8-1.6-3.9C169.5,20.4,168.2,19.9,166.7,19.9z"/>
	
		<linearGradient id="SVGID_00000065778506978165915450000008197679452887489938_" gradientUnits="userSpaceOnUse" x1="166.7142" y1="-4.4248" x2="166.7142" y2="59.6359">
		<stop  offset="0" style="stop-color:#68EAA2"/>
		<stop  offset="0.4058" style="stop-color:#50D19F"/>
		<stop  offset="1" style="stop-color:#26A69A"/>
	</linearGradient>
	
		<rect x="162.1" y="33.4" style="fill:url(#SVGID_00000065778506978165915450000008197679452887489938_);" width="9.2" height="32.2"/>
	
		<linearGradient id="SVGID_00000108304277587428355190000003071504668126286003_" gradientUnits="userSpaceOnUse" x1="198.001" y1="-4.4248" x2="198.001" y2="59.6359">
		<stop  offset="0" style="stop-color:#68EAA2"/>
		<stop  offset="0.4058" style="stop-color:#50D19F"/>
		<stop  offset="1" style="stop-color:#26A69A"/>
	</linearGradient>
	<path style="fill:url(#SVGID_00000108304277587428355190000003071504668126286003_);" d="M200.8,32.5c-3.7,0-6.5,1.1-8.6,3.2v-2.3
		h-9.2v32.2h9.2V48.3c0-2.4,0.6-4.2,1.7-5.3c1.1-1.2,2.6-1.7,4.5-1.7c1.7,0,3,0.5,4,1.5c1,1,1.5,2.4,1.5,4.3v18.6h9.2V46
		c0-4.1-1.2-7.5-3.5-9.8C207.3,33.8,204.3,32.5,200.8,32.5z"/>
	
		<linearGradient id="SVGID_00000150796123913897665900000007615680559646617530_" gradientUnits="userSpaceOnUse" x1="239.7361" y1="-4.4248" x2="239.7361" y2="59.6359">
		<stop  offset="0" style="stop-color:#68EAA2"/>
		<stop  offset="0.4058" style="stop-color:#50D19F"/>
		<stop  offset="1" style="stop-color:#26A69A"/>
	</linearGradient>
	<path style="fill:url(#SVGID_00000150796123913897665900000007615680559646617530_);" d="M247.9,33.4v2.8c-2.4-2.4-5.5-3.6-9.3-3.6
		c-4.5,0-8.3,1.6-11.4,4.8c-3.1,3.2-4.6,7.1-4.6,11.6c0,4.6,1.5,8.5,4.6,11.7c3.1,3.2,6.9,4.8,11.4,4.8c3.8,0,6.9-1.2,9.3-3.6v1.6
		c0,2.3-0.6,4-2,5.2c-1.3,1.2-3.2,1.8-5.5,1.8c-3.6,0-6.1-1.3-7.5-4l-0.3-0.6l-7.9,4.5l0.3,0.5c1.4,2.6,3.5,4.6,6.1,5.9
		c2.6,1.3,5.7,2,9.1,2c4.6,0,8.5-1.3,11.8-3.9c3.3-2.6,5-6.5,5-11.4V33.4H247.9z M247.9,49c0,2.3-0.7,4.2-2.3,5.6
		c-1.5,1.5-3.4,2.2-5.8,2.2c-2.4,0-4.3-0.7-5.8-2.2c-1.5-1.5-2.3-3.3-2.3-5.6c0-2.3,0.7-4.1,2.3-5.6c1.5-1.5,3.4-2.2,5.8-2.2
		s4.3,0.7,5.8,2.2C247.1,44.9,247.9,46.7,247.9,49z"/>
	<g>
		
			<linearGradient id="SVGID_00000076586301847583773250000012870782521678264726_" gradientUnits="userSpaceOnUse" x1="59.9566" y1="22.3229" x2="59.9566" y2="41.1016">
			<stop  offset="0" style="stop-color:#68EAA2"/>
			<stop  offset="0.4058" style="stop-color:#50D19F"/>
			<stop  offset="1" style="stop-color:#26A69A"/>
		</linearGradient>
		<polygon style="fill:url(#SVGID_00000076586301847583773250000012870782521678264726_);" points="64.5,43.1 64.5,33.4 55.4,33.4 
					"/>
		
			<linearGradient id="SVGID_00000016780476859405231590000002639475027873232570_" gradientUnits="userSpaceOnUse" x1="70.3215" y1="-4.4248" x2="70.3215" y2="59.6359">
			<stop  offset="0" style="stop-color:#68EAA2"/>
			<stop  offset="0.4058" style="stop-color:#50D19F"/>
			<stop  offset="1" style="stop-color:#26A69A"/>
		</linearGradient>
		<path style="fill:url(#SVGID_00000016780476859405231590000002639475027873232570_);" d="M76.1,33.4v17.3c0,2.4-0.6,4.2-1.7,5.3
			c-1.1,1.2-2.6,1.7-4.5,1.7c-1.7,0-3-0.5-4-1.5c-1-1-1.5-2.4-1.5-4.3v-8.5l-9.2,9.2V53c0,4.2,1.2,7.5,3.5,9.8
			c2.3,2.4,5.3,3.6,8.8,3.6c3.7,0,6.5-1.1,8.6-3.2v2.3h9.2V33.4H76.1z"/>
	</g>
	
		<rect x="37.4" y="36.3" transform="matrix(0.7071 0.7071 -0.7071 0.7071 42.4343 -18.1803)" class="st8" width="11.6" height="11.6"/>
	<g>
		<g>
			<defs>
				<polygon id="SVGID_00000152982101632400777970000008211036721941894590_" points="43.2,20.3 29.3,20.3 11.4,38.2 11.4,20.3 
					0,20.3 0,64.9 11.4,64.9 11.4,52 4.5,45.2 7.1,42.7 29.3,64.9 43.2,64.9 21,42.6 				"/>
			</defs>
			
				<linearGradient id="SVGID_00000042710065596852288740000013108027620995883423_" gradientUnits="userSpaceOnUse" x1="21.6077" y1="-6.7934" x2="21.6077" y2="59.4574">
				<stop  offset="0" style="stop-color:#68EAA2"/>
				<stop  offset="0.4058" style="stop-color:#50D19F"/>
				<stop  offset="1" style="stop-color:#26A69A"/>
			</linearGradient>
			
				<use xlink:href="#SVGID_00000152982101632400777970000008211036721941894590_"  style="overflow:visible;fill:url(#SVGID_00000042710065596852288740000013108027620995883423_);"/>
			<clipPath id="SVGID_00000021080806266622231000000007876768815266483613_">
				<use xlink:href="#SVGID_00000152982101632400777970000008211036721941894590_"  style="overflow:visible;"/>
			</clipPath>
			
				<linearGradient id="SVGID_00000059283388236406005600000005148440164433135243_" gradientUnits="userSpaceOnUse" x1="21.6077" y1="-6.7934" x2="21.6077" y2="59.4574">
				<stop  offset="0" style="stop-color:#68EAA2"/>
				<stop  offset="0.4058" style="stop-color:#50D19F"/>
				<stop  offset="1" style="stop-color:#26A69A"/>
			</linearGradient>
			
				<rect x="0" y="20.3" style="clip-path:url(#SVGID_00000021080806266622231000000007876768815266483613_);fill:url(#SVGID_00000059283388236406005600000005148440164433135243_);" width="43.2" height="44.5"/>
		</g>
	</g>
	<g>
		
			<rect x="41.5" y="25.9" transform="matrix(0.7071 0.7071 -0.7071 0.7071 32.1758 -22.4295)" class="st8" width="3.4" height="3.4"/>
		<rect x="49" y="33.4" transform="matrix(0.7071 0.7071 -0.7071 0.7071 39.66 -25.5296)" class="st8" width="3.4" height="3.4"/>
		
			<rect x="56.4" y="40.9" transform="matrix(0.7071 0.7071 -0.7071 0.7071 47.1441 -28.6296)" class="st8" width="3.4" height="3.4"/>
		<rect x="34" y="33.4" transform="matrix(0.7071 0.7071 -0.7071 0.7071 35.2759 -14.9454)" class="st8" width="3.4" height="3.4"/>
		<rect x="49" y="48.4" transform="matrix(0.7071 0.7071 -0.7071 0.7071 50.2442 -21.1454)" class="st8" width="3.4" height="3.4"/>
		
			<rect x="26.5" y="40.9" transform="matrix(0.7071 0.7071 -0.7071 0.7071 38.3759 -7.4612)" class="st8" width="3.4" height="3.4"/>
		<rect x="34" y="48.4" transform="matrix(0.7071 0.7071 -0.7071 0.7071 45.8601 -10.5612)" class="st8" width="3.4" height="3.4"/>
		
			<rect x="41.5" y="55.9" transform="matrix(0.7071 0.7071 -0.7071 0.7071 53.3442 -13.6613)" class="st8" width="3.4" height="3.4"/>
	</g>
</g>
</svg>
