<?xml version="1.0" encoding="UTF-8"?><svg xmlns="http://www.w3.org/2000/svg" xmlns:xlink="http://www.w3.org/1999/xlink" fill-opacity="1" color-rendering="auto" color-interpolation="auto" text-rendering="auto" stroke="black" stroke-linecap="square" width="459" stroke-miterlimit="10" shape-rendering="auto" stroke-opacity="1" fill="black" stroke-dasharray="none" font-weight="normal" stroke-width="1" height="125" font-family="'Dialog'" font-style="normal" stroke-linejoin="miter" font-size="12px" stroke-dashoffset="0" image-rendering="auto">
  <!--Generated by ySVG 2.6-->
  <defs id="genericDefs"/>
  <g>
    <defs id="defs1">
      <clipPath clipPathUnits="userSpaceOnUse" id="clipPath1">
        <path d="M0 0 L459 0 L459 125 L0 125 L0 0 Z"/>
      </clipPath>
      <clipPath clipPathUnits="userSpaceOnUse" id="clipPath2">
        <path d="M139 41 L598 41 L598 166 L139 166 L139 41 Z"/>
      </clipPath>
    </defs>
    <g fill="white" text-rendering="geometricPrecision" shape-rendering="geometricPrecision" transform="translate(-139,-41)" stroke="white">
      <rect x="139" width="459" height="125" y="41" clip-path="url(#clipPath2)" stroke="none"/>
    </g>
    <g fill="rgb(255,204,0)" text-rendering="geometricPrecision" shape-rendering="geometricPrecision" transform="matrix(1,0,0,1,-139,-41)" stroke="rgb(255,204,0)">
      <rect x="157" y="56" clip-path="url(#clipPath2)" width="88" rx="4" ry="4" height="28" stroke="none"/>
    </g>
    <g text-rendering="geometricPrecision" stroke-miterlimit="1.45" shape-rendering="geometricPrecision" transform="matrix(1,0,0,1,-139,-41)" stroke-linecap="butt">
      <rect x="157" y="56" clip-path="url(#clipPath2)" fill="none" width="88" rx="4" ry="4" height="28"/>
      <text x="165.416" xml:space="preserve" y="74.1543" clip-path="url(#clipPath2)" font-family="sans-serif" stroke="none">Operation 1</text>
    </g>
    <g fill="rgb(255,204,0)" text-rendering="geometricPrecision" shape-rendering="geometricPrecision" transform="matrix(1,0,0,1,-139,-41)" stroke="rgb(255,204,0)">
      <rect x="326" y="56" clip-path="url(#clipPath2)" width="88" rx="4" ry="4" height="28" stroke="none"/>
    </g>
    <g text-rendering="geometricPrecision" stroke-miterlimit="1.45" shape-rendering="geometricPrecision" transform="matrix(1,0,0,1,-139,-41)" stroke-linecap="butt">
      <rect x="326" y="56" clip-path="url(#clipPath2)" fill="none" width="88" rx="4" ry="4" height="28"/>
      <text x="334.416" xml:space="preserve" y="74.1543" clip-path="url(#clipPath2)" font-family="sans-serif" stroke="none">Operation 2</text>
    </g>
    <g fill="rgb(255,204,0)" text-rendering="geometricPrecision" shape-rendering="geometricPrecision" transform="matrix(1,0,0,1,-139,-41)" stroke="rgb(255,204,0)">
      <rect x="495" y="56" clip-path="url(#clipPath2)" width="88" rx="4" ry="4" height="28" stroke="none"/>
    </g>
    <g text-rendering="geometricPrecision" stroke-miterlimit="1.45" shape-rendering="geometricPrecision" transform="matrix(1,0,0,1,-139,-41)" stroke-linecap="butt">
      <rect x="495" y="56" clip-path="url(#clipPath2)" fill="none" width="88" rx="4" ry="4" height="28"/>
      <text x="503.4307" xml:space="preserve" y="74.1543" clip-path="url(#clipPath2)" font-family="sans-serif" stroke="none">Operation n</text>
      <rect x="157" y="123" clip-path="url(#clipPath2)" fill="none" width="88" rx="4" ry="4" height="28" stroke="rgb(38,166,154)" stroke-width="3"/>
      <text x="169.8428" xml:space="preserve" y="141.1543" clip-path="url(#clipPath2)" font-family="sans-serif" stroke="none">Rollback 1</text>
      <rect x="326" y="123" clip-path="url(#clipPath2)" fill="none" width="88" rx="4" ry="4" height="28" stroke="rgb(38,166,154)" stroke-width="3"/>
      <text x="338.8428" xml:space="preserve" y="141.1543" clip-path="url(#clipPath2)" font-family="sans-serif" stroke="none">Rollback 2</text>
      <rect x="495" y="123" clip-path="url(#clipPath2)" fill="none" width="88" rx="4" ry="4" height="28" stroke="rgb(38,166,154)" stroke-width="3"/>
      <text x="507.8574" xml:space="preserve" y="141.1543" clip-path="url(#clipPath2)" font-family="sans-serif" stroke="none">Rollback n</text>
      <path fill="none" d="M245.0242 70 L317.9716 70" clip-path="url(#clipPath2)"/>
      <path d="M325.9716 70 L313.9716 65 L316.9716 70 L313.9716 75 Z" clip-path="url(#clipPath2)" stroke="none"/>
      <path fill="none" d="M414.0242 70 L486.9716 70" clip-path="url(#clipPath2)"/>
      <path d="M494.9716 70 L482.9716 65 L485.9716 70 L482.9716 75 Z" clip-path="url(#clipPath2)" stroke="none"/>
      <path fill="none" stroke-dasharray="6,2" d="M201 83.9692 L201 114.9914" clip-path="url(#clipPath2)"/>
      <path stroke-dasharray="6,2" d="M201 122.9914 L206 110.9914 L201 113.9914 L196 110.9914 Z" clip-path="url(#clipPath2)" stroke="none"/>
      <text x="156.2373" xml:space="preserve" y="107.6543" clip-path="url(#clipPath2)" font-family="sans-serif" stroke="none">error</text>
      <path fill="none" stroke-dasharray="6,2" d="M370 83.9692 L370 114.9914" clip-path="url(#clipPath2)"/>
      <path stroke-dasharray="6,2" d="M370 122.9914 L375 110.9914 L370 113.9914 L365 110.9914 Z" clip-path="url(#clipPath2)" stroke="none"/>
      <text x="325.2373" xml:space="preserve" y="107.6543" clip-path="url(#clipPath2)" font-family="sans-serif" stroke="none">error</text>
      <path fill="none" d="M325.9758 137 L253.0284 137" clip-path="url(#clipPath2)"/>
      <path d="M245.0284 137 L257.0284 142 L254.0284 137 L257.0284 132 Z" clip-path="url(#clipPath2)" stroke="none"/>
      <path fill="none" stroke-dasharray="6,2" d="M539 83.9692 L539 114.9914" clip-path="url(#clipPath2)"/>
      <path stroke-dasharray="6,2" d="M539 122.9914 L544 110.9914 L539 113.9914 L534 110.9914 Z" clip-path="url(#clipPath2)" stroke="none"/>
      <text x="494.2373" xml:space="preserve" y="107.6543" clip-path="url(#clipPath2)" font-family="sans-serif" stroke="none">error</text>
      <path fill="none" d="M494.9758 137 L422.0284 137" clip-path="url(#clipPath2)"/>
      <path d="M414.0284 137 L426.0284 142 L423.0284 137 L426.0284 132 Z" clip-path="url(#clipPath2)" stroke="none"/>
    </g>
  </g>
</svg>
