<?xml version="1.0" encoding="UTF-8"?><svg xmlns="http://www.w3.org/2000/svg" xmlns:xlink="http://www.w3.org/1999/xlink" fill-opacity="1" color-rendering="auto" color-interpolation="auto" text-rendering="auto" stroke="black" stroke-linecap="square" width="619" stroke-miterlimit="10" shape-rendering="auto" stroke-opacity="1" fill="black" stroke-dasharray="none" font-weight="normal" stroke-width="1" height="199" font-family="'Dialog'" font-style="normal" stroke-linejoin="miter" font-size="12px" stroke-dashoffset="0" image-rendering="auto">
  <!--Generated by ySVG 2.6-->
  <defs id="genericDefs"/>
  <g>
    <defs id="defs1">
      <clipPath clipPathUnits="userSpaceOnUse" id="clipPath1">
        <path d="M0 0 L619 0 L619 199 L0 199 L0 0 Z"/>
      </clipPath>
      <clipPath clipPathUnits="userSpaceOnUse" id="clipPath2">
        <path d="M225 12 L844 12 L844 211 L225 211 L225 12 Z"/>
      </clipPath>
    </defs>
    <g fill="white" text-rendering="geometricPrecision" shape-rendering="geometricPrecision" transform="translate(-225,-12)" stroke="white">
      <rect x="225" width="619" height="199" y="12" clip-path="url(#clipPath2)" stroke="none"/>
    </g>
    <g stroke-linecap="butt" transform="matrix(1,0,0,1,-225,-12)" fill="rgb(38,166,154)" text-rendering="geometricPrecision" shape-rendering="geometricPrecision" stroke="rgb(38,166,154)" stroke-width="3" stroke-miterlimit="1.45">
      <rect x="240" y="52" clip-path="url(#clipPath2)" fill="none" width="88" rx="4" ry="4" height="28"/>
    </g>
    <g text-rendering="geometricPrecision" stroke-miterlimit="1.45" shape-rendering="geometricPrecision" font-family="sans-serif" transform="matrix(1,0,0,1,-225,-12)" stroke-linecap="butt">
      <text x="248.5479" xml:space="preserve" y="70.1543" clip-path="url(#clipPath2)" stroke="none">Initial Value</text>
    </g>
    <g fill="rgb(255,204,0)" text-rendering="geometricPrecision" shape-rendering="geometricPrecision" transform="matrix(1,0,0,1,-225,-12)" stroke="rgb(255,204,0)">
      <rect x="407" y="52" clip-path="url(#clipPath2)" width="88" rx="4" ry="4" height="28" stroke="none"/>
    </g>
    <g text-rendering="geometricPrecision" stroke-miterlimit="1.45" shape-rendering="geometricPrecision" transform="matrix(1,0,0,1,-225,-12)" stroke-linecap="butt">
      <rect x="407" y="52" clip-path="url(#clipPath2)" fill="none" width="88" rx="4" ry="4" height="28"/>
      <text x="428.8867" xml:space="preserve" y="70.1543" clip-path="url(#clipPath2)" font-family="sans-serif" stroke="none">Filter_1</text>
    </g>
    <g fill="rgb(255,204,0)" text-rendering="geometricPrecision" shape-rendering="geometricPrecision" transform="matrix(1,0,0,1,-225,-12)" stroke="rgb(255,204,0)">
      <rect x="574" y="110" clip-path="url(#clipPath2)" width="88" rx="4" ry="4" height="28" stroke="none"/>
    </g>
    <g text-rendering="geometricPrecision" stroke-miterlimit="1.45" shape-rendering="geometricPrecision" transform="matrix(1,0,0,1,-225,-12)" stroke-linecap="butt">
      <rect x="574" y="110" clip-path="url(#clipPath2)" fill="none" width="88" rx="4" ry="4" height="28"/>
      <text x="595.8867" xml:space="preserve" y="128.1543" clip-path="url(#clipPath2)" font-family="sans-serif" stroke="none">Filter_2</text>
      <rect x="407" y="110" clip-path="url(#clipPath2)" fill="none" width="88" rx="4" ry="4" height="28" stroke="rgb(38,166,154)" stroke-width="3"/>
      <text x="430.1582" xml:space="preserve" y="128.1543" clip-path="url(#clipPath2)" font-family="sans-serif" stroke="none">Output</text>
      <rect x="574" y="168" clip-path="url(#clipPath2)" fill="none" width="88" rx="4" ry="4" height="28" stroke="rgb(38,166,154)" stroke-width="3"/>
      <text x="597.1582" xml:space="preserve" y="186.1543" clip-path="url(#clipPath2)" font-family="sans-serif" stroke="none">Output</text>
    </g>
    <g fill="rgb(255,204,0)" text-rendering="geometricPrecision" shape-rendering="geometricPrecision" transform="matrix(1,0,0,1,-225,-12)" stroke="rgb(255,204,0)">
      <rect x="741" y="168" clip-path="url(#clipPath2)" width="88" rx="4" ry="4" height="28" stroke="none"/>
    </g>
    <g text-rendering="geometricPrecision" stroke-miterlimit="1.45" shape-rendering="geometricPrecision" transform="matrix(1,0,0,1,-225,-12)" stroke-linecap="butt">
      <rect x="741" y="168" clip-path="url(#clipPath2)" fill="none" width="88" rx="4" ry="4" height="28"/>
      <text x="762.9014" xml:space="preserve" y="186.1543" clip-path="url(#clipPath2)" font-family="sans-serif" stroke="none">Filter_n</text>
      <path fill="none" d="M327.9924 66 L399.0044 66" clip-path="url(#clipPath2)"/>
      <path d="M407.0044 66 L395.0044 61 L398.0044 66 L395.0044 71 Z" clip-path="url(#clipPath2)" stroke="none"/>
      <text x="340.3359" xml:space="preserve" y="40.1543" clip-path="url(#clipPath2)" font-family="sans-serif" stroke="none">param of</text>
      <path fill="none" stroke-dasharray="6,2" d="M451 80.0186 L451 106.041" clip-path="url(#clipPath2)"/>
      <path stroke-dasharray="6,2" d="M451 114.041 C448.7909 114.041 447 112.2502 447 110.041 C447 107.8319 448.7909 106.041 451 106.041 C453.2091 106.041 455 107.8319 455 110.041 C455 112.2502 453.2091 114.041 451 114.041 Z" clip-path="url(#clipPath2)" stroke="none"/>
      <path fill="none" d="M494.9924 124 L566.0044 124" clip-path="url(#clipPath2)"/>
      <path d="M574.0044 124 L562.0044 119 L565.0044 124 L562.0044 129 Z" clip-path="url(#clipPath2)" stroke="none"/>
      <text x="507.3359" xml:space="preserve" y="98.1543" clip-path="url(#clipPath2)" font-family="sans-serif" stroke="none">param of</text>
      <path fill="none" stroke-dasharray="6,2" d="M618 138.0186 L618 164.041" clip-path="url(#clipPath2)"/>
      <path stroke-dasharray="6,2" d="M618 172.041 C615.7908 172.041 614 170.2502 614 168.041 C614 165.8319 615.7908 164.041 618 164.041 C620.2092 164.041 622 165.8319 622 168.041 C622 170.2502 620.2092 172.041 618 172.041 Z" clip-path="url(#clipPath2)" stroke="none"/>
      <path fill="none" d="M661.9924 182 L733.0044 182" clip-path="url(#clipPath2)"/>
      <path d="M741.0044 182 L729.0044 177 L732.0044 182 L729.0044 187 Z" clip-path="url(#clipPath2)" stroke="none"/>
      <text x="674.3359" xml:space="preserve" y="156.1543" clip-path="url(#clipPath2)" font-family="sans-serif" stroke="none">param of</text>
    </g>
  </g>
</svg>
