<?xml version="1.0" encoding="UTF-8"?><svg xmlns="http://www.w3.org/2000/svg" xmlns:xlink="http://www.w3.org/1999/xlink" fill-opacity="1" color-rendering="auto" color-interpolation="auto" text-rendering="auto" stroke="black" stroke-linecap="square" width="514" stroke-miterlimit="10" shape-rendering="auto" stroke-opacity="1" fill="black" stroke-dasharray="none" font-weight="normal" stroke-width="1" height="537" font-family="'Dialog'" font-style="normal" stroke-linejoin="miter" font-size="12px" stroke-dashoffset="0" image-rendering="auto">
  <!--Generated by ySVG 2.6-->
  <defs id="genericDefs"/>
  <g>
    <defs id="defs1">
      <clipPath clipPathUnits="userSpaceOnUse" id="clipPath1">
        <path d="M0 0 L514 0 L514 537 L0 537 L0 0 Z"/>
      </clipPath>
      <clipPath clipPathUnits="userSpaceOnUse" id="clipPath2">
        <path d="M220 -10 L734 -10 L734 527 L220 527 L220 -10 Z"/>
      </clipPath>
    </defs>
    <g fill="white" text-rendering="geometricPrecision" shape-rendering="geometricPrecision" transform="translate(-220,10)" stroke="white">
      <rect x="220" width="514" height="537" y="-10" clip-path="url(#clipPath2)" stroke="none"/>
    </g>
    <g text-rendering="geometricPrecision" stroke-miterlimit="1.45" stroke-dasharray="6,2" shape-rendering="geometricPrecision" transform="matrix(1,0,0,1,-220,10)" stroke-linecap="butt">
      <rect x="235" y="27.5" clip-path="url(#clipPath2)" fill="none" width="484" rx="4" ry="4" height="351"/>
      <text x="443.1045" y="18.6699" clip-path="url(#clipPath2)" font-family="sans-serif" stroke-dasharray="none" stroke="none" font-weight="bold" xml:space="preserve">Kubling</text>
    </g>
    <g fill="rgb(38,166,154)" text-rendering="geometricPrecision" shape-rendering="geometricPrecision" transform="matrix(1,0,0,1,-220,10)" stroke="rgb(38,166,154)">
      <rect x="520" y="68" clip-path="url(#clipPath2)" width="141" rx="4" ry="4" height="195" stroke="none"/>
    </g>
    <g text-rendering="geometricPrecision" stroke-miterlimit="1.45" shape-rendering="geometricPrecision" transform="matrix(1,0,0,1,-220,10)" stroke-linecap="butt">
      <rect x="520" y="68" clip-path="url(#clipPath2)" fill="none" width="141" rx="4" ry="4" height="195"/>
      <text x="576.3027" y="59.1699" clip-path="url(#clipPath2)" font-family="sans-serif" stroke="none" font-weight="bold" xml:space="preserve">VDB</text>
    </g>
    <g fill="rgb(255,204,0)" text-rendering="geometricPrecision" shape-rendering="geometricPrecision" transform="matrix(1,0,0,1,-220,10)" stroke="rgb(255,204,0)">
      <rect x="530" width="121" height="32" y="115.5" clip-path="url(#clipPath2)" stroke="none"/>
    </g>
    <g text-rendering="geometricPrecision" stroke-miterlimit="1.45" shape-rendering="geometricPrecision" transform="matrix(1,0,0,1,-220,10)" stroke-linecap="butt">
      <rect fill="none" x="530" width="121" height="32" y="115.5" clip-path="url(#clipPath2)"/>
      <text x="555.3438" xml:space="preserve" y="135.6543" clip-path="url(#clipPath2)" font-family="sans-serif" stroke="none">Data Role 1</text>
    </g>
    <g fill="rgb(255,204,0)" text-rendering="geometricPrecision" shape-rendering="geometricPrecision" transform="matrix(1,0,0,1,-220,10)" stroke="rgb(255,204,0)">
      <rect x="530" width="121" height="32" y="157.5" clip-path="url(#clipPath2)" stroke="none"/>
    </g>
    <g text-rendering="geometricPrecision" stroke-miterlimit="1.45" shape-rendering="geometricPrecision" transform="matrix(1,0,0,1,-220,10)" stroke-linecap="butt">
      <rect fill="none" x="530" width="121" height="32" y="157.5" clip-path="url(#clipPath2)"/>
      <text x="555.3438" xml:space="preserve" y="177.6543" clip-path="url(#clipPath2)" font-family="sans-serif" stroke="none">Data Role 2</text>
    </g>
    <g fill="rgb(255,204,0)" text-rendering="geometricPrecision" shape-rendering="geometricPrecision" transform="matrix(1,0,0,1,-220,10)" stroke="rgb(255,204,0)">
      <rect x="530" width="121" height="32" y="211.5" clip-path="url(#clipPath2)" stroke="none"/>
    </g>
    <g text-rendering="geometricPrecision" stroke-miterlimit="1.45" shape-rendering="geometricPrecision" transform="matrix(1,0,0,1,-220,10)" stroke-linecap="butt">
      <rect fill="none" x="530" width="121" height="32" y="211.5" clip-path="url(#clipPath2)"/>
      <text x="555.3584" xml:space="preserve" y="231.6543" clip-path="url(#clipPath2)" font-family="sans-serif" stroke="none">Data Role n</text>
    </g>
    <g fill="rgb(38,166,154)" text-rendering="geometricPrecision" shape-rendering="geometricPrecision" transform="matrix(1,0,0,1,-220,10)" stroke="rgb(38,166,154)">
      <rect x="309" y="68" clip-path="url(#clipPath2)" width="141" rx="4" ry="4" height="195" stroke="none"/>
    </g>
    <g text-rendering="geometricPrecision" stroke-miterlimit="1.45" shape-rendering="geometricPrecision" transform="matrix(1,0,0,1,-220,10)" stroke-linecap="butt">
      <rect x="309" y="68" clip-path="url(#clipPath2)" fill="none" width="141" rx="4" ry="4" height="195"/>
      <text x="321.7646" y="59.1699" clip-path="url(#clipPath2)" font-family="sans-serif" stroke="none" font-weight="bold" xml:space="preserve">Session Manager</text>
      <rect fill="none" x="319" width="121" height="147" y="106" clip-path="url(#clipPath2)"/>
    </g>
    <g stroke-linecap="butt" transform="matrix(1,0,0,1,-220,10)" fill="white" text-rendering="geometricPrecision" font-family="sans-serif" shape-rendering="geometricPrecision" stroke="white" font-weight="bold" stroke-miterlimit="1.45">
      <text x="335.9561" xml:space="preserve" y="97.1699" clip-path="url(#clipPath2)" stroke="none">User Session</text>
    </g>
    <g fill="rgb(255,204,0)" text-rendering="geometricPrecision" shape-rendering="geometricPrecision" transform="matrix(1,0,0,1,-220,10)" stroke="rgb(255,204,0)">
      <rect x="329" width="102" height="32" y="120" clip-path="url(#clipPath2)" stroke="none"/>
    </g>
    <g text-rendering="geometricPrecision" stroke-miterlimit="1.45" shape-rendering="geometricPrecision" transform="matrix(1,0,0,1,-220,10)" stroke-linecap="butt">
      <rect fill="none" x="329" width="102" height="32" y="120" clip-path="url(#clipPath2)"/>
      <text x="361.0771" xml:space="preserve" y="140.1543" clip-path="url(#clipPath2)" font-family="sans-serif" stroke="none">Role 1</text>
    </g>
    <g fill="rgb(255,204,0)" text-rendering="geometricPrecision" shape-rendering="geometricPrecision" transform="matrix(1,0,0,1,-220,10)" stroke="rgb(255,204,0)">
      <rect x="329" width="102" height="32" y="157" clip-path="url(#clipPath2)" stroke="none"/>
    </g>
    <g text-rendering="geometricPrecision" stroke-miterlimit="1.45" shape-rendering="geometricPrecision" transform="matrix(1,0,0,1,-220,10)" stroke-linecap="butt">
      <rect fill="none" x="329" width="102" height="32" y="157" clip-path="url(#clipPath2)"/>
      <text x="361.0771" xml:space="preserve" y="177.1543" clip-path="url(#clipPath2)" font-family="sans-serif" stroke="none">Role 2</text>
    </g>
    <g fill="rgb(255,204,0)" text-rendering="geometricPrecision" shape-rendering="geometricPrecision" transform="matrix(1,0,0,1,-220,10)" stroke="rgb(255,204,0)">
      <rect x="328.5" width="102" height="32" y="213" clip-path="url(#clipPath2)" stroke="none"/>
    </g>
    <g text-rendering="geometricPrecision" stroke-miterlimit="1.45" shape-rendering="geometricPrecision" transform="matrix(1,0,0,1,-220,10)" stroke-linecap="butt">
      <rect fill="none" x="328.5" width="102" height="32" y="213" clip-path="url(#clipPath2)"/>
      <text x="360.5918" xml:space="preserve" y="233.1543" clip-path="url(#clipPath2)" font-family="sans-serif" stroke="none">Role n</text>
    </g>
    <g fill="rgb(255,204,0)" text-rendering="geometricPrecision" shape-rendering="geometricPrecision" transform="matrix(1,0,0,1,-220,10)" stroke="rgb(255,204,0)">
      <rect x="319" width="121" height="32" y="326" clip-path="url(#clipPath2)" stroke="none"/>
    </g>
    <g text-rendering="geometricPrecision" stroke-miterlimit="1.45" shape-rendering="geometricPrecision" transform="matrix(1,0,0,1,-220,10)" stroke-linecap="butt">
      <rect fill="none" x="319" width="121" height="32" y="326" clip-path="url(#clipPath2)"/>
      <text x="333.3311" xml:space="preserve" y="346.1543" clip-path="url(#clipPath2)" font-family="sans-serif" stroke="none">Auth* Delegate</text>
    </g>
    <g fill="rgb(255,204,0)" text-rendering="geometricPrecision" shape-rendering="geometricPrecision" transform="matrix(1,0,0,1,-220,10)" stroke="rgb(255,204,0)">
      <rect x="314" y="449" clip-path="url(#clipPath2)" width="131" rx="4" ry="4" height="63" stroke="none"/>
    </g>
    <g text-rendering="geometricPrecision" stroke-miterlimit="1.45" shape-rendering="geometricPrecision" transform="matrix(1,0,0,1,-220,10)" stroke-linecap="butt">
      <rect x="314" y="449" clip-path="url(#clipPath2)" fill="none" width="131" rx="4" ry="4" height="63"/>
      <text x="344.168" xml:space="preserve" y="484.6543" clip-path="url(#clipPath2)" font-family="sans-serif" stroke="none">IAM System</text>
      <path fill="none" d="M460.0111 165.5 L510.0155 165.5" stroke-width="3" clip-path="url(#clipPath2)"/>
      <path d="M450.0111 165.5 L465.0111 171.75 L461.2611 165.5 L465.0111 159.25 Z" stroke-width="3" clip-path="url(#clipPath2)" stroke="none"/>
      <path d="M520.0155 165.5 L505.0155 159.25 L508.7655 165.5 L505.0155 171.75 Z" stroke-width="3" clip-path="url(#clipPath2)" stroke="none"/>
      <text x="456.625" xml:space="preserve" y="199.6543" clip-path="url(#clipPath2)" font-family="sans-serif" stroke="none">Mappings</text>
      <path fill="none" d="M353.5622 263.0075 L353.5622 317.9609" clip-path="url(#clipPath2)"/>
      <path d="M353.5622 325.9609 L358.5622 313.9609 L353.5622 316.9609 L348.5622 313.9609 Z" clip-path="url(#clipPath2)" stroke="none"/>
      <text x="258.4225" xml:space="preserve" y="298.6543" clip-path="url(#clipPath2)" font-family="sans-serif" stroke="none">Credentials</text>
      <path fill="none" d="M407.3132 326.0049 L407.3132 271.0078" clip-path="url(#clipPath2)"/>
      <path d="M407.3132 263.0078 L402.3132 275.0078 L407.3132 272.0078 L412.3132 275.0078 Z" clip-path="url(#clipPath2)" stroke="none"/>
      <text x="417.3093" xml:space="preserve" y="300.6543" clip-path="url(#clipPath2)" font-family="sans-serif" stroke="none">Authorization &amp; Roles</text>
      <path fill="none" d="M379.5 366 L379.5 441.0077" clip-path="url(#clipPath2)"/>
      <path d="M379.5 358 L374.5 370 L379.5 367 L384.5 370 Z" clip-path="url(#clipPath2)" stroke="none"/>
      <path d="M379.5 449.0077 L384.5 437.0077 L379.5 440.0077 L374.5 437.0077 Z" clip-path="url(#clipPath2)" stroke="none"/>
      <text x="260.0801" xml:space="preserve" y="418.6543" clip-path="url(#clipPath2)" font-family="sans-serif" stroke="none">User Information</text>
    </g>
  </g>
</svg>
