<?xml version="1.0" encoding="UTF-8"?><svg xmlns="http://www.w3.org/2000/svg" xmlns:xlink="http://www.w3.org/1999/xlink" fill-opacity="1" color-rendering="auto" color-interpolation="auto" text-rendering="auto" stroke="black" stroke-linecap="square" width="899" stroke-miterlimit="10" shape-rendering="auto" stroke-opacity="1" fill="black" stroke-dasharray="none" font-weight="normal" stroke-width="1" height="370" font-family="'Dialog'" font-style="normal" stroke-linejoin="miter" font-size="12px" stroke-dashoffset="0" image-rendering="auto">
  <!--Generated by ySVG 2.6-->
  <defs id="genericDefs"/>
  <g>
    <defs id="defs1">
      <clipPath clipPathUnits="userSpaceOnUse" id="clipPath1">
        <path d="M0 0 L899 0 L899 370 L0 370 L0 0 Z"/>
      </clipPath>
      <clipPath clipPathUnits="userSpaceOnUse" id="clipPath2">
        <path d="M238 77 L1137 77 L1137 447 L238 447 L238 77 Z"/>
      </clipPath>
    </defs>
    <g fill="white" text-rendering="geometricPrecision" shape-rendering="geometricPrecision" transform="translate(-238,-77)" stroke="white">
      <rect x="238" width="899" height="370" y="77" clip-path="url(#clipPath2)" stroke="none"/>
    </g>
    <g text-rendering="geometricPrecision" stroke-miterlimit="1.45" shape-rendering="geometricPrecision" transform="matrix(1,0,0,1,-238,-77)" stroke-linecap="butt">
      <rect x="492" y="92" clip-path="url(#clipPath2)" fill="none" width="366" rx="4" ry="4" height="112"/>
      <text x="608.2646" xml:space="preserve" y="109.1387" clip-path="url(#clipPath2)" font-family="sans-serif" stroke="none">ROUTING Data Source</text>
      <rect x="253" y="295" clip-path="url(#clipPath2)" fill="none" width="366" rx="4" ry="4" height="137"/>
      <text x="376.6592" xml:space="preserve" y="418.1543" clip-path="url(#clipPath2)" font-family="sans-serif" stroke="none">DB Data Source 1</text>
      <rect x="756" y="295" clip-path="url(#clipPath2)" fill="none" width="366" rx="4" ry="4" height="137"/>
      <text x="885.6592" xml:space="preserve" y="418.1543" clip-path="url(#clipPath2)" font-family="sans-serif" stroke="none">DB Data Source 2</text>
    </g>
    <g fill="rgb(255,204,0)" text-rendering="geometricPrecision" shape-rendering="geometricPrecision" transform="matrix(1,0,0,1,-238,-77)" stroke="rgb(255,204,0)">
      <rect x="630.5" y="147" clip-path="url(#clipPath2)" width="89" rx="4" ry="4" height="33" stroke="none"/>
    </g>
    <g text-rendering="geometricPrecision" stroke-miterlimit="1.45" shape-rendering="geometricPrecision" transform="matrix(1,0,0,1,-238,-77)" stroke-linecap="butt">
      <rect x="630.5" y="147" clip-path="url(#clipPath2)" fill="none" width="89" rx="4" ry="4" height="33"/>
      <text x="652.4678" xml:space="preserve" y="167.6543" clip-path="url(#clipPath2)" font-family="sans-serif" stroke="none">Table B</text>
    </g>
    <g fill="rgb(255,204,0)" text-rendering="geometricPrecision" shape-rendering="geometricPrecision" transform="matrix(1,0,0,1,-238,-77)" stroke="rgb(255,204,0)">
      <rect x="749.5" y="147" clip-path="url(#clipPath2)" width="89" rx="4" ry="4" height="33" stroke="none"/>
    </g>
    <g text-rendering="geometricPrecision" stroke-miterlimit="1.45" shape-rendering="geometricPrecision" transform="matrix(1,0,0,1,-238,-77)" stroke-linecap="butt">
      <rect x="749.5" y="147" clip-path="url(#clipPath2)" fill="none" width="89" rx="4" ry="4" height="33"/>
      <text x="771.3945" xml:space="preserve" y="167.6543" clip-path="url(#clipPath2)" font-family="sans-serif" stroke="none">Table C</text>
    </g>
    <g fill="rgb(255,204,0)" text-rendering="geometricPrecision" shape-rendering="geometricPrecision" transform="matrix(1,0,0,1,-238,-77)" stroke="rgb(255,204,0)">
      <rect x="269" y="354" clip-path="url(#clipPath2)" width="89" rx="4" ry="4" height="33" stroke="none"/>
    </g>
    <g text-rendering="geometricPrecision" stroke-miterlimit="1.45" shape-rendering="geometricPrecision" transform="matrix(1,0,0,1,-238,-77)" stroke-linecap="butt">
      <rect x="269" y="354" clip-path="url(#clipPath2)" fill="none" width="89" rx="4" ry="4" height="33"/>
      <text x="290.9795" xml:space="preserve" y="374.6543" clip-path="url(#clipPath2)" font-family="sans-serif" stroke="none">Table A</text>
    </g>
    <g fill="rgb(255,204,0)" text-rendering="geometricPrecision" shape-rendering="geometricPrecision" transform="matrix(1,0,0,1,-238,-77)" stroke="rgb(255,204,0)">
      <rect x="391.5" y="354" clip-path="url(#clipPath2)" width="89" rx="4" ry="4" height="33" stroke="none"/>
    </g>
    <g text-rendering="geometricPrecision" stroke-miterlimit="1.45" shape-rendering="geometricPrecision" transform="matrix(1,0,0,1,-238,-77)" stroke-linecap="butt">
      <rect x="391.5" y="354" clip-path="url(#clipPath2)" fill="none" width="89" rx="4" ry="4" height="33"/>
      <text x="413.4678" xml:space="preserve" y="374.6543" clip-path="url(#clipPath2)" font-family="sans-serif" stroke="none">Table B</text>
    </g>
    <g fill="rgb(255,204,0)" text-rendering="geometricPrecision" shape-rendering="geometricPrecision" transform="matrix(1,0,0,1,-238,-77)" stroke="rgb(255,204,0)">
      <rect x="510.5" y="354" clip-path="url(#clipPath2)" width="89" rx="4" ry="4" height="33" stroke="none"/>
    </g>
    <g text-rendering="geometricPrecision" stroke-miterlimit="1.45" shape-rendering="geometricPrecision" transform="matrix(1,0,0,1,-238,-77)" stroke-linecap="butt">
      <rect x="510.5" y="354" clip-path="url(#clipPath2)" fill="none" width="89" rx="4" ry="4" height="33"/>
      <text x="532.3945" xml:space="preserve" y="374.6543" clip-path="url(#clipPath2)" font-family="sans-serif" stroke="none">Table C</text>
    </g>
    <g fill="rgb(255,204,0)" text-rendering="geometricPrecision" shape-rendering="geometricPrecision" transform="matrix(1,0,0,1,-238,-77)" stroke="rgb(255,204,0)">
      <rect x="772" y="353" clip-path="url(#clipPath2)" width="89" rx="4" ry="4" height="33" stroke="none"/>
    </g>
    <g text-rendering="geometricPrecision" stroke-miterlimit="1.45" shape-rendering="geometricPrecision" transform="matrix(1,0,0,1,-238,-77)" stroke-linecap="butt">
      <rect x="772" y="353" clip-path="url(#clipPath2)" fill="none" width="89" rx="4" ry="4" height="33"/>
      <text x="793.9795" xml:space="preserve" y="373.6543" clip-path="url(#clipPath2)" font-family="sans-serif" stroke="none">Table A</text>
    </g>
    <g fill="rgb(255,204,0)" text-rendering="geometricPrecision" shape-rendering="geometricPrecision" transform="matrix(1,0,0,1,-238,-77)" stroke="rgb(255,204,0)">
      <rect x="894.5" y="353" clip-path="url(#clipPath2)" width="89" rx="4" ry="4" height="33" stroke="none"/>
    </g>
    <g text-rendering="geometricPrecision" stroke-miterlimit="1.45" shape-rendering="geometricPrecision" transform="matrix(1,0,0,1,-238,-77)" stroke-linecap="butt">
      <rect x="894.5" y="353" clip-path="url(#clipPath2)" fill="none" width="89" rx="4" ry="4" height="33"/>
      <text x="916.4678" xml:space="preserve" y="373.6543" clip-path="url(#clipPath2)" font-family="sans-serif" stroke="none">Table B</text>
    </g>
    <g fill="rgb(255,204,0)" text-rendering="geometricPrecision" shape-rendering="geometricPrecision" transform="matrix(1,0,0,1,-238,-77)" stroke="rgb(255,204,0)">
      <rect x="1013.5" y="353" clip-path="url(#clipPath2)" width="89" rx="4" ry="4" height="33" stroke="none"/>
    </g>
    <g text-rendering="geometricPrecision" stroke-miterlimit="1.45" shape-rendering="geometricPrecision" transform="matrix(1,0,0,1,-238,-77)" stroke-linecap="butt">
      <rect x="1013.5" y="353" clip-path="url(#clipPath2)" fill="none" width="89" rx="4" ry="4" height="33"/>
      <text x="1035.3945" xml:space="preserve" y="373.6543" clip-path="url(#clipPath2)" font-family="sans-serif" stroke="none">Table C</text>
    </g>
    <g fill="rgb(255,204,0)" text-rendering="geometricPrecision" shape-rendering="geometricPrecision" transform="matrix(1,0,0,1,-238,-77)" stroke="rgb(255,204,0)">
      <rect x="508" y="147" clip-path="url(#clipPath2)" width="89" rx="4" ry="4" height="33" stroke="none"/>
    </g>
    <g text-rendering="geometricPrecision" stroke-miterlimit="1.45" shape-rendering="geometricPrecision" transform="matrix(1,0,0,1,-238,-77)" stroke-linecap="butt">
      <rect x="508" y="147" clip-path="url(#clipPath2)" fill="none" width="89" rx="4" ry="4" height="33"/>
      <text x="529.9795" xml:space="preserve" y="167.6543" clip-path="url(#clipPath2)" font-family="sans-serif" stroke="none">Table A</text>
      <path fill="none" stroke-dasharray="6,2" d="M630.6835 177.1287 L436 237 L436 345.9755" clip-path="url(#clipPath2)" stroke="purple"/>
      <path fill="purple" stroke-dasharray="6,2" d="M436 353.9755 L441 341.9755 L436 344.9755 L431 341.9755 Z" clip-path="url(#clipPath2)" stroke="none"/>
      <path fill="none" stroke-dasharray="6,2" d="M750.0919 178.1054 L555 243 L555 345.9711" clip-path="url(#clipPath2)" stroke="rgb(51,102,255)"/>
      <path fill="rgb(51,102,255)" stroke-dasharray="6,2" d="M555 353.9711 L560 341.9711 L555 344.9711 L550 341.9711 Z" clip-path="url(#clipPath2)" stroke="none"/>
      <path fill="none" stroke-dasharray="6,2" d="M719.3115 177.1795 L939 245 L939 344.9952" clip-path="url(#clipPath2)" stroke="purple"/>
      <path fill="purple" stroke-dasharray="6,2" d="M939 352.9952 L944 340.9952 L939 343.9952 L934 340.9952 Z" clip-path="url(#clipPath2)" stroke="none"/>
      <path fill="none" stroke-dasharray="6,2" d="M838.3115 177.1795 L1058 245 L1058 344.9952" clip-path="url(#clipPath2)" stroke="rgb(51,102,255)"/>
      <path fill="rgb(51,102,255)" stroke-dasharray="6,2" d="M1058 352.9952 L1063 340.9952 L1058 343.9952 L1053 340.9952 Z" clip-path="url(#clipPath2)" stroke="none"/>
      <path fill="none" stroke-dasharray="6,2" d="M508.0084 176.0656 L313.5 231 L313.5 345.9821" clip-path="url(#clipPath2)" stroke="navy"/>
      <path fill="navy" stroke-dasharray="6,2" d="M313.5 353.9821 L318.5 341.9821 L313.5 344.9821 L308.5 341.9821 Z" clip-path="url(#clipPath2)" stroke="none"/>
      <path fill="none" stroke-dasharray="6,2" d="M597.0049 175.8906 L816.5 237 L816.5 344.9698" clip-path="url(#clipPath2)" stroke="navy"/>
      <path fill="navy" stroke-dasharray="6,2" d="M816.5 352.9698 L821.5 340.9698 L816.5 343.9698 L811.5 340.9698 Z" clip-path="url(#clipPath2)" stroke="none"/>
    </g>
  </g>
</svg>
