<?xml version="1.0" encoding="UTF-8"?><svg xmlns="http://www.w3.org/2000/svg" xmlns:xlink="http://www.w3.org/1999/xlink" fill-opacity="1" color-rendering="auto" color-interpolation="auto" text-rendering="auto" stroke="black" stroke-linecap="square" width="596" stroke-miterlimit="10" shape-rendering="auto" stroke-opacity="1" fill="black" stroke-dasharray="none" font-weight="normal" stroke-width="1" height="438" font-family="'Dialog'" font-style="normal" stroke-linejoin="miter" font-size="12px" stroke-dashoffset="0" image-rendering="auto">
  <!--Generated by ySVG 2.6-->
  <defs id="genericDefs"/>
  <g>
    <defs id="defs1">
      <clipPath clipPathUnits="userSpaceOnUse" id="clipPath1">
        <path d="M0 0 L596 0 L596 438 L0 438 L0 0 Z"/>
      </clipPath>
      <clipPath clipPathUnits="userSpaceOnUse" id="clipPath2">
        <path d="M382 129 L978 129 L978 567 L382 567 L382 129 Z"/>
      </clipPath>
    </defs>
    <g fill="white" text-rendering="geometricPrecision" shape-rendering="geometricPrecision" transform="translate(-382,-129)" stroke="white">
      <rect x="382" width="596" height="438" y="129" clip-path="url(#clipPath2)" stroke="none"/>
    </g>
    <g fill="rgb(255,204,0)" text-rendering="geometricPrecision" shape-rendering="geometricPrecision" transform="matrix(1,0,0,1,-382,-129)" stroke="rgb(255,204,0)">
      <path d="M756 482 L864.9 482 L877 543 L768.1 543 Z" fill-rule="evenodd" clip-path="url(#clipPath2)" stroke="none"/>
    </g>
    <g text-rendering="geometricPrecision" stroke-miterlimit="1.45" shape-rendering="geometricPrecision" transform="matrix(1,0,0,1,-382,-129)" stroke-linecap="butt">
      <path fill="none" d="M756 482 L864.9 482 L877 543 L768.1 543 Z" fill-rule="evenodd" clip-path="url(#clipPath2)"/>
      <text x="791.1729" xml:space="preserve" y="502.6855" clip-path="url(#clipPath2)" font-family="sans-serif" stroke="none">Remote </text>
      <text x="779.5273" xml:space="preserve" y="516.6543" clip-path="url(#clipPath2)" font-family="sans-serif" stroke="none">Data Source</text>
      <text x="785.2549" xml:space="preserve" y="530.623" clip-path="url(#clipPath2)" font-family="sans-serif" stroke="none">Instance 2</text>
    </g>
    <g fill="rgb(255,204,0)" text-rendering="geometricPrecision" shape-rendering="geometricPrecision" transform="matrix(1,0,0,1,-382,-129)" stroke="rgb(255,204,0)">
      <path d="M483 482 L591.9 482 L604 543 L495.1 543 Z" fill-rule="evenodd" clip-path="url(#clipPath2)" stroke="none"/>
    </g>
    <g text-rendering="geometricPrecision" stroke-miterlimit="1.45" shape-rendering="geometricPrecision" transform="matrix(1,0,0,1,-382,-129)" stroke-linecap="butt">
      <path fill="none" d="M483 482 L591.9 482 L604 543 L495.1 543 Z" fill-rule="evenodd" clip-path="url(#clipPath2)"/>
      <text x="518.1729" xml:space="preserve" y="502.6855" clip-path="url(#clipPath2)" font-family="sans-serif" stroke="none">Remote </text>
      <text x="506.5273" xml:space="preserve" y="516.6543" clip-path="url(#clipPath2)" font-family="sans-serif" stroke="none">Data Source</text>
      <text x="512.2549" xml:space="preserve" y="530.623" clip-path="url(#clipPath2)" font-family="sans-serif" stroke="none">Instance 1</text>
      <rect x="397.5" y="228" clip-path="url(#clipPath2)" fill="none" width="565" stroke-dasharray="6,2" rx="4" ry="4" height="203"/>
      <text x="911.5176" xml:space="preserve" y="245.1387" clip-path="url(#clipPath2)" font-family="sans-serif" stroke="none">Kubling</text>
    </g>
    <g fill="rgb(255,204,0)" text-rendering="geometricPrecision" shape-rendering="geometricPrecision" transform="matrix(1,0,0,1,-382,-129)" stroke="rgb(255,204,0)">
      <rect x="483" y="356" clip-path="url(#clipPath2)" width="121" rx="4" ry="4" height="33" stroke="none"/>
    </g>
    <g text-rendering="geometricPrecision" stroke-miterlimit="1.45" shape-rendering="geometricPrecision" transform="matrix(1,0,0,1,-382,-129)" stroke-linecap="butt">
      <rect x="483" y="356" clip-path="url(#clipPath2)" fill="none" width="121" rx="4" ry="4" height="33"/>
      <text x="490.1592" xml:space="preserve" y="376.6543" clip-path="url(#clipPath2)" font-family="sans-serif" stroke="none">DB Data Source 1</text>
    </g>
    <g fill="rgb(255,204,0)" text-rendering="geometricPrecision" shape-rendering="geometricPrecision" transform="matrix(1,0,0,1,-382,-129)" stroke="rgb(255,204,0)">
      <rect x="756" y="356" clip-path="url(#clipPath2)" width="121" rx="4" ry="4" height="33" stroke="none"/>
    </g>
    <g text-rendering="geometricPrecision" stroke-miterlimit="1.45" shape-rendering="geometricPrecision" transform="matrix(1,0,0,1,-382,-129)" stroke-linecap="butt">
      <rect x="756" y="356" clip-path="url(#clipPath2)" fill="none" width="121" rx="4" ry="4" height="33"/>
      <text x="763.1592" xml:space="preserve" y="376.6543" clip-path="url(#clipPath2)" font-family="sans-serif" stroke="none">DB Data Source 2</text>
    </g>
    <g fill="rgb(255,204,0)" text-rendering="geometricPrecision" shape-rendering="geometricPrecision" transform="matrix(1,0,0,1,-382,-129)" stroke="rgb(255,204,0)">
      <rect x="483" y="266" clip-path="url(#clipPath2)" width="394" rx="4" ry="4" height="33" stroke="none"/>
    </g>
    <g text-rendering="geometricPrecision" stroke-miterlimit="1.45" shape-rendering="geometricPrecision" transform="matrix(1,0,0,1,-382,-129)" stroke-linecap="butt">
      <rect x="483" y="266" clip-path="url(#clipPath2)" fill="none" width="394" rx="4" ry="4" height="33"/>
      <text x="613.2646" xml:space="preserve" y="286.6543" clip-path="url(#clipPath2)" font-family="sans-serif" stroke="none">ROUTING Data Source</text>
    </g>
    <g fill="rgb(255,153,0)" text-rendering="geometricPrecision" shape-rendering="geometricPrecision" transform="matrix(1,0,0,1,-382,-129)" stroke="rgb(255,153,0)">
      <rect x="619.5" y="144" clip-path="url(#clipPath2)" width="121" rx="4" ry="4" height="33" stroke="none"/>
    </g>
    <g text-rendering="geometricPrecision" stroke-miterlimit="1.45" shape-rendering="geometricPrecision" transform="matrix(1,0,0,1,-382,-129)" stroke-linecap="butt">
      <rect x="619.5" y="144" clip-path="url(#clipPath2)" fill="none" width="121" rx="4" ry="4" height="33"/>
      <text x="629.8848" xml:space="preserve" y="164.6543" clip-path="url(#clipPath2)" font-family="sans-serif" stroke="none">Client Command</text>
      <path fill="none" stroke-dasharray="6,2" d="M597.92 512.5 L762.0418 512.5" clip-path="url(#clipPath2)"/>
      <text x="636.9482" xml:space="preserve" y="546.6543" clip-path="url(#clipPath2)" font-family="sans-serif" stroke="none">Same Schema</text>
      <path fill="none" d="M543.5 389.0088 L543.5 474.0191" clip-path="url(#clipPath2)"/>
      <path d="M543.5 482.0191 L548.5 470.0191 L543.5 473.0191 L538.5 470.0191 Z" clip-path="url(#clipPath2)" stroke="none"/>
      <path fill="none" stroke-dasharray="6,2" d="M603.9852 372.5 L755.9779 372.5" clip-path="url(#clipPath2)"/>
      <text x="636.9482" xml:space="preserve" y="406.6543" clip-path="url(#clipPath2)" font-family="sans-serif" stroke="none">Same Schema</text>
      <path fill="none" d="M816.5 389.0088 L816.5 474.0191" clip-path="url(#clipPath2)"/>
      <path d="M816.5 482.0191 L821.5 470.0191 L816.5 473.0191 L811.5 470.0191 Z" clip-path="url(#clipPath2)" stroke="none"/>
      <path fill="none" d="M654.9728 299.0015 L575.1895 351.6058" clip-path="url(#clipPath2)"/>
      <path d="M568.5106 356.0095 L581.2812 353.5783 L576.0244 351.0554 L575.7767 345.2296 Z" clip-path="url(#clipPath2)" stroke="none"/>
      <path fill="none" d="M705.0272 299.0015 L784.8105 351.6058" clip-path="url(#clipPath2)"/>
      <path d="M791.4894 356.0095 L784.2233 345.2296 L783.9756 351.0554 L778.7188 353.5783 Z" clip-path="url(#clipPath2)" stroke="none"/>
      <path fill="none" stroke-dasharray="6,2" d="M680 176.9712 L680 257.9854" clip-path="url(#clipPath2)"/>
      <path stroke-dasharray="6,2" d="M680 265.9854 L685 253.9854 L680 256.9854 L675 253.9854 Z" clip-path="url(#clipPath2)" stroke="none"/>
    </g>
  </g>
</svg>
