<?xml version="1.0" encoding="UTF-8"?><svg xmlns="http://www.w3.org/2000/svg" xmlns:xlink="http://www.w3.org/1999/xlink" fill-opacity="1" color-rendering="auto" color-interpolation="auto" text-rendering="auto" stroke="black" stroke-linecap="square" width="804" stroke-miterlimit="10" shape-rendering="auto" stroke-opacity="1" fill="black" stroke-dasharray="none" font-weight="normal" stroke-width="1" height="939" font-family="'Dialog'" font-style="normal" stroke-linejoin="miter" font-size="12px" stroke-dashoffset="0" image-rendering="auto">
  <!--Generated by ySVG 2.6-->
  <defs id="genericDefs"/>
  <g>
    <defs id="defs1">
      <clipPath clipPathUnits="userSpaceOnUse" id="clipPath1">
        <path d="M0 0 L804 0 L804 939 L0 939 L0 0 Z"/>
      </clipPath>
      <clipPath clipPathUnits="userSpaceOnUse" id="clipPath2">
        <path d="M231 32 L1035 32 L1035 971 L231 971 L231 32 Z"/>
      </clipPath>
    </defs>
    <g fill="white" text-rendering="geometricPrecision" shape-rendering="geometricPrecision" transform="translate(-231,-32)" stroke="white">
      <rect x="231" width="804" height="939" y="32" clip-path="url(#clipPath2)" stroke="none"/>
    </g>
    <g fill="rgb(255,204,0)" text-rendering="geometricPrecision" shape-rendering="geometricPrecision" transform="matrix(1,0,0,1,-231,-32)" stroke="rgb(255,204,0)">
      <rect x="319.5007" width="121.25" height="45" y="47.012" clip-path="url(#clipPath2)" stroke="none"/>
    </g>
    <g text-rendering="geometricPrecision" stroke-miterlimit="1.45" shape-rendering="geometricPrecision" transform="matrix(1,0,0,1,-231,-32)" stroke-linecap="butt">
      <rect fill="none" x="319.5007" width="121.25" height="45" y="47.012" clip-path="url(#clipPath2)"/>
      <text x="362.7556" xml:space="preserve" y="73.6663" clip-path="url(#clipPath2)" font-family="sans-serif" stroke="none">Client</text>
    </g>
    <g fill="rgb(255,204,0)" text-rendering="geometricPrecision" shape-rendering="geometricPrecision" transform="matrix(1,0,0,1,-231,-32)" stroke="rgb(255,204,0)">
      <rect x="527.3768" width="121.25" height="45" y="47.012" clip-path="url(#clipPath2)" stroke="none"/>
    </g>
    <g text-rendering="geometricPrecision" stroke-miterlimit="1.45" shape-rendering="geometricPrecision" transform="matrix(1,0,0,1,-231,-32)" stroke-linecap="butt">
      <rect fill="none" x="527.3768" width="121.25" height="45" y="47.012" clip-path="url(#clipPath2)"/>
      <text x="541.9764" xml:space="preserve" y="73.6663" clip-path="url(#clipPath2)" font-family="sans-serif" stroke="none">Kubling Soft TX</text>
    </g>
    <g fill="rgb(255,204,0)" text-rendering="geometricPrecision" shape-rendering="geometricPrecision" transform="matrix(1,0,0,1,-231,-32)" stroke="rgb(255,204,0)">
      <rect x="710.7536" width="139.25" height="45" y="47.012" clip-path="url(#clipPath2)" stroke="none"/>
    </g>
    <g text-rendering="geometricPrecision" stroke-miterlimit="1.45" shape-rendering="geometricPrecision" transform="matrix(1,0,0,1,-231,-32)" stroke-linecap="butt">
      <rect fill="none" x="710.7536" width="139.25" height="45" y="47.012" clip-path="url(#clipPath2)"/>
      <text x="721.0319" xml:space="preserve" y="73.6663" clip-path="url(#clipPath2)" font-family="sans-serif" stroke="none">Translator 1 (Redis)</text>
    </g>
    <g fill="rgb(255,204,0)" text-rendering="geometricPrecision" shape-rendering="geometricPrecision" transform="matrix(1,0,0,1,-231,-32)" stroke="rgb(255,204,0)">
      <rect x="880.0036" width="139.25" height="45" y="47.012" clip-path="url(#clipPath2)" stroke="none"/>
    </g>
    <g text-rendering="geometricPrecision" stroke-miterlimit="1.45" shape-rendering="geometricPrecision" transform="matrix(1,0,0,1,-231,-32)" stroke-linecap="butt">
      <rect fill="none" x="880.0036" width="139.25" height="45" y="47.012" clip-path="url(#clipPath2)"/>
      <text x="886.028" xml:space="preserve" y="73.6663" clip-path="url(#clipPath2)" font-family="sans-serif" stroke="none">Translator 2 (MYSQL)</text>
    </g>
    <g fill="rgb(38,166,154)" text-rendering="geometricPrecision" shape-rendering="geometricPrecision" transform="matrix(1,0,0,1,-231,-32)" stroke="rgb(38,166,154)">
      <rect x="365.1257" y="141.024" clip-path="url(#clipPath2)" width="30" rx="4" ry="4" height="30" stroke="none"/>
    </g>
    <g text-rendering="geometricPrecision" stroke-miterlimit="1.45" shape-rendering="geometricPrecision" transform="matrix(1,0,0,1,-231,-32)" stroke-linecap="butt">
      <rect x="365.1257" y="141.024" clip-path="url(#clipPath2)" fill="none" width="30" rx="4" ry="4" height="30"/>
    </g>
    <g fill="rgb(38,166,154)" text-rendering="geometricPrecision" shape-rendering="geometricPrecision" transform="matrix(1,0,0,1,-231,-32)" stroke="rgb(38,166,154)">
      <rect x="365.1257" y="220.036" clip-path="url(#clipPath2)" width="30" rx="4" ry="4" height="193" stroke="none"/>
    </g>
    <g text-rendering="geometricPrecision" stroke-miterlimit="1.45" shape-rendering="geometricPrecision" transform="matrix(1,0,0,1,-231,-32)" stroke-linecap="butt">
      <rect x="365.1257" y="220.036" clip-path="url(#clipPath2)" fill="none" width="30" rx="4" ry="4" height="193"/>
    </g>
    <g fill="rgb(38,166,154)" text-rendering="geometricPrecision" shape-rendering="geometricPrecision" transform="matrix(1,0,0,1,-231,-32)" stroke="rgb(38,166,154)">
      <rect x="765.3786" y="220.036" clip-path="url(#clipPath2)" width="30" rx="4" ry="4" height="193" stroke="none"/>
    </g>
    <g text-rendering="geometricPrecision" stroke-miterlimit="1.45" shape-rendering="geometricPrecision" transform="matrix(1,0,0,1,-231,-32)" stroke-linecap="butt">
      <rect x="765.3786" y="220.036" clip-path="url(#clipPath2)" fill="none" width="30" rx="4" ry="4" height="193"/>
    </g>
    <g fill="rgb(38,166,154)" text-rendering="geometricPrecision" shape-rendering="geometricPrecision" transform="matrix(1,0,0,1,-231,-32)" stroke="rgb(38,166,154)">
      <rect x="573.0018" y="260.8136" clip-path="url(#clipPath2)" width="30" rx="4" ry="4" height="81" stroke="none"/>
    </g>
    <g text-rendering="geometricPrecision" stroke-miterlimit="1.45" shape-rendering="geometricPrecision" transform="matrix(1,0,0,1,-231,-32)" stroke-linecap="butt">
      <rect x="573.0018" y="260.8136" clip-path="url(#clipPath2)" fill="none" width="30" rx="4" ry="4" height="81"/>
    </g>
    <g fill="rgb(38,166,154)" text-rendering="geometricPrecision" shape-rendering="geometricPrecision" transform="matrix(1,0,0,1,-231,-32)" stroke="rgb(38,166,154)">
      <rect x="365.1257" y="469.8376" clip-path="url(#clipPath2)" width="30" rx="4" ry="4" height="193" stroke="none"/>
    </g>
    <g text-rendering="geometricPrecision" stroke-miterlimit="1.45" shape-rendering="geometricPrecision" transform="matrix(1,0,0,1,-231,-32)" stroke-linecap="butt">
      <rect x="365.1257" y="469.8376" clip-path="url(#clipPath2)" fill="none" width="30" rx="4" ry="4" height="193"/>
    </g>
    <g fill="rgb(38,166,154)" text-rendering="geometricPrecision" shape-rendering="geometricPrecision" transform="matrix(1,0,0,1,-231,-32)" stroke="rgb(38,166,154)">
      <rect x="934.6286" y="469.8376" clip-path="url(#clipPath2)" width="30" rx="4" ry="4" height="193" stroke="none"/>
    </g>
    <g text-rendering="geometricPrecision" stroke-miterlimit="1.45" shape-rendering="geometricPrecision" transform="matrix(1,0,0,1,-231,-32)" stroke-linecap="butt">
      <rect x="934.6286" y="469.8376" clip-path="url(#clipPath2)" fill="none" width="30" rx="4" ry="4" height="193"/>
    </g>
    <g fill="rgb(38,166,154)" text-rendering="geometricPrecision" shape-rendering="geometricPrecision" transform="matrix(1,0,0,1,-231,-32)" stroke="rgb(38,166,154)">
      <rect x="573.0018" y="510.6152" clip-path="url(#clipPath2)" width="30" rx="4" ry="4" height="81" stroke="none"/>
    </g>
    <g text-rendering="geometricPrecision" stroke-miterlimit="1.45" shape-rendering="geometricPrecision" transform="matrix(1,0,0,1,-231,-32)" stroke-linecap="butt">
      <rect x="573.0018" y="510.6152" clip-path="url(#clipPath2)" fill="none" width="30" rx="4" ry="4" height="81"/>
    </g>
    <g fill="rgb(38,166,154)" text-rendering="geometricPrecision" shape-rendering="geometricPrecision" transform="matrix(1,0,0,1,-231,-32)" stroke="rgb(38,166,154)">
      <rect x="365.1257" y="714.048" clip-path="url(#clipPath2)" width="30" rx="4" ry="4" height="145.1824" stroke="none"/>
    </g>
    <g text-rendering="geometricPrecision" stroke-miterlimit="1.45" shape-rendering="geometricPrecision" transform="matrix(1,0,0,1,-231,-32)" stroke-linecap="butt">
      <rect x="365.1257" y="714.048" clip-path="url(#clipPath2)" fill="none" width="30" rx="4" ry="4" height="145.1824"/>
    </g>
    <g fill="rgb(38,166,154)" text-rendering="geometricPrecision" shape-rendering="geometricPrecision" transform="matrix(1,0,0,1,-231,-32)" stroke="rgb(38,166,154)">
      <rect x="573.0018" y="697.2304" clip-path="url(#clipPath2)" width="30" rx="4" ry="4" height="162" stroke="none"/>
    </g>
    <g text-rendering="geometricPrecision" stroke-miterlimit="1.45" shape-rendering="geometricPrecision" transform="matrix(1,0,0,1,-231,-32)" stroke-linecap="butt">
      <rect x="573.0018" y="697.2304" clip-path="url(#clipPath2)" fill="none" width="30" rx="4" ry="4" height="162"/>
    </g>
    <g fill="rgb(38,166,154)" text-rendering="geometricPrecision" shape-rendering="geometricPrecision" transform="matrix(1,0,0,1,-231,-32)" stroke="rgb(38,166,154)">
      <rect x="765.3786" y="697.2304" clip-path="url(#clipPath2)" width="30" rx="4" ry="4" height="90" stroke="none"/>
    </g>
    <g text-rendering="geometricPrecision" stroke-miterlimit="1.45" shape-rendering="geometricPrecision" transform="matrix(1,0,0,1,-231,-32)" stroke-linecap="butt">
      <rect x="765.3786" y="697.2304" clip-path="url(#clipPath2)" fill="none" width="30" rx="4" ry="4" height="90"/>
    </g>
    <g fill="rgb(38,166,154)" text-rendering="geometricPrecision" shape-rendering="geometricPrecision" transform="matrix(1,0,0,1,-231,-32)" stroke="rgb(38,166,154)">
      <rect x="934.6286" y="791.4608" clip-path="url(#clipPath2)" width="30" rx="4" ry="4" height="62" stroke="none"/>
    </g>
    <g text-rendering="geometricPrecision" stroke-miterlimit="1.45" shape-rendering="geometricPrecision" transform="matrix(1,0,0,1,-231,-32)" stroke-linecap="butt">
      <rect x="934.6286" y="791.4608" clip-path="url(#clipPath2)" fill="none" width="30" rx="4" ry="4" height="62"/>
      <path fill="none" stroke-dasharray="6,2" d="M380.1257 92.012 L380.1257 133.0524" clip-path="url(#clipPath2)"/>
      <path stroke-dasharray="6,2" d="M380.1257 141.0524 L385.1257 129.0524 L380.1257 132.0524 L375.1257 129.0524 Z" clip-path="url(#clipPath2)" stroke="none"/>
      <text x="323.3572" xml:space="preserve" y="120.6723" clip-path="url(#clipPath2)" font-family="sans-serif" stroke="none">Begin TX</text>
      <path fill="none" stroke-dasharray="6,2" d="M380.1257 171.0328 L380.1257 212.0194" clip-path="url(#clipPath2)"/>
      <path stroke-dasharray="6,2" d="M380.1257 220.0194 L385.1257 208.0194 L380.1257 211.0194 L375.1257 208.0194 Z" clip-path="url(#clipPath2)" stroke="none"/>
      <text x="268.5857" xml:space="preserve" y="199.6843" clip-path="url(#clipPath2)" font-family="sans-serif" stroke="none">INSERT In Redis</text>
      <path fill="none" d="M395.1328 234.0215 L757.3532 234.0215" clip-path="url(#clipPath2)"/>
      <path d="M765.3532 234.0215 L753.3532 229.0215 L756.3532 234.0215 L753.3532 239.0215 Z" clip-path="url(#clipPath2)" stroke="none"/>
      <path fill="none" stroke-dasharray="6,2" d="M780.3786 92.012 L780.3786 220.0334" clip-path="url(#clipPath2)"/>
      <path fill="none" stroke-dasharray="6,2" d="M765.3688 385.9265 L403.1476 385.9265" clip-path="url(#clipPath2)"/>
      <path stroke-dasharray="6,2" d="M395.1476 385.9265 L407.1476 390.9265 L404.1476 385.9265 L407.1476 380.9265 Z" clip-path="url(#clipPath2)" stroke="none"/>
      <path fill="none" d="M765.3968 278.2449 L611.0077 278.2449" clip-path="url(#clipPath2)"/>
      <path d="M603.0077 278.2449 L615.0077 283.2449 L612.0077 278.2449 L615.0077 273.2449 Z" clip-path="url(#clipPath2)" stroke="none"/>
      <text x="633.9285" xml:space="preserve" y="312.3992" clip-path="url(#clipPath2)" font-family="sans-serif" stroke="none">Request ROW LOCK</text>
      <path fill="none" stroke-dasharray="6,2" d="M588.0018 92.012 L588.0018 260.8176" clip-path="url(#clipPath2)"/>
      <path fill="none" stroke-dasharray="6,2" d="M603.0117 331.112 L757.3588 331.112" clip-path="url(#clipPath2)"/>
      <path stroke-dasharray="6,2" d="M765.3588 331.112 L753.3588 326.112 L756.3588 331.112 L753.3588 336.112 Z" clip-path="url(#clipPath2)" stroke="none"/>
      <text x="650.7773" xml:space="preserve" y="365.2663" clip-path="url(#clipPath2)" font-family="sans-serif" stroke="none">ACQUIRED</text>
      <path fill="none" stroke-dasharray="6,2" d="M380.1257 413.0475 L380.1257 461.8202" clip-path="url(#clipPath2)"/>
      <path stroke-dasharray="6,2" d="M380.1257 469.8202 L385.1257 457.8202 L380.1257 460.8202 L375.1257 457.8202 Z" clip-path="url(#clipPath2)" stroke="none"/>
      <text x="248.0495" xml:space="preserve" y="439.5911" clip-path="url(#clipPath2)" font-family="sans-serif" stroke="none">UPDATE in MySQL</text>
      <path fill="none" d="M395.1328 483.8231 L926.6155 483.8231" clip-path="url(#clipPath2)"/>
      <path d="M934.6155 483.8231 L922.6155 478.8231 L925.6155 483.8231 L922.6155 488.8231 Z" clip-path="url(#clipPath2)" stroke="none"/>
      <path fill="none" stroke-dasharray="6,2" d="M949.6286 92.012 L949.6286 469.8455" clip-path="url(#clipPath2)"/>
      <path fill="none" stroke-dasharray="6,2" d="M934.6311 635.7281 L403.1354 635.7281" clip-path="url(#clipPath2)"/>
      <path stroke-dasharray="6,2" d="M395.1354 635.7281 L407.1354 640.7281 L404.1354 635.7281 L407.1354 630.7281 Z" clip-path="url(#clipPath2)" stroke="none"/>
      <path fill="none" d="M934.6014 528.0464 L611.0077 528.0464" clip-path="url(#clipPath2)"/>
      <path d="M603.0077 528.0464 L615.0077 533.0464 L612.0077 528.0464 L615.0077 523.0464 Z" clip-path="url(#clipPath2)" stroke="none"/>
      <text x="788.9954" xml:space="preserve" y="562.2007" clip-path="url(#clipPath2)" font-family="sans-serif" stroke="none">Request ROW LOCK</text>
      <path fill="none" stroke-dasharray="6,2" d="M588.0018 341.8393 L588.0018 510.6242" clip-path="url(#clipPath2)"/>
      <path fill="none" stroke-dasharray="6,2" d="M603.0125 580.9136 L926.608 580.9136" clip-path="url(#clipPath2)"/>
      <path stroke-dasharray="6,2" d="M934.608 580.9136 L922.608 575.9136 L925.608 580.9136 L922.608 585.9136 Z" clip-path="url(#clipPath2)" stroke="none"/>
      <text x="823.8342" xml:space="preserve" y="615.0679" clip-path="url(#clipPath2)" font-family="sans-serif" stroke="none">ACQUIRED</text>
      <path fill="none" stroke-dasharray="6,2" d="M380.1257 662.854 L380.1257 706.0181" clip-path="url(#clipPath2)"/>
      <path stroke-dasharray="6,2" d="M380.1257 714.0181 L385.1257 702.0181 L380.1257 705.0181 L375.1257 702.0181 Z" clip-path="url(#clipPath2)" stroke="none"/>
      <text x="325.4255" xml:space="preserve" y="692.5971" clip-path="url(#clipPath2)" font-family="sans-serif" stroke="none">COMMIT</text>
      <path fill="none" stroke-dasharray="6,2" d="M380.1257 859.2542 L380.1257 903.4408" clip-path="url(#clipPath2)"/>
      <path fill="white" stroke-dasharray="6,2" d="M380.1257 910.4408 L375.1257 903.4408 L380.1257 896.4408 L385.1257 903.4408 Z" clip-path="url(#clipPath2)" stroke="none"/>
      <path fill="none" d="M380.1257 910.4408 L375.1257 903.4408 L380.1257 896.4408 L385.1257 903.4408 Z" clip-path="url(#clipPath2)"/>
      <path fill="none" d="M395.1606 729.048 L564.98 729.048" clip-path="url(#clipPath2)"/>
      <path d="M572.98 729.048 L560.98 724.048 L563.98 729.048 L560.98 734.048 Z" clip-path="url(#clipPath2)" stroke="none"/>
      <path fill="none" stroke-dasharray="6,2" d="M588.0018 591.62 L588.0018 697.2717" clip-path="url(#clipPath2)"/>
      <path fill="none" stroke-dasharray="6,2" d="M572.9854 842.2746 L403.1328 842.2746" clip-path="url(#clipPath2)"/>
      <path stroke-dasharray="6,2" d="M395.1328 842.2746 L407.1328 847.2746 L404.1328 842.2746 L407.1328 837.2746 Z" clip-path="url(#clipPath2)" stroke="none"/>
      <text x="446.6077" xml:space="preserve" y="816.4289" clip-path="url(#clipPath2)" font-family="sans-serif" stroke="none">OK &amp; Unlock</text>
      <path fill="none" stroke-dasharray="6,2" d="M588.0018 859.2494 L588.0018 903.4408" clip-path="url(#clipPath2)"/>
      <path fill="white" stroke-dasharray="6,2" d="M588.0018 910.4408 L583.0018 903.4408 L588.0018 896.4408 L593.0018 903.4408 Z" clip-path="url(#clipPath2)" stroke="none"/>
      <path fill="none" d="M588.0018 910.4408 L583.0018 903.4408 L588.0018 896.4408 L593.0018 903.4408 Z" clip-path="url(#clipPath2)"/>
      <path fill="none" d="M603.0334 714.9595 L757.3441 714.9595" clip-path="url(#clipPath2)"/>
      <path d="M765.3441 714.9595 L753.3441 709.9595 L756.3441 714.9595 L753.3441 719.9595 Z" clip-path="url(#clipPath2)" stroke="none"/>
      <text x="659.9441" xml:space="preserve" y="689.1138" clip-path="url(#clipPath2)" font-family="sans-serif" stroke="none">Proceed</text>
      <path fill="none" stroke-dasharray="6,2" d="M780.3786 413.0603 L780.3786 697.2668" clip-path="url(#clipPath2)"/>
      <path fill="none" stroke-dasharray="6,2" d="M765.3681 778.2303 L611.0277 778.2303" clip-path="url(#clipPath2)"/>
      <path stroke-dasharray="6,2" d="M603.0277 778.2303 L615.0277 783.2303 L612.0277 778.2303 L615.0277 773.2303 Z" clip-path="url(#clipPath2)" stroke="none"/>
      <text x="668.405" xml:space="preserve" y="752.3846" clip-path="url(#clipPath2)" font-family="sans-serif" stroke="none">Done</text>
      <path fill="none" d="M603.0391 806.4608 L926.5923 806.4608" clip-path="url(#clipPath2)"/>
      <path d="M934.5923 806.4608 L922.5923 801.4608 L925.5923 806.4608 L922.5923 811.4608 Z" clip-path="url(#clipPath2)" stroke="none"/>
      <text x="834.5691" xml:space="preserve" y="780.6151" clip-path="url(#clipPath2)" font-family="sans-serif" stroke="none">Proceed</text>
      <path fill="none" stroke-dasharray="6,2" d="M949.6286 662.8528 L949.6286 791.4822" clip-path="url(#clipPath2)"/>
      <path fill="none" stroke-dasharray="6,2" d="M934.5888 841.7921 L611.017 841.7921" clip-path="url(#clipPath2)"/>
      <path stroke-dasharray="6,2" d="M603.017 841.7921 L615.017 846.7921 L612.017 841.7921 L615.017 836.7921 Z" clip-path="url(#clipPath2)" stroke="none"/>
      <text x="841.03" xml:space="preserve" y="875.9464" clip-path="url(#clipPath2)" font-family="sans-serif" stroke="none">Done</text>
      <path fill="none" stroke-dasharray="6,2" d="M780.3786 787.254 L780.3786 903.4408" clip-path="url(#clipPath2)"/>
      <path fill="white" stroke-dasharray="6,2" d="M780.3786 910.4408 L775.3786 903.4408 L780.3786 896.4408 L785.3786 903.4408 Z" clip-path="url(#clipPath2)" stroke="none"/>
      <path fill="none" d="M780.3786 910.4408 L775.3786 903.4408 L780.3786 896.4408 L785.3786 903.4408 Z" clip-path="url(#clipPath2)"/>
      <path fill="none" stroke-dasharray="6,2" d="M949.6286 853.4523 L949.6286 903.4408" clip-path="url(#clipPath2)"/>
      <path fill="white" stroke-dasharray="6,2" d="M949.6286 910.4408 L944.6286 903.4408 L949.6286 896.4408 L954.6286 903.4408 Z" clip-path="url(#clipPath2)" stroke="none"/>
      <path fill="none" d="M949.6286 910.4408 L944.6286 903.4408 L949.6286 896.4408 L954.6286 903.4408 Z" clip-path="url(#clipPath2)"/>
    </g>
  </g>
</svg>
