<?xml version="1.0" encoding="UTF-8"?><svg xmlns="http://www.w3.org/2000/svg" xmlns:xlink="http://www.w3.org/1999/xlink" fill-opacity="1" color-rendering="auto" color-interpolation="auto" text-rendering="auto" stroke="black" stroke-linecap="square" width="469" stroke-miterlimit="10" shape-rendering="auto" stroke-opacity="1" fill="black" stroke-dasharray="none" font-weight="normal" stroke-width="1" height="399" font-family="'Dialog'" font-style="normal" stroke-linejoin="miter" font-size="12px" stroke-dashoffset="0" image-rendering="auto">
  <!--Generated by ySVG 2.6-->
  <defs id="genericDefs"/>
  <g>
    <defs id="defs1">
      <clipPath clipPathUnits="userSpaceOnUse" id="clipPath1">
        <path d="M0 0 L469 0 L469 399 L0 399 L0 0 Z"/>
      </clipPath>
      <clipPath clipPathUnits="userSpaceOnUse" id="clipPath2">
        <path d="M90 -165 L559 -165 L559 234 L90 234 L90 -165 Z"/>
      </clipPath>
    </defs>
    <g fill="white" text-rendering="geometricPrecision" shape-rendering="geometricPrecision" transform="translate(-90,165)" stroke="white">
      <rect x="90" width="469" height="399" y="-165" clip-path="url(#clipPath2)" stroke="none"/>
    </g>
    <g text-rendering="geometricPrecision" stroke-miterlimit="1.45" shape-rendering="geometricPrecision" transform="matrix(1,0,0,1,-90,165)" stroke-linecap="butt">
      <rect x="105.2" y="-127.4" clip-path="url(#clipPath2)" fill="none" width="438" rx="4" ry="4" height="261.2"/>
      <text x="437.3621" xml:space="preserve" y="-136.2301" clip-path="url(#clipPath2)" font-family="sans-serif" stroke="none">Kubling Instance</text>
    </g>
    <g fill="rgb(255,204,0)" text-rendering="geometricPrecision" shape-rendering="geometricPrecision" transform="matrix(1,0,0,1,-90,165)" stroke="rgb(255,204,0)">
      <rect x="155.2" y="-102.2" clip-path="url(#clipPath2)" width="342" rx="4" ry="4" height="31" stroke="none"/>
    </g>
    <g text-rendering="geometricPrecision" stroke-miterlimit="1.45" shape-rendering="geometricPrecision" transform="matrix(1,0,0,1,-90,165)" stroke-linecap="butt">
      <rect x="155.2" y="-102.2" clip-path="url(#clipPath2)" fill="none" width="342" rx="4" ry="4" height="31"/>
      <text x="266.7186" xml:space="preserve" y="-82.5457" clip-path="url(#clipPath2)" font-family="sans-serif" stroke="none">Connection Handler</text>
    </g>
    <g fill="rgb(51,153,102)" text-rendering="geometricPrecision" shape-rendering="geometricPrecision" transform="matrix(1,0,0,1,-90,165)" stroke="rgb(51,153,102)">
      <rect x="155.2" y="-41.2" clip-path="url(#clipPath2)" width="342" rx="4" ry="4" height="31" stroke="none"/>
    </g>
    <g text-rendering="geometricPrecision" stroke-miterlimit="1.45" shape-rendering="geometricPrecision" transform="matrix(1,0,0,1,-90,165)" stroke-linecap="butt">
      <rect x="155.2" y="-41.2" clip-path="url(#clipPath2)" fill="none" width="342" rx="4" ry="4" height="31"/>
      <text x="251.6248" y="-21.5457" clip-path="url(#clipPath2)" fill="white" font-family="sans-serif" stroke="none" xml:space="preserve">Soft Transaction Context</text>
    </g>
    <g fill="rgb(255,204,0)" text-rendering="geometricPrecision" shape-rendering="geometricPrecision" transform="matrix(1,0,0,1,-90,165)" stroke="rgb(255,204,0)">
      <rect x="155.2" y="19.8" clip-path="url(#clipPath2)" width="125" rx="4" ry="4" height="31" stroke="none"/>
    </g>
    <g text-rendering="geometricPrecision" stroke-miterlimit="1.45" shape-rendering="geometricPrecision" transform="matrix(1,0,0,1,-90,165)" stroke-linecap="butt">
      <rect x="155.2" y="19.8" clip-path="url(#clipPath2)" fill="none" width="125" rx="4" ry="4" height="31"/>
      <text x="187.1287" xml:space="preserve" y="39.4543" clip-path="url(#clipPath2)" font-family="sans-serif" stroke="none">Translator</text>
    </g>
    <g fill="rgb(255,204,0)" text-rendering="geometricPrecision" shape-rendering="geometricPrecision" transform="matrix(1,0,0,1,-90,165)" stroke="rgb(255,204,0)">
      <rect x="155.2" y="77.3" clip-path="url(#clipPath2)" width="125" rx="4" ry="4" height="31" stroke="none"/>
    </g>
    <g text-rendering="geometricPrecision" stroke-miterlimit="1.45" shape-rendering="geometricPrecision" transform="matrix(1,0,0,1,-90,165)" stroke-linecap="butt">
      <rect x="155.2" y="77.3" clip-path="url(#clipPath2)" fill="none" width="125" rx="4" ry="4" height="31"/>
      <text x="184.1082" xml:space="preserve" y="96.9543" clip-path="url(#clipPath2)" font-family="sans-serif" stroke="none">TX Adapter</text>
    </g>
    <g fill="rgb(255,204,0)" text-rendering="geometricPrecision" shape-rendering="geometricPrecision" transform="matrix(1,0,0,1,-90,165)" stroke="rgb(255,204,0)">
      <rect x="374.2" y="19.8" clip-path="url(#clipPath2)" width="125" rx="4" ry="4" height="31" stroke="none"/>
    </g>
    <g text-rendering="geometricPrecision" stroke-miterlimit="1.45" shape-rendering="geometricPrecision" transform="matrix(1,0,0,1,-90,165)" stroke-linecap="butt">
      <rect x="374.2" y="19.8" clip-path="url(#clipPath2)" fill="none" width="125" rx="4" ry="4" height="31"/>
      <text x="406.1287" xml:space="preserve" y="39.4543" clip-path="url(#clipPath2)" font-family="sans-serif" stroke="none">Translator</text>
    </g>
    <g fill="rgb(51,153,102)" text-rendering="geometricPrecision" shape-rendering="geometricPrecision" transform="matrix(1,0,0,1,-90,165)" stroke="rgb(51,153,102)">
      <rect x="374.2" y="77.3" clip-path="url(#clipPath2)" width="125" rx="4" ry="4" height="31" stroke="none"/>
    </g>
    <g text-rendering="geometricPrecision" stroke-miterlimit="1.45" shape-rendering="geometricPrecision" transform="matrix(1,0,0,1,-90,165)" stroke-linecap="butt">
      <rect x="374.2" y="77.3" clip-path="url(#clipPath2)" fill="none" width="125" rx="4" ry="4" height="31"/>
      <text x="388.9813" y="96.9543" clip-path="url(#clipPath2)" fill="white" font-family="sans-serif" stroke="none" xml:space="preserve">Non-TX Adapter</text>
    </g>
    <g fill="rgb(255,204,0)" text-rendering="geometricPrecision" shape-rendering="geometricPrecision" transform="matrix(1,0,0,1,-90,165)" stroke="rgb(255,204,0)">
      <path d="M157.2 157.9608 L266.0999 157.9608 L278.1999 218.9607 L169.2999 218.9607 Z" fill-rule="evenodd" clip-path="url(#clipPath2)" stroke="none"/>
    </g>
    <g text-rendering="geometricPrecision" stroke-miterlimit="1.45" shape-rendering="geometricPrecision" transform="matrix(1,0,0,1,-90,165)" stroke-linecap="butt">
      <path fill="none" d="M157.2 157.9608 L266.0999 157.9608 L278.1999 218.9607 L169.2999 218.9607 Z" fill-rule="evenodd" clip-path="url(#clipPath2)"/>
      <text x="182.6902" xml:space="preserve" y="185.6307" clip-path="url(#clipPath2)" font-family="sans-serif" stroke="none">TX Remote </text>
      <text x="180.7273" xml:space="preserve" y="199.5995" clip-path="url(#clipPath2)" font-family="sans-serif" stroke="none">Data Source</text>
    </g>
    <g fill="rgb(51,153,102)" text-rendering="geometricPrecision" shape-rendering="geometricPrecision" transform="matrix(1,0,0,1,-90,165)" stroke="rgb(51,153,102)">
      <path d="M376.1997 157.9606 L485.0998 157.9606 L497.1998 218.9609 L388.2997 218.9609 Z" fill-rule="evenodd" clip-path="url(#clipPath2)" stroke="none"/>
    </g>
    <g text-rendering="geometricPrecision" stroke-miterlimit="1.45" shape-rendering="geometricPrecision" transform="matrix(1,0,0,1,-90,165)" stroke-linecap="butt">
      <path fill="none" d="M376.1997 157.9606 L485.0998 157.9606 L497.1998 218.9609 L388.2997 218.9609 Z" fill-rule="evenodd" clip-path="url(#clipPath2)"/>
      <text x="387.5633" y="185.6307" clip-path="url(#clipPath2)" fill="white" font-family="sans-serif" stroke="none" xml:space="preserve">Non-TX Remote </text>
      <text x="399.7274" y="199.5995" clip-path="url(#clipPath2)" fill="white" font-family="sans-serif" stroke="none" xml:space="preserve">Data Source</text>
      <path fill="none" d="M326.2 -71.1819 L326.2 -49.2012" clip-path="url(#clipPath2)"/>
      <path d="M326.2 -41.2012 L331.2 -53.2012 L326.2 -50.2012 L321.2 -53.2012 Z" clip-path="url(#clipPath2)" stroke="none"/>
      <path fill="none" d="M217.7 -10.1724 L217.7 11.8021" clip-path="url(#clipPath2)"/>
      <path d="M217.7 19.8021 L222.7 7.8021 L217.7 10.8021 L212.7 7.8021 Z" clip-path="url(#clipPath2)" stroke="none"/>
      <path fill="none" d="M217.7 50.8261 L217.7 69.2647" clip-path="url(#clipPath2)"/>
      <path d="M217.7 77.2647 L222.7 65.2647 L217.7 68.2647 L212.7 65.2647 Z" clip-path="url(#clipPath2)" stroke="none"/>
      <path fill="none" d="M436.7 -10.1947 L436.7 11.7945" clip-path="url(#clipPath2)"/>
      <path d="M436.7 19.7945 L441.7 7.7945 L436.7 10.7945 L431.7 7.7945 Z" clip-path="url(#clipPath2)" stroke="none"/>
      <path fill="none" d="M436.7 50.8261 L436.7 69.2647" clip-path="url(#clipPath2)"/>
      <path d="M436.7 77.2647 L441.7 65.2647 L436.7 68.2647 L431.7 65.2647 Z" clip-path="url(#clipPath2)" stroke="none"/>
      <path fill="none" stroke-dasharray="6,2" d="M217.7 108.2608 L217.7 149.955" clip-path="url(#clipPath2)"/>
      <path stroke-dasharray="6,2" d="M217.7 157.955 L222.7 145.955 L217.7 148.955 L212.7 145.955 Z" clip-path="url(#clipPath2)" stroke="none"/>
      <path fill="none" stroke-dasharray="6,2" d="M436.7 108.2608 L436.7 149.955" clip-path="url(#clipPath2)"/>
      <path stroke-dasharray="6,2" d="M436.7 157.955 L441.7 145.955 L436.7 148.955 L431.7 145.955 Z" clip-path="url(#clipPath2)" stroke="none"/>
    </g>
  </g>
</svg>
