<?xml version="1.0" encoding="UTF-8"?><svg xmlns="http://www.w3.org/2000/svg" xmlns:xlink="http://www.w3.org/1999/xlink" fill-opacity="1" color-rendering="auto" color-interpolation="auto" text-rendering="auto" stroke="black" stroke-linecap="square" width="1095" stroke-miterlimit="10" shape-rendering="auto" stroke-opacity="1" fill="black" stroke-dasharray="none" font-weight="normal" stroke-width="1" height="228" font-family="'Dialog'" font-style="normal" stroke-linejoin="miter" font-size="12px" stroke-dashoffset="0" image-rendering="auto">
  <!--Generated by ySVG 2.6-->
  <defs id="genericDefs"/>
  <g>
    <defs id="defs1">
      <clipPath clipPathUnits="userSpaceOnUse" id="clipPath1">
        <path d="M0 0 L1095 0 L1095 228 L0 228 L0 0 Z"/>
      </clipPath>
      <clipPath clipPathUnits="userSpaceOnUse" id="clipPath2">
        <path d="M40 66 L1135 66 L1135 294 L40 294 L40 66 Z"/>
      </clipPath>
    </defs>
    <g fill="white" text-rendering="geometricPrecision" shape-rendering="geometricPrecision" transform="translate(-40,-66)" stroke="white">
      <rect x="40" width="1095" height="228" y="66" clip-path="url(#clipPath2)" stroke="none"/>
    </g>
    <g fill="rgb(255,204,0)" text-rendering="geometricPrecision" shape-rendering="geometricPrecision" transform="matrix(1,0,0,1,-40,-66)" stroke="rgb(255,204,0)">
      <rect x="237.5007" width="121.25" height="45" y="105.012" clip-path="url(#clipPath2)" stroke="none"/>
    </g>
    <g text-rendering="geometricPrecision" stroke-miterlimit="1.45" shape-rendering="geometricPrecision" transform="matrix(1,0,0,1,-40,-66)" stroke-linecap="butt">
      <rect fill="none" x="237.5007" width="121.25" height="45" y="105.012" clip-path="url(#clipPath2)"/>
      <text x="246.9206" y="131.6663" clip-path="url(#clipPath2)" font-family="sans-serif" stroke="none" font-weight="bold" xml:space="preserve">User Command</text>
    </g>
    <g fill="rgb(38,166,154)" text-rendering="geometricPrecision" shape-rendering="geometricPrecision" transform="matrix(1,0,0,1,-40,-66)" stroke="rgb(38,166,154)">
      <rect x="55" width="79" height="45" y="105.012" clip-path="url(#clipPath2)" stroke="none"/>
    </g>
    <g text-rendering="geometricPrecision" stroke-miterlimit="1.45" shape-rendering="geometricPrecision" transform="matrix(1,0,0,1,-40,-66)" stroke-linecap="butt">
      <rect fill="none" x="55" width="79" height="45" y="105.012" clip-path="url(#clipPath2)"/>
    </g>
    <g stroke-linecap="butt" transform="matrix(1,0,0,1,-40,-66)" fill="white" text-rendering="geometricPrecision" font-family="sans-serif" shape-rendering="geometricPrecision" stroke="white" font-weight="bold" stroke-miterlimit="1.45">
      <text x="74.7744" xml:space="preserve" y="131.6663" clip-path="url(#clipPath2)" stroke="none">Client</text>
    </g>
    <g fill="rgb(255,204,0)" text-rendering="geometricPrecision" shape-rendering="geometricPrecision" transform="matrix(1,0,0,1,-40,-66)" stroke="rgb(255,204,0)">
      <rect x="631.0014" width="121.25" height="45" y="105.012" clip-path="url(#clipPath2)" stroke="none"/>
    </g>
    <g text-rendering="geometricPrecision" stroke-miterlimit="1.45" shape-rendering="geometricPrecision" transform="matrix(1,0,0,1,-40,-66)" stroke-linecap="butt">
      <rect fill="none" x="631.0014" width="121.25" height="45" y="105.012" clip-path="url(#clipPath2)"/>
      <text x="661.0552" xml:space="preserve" y="131.6663" clip-path="url(#clipPath2)" font-family="sans-serif" stroke="none">Translator</text>
    </g>
    <g fill="rgb(255,204,0)" text-rendering="geometricPrecision" shape-rendering="geometricPrecision" transform="matrix(1,0,0,1,-40,-66)" stroke="rgb(255,204,0)">
      <rect x="811.5022" width="127.25" height="45" y="105.012" clip-path="url(#clipPath2)" stroke="none"/>
    </g>
    <g text-rendering="geometricPrecision" stroke-miterlimit="1.45" shape-rendering="geometricPrecision" transform="matrix(1,0,0,1,-40,-66)" stroke-linecap="butt">
      <rect fill="none" x="811.5022" width="127.25" height="45" y="105.012" clip-path="url(#clipPath2)"/>
      <text x="816.0939" y="131.6663" clip-path="url(#clipPath2)" font-family="sans-serif" stroke="none" font-weight="bold" xml:space="preserve">Source Command</text>
    </g>
    <g fill="rgb(255,204,0)" text-rendering="geometricPrecision" shape-rendering="geometricPrecision" transform="matrix(1,0,0,1,-40,-66)" stroke="rgb(255,204,0)">
      <path d="M998.0029 105.012 L1107.1279 105.012 L1119.2529 150.012 L1010.1279 150.012 Z" fill-rule="evenodd" clip-path="url(#clipPath2)" stroke="none"/>
    </g>
    <g text-rendering="geometricPrecision" stroke-miterlimit="1.45" shape-rendering="geometricPrecision" transform="matrix(1,0,0,1,-40,-66)" stroke-linecap="butt">
      <path fill="none" d="M998.0029 105.012 L1107.1279 105.012 L1119.2529 150.012 L1010.1279 150.012 Z" fill-rule="evenodd" clip-path="url(#clipPath2)"/>
      <text x="1033.3008" xml:space="preserve" y="124.6819" clip-path="url(#clipPath2)" font-family="sans-serif" stroke="none">Remote </text>
      <text x="1021.6552" xml:space="preserve" y="138.6507" clip-path="url(#clipPath2)" font-family="sans-serif" stroke="none">Data Source</text>
    </g>
    <g fill="rgb(255,204,0)" text-rendering="geometricPrecision" shape-rendering="geometricPrecision" transform="matrix(1,0,0,1,-40,-66)" stroke="rgb(255,204,0)">
      <rect x="811.5022" width="127.25" height="45" y="169.024" clip-path="url(#clipPath2)" stroke="none"/>
    </g>
    <g text-rendering="geometricPrecision" stroke-miterlimit="1.45" shape-rendering="geometricPrecision" transform="matrix(1,0,0,1,-40,-66)" stroke-linecap="butt">
      <rect fill="none" x="811.5022" width="127.25" height="45" y="169.024" clip-path="url(#clipPath2)"/>
      <text x="816.0939" y="195.6783" clip-path="url(#clipPath2)" font-family="sans-serif" stroke="none" font-weight="bold" xml:space="preserve">Source Command</text>
    </g>
    <g fill="rgb(255,204,0)" text-rendering="geometricPrecision" shape-rendering="geometricPrecision" transform="matrix(1,0,0,1,-40,-66)" stroke="rgb(255,204,0)">
      <rect x="811.5022" width="127.25" height="45" y="233.036" clip-path="url(#clipPath2)" stroke="none"/>
    </g>
    <g text-rendering="geometricPrecision" stroke-miterlimit="1.45" shape-rendering="geometricPrecision" transform="matrix(1,0,0,1,-40,-66)" stroke-linecap="butt">
      <rect fill="none" x="811.5022" width="127.25" height="45" y="233.036" clip-path="url(#clipPath2)"/>
      <text x="816.0939" y="259.6903" clip-path="url(#clipPath2)" font-family="sans-serif" stroke="none" font-weight="bold" xml:space="preserve">Source Command</text>
    </g>
    <g fill="rgb(255,204,0)" text-rendering="geometricPrecision" shape-rendering="geometricPrecision" transform="matrix(1,0,0,1,-40,-66)" stroke="rgb(255,204,0)">
      <rect x="434.2511" width="121.25" height="45" y="105.012" clip-path="url(#clipPath2)" stroke="none"/>
    </g>
    <g text-rendering="geometricPrecision" stroke-miterlimit="1.45" shape-rendering="geometricPrecision" transform="matrix(1,0,0,1,-40,-66)" stroke-linecap="butt">
      <rect fill="none" x="434.2511" width="121.25" height="45" y="105.012" clip-path="url(#clipPath2)"/>
      <text x="481.9151" xml:space="preserve" y="131.6663" clip-path="url(#clipPath2)" font-family="sans-serif" stroke="none">DQP</text>
    </g>
    <g fill="rgb(255,204,0)" text-rendering="geometricPrecision" shape-rendering="geometricPrecision" transform="matrix(1,0,0,1,-40,-66)" stroke="rgb(255,204,0)">
      <rect x="631.0014" width="121.25" height="45" y="169.024" clip-path="url(#clipPath2)" stroke="none"/>
    </g>
    <g text-rendering="geometricPrecision" stroke-miterlimit="1.45" shape-rendering="geometricPrecision" transform="matrix(1,0,0,1,-40,-66)" stroke-linecap="butt">
      <rect fill="none" x="631.0014" width="121.25" height="45" y="169.024" clip-path="url(#clipPath2)"/>
      <text x="661.0552" xml:space="preserve" y="195.6783" clip-path="url(#clipPath2)" font-family="sans-serif" stroke="none">Translator</text>
    </g>
    <g fill="rgb(255,204,0)" text-rendering="geometricPrecision" shape-rendering="geometricPrecision" transform="matrix(1,0,0,1,-40,-66)" stroke="rgb(255,204,0)">
      <rect x="631.0014" width="121.25" height="45" y="233.036" clip-path="url(#clipPath2)" stroke="none"/>
    </g>
    <g text-rendering="geometricPrecision" stroke-miterlimit="1.45" shape-rendering="geometricPrecision" transform="matrix(1,0,0,1,-40,-66)" stroke-linecap="butt">
      <rect fill="none" x="631.0014" width="121.25" height="45" y="233.036" clip-path="url(#clipPath2)"/>
      <text x="661.0552" xml:space="preserve" y="259.6903" clip-path="url(#clipPath2)" font-family="sans-serif" stroke="none">Translator</text>
    </g>
    <g fill="rgb(255,204,0)" text-rendering="geometricPrecision" shape-rendering="geometricPrecision" transform="matrix(1,0,0,1,-40,-66)" stroke="rgb(255,204,0)">
      <path d="M998.0029 169.024 L1107.1278 169.024 L1119.2528 214.024 L1010.1279 214.024 Z" fill-rule="evenodd" clip-path="url(#clipPath2)" stroke="none"/>
    </g>
    <g text-rendering="geometricPrecision" stroke-miterlimit="1.45" shape-rendering="geometricPrecision" transform="matrix(1,0,0,1,-40,-66)" stroke-linecap="butt">
      <path fill="none" d="M998.0029 169.024 L1107.1278 169.024 L1119.2528 214.024 L1010.1279 214.024 Z" fill-rule="evenodd" clip-path="url(#clipPath2)"/>
      <text x="1033.3008" xml:space="preserve" y="188.6939" clip-path="url(#clipPath2)" font-family="sans-serif" stroke="none">Remote </text>
      <text x="1021.6552" xml:space="preserve" y="202.6627" clip-path="url(#clipPath2)" font-family="sans-serif" stroke="none">Data Source</text>
    </g>
    <g fill="rgb(255,204,0)" text-rendering="geometricPrecision" shape-rendering="geometricPrecision" transform="matrix(1,0,0,1,-40,-66)" stroke="rgb(255,204,0)">
      <path d="M998.0029 233.036 L1107.1278 233.036 L1119.2528 278.036 L1010.1279 278.036 Z" fill-rule="evenodd" clip-path="url(#clipPath2)" stroke="none"/>
    </g>
    <g text-rendering="geometricPrecision" stroke-miterlimit="1.45" shape-rendering="geometricPrecision" transform="matrix(1,0,0,1,-40,-66)" stroke-linecap="butt">
      <path fill="none" d="M998.0029 233.036 L1107.1278 233.036 L1119.2528 278.036 L1010.1279 278.036 Z" fill-rule="evenodd" clip-path="url(#clipPath2)"/>
      <text x="1033.3008" xml:space="preserve" y="252.7059" clip-path="url(#clipPath2)" font-family="sans-serif" stroke="none">Remote </text>
      <text x="1021.6552" xml:space="preserve" y="266.6747" clip-path="url(#clipPath2)" font-family="sans-serif" stroke="none">Data Source</text>
      <path fill="none" stroke-dasharray="6,2" d="M134 127.512 L229.5007 127.512" clip-path="url(#clipPath2)"/>
      <path stroke-dasharray="6,2" d="M237.5007 127.512 L225.5007 122.512 L228.5007 127.512 L225.5007 132.512 Z" clip-path="url(#clipPath2)" stroke="none"/>
      <text x="141" xml:space="preserve" y="94.6819" clip-path="url(#clipPath2)" font-family="sans-serif" stroke="none">Native/Psql </text>
      <text x="152.1592" xml:space="preserve" y="108.6507" clip-path="url(#clipPath2)" font-family="sans-serif" stroke="none">Protocol</text>
      <path fill="none" d="M752.2515 127.512 L803.5021 127.512" clip-path="url(#clipPath2)"/>
      <path d="M811.5021 127.512 L799.5021 122.512 L802.5021 127.512 L799.5021 132.512 Z" clip-path="url(#clipPath2)" stroke="none"/>
      <path fill="none" stroke-dasharray="6,2" d="M938.7521 127.512 L996.0458 127.512" clip-path="url(#clipPath2)"/>
      <path stroke-dasharray="6,2" d="M1004.0458 127.512 L992.0458 122.512 L995.0458 127.512 L992.0458 132.512 Z" clip-path="url(#clipPath2)" stroke="none"/>
      <path fill="none" d="M358.7507 127.512 L426.2511 127.512" clip-path="url(#clipPath2)"/>
      <path d="M434.2511 127.512 L422.2511 122.512 L425.2511 127.512 L422.2511 132.512 Z" clip-path="url(#clipPath2)" stroke="none"/>
      <path fill="none" d="M555.5011 127.512 L623.0015 127.512" clip-path="url(#clipPath2)"/>
      <path d="M631.0015 127.512 L619.0015 122.512 L622.0015 127.512 L619.0015 132.512 Z" clip-path="url(#clipPath2)" stroke="none"/>
      <path fill="none" d="M494.8761 150.012 L494.8761 191.524 L623.0015 191.524" clip-path="url(#clipPath2)"/>
      <path d="M631.0015 191.524 L619.0015 186.524 L622.0015 191.524 L619.0015 196.524 Z" clip-path="url(#clipPath2)" stroke="none"/>
      <path fill="none" d="M752.2515 191.524 L803.5021 191.524" clip-path="url(#clipPath2)"/>
      <path d="M811.5021 191.524 L799.5021 186.524 L802.5021 191.524 L799.5021 196.524 Z" clip-path="url(#clipPath2)" stroke="none"/>
      <path fill="none" d="M494.8761 150.012 L494.8761 255.536 L623.0015 255.536" clip-path="url(#clipPath2)"/>
      <path d="M631.0015 255.536 L619.0015 250.536 L622.0015 255.536 L619.0015 260.536 Z" clip-path="url(#clipPath2)" stroke="none"/>
      <path fill="none" d="M752.2515 255.536 L803.5021 255.536" clip-path="url(#clipPath2)"/>
      <path d="M811.5021 255.536 L799.5021 250.536 L802.5021 255.536 L799.5021 260.536 Z" clip-path="url(#clipPath2)" stroke="none"/>
      <path fill="none" stroke-dasharray="6,2" d="M938.7521 191.524 L996.0458 191.524" clip-path="url(#clipPath2)"/>
      <path stroke-dasharray="6,2" d="M1004.0458 191.524 L992.0458 186.524 L995.0458 191.524 L992.0458 196.524 Z" clip-path="url(#clipPath2)" stroke="none"/>
      <path fill="none" stroke-dasharray="6,2" d="M938.7521 255.536 L996.0458 255.536" clip-path="url(#clipPath2)"/>
      <path stroke-dasharray="6,2" d="M1004.0458 255.536 L992.0458 250.536 L995.0458 255.536 L992.0458 260.536 Z" clip-path="url(#clipPath2)" stroke="none"/>
    </g>
  </g>
</svg>
