<?xml version="1.0" encoding="UTF-8"?><svg xmlns="http://www.w3.org/2000/svg" xmlns:xlink="http://www.w3.org/1999/xlink" fill-opacity="1" color-rendering="auto" color-interpolation="auto" text-rendering="auto" stroke="black" stroke-linecap="square" width="637" stroke-miterlimit="10" shape-rendering="auto" stroke-opacity="1" fill="black" stroke-dasharray="none" font-weight="normal" stroke-width="1" height="260" font-family="'Dialog'" font-style="normal" stroke-linejoin="miter" font-size="12px" stroke-dashoffset="0" image-rendering="auto">
  <!--Generated by ySVG 2.6-->
  <defs id="genericDefs"/>
  <g>
    <defs id="defs1">
      <clipPath clipPathUnits="userSpaceOnUse" id="clipPath1">
        <path d="M0 0 L637 0 L637 260 L0 260 L0 0 Z"/>
      </clipPath>
      <clipPath clipPathUnits="userSpaceOnUse" id="clipPath2">
        <path d="M266 57 L903 57 L903 317 L266 317 L266 57 Z"/>
      </clipPath>
    </defs>
    <g fill="white" text-rendering="geometricPrecision" shape-rendering="geometricPrecision" transform="translate(-266,-57)" stroke="white">
      <rect x="266" width="637" height="260" y="57" clip-path="url(#clipPath2)" stroke="none"/>
    </g>
    <g fill="rgb(38,166,154)" text-rendering="geometricPrecision" shape-rendering="geometricPrecision" transform="matrix(1,0,0,1,-266,-57)" stroke="rgb(38,166,154)">
      <rect x="281" y="72" clip-path="url(#clipPath2)" width="383" rx="4" ry="4" height="202" stroke="none"/>
    </g>
    <g text-rendering="geometricPrecision" stroke-miterlimit="1.45" shape-rendering="geometricPrecision" transform="matrix(1,0,0,1,-266,-57)" stroke-linecap="butt">
      <rect x="281" y="72" clip-path="url(#clipPath2)" fill="none" width="383" rx="4" ry="4" height="202"/>
      <text x="415.5762" y="297.1543" clip-path="url(#clipPath2)" font-family="sans-serif" stroke="none" font-weight="bold" xml:space="preserve">Virtual Database</text>
    </g>
    <g fill="rgb(255,204,0)" text-rendering="geometricPrecision" shape-rendering="geometricPrecision" transform="matrix(1,0,0,1,-266,-57)" stroke="rgb(255,204,0)">
      <rect x="306" width="333" height="46" y="89" clip-path="url(#clipPath2)" stroke="none"/>
    </g>
    <g text-rendering="geometricPrecision" stroke-miterlimit="1.45" shape-rendering="geometricPrecision" transform="matrix(1,0,0,1,-266,-57)" stroke-linecap="butt">
      <rect fill="none" x="306" width="333" height="46" y="89" clip-path="url(#clipPath2)"/>
      <text x="426.7324" xml:space="preserve" y="116.1543" clip-path="url(#clipPath2)" font-family="sans-serif" stroke="none">Virtual Schema</text>
    </g>
    <g fill="rgb(255,204,0)" text-rendering="geometricPrecision" shape-rendering="geometricPrecision" transform="matrix(1,0,0,1,-266,-57)" stroke="rgb(255,204,0)">
      <rect x="306" width="333" height="46" y="194" clip-path="url(#clipPath2)" stroke="none"/>
    </g>
    <g text-rendering="geometricPrecision" stroke-miterlimit="1.45" shape-rendering="geometricPrecision" transform="matrix(1,0,0,1,-266,-57)" stroke-linecap="butt">
      <rect fill="none" x="306" width="333" height="46" y="194" clip-path="url(#clipPath2)"/>
      <text x="434.3467" xml:space="preserve" y="214.1699" clip-path="url(#clipPath2)" font-family="sans-serif" stroke="none">Virtual Table</text>
      <text x="445.2598" xml:space="preserve" y="228.1387" clip-path="url(#clipPath2)" font-family="sans-serif" stroke="none">(Foreign)</text>
    </g>
    <g fill="rgb(255,204,0)" text-rendering="geometricPrecision" shape-rendering="geometricPrecision" transform="matrix(1,0,0,1,-266,-57)" stroke="rgb(255,204,0)">
      <rect x="750" width="138" height="46" y="194" clip-path="url(#clipPath2)" stroke="none"/>
    </g>
    <g text-rendering="geometricPrecision" stroke-miterlimit="1.45" shape-rendering="geometricPrecision" transform="matrix(1,0,0,1,-266,-57)" stroke-linecap="butt">
      <rect fill="none" x="750" width="138" height="46" y="194" clip-path="url(#clipPath2)"/>
      <text x="776.1562" xml:space="preserve" y="221.1543" clip-path="url(#clipPath2)" font-family="sans-serif" stroke="none">Remote Entity</text>
      <path fill="none" stroke-dasharray="6,2" d="M472.5 135 L472.5 186" clip-path="url(#clipPath2)"/>
      <path stroke-dasharray="6,2" d="M472.5 194 L477.5 182 L472.5 185 L467.5 182 Z" clip-path="url(#clipPath2)" stroke="none"/>
      <rect x="440.8867" y="155.5156" clip-path="url(#clipPath2)" fill="rgb(38,166,154)" width="63.2266" stroke-dasharray="6,2" height="17.9688" stroke="none"/>
    </g>
    <g stroke-linecap="butt" transform="matrix(1,0,0,1,-266,-57)" fill="white" text-rendering="geometricPrecision" font-family="sans-serif" shape-rendering="geometricPrecision" stroke="white" font-weight="bold" stroke-miterlimit="1.45">
      <text x="442.8867" xml:space="preserve" y="168.6543" clip-path="url(#clipPath2)" stroke="none">Contains</text>
    </g>
    <g text-rendering="geometricPrecision" stroke-miterlimit="1.45" stroke-dasharray="6,2" shape-rendering="geometricPrecision" transform="matrix(1,0,0,1,-266,-57)" stroke-linecap="butt">
      <path fill="none" d="M639 217 L742 217" clip-path="url(#clipPath2)"/>
      <path d="M750 217 L738 212 L741 217 L738 222 Z" clip-path="url(#clipPath2)" stroke="none"/>
      <text x="675.5176" y="251.1543" clip-path="url(#clipPath2)" font-family="sans-serif" stroke-dasharray="none" stroke="none" xml:space="preserve">References</text>
    </g>
  </g>
</svg>
